<?xml version="1.0" encoding="UTF-8"?>
<!DOCTYPE svg  PUBLIC '-//W3C//DTD SVG 1.1//EN'  'http://www.w3.org/Graphics/SVG/1.1/DTD/svg11.dtd'>
<svg version="1.1" xmlns="http://www.w3.org/2000/svg">
<defs>
<font id="ACaslonPro-BoldItalic" horiz-adv-x="500">
<font-face font-family="Adobe Caslon Pro Bold" font-style="italic" font-weight="700" ascent="735" bbox="-236 -700 1541 1002" cap-height="673" descent="-265" panose-1="2 5 7 2 6 5 11 9 10 3" slope="-22" underline-position="-100" underline-thickness="50" unicode-range="U+0020-FB06" units-per-em="1000" x-height="427"/>
<missing-glyph/>
<glyph d="M862 630l-148 -346l9 -7q94 149 183 150q88 -1 89 -106q0 -101 -59 -210q-3 -5 -5 -9q-79 -133 -178 -134q-46 0 -59 39q-4 12 -4 25q0 36 27 48q9 3 17 3q31 0 39 -29q1 -5 1 -8q7 -34 19 -36q20 0 46 88q0 3 8 29q33 116 33 182q-1 42 -30 43q-40 -1 -127 -115 q-34 -47 -51 -90l-57 -140q-5 -7 -17 -7h-80q-12 0 -11 9q1 2 1 3l208 559q4 10 4 19q0 11 -4 19q-12 24 -112 24q-15 0 -45 -1h-35l-154 -510q-9 -29 -9 -46q6 -38 52 -40h39q8 -1 7 -10l-4 -21q-4 -8 -13 -8h-16q-73 3 -179 3q-52 0 -117 -2q-16 -1 -19 -1q-8 0 -8 6v4 l3 21q4 7 11 8h27q49 0 71 40q12 22 24 61l150 495q-123 0 -153 -12q-12 -6 -20 -13q-53 -47 -116 -112q-4 -3 -9 -2l-20 11q-3 3 -1 9l76 171q4 9 10 10q5 -1 22 -10q30 -14 187 -14h211q217 0 268 16l9 3q10 5 16 5q9 -2 10 -15q-1 -10 -17 -49z" glyph-name="T_h" horiz-adv-x="1011" unicode="Th"/>
<glyph d="M519 839l126 57q6 1 9 -3l7 -12q0 -3 -2 -7l-147 -147q-10 -9 -17 2l-79 148q-2 5 2 8l10 9q5 2 11 -2zM744 284l9 -7q94 149 183 150q88 -1 89 -106q0 -101 -59 -210q-3 -5 -5 -9q-79 -133 -178 -134q-46 0 -59 39q-4 12 -4 25q0 36 27 48q9 3 17 3q31 0 39 -29 q1 -5 1 -8q7 -34 19 -36q20 0 46 88q0 3 8 29q33 116 33 182q-1 42 -30 43q-40 -1 -127 -115q-34 -47 -51 -90l-57 -140q-5 -7 -17 -7h-80q-12 0 -11 9q1 2 1 3q201 542 206 554q3 7 4 9q-95 2 -204 13l-149 -468q-11 -35 -11 -52q8 -32 44 -34h39q8 -1 7 -10l-4 -19 q-4 -8 -13 -8q-4 0 -17 1q-66 2 -143 2q-68 0 -139 -3h-17q-8 0 -8 6v4l3 19q4 7 11 8h17q52 0 75 37q13 21 27 64l150 464q-69 9 -165 9q-105 0 -145 -60q-16 -24 -16 -52q1 -22 10 -36q8 -8 17 0q16 11 40 11q36 0 46 -35q2 -10 2 -20q0 -31 -32 -47q-15 -7 -34 -7 q-46 0 -71 45q-17 31 -17 78q0 71 54 126q16 16 35 28q72 46 205 46q95 0 245 -17q131 -16 213 -17q51 1 52 29q-1 12 -9 24q-13 17 -14 31q0 26 24 34q8 3 16 3q48 -1 49 -61q-1 -14 -23 -66q-20 -46 -154 -361z" glyph-name="T_h.caronswash" horiz-adv-x="1041" unicode="h"/>
<glyph d="M168 -292q-9 0 -11 6v3q0 10 10 13q35 9 59 39q15 20 15 40q0 15 -4.5 24t-17.5 22l-1 1q-17 17 -20 22q-5 10 -5 19q0 31 26 40q7 3 14 3q38 0 58 -50q9 -21 9 -39q0 -86 -86 -128q-29 -15 -46 -15zM744 284l9 -7q94 149 183 150q88 -1 89 -106q0 -101 -59 -210 q-3 -5 -5 -9q-79 -133 -178 -134q-46 0 -59 39q-4 12 -4 25q0 36 27 48q9 3 17 3q31 0 39 -29q1 -5 1 -8q7 -34 19 -36q20 0 46 88q0 3 8 29q33 116 33 182q-1 42 -30 43q-40 -1 -127 -115q-34 -47 -51 -90l-57 -140q-5 -7 -17 -7h-80q-12 0 -11 9q1 2 1 3q201 542 206 554 q3 7 4 9q-95 2 -204 13l-149 -468q-11 -35 -11 -52q8 -32 44 -34h39q8 -1 7 -10l-4 -19q-4 -8 -13 -8q-4 0 -17 1q-66 2 -143 2q-68 0 -139 -3h-17q-8 0 -8 6v4l3 19q4 7 11 8h17q52 0 75 37q13 21 27 64l150 464q-69 9 -165 9q-105 0 -145 -60q-16 -24 -16 -52 q1 -22 10 -36q8 -8 17 0q16 11 40 11q36 0 46 -35q2 -10 2 -20q0 -31 -32 -47q-15 -7 -34 -7q-46 0 -71 45q-17 31 -17 78q0 71 54 126q16 16 35 28q72 46 205 46q95 0 245 -17q131 -16 213 -17q51 1 52 29q-1 12 -9 24q-13 17 -14 31q0 26 24 34q8 3 16 3q48 -1 49 -61 q-1 -14 -23 -66q-20 -46 -154 -361z" glyph-name="T_h.commaaccentswash" horiz-adv-x="1041" unicode="h"/>
<glyph d="M744 284l9 -7q94 149 183 150q88 -1 89 -106q0 -101 -59 -210q-3 -5 -5 -9q-79 -133 -178 -134q-46 0 -59 39q-4 12 -4 25q0 36 27 48q9 3 17 3q31 0 39 -29q1 -5 1 -8q7 -34 19 -36q20 0 46 88q0 3 8 29q33 116 33 182q-1 42 -30 43q-40 -1 -127 -115q-34 -47 -51 -90 l-57 -140q-5 -7 -17 -7h-80q-12 0 -11 9q1 2 1 3q201 542 206 554q3 7 4 9q-95 2 -204 13l-149 -468q-11 -35 -11 -52q8 -32 44 -34h39q8 -1 7 -10l-4 -19q-4 -8 -13 -8q-4 0 -17 1q-66 2 -143 2q-68 0 -139 -3h-17q-8 0 -8 6v4l3 19q4 7 11 8h17q52 0 75 37q13 21 27 64 l150 464q-69 9 -165 9q-105 0 -145 -60q-16 -24 -16 -52q1 -22 10 -36q8 -8 17 0q16 11 40 11q36 0 46 -35q2 -10 2 -20q0 -31 -32 -47q-15 -7 -34 -7q-46 0 -71 45q-17 31 -17 78q0 71 54 126q16 16 35 28q72 46 205 46q95 0 245 -17q131 -16 213 -17q51 1 52 29 q-1 12 -9 24q-13 17 -14 31q0 26 24 34q8 3 16 3q48 -1 49 -61q-1 -14 -23 -66q-20 -46 -154 -361z" glyph-name="T_h.swash" horiz-adv-x="1041" unicode="h"/>
<glyph d="M663 330q-6 20 -33 23h-115q-6 -23 -22 -87q-49 -195 -75 -271q-18 -54 -42 -99q38 -2 50 -37q3 -8 3 -16q2 -30 17 -34q45 0 95 134q21 56 51 152l64 207q7 22 7 28zM400 353h-163q-26 -151 -72 -320q-6 -25 -11 -40q-37 -110 -81 -177q11 3 19 3q42 -1 56 -54 q5 -16 30 -17q65 0 114 159q14 46 28 105zM245 397h164q8 19 19 54q23 74 52 117h-7q-41 1 -59 30q-18 30 -31 35q-9 4 -19 4q-63 0 -103 -164q-5 -25 -16 -76zM327 -186q-83 -110 -183 -111q-67 0 -90 46q-6 13 -7 27l-4 2q-54 -74 -133 -75q-57 0 -80 36q-7 12 -7 24 q0 37 30 49q9 4 19 4q41 -2 51 -51q5 -16 23 -17q39 0 79 127q18 58 33 136l65 342h-85q-7 2 -7 9l6 27q4 7 11 8h84q3 10 8 29q20 78 52 125q18 27 43 55q32 36 95 59q35 13 66 13q83 0 111 -44q6 -9 8 -18q33 37 97 59q38 13 71 13q96 0 120 -50q6 -13 6 -25 q0 -37 -31 -52q-11 -5 -22 -5q-65 1 -73 62q-5 28 -29 29q-70 0 -121 -206q-5 -20 -10 -44h84q64 0 104 11q43 13 55 13q21 0 23 -21q1 -5 1 -11q-1 -42 -37 -151l-58 -173q-45 -135 -122 -218q-72 -76 -151 -77q-71 1 -95 44z" glyph-name="f_f_j" horiz-adv-x="818" unicode="ffj"/>
<glyph d="M387 326q0 18 -22 24q-6 2 -10 2h-114q-7 -25 -25 -98q-50 -196 -80 -283q-12 -37 -32 -76q37 -2 48 -37q3 -8 3 -16q2 -30 17 -34q45 0 95 134q21 56 51 152l64 207q5 17 5 25zM53 -185v-1q-83 -110 -172 -111q-74 0 -90 43q-3 10 -3 19q7 51 47 55q38 0 50 -37 q3 -10 3 -18q2 -16 27 -17q58 0 112 206q7 27 14 57l81 342h-89q-7 2 -6 10l4 21q4 12 12 13h89q27 88 31 98q25 60 82 122q34 37 98 59q35 12 67 12q105 0 122 -57q2 -8 2 -16q-10 -59 -60 -60q-38 0 -56 28q-5 9 -6 17q-6 46 -27 47q-67 0 -112 -157q-9 -32 -23 -93h82 q64 0 104 11q43 13 57 13q20 0 22 -19q1 -6 1 -13q-1 -42 -37 -151l-58 -173q-45 -135 -122 -218q-72 -76 -151 -77q-72 1 -95 45z" glyph-name="f_j" horiz-adv-x="547" unicode="fj"/>
<glyph d="M400 353h-162q-29 -168 -70 -321q-7 -24 -12 -39q-37 -110 -80 -175q10 2 15 2q41 0 56 -51q1 -2 1 -4q5 -17 35 -17q63 0 115 180q11 38 22 84zM247 397h162q27 92 42 123q12 25 28 48h-4q-44 1 -60 30q-19 31 -35 37q-8 2 -16 2q-62 0 -101 -166q-6 -24 -16 -74z M123 353h-85q-7 2 -7 9l6 27q4 7 11 8h84q24 83 27 91q24 59 76 118q32 36 93 59q35 13 65 13q96 0 118 -49q3 -7 4 -14v1q32 36 93 59q35 13 65 13q96 0 114 -54q3 -10 3 -19q0 -29 -28 -44q-11 -6 -23 -6q-51 0 -62 49q-1 2 -1 4q-8 28 -32 29q-54 0 -93 -141 q-6 -24 -26 -109h105q7 -2 7 -9l-5 -25q-3 -9 -11 -10h-104q-6 -23 -22 -87q-49 -195 -75 -271q-65 -191 -172 -260q-49 -32 -102 -32q-68 0 -91 45q-7 14 -7 28l-2 2q-59 -74 -136 -75q-57 0 -80 36q-7 12 -7 24q0 37 30 49q9 4 19 4q41 -2 51 -51q5 -16 23 -17 q39 0 79 127q18 58 33 136z" glyph-name="ff" horiz-adv-x="585" unicode="ff"/>
<glyph d="M122 353h-89q-7 2 -6 10l4 21q4 12 12 13h89q27 88 31 98q25 60 82 122q34 37 98 59q35 12 67 12q105 0 122 -57q2 -8 2 -16q-10 -59 -60 -60q-38 0 -56 28q-5 9 -6 17q-6 46 -27 47q-67 0 -112 -157q-9 -32 -23 -93h82q69 0 104 11q7 2 19 6q24 7 38 7q20 0 23 -26 q1 -4 1 -7q0 -18 -29 -103l-2 -4l-54 -153q-16 -49 -16 -61q2 -13 13 -14q20 0 67 53q5 6 7 9q4 4 8 1l12 -12q3 -5 1 -10q-31 -49 -90 -79q-51 -25 -109 -25q-31 4 -34 30q1 22 58 180l27 79q11 32 11 48q0 18 -22 24q-6 2 -10 2h-114q-7 -25 -25 -98q-50 -196 -80 -283 q-40 -117 -115 -196q-69 -72 -140 -73q-74 0 -90 43q-3 10 -3 19q7 51 47 55q38 0 50 -37q3 -10 3 -18q2 -16 27 -17q58 0 112 206q7 27 14 57z" glyph-name="fi" horiz-adv-x="547" unicode="fi"/>
<glyph d="M249 397h158l65 172q7 19 7 33q-1 19 -13 28q-27 17 -67 17q-80 0 -128 -165q-9 -30 -22 -85zM123 353h-90q-7 2 -6 10l4 24q3 9 12 10h89q4 12 10 35q23 79 54 125q21 29 49 60q41 44 113 63q32 8 64 8q85 0 150 -24q14 -6 22 -11q13 -10 14 -25q0 -5 -2 -10l-192 -519 q-7 -21 -7 -28q2 -14 16 -15q25 1 73 49q4 5 9 0l11 -12q2 -6 0 -11q-15 -21 -57 -49q-65 -43 -130 -43q-25 0 -40 26q-5 9 -5 16q0 19 28 95l80 226h-151q-63 -257 -106 -381q-44 -125 -121 -203q-65 -66 -133 -66q-74 0 -90 45q-3 9 -3 19q0 45 34 54q7 2 13 2 q35 0 50 -43q3 -8 4 -15q3 -16 21 -17q69 2 131 263z" glyph-name="fl" horiz-adv-x="534" unicode="fl"/>
<glyph d="M400 353h-163q-26 -151 -72 -320q-6 -25 -11 -40q-37 -110 -81 -177q11 3 19 3q42 -1 56 -54q5 -16 30 -17q65 0 114 159q14 46 28 105zM245 397h164q8 19 19 54q23 74 52 117h-7q-41 1 -59 30q-18 30 -31 35q-9 4 -19 4q-63 0 -103 -164q-5 -25 -16 -76zM123 353h-85 q-7 2 -7 9l6 27q4 7 11 8h84q3 10 8 29q20 78 52 125q18 27 43 55q32 36 95 59q35 13 66 13q93 0 115 -48q3 -8 4 -15v1q33 37 97 59q38 13 71 13q96 0 120 -50q6 -13 6 -25q0 -37 -31 -52q-11 -5 -22 -5q-65 1 -73 62q-5 28 -29 29q-70 0 -121 -206q-5 -20 -10 -44h84 q69 0 104 11q7 2 20 6q23 7 35 7q20 0 23 -26q1 -4 1 -7q0 -18 -29 -103l-2 -4l-54 -153q-16 -49 -16 -61q2 -13 13 -14q20 0 67 53q5 6 7 9q4 4 8 1l12 -12q3 -5 1 -10q-31 -50 -89 -79q-49 -25 -105 -25q-31 4 -34 30q1 22 58 180l27 79q11 32 11 48q0 18 -23 24 q-7 2 -12 2h-115q-6 -23 -22 -87q-49 -195 -75 -271q-65 -191 -172 -260q-49 -32 -102 -32q-67 0 -90 46q-6 13 -7 27l-4 2q-54 -74 -133 -75q-57 0 -80 36q-7 12 -7 24q0 37 30 49q9 4 19 4q41 -2 51 -51q5 -16 23 -17q39 0 79 127q18 58 33 136z" glyph-name="ffi" horiz-adv-x="818" unicode="ffi"/>
<glyph d="M523 397h165l65 172q7 21 7 31q-1 21 -16 31q-27 16 -69 16q-82 0 -130 -165q-9 -30 -22 -85zM401 353h-165q-18 -124 -67 -306q-9 -34 -16 -54q-37 -109 -79 -175q12 2 16 2q41 -1 57 -55q7 -16 31 -17q65 0 114 159q14 46 28 105zM244 397h167q25 88 39 117 q14 27 32 53h-4q-42 1 -63 30q-20 28 -26 32q-11 8 -25 8q-67 0 -111 -197q-4 -18 -9 -43zM123 353h-85q-7 2 -7 9l6 27q4 7 11 8h84l9 33q21 77 53 125q18 25 41 51q32 36 94 59q36 13 66 13q98 0 121 -53q2 -5 3 -9q43 46 116 64q31 8 62 8q80 0 146 -24q15 -6 23 -11 q13 -10 14 -25q0 -5 -2 -10l-192 -519q-7 -21 -7 -28q2 -14 16 -15q25 1 73 49q4 5 9 0l11 -12q2 -6 0 -11q-15 -21 -56 -49q-63 -43 -124 -43q-25 0 -40 26q-5 9 -5 16q0 19 28 95l81 226h-157q-6 -23 -22 -87q-49 -195 -75 -271q-70 -204 -183 -268q-44 -24 -91 -24 q-67 0 -90 46q-6 13 -7 27l-4 2q-54 -74 -133 -75q-57 0 -80 36q-7 12 -7 24q0 37 30 49q9 4 19 4q41 -2 51 -51q5 -16 23 -17q37 0 75 114q21 63 37 149z" glyph-name="ffl" horiz-adv-x="810" unicode="ffl"/>
<glyph glyph-name="space" horiz-adv-x="200" unicode=" "/>
<glyph d="M272 685q51 0 61 -33q2 -6 2 -11q0 -19 -14 -52q-4 -10 -158 -346q-18 -39 -19 -42q-6 -8 -19 -8q-16 2 -12 21q7 27 53 280q24 131 26 138q13 52 80 53zM83 -10q-25 0 -44 23q-14 18 -14 42q0 45 37 62q14 6 28 6q39 0 56 -39q5 -12 5 -24q0 -49 -40 -65q-13 -5 -28 -5z " glyph-name="exclam" horiz-adv-x="267" unicode="!"/>
<glyph d="M267 440l-29 8q5 23 19 105q15 88 19 103q11 29 59 29q39 -2 40 -33q0 -10 -67 -133q-27 -49 -41 -79zM123 440l-30 8q6 24 19 108q14 85 19 100q11 29 59 29q39 -2 40 -34q0 -11 -58 -117q-32 -58 -49 -94z" glyph-name="quotedbl" horiz-adv-x="230" unicode='"'/>
<glyph d="M283 181h-78l-59 -181q-6 -15 -10 -15h-58q-6 2 -3 13l60 183h-80q-11 0 -11 9q1 2 1 3l18 53q8 16 16 17h80l37 116h-82q-15 0 -14 10q1 3 1 4l17 57q5 10 15 11h86l56 175q4 8 11 9h53q9 0 6 -9l-56 -175h77l55 171q5 12 13 13h50q9 -2 7 -13l-55 -171h84q11 -2 8 -14 l-19 -55q-6 -12 -18 -13h-75l-37 -116h90q13 0 10 -13q-1 -1 -1 -2l-20 -58q-5 -9 -20 -9h-85l-60 -185q-4 -10 -9 -11h-60q-4 2 -2 10zM309 263l38 116h-81l-37 -116h80z" glyph-name="numbersign" unicode="#"/>
<glyph d="M252 279l-53 -204q21 -9 43 -11l47 181zM316 216l-38 -146q52 12 65 58q3 12 3 24q-1 31 -30 64zM326 572l-45 -172l37 -30l49 191q-17 9 -41 11zM254 427l37 141q-50 -9 -64 -55q-3 -11 -3 -22q1 -37 30 -64zM395 539l-49 -193q68 -52 79 -119q2 -16 2 -33 q0 -99 -85 -143q-33 -17 -72 -22l-23 -96q-4 -11 -9 -10l-21 6q-5 3 -3 14l21 83q-22 0 -45 5l-25 -101q-3 -6 -8 -6l-21 5q-5 3 -3 13l25 99q-30 13 -55 32q-14 11 -23 11t-22 -21q-2 -3 -3 -5q-6 -7 -11 -5l-9 5q-4 4 -2 9l63 178q4 7 9 7l14 -4q6 -5 5 -11q-6 -23 -6 -43 q1 -60 51 -100l55 209q-73 66 -83 136q-2 15 -2 29q0 53 47 96q45 39 113 44l20 79q3 7 8 7l22 -3q4 -3 2 -12l-18 -70q24 -1 42 -6l19 79q3 6 9 6l18 -3q7 -3 5 -12l-20 -79q11 -4 26 -12q11 -6 15 -6q7 0 12 17q1 1 1 2q3 7 7 8l13 -3q4 -2 3 -9l-25 -155q-3 -8 -7 -9 l-16 3q-5 2 -6 9q-1 71 -34 100z" glyph-name="dollar" unicode="$"/>
<glyph d="M637 353q-43 0 -95 -117q-45 -106 -49 -167q5 -38 31 -43q44 0 99 130q42 104 45 155q0 35 -22 41q-4 1 -9 1zM636 387q97 0 105 -89q1 -8 1 -15q0 -112 -60 -199q-62 -90 -153 -91q-95 0 -108 89q-2 14 -2 27q0 101 57 185q65 92 160 93zM277 645q97 0 105 -89 q1 -8 1 -15q0 -112 -60 -199q-62 -90 -153 -91q-95 0 -108 89q-2 14 -2 27q0 101 57 185q65 92 160 93zM598 642l26 -16q4 -3 5 -6q-1 -6 -4 -11l-404 -616q-5 -7 -10 -8q-2 0 -7 2l-1 1l-26 18q-5 6 -5 7q1 6 5 12l404 616q3 4 9 4q2 0 7 -2zM278 611q-43 0 -95 -117 q-45 -106 -49 -167q5 -38 31 -43q44 0 99 130q42 104 45 155q0 35 -22 41q-4 1 -9 1z" glyph-name="percent" horiz-adv-x="750" unicode="%"/>
<glyph d="M424 -22q-231 0 -314 135q-35 57 -35 123q0 111 84 180q21 17 40 25q-45 61 -45 119q0 72 58 114q42 30 100 30q82 0 106 -61q8 -20 8 -44q0 -45 -37 -65q-10 -5 -17 -5q-6 2 -3 18q0 1 1 4v4q0 34 -36 50q-16 6 -33 6q-41 0 -66 -36q-17 -24 -17 -55q1 -44 16 -66 q4 1 13 4q30 11 52 11q51 -2 52 -41q-2 -47 -49 -48q-28 1 -72 28q-10 11 -23 2q-38 -29 -48 -97q-2 -15 -2 -28q0 -124 128 -171q65 -23 154 -23q166 0 240 84q40 46 40 102q0 61 -51 97q-38 26 -90 26q-82 0 -99 -65q-3 -12 -3 -23q0 -28 23 -48q5 -4 9 -5q8 0 9 10v5 q-1 3 -1 7q0 25 22 41q11 7 22 7q61 -1 62 -50q-2 -64 -79 -65q-60 0 -91 50q-19 31 -19 73q0 74 63 118q46 32 110 32q22 0 60 -3q46 -4 80 -4q76 0 103 47q11 19 11 41q0 29 -29 51q-15 11 -28 11q-15 -1 -11 -22q1 -4 1 -10q0 -29 -25 -42q-11 -5 -23 -5q-37 0 -49 32 q-3 9 -3 18q0 40 41 59q19 9 38 9q91 0 122 -64q10 -22 10 -46q0 -125 -110 -163q-21 -7 -43 -11q-17 -3 -18 -13q0 -5 4 -12q26 -41 26 -110q0 -135 -115 -211q-92 -61 -224 -61z" glyph-name="ampersand" horiz-adv-x="838" unicode="&amp;"/>
<glyph d="M154 440l-30 8q5 22 17 97q16 95 21 111q11 29 59 29q39 -2 40 -34q0 -11 -58 -117q-32 -58 -49 -94z" glyph-name="quotesingle" horiz-adv-x="140" unicode="'"/>
<glyph d="M59 69q0 341 282 603q60 55 129 104q11 6 19 -7q8 -11 -2 -22q-2 -1 -3 -2q-166 -149 -254 -365q-72 -174 -72 -352q0 -129 12 -237q1 -8 -9 -12q-3 -1 -5 -2q-15 -5 -19 3q-50 83 -71 206q-7 45 -7 83z" glyph-name="parenleft" horiz-adv-x="300" unicode="("/>
<glyph d="M278 485q0 -341 -282 -603q-60 -55 -129 -104q-11 -6 -19 7q-8 11 2 22q2 1 3 2q166 149 254 365q72 174 72 352q0 129 -12 237q-1 8 9 12q3 1 5 2q15 5 19 -3q50 -83 71 -206q7 -45 7 -83z" glyph-name="parenright" horiz-adv-x="300" unicode=")"/>
<glyph d="M207 377q-37 1 -38 26q0 1 1 3v3q1 8 42 82q10 18 15 28l-4 2q-12 -12 -35 -36q-34 -38 -53 -51q-6 -4 -14 -4q-22 1 -33 19q-8 14 -8 26q1 21 17 29q5 3 95 20q17 3 28 6v4q-15 3 -44 7q-45 6 -57 10q-16 6 -17 28q1 13 7 26q13 24 36 25q9 -1 15 -5q4 -3 42 -53 q14 -17 25 -29l5 3q-3 14 -10 44q-11 49 -11 61q0 25 31 32q9 2 18 2q39 -1 40 -25q0 -11 -40 -80q-13 -22 -19 -35l3 -2q11 8 60 57q23 22 33 26q5 2 12 2q21 -1 30 -23q3 -11 3 -20q-2 -28 -27 -36q-13 -3 -50 -7q-39 -4 -58 -7v-3q15 -4 47 -9q45 -8 58 -15 q14 -10 15 -25q-1 -14 -10 -26q-17 -20 -37 -21q-13 1 -22 8q-7 6 -41 56q-8 12 -14 20l-6 -1q0 -6 16 -87q3 -14 3 -20q0 -26 -31 -33q-9 -2 -18 -2z" glyph-name="asterisk" horiz-adv-x="300" unicode="*"/>
<glyph d="M299 35h-77v171h-159v72h159v167h77v-167h159v-72h-159v-171z" glyph-name="plus" unicode="+"/>
<glyph d="M9 -148q-10 0 -13 6q0 2 -1 4q-2 14 12 18q40 11 69 45q20 23 20 47q0 28 -22 51l-5 5l-5 5q-25 25 -26 45q0 42 28 60q10 6 21 6q69 0 89 -78q6 -22 6 -44q0 -98 -106 -149q-43 -21 -67 -21z" glyph-name="comma" horiz-adv-x="250" unicode=","/>
<glyph d="M61 217v55q2 9 9 10h322q8 -2 9 -8v-55q-2 -8 -9 -9h-323q-7 2 -8 7z" glyph-name="hyphen" horiz-adv-x="414" unicode="-"/>
<glyph d="M99 -10q-48 0 -65 42q-6 15 -6 31q0 41 34 61q17 10 37 10q55 0 70 -50q4 -12 4 -24q0 -46 -41 -64q-15 -6 -33 -6z" glyph-name="period" horiz-adv-x="250" unicode="."/>
<glyph d="M439 686l34 -22q8 -6 2 -16l-480 -659q-8 -9 -16 -4l-32 23q-6 6 0 15l478 658q7 8 14 5z" glyph-name="slash" horiz-adv-x="330" unicode="/"/>
<glyph d="M197 32q59 0 130 186q58 152 75 274q3 22 3 35q0 54 -26 66q-9 3 -20 4q-59 0 -129 -169q-61 -147 -79 -279q-4 -27 -4 -45q2 -71 50 -72zM200 -15q-130 0 -150 147q-3 24 -3 50q0 150 69 283q76 149 196 175q23 5 46 5q146 -2 147 -176q0 -169 -73 -310 q-76 -147 -193 -170q-20 -4 -39 -4z" glyph-name="zero" unicode="0"/>
<glyph d="M377 26l-5 -23q-3 -6 -9 -6q-3 0 -43 1q-97 2 -114 2q-24 0 -131 -2q-34 -1 -37 -1q-5 2 -5 7l6 25q3 7 12 7h25q42 0 61 21t32 62l95 292q25 75 25 85q-4 12 -16 14q-8 0 -37 -8l-62 -18q-5 0 -8 3l-9 18q-2 7 3 10l246 115q32 15 44 15q14 -1 15 -15q0 -13 -4 -22 q-41 -109 -79 -227l-48 -148q-15 -53 -47 -149q-4 -12 -4 -23q2 -24 33 -25h54q8 -2 7 -10z" glyph-name="one" unicode="1"/>
<glyph d="M270 0h-203q-12 0 -32 -1h-21q-28 -2 -31 -2q-14 2 -15 15q1 13 16 24q242 167 327 310q38 65 39 118q0 62 -43 85q-18 10 -40 10q-60 0 -112 -67q-8 -10 -13 -19q-7 -11 -9 -12q-2 1 -3 1l-21 10q-3 5 0 12q25 65 85 113q62 48 133 48q101 0 138 -79q16 -33 16 -75 q0 -31 -12.5 -64t-29 -60t-48 -59.5t-53 -53t-60.5 -50t-54.5 -40.5t-51.5 -36l-37 -24v-11h148q79 1 126 69q8 11 13 9l14 -9q4 -5 1 -12q-34 -55 -65 -140q-4 -12 -6 -19q-4 -9 -10 -10q-11 1 -21 10q-11 9 -65 9z" glyph-name="two" unicode="2"/>
<glyph d="M160 498l-16 11q-4 4 3 15q65 102 165 118q18 3 35 3q108 0 133 -73q6 -17 6 -35q0 -78 -83 -140q-30 -23 -64 -37q68 -22 90 -88q7 -22 7 -45q0 -107 -92 -179q-82 -63 -190 -63q-102 0 -144 61q-17 24 -17 50q0 38 26 51q9 4 18 4q47 0 53 -47q1 -5 1 -10q0 -2 -1 -6 v-4v-5q0 -29 29 -48q16 -9 33 -9q71 0 117 65q38 55 38 128q0 69 -54 101q-14 8 -30 12q-23 7 -24 20q0 18 18 22h4q101 6 135 73q13 25 13 53q0 38 -33 58q-20 11 -45 11q-58 0 -105 -46q-9 -9 -13 -15q-8 -8 -13 -6z" glyph-name="three" unicode="3"/>
<glyph d="M133 249h151l72 198q2 6 2 8q-1 7 -7 8q-8 -1 -15 -8l-205 -191q-13 -14 2 -15zM310 0h-102q-11 0 -4 22q1 1 1 2l54 144h-229q-26 1 -27 18q1 13 24 34l420 385q44 39 64 40q14 -2 15 -21q0 -5 -2 -14l-120 -361h80q9 -1 6 -11l-20 -58q-5 -11 -15 -12h-77l-48 -148 q-11 -19 -20 -20z" glyph-name="four" unicode="4"/>
<glyph d="M440 531h-209l-36 -102q86 -3 138 -27q99 -48 99 -168q-4 -82 -70 -153q-89 -96 -233 -96q-94 0 -115 40q-5 9 -5 19q0 31 22 38q4 1 8 1q26 -1 49 -26q20 -22 73 -22q69 0 116 65q34 47 34 98q-1 67 -45 98q-39 26 -104 26q-33 0 -39 4q-7 9 -4 19l94 276q5 9 15 9h212 q29 0 50 27q3 4 10 13q7 6 17 0q14 -11 10 -17l-57 -112q-9 -10 -30 -10z" glyph-name="five" unicode="5"/>
<glyph d="M224 24q58 0 93 99q24 68 24 139v10q-1 47 -35 67q-13 7 -28 7q-52 -1 -72 -32q-46 -78 -46 -188q1 -101 64 -102zM224 -15q-127 0 -167 102q-14 39 -14 86q0 159 137 302q111 116 250 163q1 1 2 1q20 6 29 6q12 -5 15 -21q-1 -16 -14 -22q-165 -77 -244 -228l6 -6 q46 26 108 26q78 0 116 -61q22 -35 22 -80q0 -114 -77 -194q-71 -74 -169 -74z" glyph-name="six" unicode="6"/>
<glyph d="M255 630h273q15 -1 16 -10q0 -8 -9 -24l-1 -1q-36 -54 -112 -198l-2 -4q-118 -225 -164 -337q-25 -60 -57 -69q-9 -2 -18 -2q-40 0 -49 36q-1 7 -1 13q1 30 29 69q8 11 41 57q61 86 95 135q83 122 144 228q2 3 3 5h-201q-55 0 -87 -33q-11 -12 -28 -34q-9 -9 -17 -3 q-14 10 -11 17l90 179q8 12 19 9q10 -9 10 -17q8 -15 37 -16z" glyph-name="seven" unicode="7"/>
<glyph d="M326 607q-74 0 -93 -67q-5 -18 -5 -38q0 -43 53 -100q7 -8 37 -39q96 52 97 151q0 57 -42 81q-21 12 -47 12zM223 21q77 0 94 77q3 15 3 29q0 63 -46 114q-15 15 -39 38q-92 -48 -95 -159q0 -66 46 -90q17 -9 37 -9zM213 -15q-130 0 -165 89q-10 24 -10 48q0 96 138 165 q5 3 37 18q-58 59 -75 88q-21 37 -21 71q0 78 64 130q64 51 169 51q107 0 147 -66q16 -28 16 -60q0 -95 -139 -167q-16 -8 -32 -15q92 -83 93 -162q0 -90 -74 -145q-61 -45 -148 -45z" glyph-name="eight" unicode="8"/>
<glyph d="M262 281q46 0 68 33q5 8 10 18q34 69 37 161v10q-1 102 -55 103q-60 0 -95 -109q-21 -64 -21 -122q0 -68 34 -88q10 -6 22 -6zM327 645q135 0 165 -110q8 -28 8 -61q0 -163 -137 -309q-112 -119 -255 -168q-14 -5 -26 -8q-15 -4 -23 -4q-13 1 -14 18q1 16 14 22 q150 76 237 207q4 7 8 13l-6 6q-14 -7 -29 -11q-21 -5 -39 -5q-105 0 -139 90q-12 30 -12 63q0 93 63 169q74 87 185 88z" glyph-name="nine" unicode="9"/>
<glyph d="M178 427q56 0 71 -49q3 -11 3 -21q0 -42 -38 -60q-16 -8 -35 -8q-45 0 -63 39q-7 15 -7 32q0 36 31 56q17 11 38 11zM83 -10q-43 0 -62 37q-8 16 -8 33q0 38 32 58q17 10 37 10q56 0 71 -49q3 -11 3 -22q0 -41 -38 -59q-16 -8 -35 -8z" glyph-name="colon" horiz-adv-x="250" unicode=":"/>
<glyph d="M167 427q52 0 68 -48q4 -12 4 -24q0 -42 -38 -60q-16 -7 -34 -7q-44 0 -62 38q-7 15 -7 32q0 37 31 58q17 11 38 11zM-1 -148q-10 0 -13 6q0 2 -1 4q-2 14 12 18q40 11 69 45q20 23 20 47q0 28 -22 51l-5 5l-5 5q-25 25 -26 45q0 42 28 60q10 6 21 6q60 0 86 -71 q9 -27 9 -51q0 -99 -104 -149q-43 -21 -69 -21z" glyph-name="semicolon" horiz-adv-x="250" unicode=";"/>
<glyph d="M410 35l-307 183v45l307 182v-77l-218 -123v-4l218 -122v-84z" glyph-name="less" unicode="&lt;"/>
<glyph d="M72 209h397v-72h-397v72zM72 366h397v-72h-397v72z" glyph-name="equal" unicode="="/>
<glyph d="M120 445l307 -183v-45l-307 -182v77l218 123v4l-218 127v79z" glyph-name="greater" unicode="&gt;"/>
<glyph d="M176 -10q-41 0 -58 33q-6 13 -6 28q0 40 32 58q14 8 30 8q43 0 58 -39q5 -13 5 -27q0 -32 -28 -51q-16 -10 -33 -10zM315 685q121 0 157 -86q10 -24 10 -45q0 -162 -151 -228q-22 -9 -46 -16q-114 -34 -115 -71q0 -31 41 -35q8 -1 17 -1q54 0 88 34q5 4 9 -1l10 -11 q3 -4 2 -8q-19 -31 -58 -52q-28 -15 -54 -15q-78 0 -100 64q-6 19 -6 42q1 103 151 178q73 37 95 62q24 29 24 72q0 38 -31 61q-21 16 -51 16q-70 0 -99 -44q-13 -19 -13 -42q4 -34 27 -39q12 1 16 9q-5 12 -5 24q0 36 33 48q10 3 21 3q36 0 44 -36q1 -7 1 -13 q0 -54 -53 -74q-20 -8 -40 -8q-61 0 -83 45q-9 18 -9 39q0 52 51 91q48 37 117 37z" glyph-name="question" horiz-adv-x="425" unicode="?"/>
<glyph d="M593 523h56q9 -1 6 -10q-50 -104 -67 -160q-33 -102 -33 -127q1 -17 24 -18q32 0 72 42q70 73 70 192q0 151 -121 191q-38 12 -84 12q-130 0 -232 -109q-92 -99 -110 -226q-3 -24 -3 -46q0 -129 93 -194q61 -43 143 -43h2q102 1 161 33q10 5 13 1l8 -20q0 -6 -7 -11 q-55 -34 -153 -43q-21 -2 -39 -2q-190 0 -271 114q-45 64 -45 151q0 148 108 272q105 120 254 153q45 10 89 10q210 0 262 -153q15 -45 15 -100q0 -100 -71 -177q-82 -89 -211 -89q-53 2 -55 31q1 32 22 87l-8 4q-55 -72 -92 -98q-35 -24 -66 -24q-63 4 -65 69v5 q0 75 73 171q69 91 139 114q17 6 32 6q38 0 60 -23q2 -3 4 -5l8 11q9 9 19 9zM529 453q-2 43 -31 44q-45 0 -94 -94q-42 -85 -45 -139q2 -34 28 -35q17 0 84 91q30 41 39 59q19 38 19 74z" glyph-name="at" horiz-adv-x="794" unicode="@"/>
<glyph d="M312 336h151l74 249q0 1 1 3v1q-1 9 -10 10q-7 -1 -11 -6zM452 300h-167l-98 -127q-61 -81 -62 -106q2 -30 41 -31h25q7 0 7 -8v-2l-3 -21q-4 -7 -11 -8h-14q-62 3 -127 3q-55 0 -107 -2q-12 -1 -15 -1q-7 0 -8 5v4l4 22q3 7 7 8h16q40 0 91 42q15 13 26 27l470 555 q9 9 23 9q19 0 77 8q13 2 32 6q11 2 15 2q11 -2 10 -10l-149 -555q-11 -37 -11 -56q0 -21 25 -27q6 -1 11 -1h21q8 -1 8 -7l-3 -23q-4 -8 -12 -9q-3 0 -16 1q-60 2 -122 2q-59 0 -112 -2q-15 -1 -20 -1q-11 2 -10 10l4 21q3 7 8 8h20q34 0 51 25q12 19 22 55z" glyph-name="A" horiz-adv-x="657" unicode="A"/>
<glyph d="M371 635l-72 -271q17 -4 41 -4q90 1 135 64q31 42 31 104q0 56 -46 90q-27 19 -55 19h-3.5h-4h-3.5t-3.5 -0.5t-3.5 -0.5h-4h-4h-5zM289 324l-59 -218q-4 -22 -4 -32q1 -22 14 -29q21 -12 63 -12q74 0 112 72q23 43 23 93q0 96 -95 120q-25 6 -50 6h-4zM92 95l127 475 q6 22 6 36q-8 22 -40 25h-28q-7 2 -6 9l4 23q3 7 13 7q5 0 74 1q144 2 167 2q117 -1 171 -34q59 -39 60 -107q0 -131 -158 -177q-28 -8 -59 -13v-3q156 -40 157 -163q0 -59 -45 -109l-11 -11q-62 -59 -231 -59q-26 0 -79 2q-51 1 -75 1q-23 0 -69 -2q-47 -1 -70 -1 q-9 0 -9 6v4l4 21q3 7 9 8h33q39 2 55 59z" glyph-name="B" horiz-adv-x="630" unicode="B"/>
<glyph d="M641 197l-71 -214q-4 -6 -11 -5l-21 5q-4 3 -3 8q3 16 3 17q-2 13 -15 14q-16 -1 -39 -11q-35 -17 -107 -24q-18 -2 -32 -2q-150 0 -221 94q-43 57 -43 137q0 160 74 271q26 40 66 83q106 115 270 115q83 -1 132 -33q33 -22 45 -23q19 1 26 21q4 7 9 7l21 -4q5 -3 3 -10 l-53 -212q-4 -7 -11 -6l-22 2q-7 2 -6 10q1 11 1 29q0 110 -63 154q-32 21 -74 21q-81 0 -148 -83q-12 -14 -24 -31q-90 -132 -96 -297v-17q0 -117 77 -162q28 -17 55 -17q157 2 241 174q3 5 10 4l22 -6q6 -4 5 -9z" glyph-name="C" horiz-adv-x="682" unicode="C"/>
<glyph d="M368 624l-126 -518q-7 -32 -7 -42q0 -19 35 -27q8 -1 14 -1q138 1 238 80q70 55 105 161q20 60 20 118q0 95 -57 158l-9 9q-45 43 -76 55l-10 4q-46 15 -90 15q-34 -1 -37 -12zM107 113l115 468q2 7 2 16q0 29 -27 33q-3 1 -6 1h-45q-11 0 -11 5q1 2 1 3l6 24q4 7 16 7 q30 0 73 3q15 0 47 1q52 2 71 2q213 0 312 -58q29 -18 51 -39q71 -72 75 -167v-14q0 -184 -136 -296q-24 -20 -49 -34q-126 -71 -312 -71h-27q-13 0 -57 1q-45 2 -59 2q-82 0 -133 -3h-9q-8 2 -8 10l6 22q4 6 10 7h20q54 0 73 75q1 1 1 2z" glyph-name="D" horiz-adv-x="793" unicode="D"/>
<glyph d="M404 634l-84 -259h78q55 0 94 50q12 14 22 32q6 7 10 7l19 -6q5 -3 5 -7q-39 -90 -53 -199q-3 -7 -9 -7l-19 1q-5 2 -6 10q-8 70 -75 81q-15 2 -34 2h-42l-96 -303h192q73 0 171 112q8 9 25 29q6 6 12 4l13 -9q4 -5 2 -13l-51 -145q-10 -16 -22 -17q-6 0 -66 1 q-65 1 -103 1q-45 0 -143 1h-127q-28 0 -67 -1h-27q-10 -1 -21 -1q-7 -1 -9 -1q-9 0 -9 6q1 2 1 4l3 21q4 8 8 8h27q51 1 68 54l152 475q5 17 5 26q0 36 -37 42q-5 1 -9 1h-35q-6 0 -5 6q1 1 1 2l6 24q4 7 12 7h13q57 -3 135 -3q141 0 278 2q30 1 37 1q15 0 18 -10 q2 -4 3 -9l32 -137q0 -6 -4 -8l-13 -7q-7 -1 -14 5l-111 120q-7 7 -18 7h-133z" glyph-name="E" horiz-adv-x="675" unicode="E"/>
<glyph d="M399 634l-82 -265l97 2q91 1 122 91q2 6 3 11q3 7 12 5l21 -3q5 -3 4 -9l-59 -251q-3 -6 -10 -5l-20 1q-9 2 -8 10q2 13 2 32q0 62 -53 73q-10 1 -19 2l-103 6l-68 -224q-8 -27 -8 -41q5 -31 40 -33h30q9 -1 9 -8l-7 -25q-3 -6 -12 -6h-13q-57 3 -135 3q-76 0 -126 -3 h-12q-7 0 -7 6v2l4 25q3 6 9 6h25q41 2 59 59l157 501q3 9 3 16q-2 21 -26 22h-24q-8 2 -7 9l6 22q3 7 12 8q5 0 22 -1q57 -2 103 -2q105 0 212 2q31 1 40 1q30 0 93 9q4 1 7 1q11 -2 12 -16q2 -49 20 -156q0 -7 -5 -9l-17 -8q-8 -1 -13 7q-24 40 -72 99q-9 11 -14 16 q-15 12 -24 13q-3 0 -24 1q-67 4 -156 4z" glyph-name="F" horiz-adv-x="640" unicode="F"/>
<glyph d="M486 79l23 113q2 14 2 18q-2 29 -33 30h-35q-9 2 -7 10l4 21q3 8 11 8q4 0 19 -1q59 -2 126 -2q63 0 110 2q12 1 16 1q10 0 9 -10v-2l-3 -19q-3 -7 -9 -8h-16q-42 -2 -50 -34l-35 -154q-6 -16 -20 -23q-103 -44 -206 -44q-162 0 -247 102q-59 72 -59 167q0 172 114 295 q108 116 266 133q25 3 48 3q97 0 163 -50q13 -10 21 -10q10 0 26 29q1 1 1 2q4 6 11 4l15 -4q6 -3 6 -8l-57 -201q-3 -6 -9 -6l-26 1q-7 2 -7 11v13q0 114 -75 156q-36 19 -84 19q-88 0 -165 -96q-86 -107 -98 -258q-2 -21 -2 -41q0 -127 79 -186q37 -27 75 -27q59 0 78 11 q15 10 20 35z" glyph-name="G" horiz-adv-x="740" unicode="G"/>
<glyph d="M822 583l-154 -479q-6 -18 -6 -34q1 -33 23 -34h35q9 0 9 -6q-1 -3 -1 -4l-4 -22q-3 -7 -12 -7h-12q-55 3 -123 3t-128 -2q-13 -1 -17 -1q-8 2 -8 9l5 23q3 6 9 7h25q35 0 57 45q7 17 15 40l62 189q2 13 -8 14h-276q-15 -1 -18 -10l-68 -214q-7 -21 -7 -35q5 -28 38 -29 h25q7 -1 7 -8l-3 -22q-3 -8 -11 -9h-14q-62 3 -134 3q-69 0 -124 -3h-11q-8 1 -8 7l5 24q3 7 9 8h24q39 0 62 57q3 8 6 17l157 477q3 9 3 16q0 25 -22 30q-4 1 -7 1h-34q-8 2 -8 7l5 24q3 7 10 8h13q70 -3 136 -3q52 0 114 2q12 1 15 1q9 -2 9 -8l-6 -24q-3 -6 -9 -7h-22 q-41 0 -57 -41l-4 -10l-67 -207q-2 -11 8 -12h277q11 2 15 12l69 217q2 6 2 13q-6 24 -32 28h-16q-6 0 -6 3v4l6 26q3 5 10 6h15q65 -3 121 -3q47 0 101 2q13 1 16 1q10 -1 10 -7l-5 -24q-3 -7 -9 -8h-19q-38 0 -55 -43q-2 -5 -3 -8z" glyph-name="H" horiz-adv-x="820" unicode="H"/>
<glyph d="M364 565l-125 -461q-4 -15 -4 -28q2 -39 43 -40h37q7 -2 6 -10l-3 -21q-4 -8 -12 -8h-14q-72 3 -156 3q-66 0 -132 -2q-13 -1 -16 -1q-8 2 -8 10l5 23q3 6 8 6h33q47 0 61 25q7 12 16 47l125 460q5 20 5 31q-1 34 -26 35h-46q-9 0 -9 5v3l5 25q3 6 13 6q3 0 18 -1 q72 -2 137 -2q62 0 124 2q16 1 20 1q12 0 12 -8q-1 -3 -1 -4l-5 -19q-4 -7 -11 -8h-31q-48 0 -67 -62q-1 -4 -2 -7z" glyph-name="I" horiz-adv-x="385" unicode="I"/>
<glyph d="M123 29l152 543q5 17 5 29q-2 32 -37 33h-33q-9 2 -9 8l5 23q3 7 10 8h11q67 -3 147 -3q62 0 119 3h13q9 -2 9 -10l-4 -22q-3 -7 -10 -7h-25q-42 0 -67 -73q-1 -4 -2 -7l-128 -426q-53 -173 -113 -245q-72 -82 -171 -83q-88 0 -109 56q-5 13 -5 25q0 43 33 60q14 7 29 7 q34 0 46 -31q4 -9 4 -17t-3 -24q-3 -13 -3 -19q2 -14 26 -15q41 0 70 66q18 40 40 121z" glyph-name="J" horiz-adv-x="406" unicode="J"/>
<glyph d="M384 583l-73 -224q51 0 69 16q189 164 234 226q7 9 7 18q-2 14 -25 15h-12q-9 1 -8 10l4 21q4 8 11 8q3 0 15 -1q58 -2 115 -2q43 0 85 2q9 1 12 1q11 -2 11 -11l-4 -18q-5 -9 -10 -10h-28q-33 -1 -73 -29q-28 -20 -268 -226q-13 -11 -17 -14q60 -104 161 -261 q11 -16 15 -22q36 -44 64 -46h24q9 -1 9 -10l-5 -21q-3 -8 -12 -8h-13q-55 3 -136 3q-35 0 -80 -2l-46 -1q-10 0 -9 9l2 22q3 7 9 8h10q28 0 33 18q1 2 1 4q-1 6 -3 10q-5 9 -61 115q-55 105 -60 115q-12 20 -33 21l-71 -217q-5 -19 -5 -28q0 -32 24 -37q4 -1 6 -1h22 q7 -2 7 -10l-4 -21q-3 -7 -13 -8q-3 0 -16 1q-62 2 -122 2q-70 0 -119 -3h-8q-9 2 -8 13l4 18q4 8 13 8h15q45 2 65 58l154 477q6 18 6 32q-2 30 -29 31h-25q-10 0 -10 7q1 2 1 3l7 23q4 6 12 6h12q55 -3 120 -3q66 0 118 2q11 1 14 1q7 -2 6 -12l-3 -19q-3 -8 -12 -8h-20 q-36 0 -53 -44q-2 -4 -3 -7z" glyph-name="K" horiz-adv-x="720" unicode="K"/>
<glyph d="M373 567l-155 -502q-2 -8 -2 -11q2 -17 24 -18h77q101 0 127 4q22 5 46 26q52 47 103 107q4 4 5 6q6 10 11 10l18 -8q5 -3 4 -7q-2 -8 -22 -74q-24 -79 -30 -99q-5 -15 -13 -16q-6 0 -26 6q-22 6 -37 6h-37q-159 3 -297 3q-58 0 -149 -2q-20 -1 -23 -1q-8 0 -8 6v4l4 21 q3 7 9 8h15q40 0 59 33q9 16 16 39l144 464q6 20 6 32q-2 29 -32 30h-37q-8 2 -8 8l7 25q3 6 12 6h15q63 -3 130 -3q78 0 145 3h15q8 -2 8 -10l-5 -21q-4 -8 -12 -8h-35q-39 0 -57 -30q-8 -15 -15 -37z" glyph-name="L" horiz-adv-x="660" unicode="L"/>
<glyph d="M686 105l139 483q2 9 -4 9q-6 -1 -11 -7l-407 -575q-11 -15 -28 -15q-14 2 -18 22l-71 504q-3 19 -10 4q-1 -2 -1 -3l-111 -325q-30 -86 -30 -129q1 -36 22 -37h32q7 -2 7 -8l-3 -23q-3 -7 -12 -8q-3 0 -15 1q-46 2 -88 2q-39 0 -81 -2q-13 -1 -16 -1q-7 2 -6 10l4 21 q3 7 7 8h20q43 0 75 68q15 31 42 108l117 332q13 37 13 58q0 27 -29 31q-5 1 -8 1h-39q-9 0 -9 5v3l4 21q4 9 11 10h11q72 -3 187 -3q18 0 21 -13q0 -5 1 -10l61 -449q2 -16 14 -10l6 6l326 460q12 16 29 16q69 0 165 2q21 1 25 1q9 -2 9 -10l-4 -21q-3 -8 -10 -8h-20 q-31 0 -51 -66q-1 -4 -2 -6l-128 -464q-4 -14 -4 -26q4 -31 25 -36h31q7 -2 7 -8l-4 -23q-3 -8 -12 -8h-14q-58 3 -134 3q-60 0 -116 -2q-11 -1 -14 -1q-9 2 -9 10l2 19q4 9 11 10h18q49 0 68 44q5 11 9 25z" glyph-name="M" horiz-adv-x="967" unicode="M"/>
<glyph d="M248 518l-75 -262q-36 -127 -36 -176q1 -43 27 -44h40q8 -2 8 -10l-3 -21q-5 -8 -12 -8q-3 0 -16 1q-56 2 -100 2q-49 0 -98 -2q-12 -1 -15 -1q-8 2 -7 10l3 21q3 7 9 8h17q45 0 75 63q14 29 30 79l109 342q11 36 11 57q0 47 -32 56q-5 1 -9 1h-40q-9 0 -7 8v2l5 21 q5 8 11 8h16q67 -3 152 -3q27 -1 38 -26l230 -446q7 -14 14 2l2 4l82 267q26 82 26 123q-1 39 -27 40h-27q-10 0 -10 4v4l3 24q3 7 10 7q3 0 16 -1q49 -2 98 -2q34 0 69 2q12 1 17 1q10 0 10 -7v-5l-4 -19q-3 -8 -9 -8h-25q-34 -2 -71 -104l-178 -504q-10 -25 -21 -26 q-18 2 -28 20l-263 500q-7 13 -14 1q-1 -2 -1 -3z" glyph-name="N" horiz-adv-x="740" unicode="N"/>
<glyph d="M359 35q86 0 161 111q81 123 96 290q2 27 2 53q0 111 -74 139q-21 7 -44 7q-75 0 -130 -62q-6 -8 -11 -14q-91 -110 -125 -253q-13 -55 -13 -104q0 -130 89 -160q23 -7 49 -7zM372 -15q-115 1 -183 63q-91 85 -91 230q0 161 94 276q111 129 282 131q161 0 233 -112 q46 -72 46 -177q0 -153 -94 -270q-98 -124 -249 -139q-19 -2 -38 -2z" glyph-name="O" horiz-adv-x="764" unicode="O"/>
<glyph d="M367 637l-84 -318q27 -16 72 -16q88 0 136 83q30 52 30 112q0 97 -78 131q-23 10 -41 10q-24 0 -35 -2zM94 114l119 450q5 20 5 35q-2 31 -25 32h-47q-6 1 -5 10l6 23q3 6 13 6q3 0 51 1q151 2 183 2q123 0 170 -22q20 -10 38 -25q47 -40 56 -88q4 -21 4 -48 q0 -107 -88 -169q-78 -54 -205 -54q-52 0 -96 11l-46 -169q-3 -15 -3 -29q2 -43 35 -44h40q9 -2 8 -10l-3 -21q-3 -8 -12 -8q-3 0 -16 1q-65 2 -132 2t-125 -2q-14 -1 -18 -1q-8 2 -8 10l2 19q3 9 11 10h16q48 0 69 67q2 6 3 11z" glyph-name="P" horiz-adv-x="626" unicode="P"/>
<glyph d="M512 634q-93 -1 -183 -124q-84 -113 -110 -246q-8 -40 -8 -74q0 -125 102 -152q21 -5 43 -5q85 0 166 113q84 116 106 267q6 39 6 75q0 135 -104 145q-9 1 -18 1zM489 685q153 0 225 -105q47 -70 47 -175q0 -139 -76 -258q-17 -25 -35 -46q-67 -78 -198 -111 q-13 -4 -25 -6q-100 -20 -194 -69q-12 -7 -21 -12l2 -9q56 10 132 10q114 -1 164 -65t67 -72q7 -3 12 -3q21 0 27 21q1 4 1 7q0 16 -6 29q-8 16 -8 33q0 35 35 43q7 1 14 1q48 -2 49 -59q0 -78 -90 -104q-36 -10 -81 -10q-70 0 -120 47l-8 8q-61 61 -129 74q-26 5 -55 5 q-42 0 -48 -9q-23 -36 -44 -37q-33 0 -38 42q-1 5 -1 9q0 28 135 87q73 32 84 38v7q-151 27 -194 170q-16 53 -16 117q0 127 84 247q27 39 52 60q65 53 107 70q62 25 150 25z" glyph-name="Q" horiz-adv-x="770" unicode="Q"/>
<glyph d="M379 638l-88 -279h26q63 1 114 24q50 23 77 79q16 34 16 70q0 54 -39 86q-27 21 -65 21q-29 0 -41 -1zM67 84l160 497q4 12 4 23q-2 26 -35 27h-29q-9 2 -8 8l5 23q3 8 13 8q66 0 179 2q53 1 67 1q147 0 201 -47q42 -36 42 -100q0 -81 -86 -138q-66 -43 -156 -52v-2 q37 -11 63 -58l1 -2l26 -52q53 -110 64 -128q37 -57 86 -58h25q8 -2 7 -10l-3 -21q-3 -7 -10 -8q-3 0 -11 1q-33 2 -73 2q-45 0 -85 -2q-16 -1 -22 -1q-10 0 -23 22q-3 4 -6 10q-23 40 -106 235q-4 7 -5 11q-21 48 -62 48h-9l-71 -215q-8 -24 -8 -42q1 -29 22 -30h43 q7 -2 7 -8l-3 -25q-3 -6 -12 -6q-3 0 -16 1q-64 2 -126 2q-58 0 -114 -2q-13 -1 -16 -1q-7 2 -6 10l4 21q3 8 10 8h32q21 0 37 38q2 6 3 10z" glyph-name="R" horiz-adv-x="705" unicode="R"/>
<glyph d="M537 665l-36 -190q-3 -5 -8 -6l-22 1q-8 2 -8 9v12q0 81 -42 120q-27 24 -65 24q-52 0 -75 -51q-8 -19 -8 -37q0 -53 48 -103q7 -8 23 -23l21 -21q53 -53 68 -74q46 -64 46 -144q0 -114 -90 -167q-53 -30 -121 -30q-79 1 -138 70q-14 13 -27 4q-22 -30 -26 -38 q-5 -5 -10 -3l-13 5q-5 4 -4 10l74 218q3 5 9 4l22 -4q5 -3 4 -10q-3 -24 -3 -44q0 -104 62 -146q25 -16 53 -16q63 0 89 53q10 21 10 44q0 48 -53 105q-6 6 -18 19q-15 15 -22 23q-64 70 -81 98q-37 60 -37 132q0 69 52 121q57 55 148 55q53 0 118 -45q6 -3 14 -3 q10 2 16 33q3 4 10 3l13 -1q7 -3 7 -7z" glyph-name="S" horiz-adv-x="530" unicode="S"/>
<glyph d="M103 7l3 21q4 7 11 8h27q48 0 70 39q12 21 25 62l150 495q-123 0 -153 -12q-12 -6 -20 -13q-53 -47 -116 -112q-4 -3 -9 -2l-20 11q-3 3 -1 9l76 171q4 9 10 10q5 -1 22 -10q30 -14 187 -14h211q133 0 164 18q11 6 14 6q10 -1 10 -7q-8 -59 -10 -172v-14q0 -4 1 -12v-8 q0 -6 -6 -8h-2l-18 -3q-7 -1 -13 13q-1 1 -1 2q-34 94 -41 107q-2 2 -3 4q-25 36 -147 36l-154 -510q-9 -29 -9 -46q6 -38 52 -40h39q8 -1 7 -10l-4 -21q-4 -8 -13 -8h-16q-73 3 -179 3q-52 0 -117 -2q-16 -1 -19 -1q-8 0 -8 6v4z" glyph-name="T" horiz-adv-x="660" unicode="T"/>
<glyph d="M360 579l-82 -267q-29 -106 -29 -141q0 -100 83 -123q17 -5 33 -5q81 1 131 40q65 52 101 167l10 36l61 230q15 52 15 81q-2 36 -29 37h-26q-9 0 -9 5v3l3 21q5 10 13 10q4 0 19 -1q50 -2 88 -2q41 0 78 2q10 1 13 1q9 0 9 -6v-6l-3 -19q-4 -7 -11 -8h-11q-38 0 -70 -94 q-3 -8 -5 -15l-76 -246q-50 -161 -123 -226q-79 -68 -209 -68q-137 0 -193 82q-28 43 -28 101q0 51 21 125l85 279q5 15 5 30q-2 31 -30 32h-36q-7 0 -7 6v2l5 23q3 8 13 8h14q61 -3 139 -3q60 0 112 2q10 1 13 1q10 0 9 -10v-2l-4 -19q-3 -7 -10 -8h-25q-39 0 -56 -52 q-1 -2 -1 -3z" glyph-name="U" horiz-adv-x="742" unicode="U"/>
<glyph d="M112 641l6 22q3 10 11 10q4 0 18 -1q64 -2 132 -2q52 0 108 2q14 1 18 1q12 -2 11 -10l-4 -21q-3 -7 -9 -8h-24q-45 -2 -53 -42l-62 -368q-1 -5 -1 -10q1 -11 7 -12q7 2 13 10l243 320q44 60 45 87q-2 14 -16 15h-17q-12 0 -12 8q1 2 1 4l4 19q3 8 12 8q5 0 21 -1 q45 -2 78 -2q39 0 79 2q13 1 17 1q11 -2 10 -12l-3 -17q-3 -9 -9 -10h-16q-44 -1 -141 -119l-420 -518q-14 -16 -34 -17q-16 2 -17 22q0 11 1 17l74 560q1 6 1 14q-1 40 -29 41h-33q-9 0 -10 4v3z" glyph-name="V" horiz-adv-x="598" unicode="V"/>
<glyph d="M125 641l5 24q4 7 12 8q3 0 14 -1q57 -2 113 -2q43 0 94 2q14 1 18 1q11 -1 10 -8l-4 -23q-3 -7 -10 -8h-12q-39 0 -49 -36q-2 -8 -3 -18l-49 -372q-2 -12 6 -12q5 2 9 7l189 281q35 58 38 112q-1 37 -21 38h-10q-9 1 -9 6l4 27q4 6 12 6q3 0 12 -1q44 -2 94 -2 q42 0 83 2q12 1 16 1q10 0 9 -10v-2l-3 -19q-3 -8 -11 -8h-11q-27 0 -32 -46v-2l-35 -382v-3q-1 -2 -1 -3q1 -10 5 -11q7 2 13 11q44 65 117 189q65 112 87 191q1 2 1 4q4 16 4 23q-2 28 -28 29h-19q-8 0 -8 6v2l4 21q4 9 11 10q4 0 17 -1q39 -2 75 -2q46 0 89 2q12 1 16 1 q11 0 12 -5v-3l-5 -23q-3 -7 -8 -8h-17q-28 -1 -47 -27q-7 -9 -128 -208q-49 -81 -58 -95q-48 -79 -191 -280q-3 -4 -5 -7q-27 -36 -47 -37q-21 2 -21 30v10l15 397q1 9 -5 9q-6 -2 -11 -9l-293 -408q-21 -28 -43 -29q-17 2 -18 31v8l55 562q1 10 1 24q-1 28 -13 29h-25 q-9 0 -10 4v3z" glyph-name="W" horiz-adv-x="851" unicode="W"/>
<glyph d="M300 329l-83 243q-19 54 -40 60q-5 2 -10 2h-26q-8 2 -8 10l3 19q3 9 8 10q5 0 24 -1q65 -2 121 -2q37 0 72 2l35 1q10 -2 9 -9l-3 -22q-4 -7 -9 -8h-19q-21 -2 -22 -25q0 -14 4 -25l49 -162q29 26 123 131q26 29 31 37t5 18q-4 24 -29 26h-18q-8 0 -8 4v4l3 25q4 6 12 6 q4 0 18 -1q54 -2 104 -2q32 0 62 2l31 1q11 -1 10 -7l-3 -24q-3 -8 -9 -8h-17q-32 -1 -79 -36q-7 -5 -130 -125q-89 -87 -94 -91l99 -294q12 -36 41 -49q9 -3 15 -3h20q8 -2 8 -10l-2 -21q-2 -8 -10 -8h-13q-54 3 -126 3q-41 0 -92 -2q-22 -1 -29 -1q-7 2 -7 9l4 22q3 7 9 8 h18q25 1 26 25q0 6 -2 13q-52 181 -66 214q-142 -142 -186 -205q-9 -12 -9 -25q2 -21 26 -22h20q6 -1 5 -10l-2 -19q-4 -9 -12 -10q-3 0 -16 1q-57 2 -116 2q-33 0 -82 -2q-17 -1 -21 -1q-9 2 -9 8l4 21q5 9 10 10h22q39 0 84 37q18 16 22 19q30 23 241 228z" glyph-name="X" horiz-adv-x="635" unicode="X"/>
<glyph d="M225 87l33 148q2 12 2 24q0 15 -3 27l-102 310q-15 37 -61 38h-23q-7 0 -7 4v4l4 23q3 8 10 8q4 0 15 -1q50 -2 117 -2q69 0 125 2q13 1 16 1q8 0 9 -5v-3l-2 -23q-3 -7 -9 -8h-26q-24 -2 -25 -25q0 -11 3 -21l69 -260q6 -14 11 -15q7 2 13 13q3 5 38 62q106 170 113 191 q5 17 5 25q-2 29 -35 30h-24q-8 2 -7 10l2 23q3 6 12 6q5 0 22 -1q50 -2 86 -2q47 0 93 2q13 1 17 1q10 -2 10 -10l-3 -22q-3 -6 -8 -7h-19q-44 -1 -71 -43q-5 -8 -63 -89q-137 -194 -147 -212q-15 -27 -28 -87l-25 -111q-4 -18 -4 -31q0 -21 19 -24q8 -1 21 -1h16 q7 -2 7 -8l-3 -23q-4 -7 -11 -8q-4 0 -18 1q-56 2 -117 2q-70 0 -123 -3h-13q-8 0 -8 6v2l4 23q2 7 9 8h19q54 1 65 51z" glyph-name="Y" horiz-adv-x="600" unicode="Y"/>
<glyph d="M362 0h-314q-14 1 -15 12q1 10 8 19l508 601q-216 0 -283 -23q-61 -23 -95 -84q-3 -7 -6 -12q-5 -7 -13 -6l-17 7q-5 2 -4 7l45 154q4 14 10 15q7 -1 15 -7q18 -13 146 -13h357q14 -1 15 -12q-1 -12 -7 -20l-502 -599q177 0 242 13q23 5 45 12q54 18 99 77q10 13 18 26 q6 7 10 5l16 -8q7 -5 4 -12l-54 -158q-4 -10 -11 -11q-9 1 -19 6q-18 11 -198 11z" glyph-name="Z" horiz-adv-x="678" unicode="Z"/>
<glyph d="M270 772h200q9 -2 8 -7l-7 -26q-4 -5 -14 -5h-98q-8 0 -11 -12q-1 -1 -1 -2l-244 -890q0 -9 6 -10h111q7 -2 7 -7l-6 -23q-3 -7 -15 -7h-208q-8 2 -5 14l263 965q5 10 14 10z" glyph-name="bracketleft" horiz-adv-x="310" unicode="["/>
<glyph d="M296 -2l-44 -12q-7 -1 -9 7q-1 1 -1 2l-136 667q-2 6 5 9h2l46 14q10 0 12 -7l135 -671q1 -7 -8 -9h-2z" glyph-name="backslash" horiz-adv-x="320" unicode="\"/>
<glyph d="M5 -165l244 890q0 9 -6 10h-111q-7 2 -7 7l6 23q3 7 15 7h204q11 -2 9 -14l-263 -965q-5 -10 -14 -10h-200q-9 2 -8 7l7 26q4 5 14 5h98q8 0 11 12q1 1 1 2z" glyph-name="bracketright" horiz-adv-x="310" unicode="]"/>
<glyph d="M46 268l208 417h33l208 -417h-80l-143 301h-6l-144 -301h-76z" glyph-name="asciicircum" unicode="^"/>
<glyph d="M0 -125v50h500v-50h-500z" glyph-name="underscore" unicode="_"/>
<glyph d="M283 481l-7 -8q-4 -4 -9 0l-119 79q-23 16 -24 38q0 27 25 38q9 4 17 4q24 -1 40 -24l77 -119q3 -5 0 -8z" glyph-name="grave" horiz-adv-x="240" unicode="`"/>
<glyph d="M134 101q2 -29 24 -30q23 0 92 98q35 48 47 74q23 52 23 96q0 24 -25 39q-10 6 -19 6q-38 -2 -75 -68q-67 -119 -67 -215zM394 432h71q10 -2 8 -12q-67 -193 -71 -208q-1 -5 -11 -40q-28 -93 -28 -104q0 -12 12 -12q14 2 56 56q6 6 10 4l12 -8q3 -4 -1 -13 q-22 -44 -68 -76q-43 -29 -90 -29q-39 2 -41 32q0 16 38 128l1 1v1l-9 5q-59 -91 -99 -125q-50 -42 -100 -42q-27 0 -52 32q-17 23 -17 46q0 88 62 197q67 118 152 151q27 11 53 11q50 -1 78 -35l16 29q8 10 18 11z" glyph-name="a" horiz-adv-x="476" unicode="a"/>
<glyph d="M126 62q0 -24 22 -29q6 -1 11 -1q33 0 78 44q10 9 18 19q87 103 87 213q0 41 -21 47q-2 1 -4 1q-34 0 -96 -85q-14 -19 -27 -39q-44 -68 -63 -142q-5 -18 -5 -28zM175 678h172q14 0 9 -15q-1 -2 -1 -3l-162 -361l10 -5q57 87 108 115q36 18 75 18q45 0 65 -48 q9 -20 9 -41q0 -116 -85 -221q-11 -14 -23 -26q-70 -75 -162 -93q-39 -8 -85 -8q-65 0 -84 44q-5 13 -5 28q0 31 12 63q74 201 184 475q8 19 8 27q-3 13 -23 15h-33q-6 2 -6 7l7 21q4 8 10 8z" glyph-name="b" horiz-adv-x="470" unicode="b"/>
<glyph d="M277 97l12 -10q4 -5 1 -11q-22 -33 -70 -60q-48 -26 -95 -26q-49 0 -79 41q-21 29 -21 70q0 89 58 188q67 114 158 134q17 4 34 4q58 0 75 -40q3 -8 3 -15q0 -33 -27 -52q-10 -6 -18 -6q-31 1 -40 26q-11 31 -32 32q-18 0 -38 -44q-4 -10 -10 -23q-31 -79 -37 -122 q-3 -29 -3 -63q2 -62 38 -63q37 0 74 29q5 4 8 7q5 5 9 4z" glyph-name="c" horiz-adv-x="331" unicode="c"/>
<glyph d="M325 325q0 56 -38 65q-6 1 -12 1q-35 0 -85 -111q-48 -115 -52 -184q1 -34 24 -35q19 0 87 97q3 4 8 12q4 5 5 7q45 63 60 124q3 14 3 24zM370 678h168q19 -2 13 -21q-29 -79 -139 -441q-30 -98 -35 -122q-4 -22 -4 -27q1 -15 11 -16q4 0 10.5 4.5t14.5 11.5t14 13l13 13 l6 7q6 4 10 1l12 -12q3 -5 0 -10q-53 -68 -129 -85q-20 -4 -39 -4q-37 1 -38 30q0 31 36 134l-12 6q-73 -118 -128 -152q-31 -18 -60 -18q-46 0 -69 51q-10 22 -10 43q0 84 59 184q25 42 57 78q76 80 151 81q48 -1 76 -32l56 206q2 8 2 13q-2 27 -30 28h-29q-9 1 -8 7l4 23 q4 6 17 6z" glyph-name="d" horiz-adv-x="486" unicode="d"/>
<glyph d="M161 221h2q34 0 73 27q9 6 16 13q27 25 31 71q1 6 1 11q-2 33 -27 34q-34 0 -71 -81q-16 -38 -25 -75zM315 111l16 -11q4 -5 2 -10q-19 -38 -75 -69t-116 -31q-77 0 -105 58q-12 24 -12 54q0 107 67 198q24 32 54 57q82 70 167 70q67 0 77 -53q1 -8 1 -16 q-1 -78 -91 -130q-67 -38 -147 -44q-8 -19 -8 -63q0 -45 33 -61q10 -4 21 -4q60 1 108 52q4 4 8 3z" glyph-name="e" horiz-adv-x="390" unicode="e"/>
<glyph d="M48 397h83q8 19 19 55q24 78 58 124q14 20 32 40q32 36 93 59q35 13 65 13q96 0 114 -54q3 -10 3 -19q0 -29 -28 -44q-11 -6 -23 -6q-51 0 -62 49q-1 2 -1 4q-8 28 -32 29q-52 0 -90 -133q-5 -17 -29 -117h105q7 -2 7 -9l-5 -25q-3 -9 -11 -10h-104q-6 -23 -22 -87 q-49 -195 -75 -271q-62 -181 -159 -254q-52 -38 -105 -38q-74 0 -90 45q-3 10 -3 20q0 37 30 49q9 4 19 4q42 0 51 -48q1 -4 1 -8q3 -16 22 -17q59 0 110 182q11 37 21 82l80 341h-84q-7 2 -7 9l6 27q4 7 11 8z" glyph-name="f" horiz-adv-x="309" unicode="f"/>
<glyph d="M178 -260q56 0 86 32q15 18 15 40q0 36 -25 57q-14 11 -48 30q-76 42 -92 52q-63 -39 -73 -85q-2 -11 -2 -22q0 -80 89 -99q23 -5 50 -5zM169 188q3 -45 30 -47q39 0 68 72q24 59 24 116q0 49 -10 58q-7 5 -18 5q-26 0 -46 -33l-8 -14q-37 -67 -40 -115v-22v-20z M150 -297q-121 0 -187 56q-37 32 -38 69q0 38 20 60q9 8 19 17q6 5 13 9.5t13 8.5t14 8.5t13 7.5t14.5 7t13.5 6t13.5 6t11.5 5t12 5l10 4q-39 29 -39 62q0 30 68 65l22 10v2q-58 29 -73 62q-12 26 -12 66q0 61 51 118q64 69 161 70q77 -1 109 -47q48 35 83 36q36 0 45 -35 q2 -6 2 -11q-1 -34 -31 -42q-6 -1 -11 -1q-17 1 -32 15q-12 10 -17 11q-13 -1 -22 -9q6 -16 6 -53q0 -44 -39 -99q-54 -73 -133 -84q-4 0 -7.5 -0.5l-7 -1l-7 -1t-6 -1t-5 -0.5t-4.5 -0.5t-3.5 -0.5t-3.5 -1h-1q-30 -17 -34 -42q1 -15 25 -29q6 -3 27 -14q67 -35 117 -63 q77 -44 78 -102q-2 -73 -78 -113q-71 -36 -170 -36z" glyph-name="g" horiz-adv-x="469" unicode="g"/>
<glyph d="M351 633l-148 -349l9 -7q94 149 183 150q88 -1 89 -106q0 -101 -59 -210q-3 -5 -5 -9q-79 -133 -178 -134q-45 0 -59 37q-4 13 -4 27q-1 33 24 46q10 5 20 5q33 0 39 -33q1 -3 1 -4q3 -35 19 -36q20 0 46 88q0 3 8 29q33 116 33 182q-1 42 -30 43q-40 -1 -127 -115 q-34 -47 -51 -90l-57 -140q-5 -7 -17 -7h-80q-12 0 -11 9q1 2 1 3l208 559q14 35 14 52q-4 17 -31 19h-28q-6 2 -6 8l5 20q5 8 11 8h180q11 -1 12 -10q-1 -12 -11 -35z" glyph-name="h" unicode="h"/>
<glyph d="M232 650q59 0 69 -42q2 -7 2 -14q0 -32 -32 -54q-18 -12 -37 -12q-51 0 -62 43q-2 9 -2 18q0 34 32 53q15 8 30 8zM261 116l12 -12q3 -5 1 -10q-31 -50 -90 -79q-49 -25 -105 -25q-38 1 -39 30q0 15 52 167q4 10 7 19l27 79q15 43 15 56q-2 12 -13 13q-18 0 -66 -59 q-5 -5 -7 -8q-6 -5 -11 -1l-9 9q-5 6 -3 9l2 3q81 108 173 119q9 1 17 1q43 -1 44 -36q0 -18 -29 -102q-2 -5 -3 -8l-54 -153q-16 -46 -16 -61q2 -13 13 -14q20 0 67 53q5 6 7 9q4 4 8 1z" glyph-name="i" horiz-adv-x="296" unicode="i"/>
<glyph d="M243 657q54 0 67 -41q3 -9 3 -17q0 -38 -36 -60q-18 -11 -37 -11q-42 0 -64 33q-8 14 -8 28q0 41 37 59q17 9 38 9zM-101 -230q-72 0 -94 43q-6 12 -6 24q0 37 29 53q11 6 22 6q39 0 52 -35q4 -9 4 -18q2 -30 17 -34q45 0 95 134q21 56 51 152l64 207q5 17 5 35 q-3 12 -16 15q-24 -1 -73 -49q-4 -3 -8 0l-10 11q-3 4 -1 8q21 30 70 63q64 42 126 42q26 0 38 -23q3 -8 3 -15q-1 -42 -37 -151l-58 -173q-45 -135 -122 -218q-72 -76 -151 -77z" glyph-name="j" horiz-adv-x="279" unicode="j"/>
<glyph d="M93 0h-88q-11 0 -9 12q1 2 1 3l221 583q4 10 4 19q-2 24 -30 25h-28q-7 2 -5 10l6 18q6 8 12 8h183q13 -1 6 -20l-151 -341l7 -4q49 65 112 97q35 17 64 17q53 0 66 -43q3 -10 3 -22q0 -71 -124 -140q-32 -18 -61 -29v-8l74 -113q24 -33 39 -34q18 1 41 23q5 3 9 0 l11 -13q1 -5 -3 -10q-47 -48 -118 -48q-57 0 -81 33q-8 12 -15 27l-43 100q-9 18 -32 18l-56 -161q-4 -7 -15 -7zM198 250l-23 -55q12 -2 18 -2q60 0 117 60q44 47 45 85q0 21 -18 24q-3 1 -5 1q-26 0 -89 -60q-10 -10 -15 -16q-3 -3 -9 -11q-16 -18 -21 -26z" glyph-name="k" horiz-adv-x="471" unicode="k"/>
<glyph d="M157 678h176q13 -2 7 -18l-200 -561q-6 -17 -6 -27q2 -15 16 -16q23 0 70 47l2 2q4 5 9 0l11 -12q2 -6 0 -11q-8 -15 -45 -41q-70 -51 -142 -51q-23 0 -38 25q-5 10 -5 17q0 16 28 93l157 454q7 20 7 36q-2 26 -26 27h-29q-8 2 -8 9l6 20q4 7 10 7z" glyph-name="l" horiz-adv-x="260" unicode="l"/>
<glyph d="M124 0h-84q-12 2 -9 13l65 189q43 126 45 133q1 6 1 9q-2 14 -12 15q-14 0 -58 -49q-7 -9 -10 -13q-5 -5 -11 0l-11 10q-4 5 -2 9q26 41 74 76q49 35 93 35q55 -1 56 -39q0 -21 -57 -152q-4 -8 -5 -12l10 -7q63 105 98 145q60 64 115 65q36 0 56 -28q7 -11 7 -21 q0 -27 -51 -158l9 -7q7 11 22 34q68 107 112 143q44 37 88 37q41 0 57 -38q4 -10 4 -18q0 -34 -52 -181q-37 -108 -38 -115q3 -13 12 -14q24 0 68 67q2 3 3 4q4 5 8 4l14 -10q4 -5 1 -13q-10 -23 -45 -58q-65 -64 -137 -65q-38 0 -45 30q-1 5 -1 8q1 30 54 170 q40 106 40 128q-2 18 -18 19q-19 0 -99 -109q-26 -35 -50 -71q-21 -34 -34 -71l-31 -88q-4 -6 -14 -6h-85q-13 2 -10 13l60 166q46 126 46 146q-2 19 -17 20q-18 0 -85 -86q-31 -40 -58 -81q-23 -34 -42 -83l-33 -88q-4 -7 -14 -7z" glyph-name="m" horiz-adv-x="768" unicode="m"/>
<glyph d="M119 0h-85q-9 0 -10 8q1 2 1 3l69 192q45 122 45 141q-1 15 -13 16q-18 0 -64 -50q-2 -3 -3 -4q-6 -4 -10 -1l-10 11q-4 5 -1 10q79 98 182 101q33 0 39 -31q1 -5 1 -8q-1 -21 -48 -130l9 -7q61 89 102 126q57 49 110 50q42 0 59 -42q5 -13 5 -25q-1 -27 -58 -187 q-32 -91 -32 -102q1 -16 13 -17q15 0 50 38l5 5q5 4 10 0l9 -8q5 -5 1 -12q-38 -51 -99 -74q-34 -13 -69 -13q-39 1 -40 38q1 20 52 166q40 114 40 131q-2 21 -20 22q-23 0 -85 -74q-31 -37 -52 -71q-44 -70 -49 -84l-39 -112q-5 -6 -15 -6z" glyph-name="n" horiz-adv-x="531" unicode="n"/>
<glyph d="M149 48q50 0 102 97q1 1 1 2q46 86 59 159q2 12 2 21q-2 42 -37 43q-39 0 -80 -62q-14 -22 -32 -54q-50 -88 -50 -162q0 -31 22 -41q7 -3 13 -3zM163 -10q-67 0 -104 53q-28 40 -28 100q1 140 79 226q56 58 143 58q85 0 121 -62q20 -35 20 -85q0 -94 -45 -177 q-17 -32 -39 -55q-58 -57 -147 -58z" glyph-name="o" horiz-adv-x="419" unicode="o"/>
<glyph d="M275 373l-118 -336q72 11 134 71q70 69 71 153q0 97 -48 112q-7 2 -13 2q-16 0 -26 -2zM225 521l114 32q4 2 6 2q4 -1 5 -4q0 -2 -3 -8l-54 -118q10 2 33 2q98 0 136 -71q16 -31 16 -69q-1 -123 -123 -212q-81 -59 -206 -74q-4 -1 -6 -1l-64 -196q-9 -26 -9 -41 q2 -26 37 -27h28q6 -1 6 -8l-6 -22q-4 -5 -12 -6q-3 0 -13 1q-51 2 -112 2q-69 0 -119 -3h-12q-7 0 -7 4v4l5 20q3 7 8 8h23q48 0 75 77q1 1 1 2l184 532q-53 -14 -101 -64q-7 -8 -11 -13q-5 -5 -11 -2l-10 9q-4 4 0 11q64 86 154 118l30 102q5 10 18 13z" glyph-name="p" horiz-adv-x="497" unicode="p"/>
<glyph d="M171 32q62 1 122 133q44 100 50 161q-2 55 -36 56q-25 0 -47 -23q-6 -5 -12 -12q-65 -73 -100 -182q-17 -51 -17 -88q2 -44 40 -45zM385 390l85 35q10 5 21 5q9 -2 10 -13q-1 -8 -4 -16l-229 -614q-6 -18 -6 -29q1 -21 18 -22h28q7 0 7 -5q-1 -2 -1 -3l-6 -20 q-3 -7 -10 -8q-3 0 -15 1q-52 2 -108 2q-61 0 -114 -2q-11 -1 -14 -1q-8 2 -8 10l4 18q4 7 9 8h25q50 0 71 44q1 3 2 5l108 249l-8 6q-41 -44 -100 -49q-6 -1 -11 -1q-55 0 -86 44q-22 31 -22 77q1 156 104 259q52 50 120 56q16 1 34 1q54 -1 82 -36q5 -5 14 -1z" glyph-name="q" horiz-adv-x="482" unicode="q"/>
<glyph d="M137 0h-86q-9 0 -9 6v3l48 162q48 157 48 174q-3 16 -17 19q-19 0 -53 -38q-8 -9 -13 -17q-6 -7 -12 -4l-10 7q-3 4 0 12q28 51 80 81q39 22 80 22q47 -6 52 -40q-1 -17 -43 -132l11 -6q81 177 158 178q35 0 51 -30q6 -12 6 -24q0 -37 -28 -58q-9 -7 -17 -7q-21 1 -33 8 q-20 12 -28 12q-29 0 -78 -75q-18 -30 -29 -55q-17 -42 -33 -90l-32 -101q-4 -7 -13 -7z" glyph-name="r" horiz-adv-x="390" unicode="r"/>
<glyph d="M96 -10q-93 0 -105 48q-2 6 -2 12q0 39 32 48q6 1 11 1q35 -2 54 -47q10 -24 27 -25q46 2 47 69q0 21 -25 58q-14 21 -22 35q-34 58 -39 75q-3 14 -3 29q0 70 62 108q43 26 104 26q66 0 82 -40q4 -10 4 -21q0 -44 -37 -49q-4 -1 -8 -1q-38 0 -44 40v2q-5 29 -24 30 q-27 0 -33 -27q-3 -12 -3 -28q1 -37 52 -98q34 -42 37 -87v-15q0 -80 -67 -119q-43 -24 -100 -24z" glyph-name="s" horiz-adv-x="325" unicode="s"/>
<glyph d="M329 540l-64 -143h101q6 -2 5 -9l-7 -26q-4 -8 -13 -9h-101l-82 -220q-14 -45 -14 -53q4 -17 22 -19q21 0 76 41q7 6 9 8q5 4 9 0l11 -12q4 -5 3 -8q-23 -31 -75 -62q-65 -38 -125 -38q-39 0 -50 27q-2 5 -2 9q0 35 11 62l91 265h-78q-8 2 -6 11l6 26q4 7 11 7h83l33 108 q5 12 22 13q6 1 12 1q33 3 84 31q3 1 4 2q10 6 16 6q9 0 9 -13q0 -3 -1 -5z" glyph-name="t" horiz-adv-x="321" unicode="t"/>
<glyph d="M405 417h89q13 -2 10 -13l-70 -214q-36 -109 -36 -123q3 -11 13 -12q14 1 54 53q5 5 10 1l11 -8q3 -4 0 -11q-24 -46 -74 -76q-42 -24 -89 -24q-39 4 -42 34q0 23 49 152l-11 6q-87 -135 -158 -174q-34 -18 -65 -18q-25 0 -44 28q-8 11 -8 19q0 43 39 138q7 16 21 50 q40 97 40 123q-2 16 -17 17q-20 0 -59 -41q-5 -6 -9 -11q-5 -5 -11 -1l-10 10q-2 6 0 9q54 69 115 88q27 8 56 8q40 0 50 -33q2 -7 2 -14q-1 -40 -54 -171q-42 -102 -42 -124q3 -15 17 -18q16 0 87 88q32 39 46 62q25 43 43 97l32 96q4 7 15 7z" glyph-name="u" horiz-adv-x="521" unicode="u"/>
<glyph d="M254 -10q-38 1 -73 32q-24 23 -24 83q0 55 25 111q24 55 101 142q4 5 7 8l-6 7q-33 -32 -97 -32h-49q-53 -1 -55 -29q0 -2 1 -4t2.5 -4l3 -4t4.5 -4l4.5 -3l4.5 -3t4 -2.5l5 -2.5l3 -2q20 -15 22 -45q-2 -40 -44 -41q-33 0 -48 39q-6 18 -6 39q0 49 35 95q3 2 4 4 q29 32 58 41q24 7 56 7q62 0 145 5q16 -1 17 -10q-1 -5 -3 -10q-53 -83 -65 -116q-18 -51 -18 -127q0 -73 36 -94q8 -4 16 -4q56 1 84 40q44 63 49 135q1 17 1 37q0 3 1 8v7q-1 32 -16 46q-12 15 -14 37q0 21 24 38q19 13 43 13q41 0 52 -57q2 -14 2 -28q0 -71 -33 -136 q-15 -30 -39 -69q-71 -116 -172 -141q-24 -6 -48 -6z" glyph-name="v" horiz-adv-x="555" unicode="v"/>
<glyph d="M179 417h85q2 0 50 3q26 3 47 3q14 -1 15 -10q-1 -5 -5 -11q-43 -56 -74 -141q-22 -61 -22 -107q0 -42 28 -63q11 -7 23 -8q50 1 86 44q27 33 39 132q1 9 2 32q3 60 10 88q16 31 58 35q32 0 39 -21q1 -4 1 -7q0 -15 -23 -76q-10 -25 -15 -44q-22 -83 -22 -112 q0 -59 45 -69q8 -2 16 -2q58 0 93 61q25 42 25 95q0 64 -21 91l-3 3q-19 20 -23 45q0 33 29 45q10 4 20 4q73 0 79 -93q1 -9 1 -18q0 -99 -70 -210q-8 -13 -16 -24q-48 -66 -96 -83q-25 -9 -54 -9q-78 1 -96 102q-63 -84 -138 -99q-14 -3 -27 -3q-83 0 -98 78q-3 15 -3 31 q0 86 99 219q24 32 46 56l-5 3q-3 -1 -11 -8q-51 -37 -95 -38h-78q-37 -1 -38 -20q1 -18 35 -30q21 -11 22 -43q0 -33 -32 -41q-7 -1 -13 -1q-31 0 -47 40q-8 22 -8 48q1 49 44 98q27 30 69 34q12 1 27 1z" glyph-name="w" horiz-adv-x="776" unicode="w"/>
<glyph d="M225 53l-21 98l-4 1q-72 -120 -116 -149q-21 -13 -38 -13q-43 2 -44 40q0 36 21 95l2 6q3 4 8 4l15 -4q5 -3 4 -8q-6 -24 -6 -37q1 -22 19 -23q21 0 87 76q24 29 42 54l-34 138q-6 22 -21 23q-20 0 -55 -64l-5 -10q-4 -5 -10 -3l-14 7q-3 3 -2 8q12 37 47 78 q50 56 106 57q47 0 58 -54q1 -4 1 -6l15 -90h6q45 83 73 112q29 29 51 35q11 3 22 3q37 -5 40 -40q0 -44 -26 -106q-1 -2 -1 -3q-4 -5 -10 -4l-12 4q-7 2 -7 5v3q8 34 8 47q-2 18 -15 19q-27 0 -105 -100q-6 -8 -11 -15l38 -158q7 -25 25 -26q14 0 46 46q10 15 13 22 q3 3 9 1l12 -6q5 -4 3 -10q-34 -63 -67 -88q-38 -28 -80 -28q-50 0 -64 52q-2 6 -3 11z" glyph-name="x" horiz-adv-x="470" unicode="x"/>
<glyph d="M46 275l-15 3q-4 3 -2 14q16 64 60 103q37 32 83 32q42 0 57 -49q7 -27 10 -70q7 -100 7 -197q0 -45 -2 -73l12 -1q29 52 64 142q11 30 15 47q8 41 8 67q0 10 -13 58q-5 17 -5 28q0 31 29 43q12 5 25 5q53 0 59 -58q1 -9 1 -19q0 -49 -58 -168q-7 -17 -15 -31 q-85 -158 -189 -289q-33 -42 -60 -69q-73 -76 -128 -87q-12 -3 -23 -3q-56 0 -66 39q-2 7 -2 14q0 40 31 56q10 5 19 5q19 -1 35 -18q16 -15 32 -16q20 1 40 14q50 31 93 97q14 20 14 51q0 9 -2 28q-2 13 -11 97q-23 220 -29 253q-6 23 -18 24q-21 0 -41 -49q-4 -10 -6 -18 q-4 -6 -9 -5z" glyph-name="y" horiz-adv-x="445" unicode="y"/>
<glyph d="M104 112l201 190l-4 6q-17 -3 -30 -3q-45 1 -78 35q-35 35 -45 40q-7 3 -12 3q-14 -2 -17 -14q1 -11 10 -18q20 -16 20 -40q2 -24 -22 -38q-10 -5 -18 -5q-49 0 -57 44q-1 8 -1 15q0 51 49 80q34 20 80 20q77 0 126 -32q41 -24 51 -25q15 2 25 34q11 32 40 43q10 3 19 3 q27 0 33 -22q1 -4 1 -7q0 -41 -70 -91q-12 -9 -23 -15l-201 -187l2 -7h13q52 0 82 -29q3 -4 10 -11q50 -54 58 -60q11 -7 18 -7q26 0 34 20q2 4 2 8q-1 14 -11 30q-16 24 -16 49q0 27 30 37q9 3 18 3q50 -2 51 -63q0 -79 -69 -111q-38 -17 -91 -17q-76 0 -115 31 q-7 6 -13 12q-36 36 -43 40t-11 4q-23 0 -33 -33q-1 -1 -1 -2q-13 -36 -53 -37q-26 0 -30 27q-1 4 -1 7q0 42 54 76q20 12 38 17z" glyph-name="z" horiz-adv-x="486" unicode="z"/>
<glyph d="M189 570q12 112 123 170q40 20 83 28q21 4 46 4q16 -2 17 -14q-1 -20 -12 -21q-11 0 -32 -4q-76 -15 -103 -92q-9 -29 -14 -67q-4 -27 -8 -80q-4 -54 -8 -71q-16 -62 -77 -96l-42 -24q-7 -6 -8 -12q0 -7 30 -26q2 -1 3 -2q36 -26 37 -67q0 -28 -35 -116q-4 -8 -6 -14 q-21 -52 -21 -110q1 -119 64 -134q17 -4 35 -4q7 -2 7 -21q-1 -13 -7 -14q-21 0 -45 3q-68 8 -114 57q-44 48 -44 120q0 60 38 139q34 70 39 87q3 14 3 25q0 38 -10 51q-10 12 -38 15q-12 3 -13 19q2 16 18 17q20 1 46 12q35 16 43 56q2 5 2 10q2 28 2 40q0 13 -1 38 q-1 27 -1 41q0 25 3 57z" glyph-name="braceleft" horiz-adv-x="310" unicode="{"/>
<glyph d="M136 -250v1003q2 8 6 9h55q7 -2 7 -12v-1000q-1 -9 -5 -10h-57q-6 2 -6 10z" glyph-name="bar" horiz-adv-x="250" unicode="|"/>
<glyph d="M319 592q0 -60 -38 -139q-34 -70 -39 -87q-3 -14 -3 -25q0 -35 10 -48q12 -15 38 -18q12 -4 13 -16q-2 -19 -18 -20h-7q-17 -1 -29 -8q-46 -21 -54 -63q-1 -4 -1 -7q-2 -28 -2 -40q0 -13 1 -38q1 -27 1 -41q0 -26 -3 -57q-12 -112 -123 -170q-40 -20 -83 -28 q-21 -4 -46 -4q-16 2 -17 14q1 20 12 21q11 0 32 4q76 15 103 92q9 29 14 67q4 27 8 80q4 54 8 71q16 62 77 96l42 24q7 6 8 12q-1 9 -33 27q-36 22 -37 68q0 28 35 116q4 8 6 14q21 52 21 110q0 105 -52 131q-7 3 -12 4q-14 3 -35 3q-7 2 -7 20q1 14 8 15q20 0 44 -3 q68 -8 114 -57q44 -48 44 -120z" glyph-name="braceright" horiz-adv-x="310" unicode="}"/>
<glyph d="M395 329h63q0 -145 -84 -162q-11 -2 -21 -2q-37 1 -83 26l-40 24q-36 21 -56 21q-41 -7 -48 -58q-1 -13 -1 -27h-63q0 121 70 155q21 10 44 10q31 -1 68 -21l42 -25q35 -22 51 -25q6 -1 12 -1q35 0 43 40q3 18 3 45z" glyph-name="asciitilde" unicode="~"/>
<glyph glyph-name="uni00A0" horiz-adv-x="200" unicode=" "/>
<glyph d="M2 -297q-51 0 -61 33q-2 6 -2 11q0 19 14 52q4 10 158 346q18 39 19 42q6 8 19 8q16 -2 12 -21q-7 -27 -53 -280q-24 -131 -26 -138q-13 -52 -80 -53zM186 294q-25 0 -44 23q-14 18 -14 42q0 45 37 62q14 6 28 6q39 0 56 -39q5 -12 5 -24q0 -49 -40 -65q-13 -5 -28 -5z " glyph-name="exclamdown" horiz-adv-x="267" unicode="¡"/>
<glyph d="M240 -15l-24 6q-8 4 -5 14l26 105q-151 3 -152 126q0 85 65 170q74 95 187 122l28 111q4 6 7 6l26 -6q6 -2 5 -9l-23 -95q8 1 20 1q55 0 72 -37q6 -12 6 -27q0 -35 -32 -45q-7 -2 -14 -2q-23 1 -33 23q-12 27 -26 32q-4 1 -7 2l-75 -317q4 -1 10 -1q41 0 95 32q9 5 13 0 l9 -15q2 -9 -6 -15q-63 -45 -134 -54l-29 -119q-3 -8 -9 -8zM255 175l71 306q-30 -11 -62 -51q-46 -61 -57 -150q-2 -14 -2 -26q0 -53 41 -75q5 -2 9 -4z" glyph-name="cent" unicode="¢"/>
<glyph d="M210 254h125q11 0 9 -6l-5 -27q-3 -7 -12 -7h-144q-15 -26 -60 -77l-3 -3l2 -7q27 3 50 3q85 0 142 -49q14 -12 27 -26q29 -29 52 -30q19 0 30 17q3 5 3 10q-6 16 -18 17q-26 0 -37 23q-3 7 -3 14q0 35 30 46q10 4 20 4q45 0 63 -39q8 -16 8 -35q0 -45 -45 -73 q-39 -24 -102 -24q-94 0 -147 52q-4 5 -8 9q-34 39 -44 45q-13 7 -27 7h-5q-10 -26 -31 -58q-32 -44 -62 -45q-37 2 -38 35q0 24 41 60q27 24 52 32q17 19 39 92h-67q-9 1 -9 7l4 27q3 5 10 6h72q4 10 19 68q28 112 44 152q44 113 143 153q44 18 94 18q74 0 104 -46 q9 -14 9 -27q0 -35 -33 -45q-6 -2 -10 -2h-4q-37 0 -54 39q-2 4 -3 7q-15 35 -40 36q-32 0 -61 -74q-12 -32 -26 -79q-25 -81 -85 -186q-6 -10 -9 -14z" glyph-name="sterling" unicode="£"/>
<glyph d="M279 207q76 0 94 71q5 18 5 39q0 72 -51 99q-21 11 -46 11q-70 0 -93 -63q-8 -22 -8 -47q0 -62 45 -93q24 -17 54 -17zM514 119l-33 -35q-6 -6 -14 0l-86 81q-39 -28 -107 -28q-64 1 -104 31l-82 -85q-5 -5 -12 1l-33 37q-5 7 1 12l82 79q-36 38 -39 97v4q4 73 42 114 l-83 74q-8 9 -2 17l34 36q6 5 12 -1l88 -83q43 25 109 27q56 0 95 -27l84 82q6 4 11 0l33 -33q6 -7 2 -12l-80 -75q33 -37 38 -98v-11q-1 -70 -39 -112l84 -81q3 -5 -1 -11z" glyph-name="currency" unicode="¤"/>
<glyph d="M202 196l11 59h-127q-8 1 -8 6l2 24q2 6 10 6h114l-5 19l-79 252q-8 27 -32 34q-5 1 -9 1h-22q-6 2 -6 7l4 21q3 8 9 8q3 0 15 -1q44 -2 93 -2q51 0 100 2q13 1 16 1q8 0 9 -5v-4l-2 -20q-3 -6 -9 -7h-14q-23 -2 -24 -25q0 -8 2 -19l48 -235q2 -14 12 -10q4 3 6 6 q122 203 132 228q5 13 5 26q-2 28 -33 29h-27q-7 2 -7 9l2 19q3 8 11 8q5 0 21 -1q49 -2 88 -2q34 0 75 2q13 1 17 1q9 -2 9 -9l-3 -18q-2 -8 -7 -9h-18q-30 -1 -58 -35q-31 -37 -163 -243q-13 -22 -17 -28h115q8 -1 8 -6l-5 -24q0 -6 -12 -6h-123l-17 -59h138q6 -2 6 -7 l-4 -23q-3 -6 -14 -6h-134l-16 -74q-3 -14 -3 -24q1 -29 27 -29h25q7 -2 7 -8l-3 -20q-3 -7 -10 -8q-5 0 -19 1q-46 2 -87 2q-67 0 -116 -3h-12q-7 0 -8 5v4l4 19q2 7 8 8h22q45 1 58 49l20 78h-130q-5 2 -5 6l3 23q2 7 9 7h127z" glyph-name="yen" unicode="¥"/>
<glyph d="M136 335v331q2 8 6 9h55q7 -2 7 -12v-328q-2 -9 -9 -10h-53q-6 2 -6 10zM136 -165v330q2 9 9 10h53q6 -2 6 -10v-330q-2 -9 -9 -10h-53q-6 2 -6 10z" glyph-name="brokenbar" horiz-adv-x="250" unicode="¦"/>
<glyph d="M226 468q-51 -23 -51 -104q0 -35 20 -61q5 -6 72 -83t68 -128v-3q48 29 48 111q-1 45 -37 95q-6 8 -53 55q-66 67 -67 118zM149 -98q28 0 59 31q37 37 37 89q-6 51 -68 122q-13 14 -27 29q-53 55 -64 106q-4 19 -4 38v12q0 67 65 129q35 33 75 49q19 80 79 130 q60 48 153 48q63 0 81 -40q4 -10 4 -20q-2 -42 -49 -43q-37 2 -55 41q-11 23 -34 24q-35 0 -62 -42q-20 -31 -20 -65q0 -36 23 -67q20 -24 60 -63q52 -51 68 -96q12 -33 12 -71q0 -88 -77 -152q-31 -25 -66 -39q-18 -82 -56 -121q-17 -17 -42 -33q-60 -38 -153 -38 q-61 0 -79 35q-5 10 -5 20q2 46 46 47q36 0 53 -31q1 -2 1 -3q15 -25 45 -26z" glyph-name="section" unicode="§"/>
<glyph d="M357 528q-45 0 -52 37q-1 7 -1 13q0 30 29 41q11 4 24 4q37 0 46 -33q2 -8 2 -16q0 -36 -34 -44q-7 -2 -14 -2zM181 528q-45 0 -52 37q-1 7 -1 13q0 30 29 41q11 4 24 4q37 0 46 -33q2 -8 2 -16q0 -36 -34 -44q-7 -2 -14 -2z" glyph-name="dieresis" horiz-adv-x="340" unicode="¨"/>
<glyph d="M433 24q171 0 248 137q44 78 44 174q0 171 -125 257q-77 54 -167 54q-131 0 -215 -94q-77 -87 -77 -217q0 -181 131 -264q73 -47 161 -47zM433 685q159 0 257 -106q90 -97 90 -244q0 -155 -100 -254q-97 -96 -247 -96q-167 0 -264 114q-83 97 -83 236q0 148 101 250 q102 99 246 100zM586 534l14 -118q0 -10 -3 -11l-19 -4q-6 -1 -9 6q-22 47 -40 64l-3 3q-39 37 -87 38q-66 0 -99 -76q-17 -40 -17 -84q3 -85 46 -133q41 -44 100 -44q64 0 118 60l5 5q6 5 11 3l14 -11q2 -4 -1 -10q-70 -95 -176 -96q-96 1 -151 53q-64 63 -64 159 q1 87 61 151q52 52 136 57h13q51 0 97 -25h1q17 -7 21 4l3 10q3 4 7 6h15q5 -2 7 -7z" glyph-name="copyright" horiz-adv-x="780" unicode="©"/>
<glyph d="M278 478q-2 32 -38 33q-30 0 -66 -67q-36 -66 -36 -115q1 -26 20 -27q17 0 68 68q24 31 35 52q17 34 17 56zM109 251q-36 0 -52 31q-6 14 -6 28q0 63 55 138q62 85 136 93q6 1 12 1t11.5 -0.5t10.5 -3t7.5 -3.5t7 -5t5.5 -5l6 -6l4 -5l13 19q4 4 12 4h52q11 0 6 -12 q-1 -1 -1 -2q-16 -34 -46 -123l-28 -91q2 -9 9 -10q15 0 44 35q5 6 11 2l12 -8q4 -4 -1 -11q-19 -29 -62 -49q-35 -17 -73 -17q-27 1 -28 21q1 17 25 75l-10 3q-65 -98 -132 -99z" glyph-name="ordfeminine" horiz-adv-x="367" unicode="ª"/>
<glyph d="M323 90l-125 136q-3 4 -4 6q1 3 5 7l155 145q4 3 6 4q3 -1 5 -3l11 -11q3 -4 4 -7q-1 -3 -5 -9l-71 -121l42 -123q1 -2 3 -5q1 -2 1 -3q-1 -3 -4 -7l-12 -11l-4 -2q-4 1 -7 4zM173 90l-125 136q-3 4 -4 6q1 3 5 7l155 145q4 3 6 4q3 -1 5 -3l11 -11q3 -4 4 -7 q-1 -3 -5 -9l-71 -121l42 -123q1 -2 3 -5q1 -2 1 -3q-1 -3 -4 -7l-12 -11l-4 -2q-4 1 -7 4z" glyph-name="guillemotleft" horiz-adv-x="375" unicode="«"/>
<glyph d="M72 294v72h397v-244h-77v172h-320z" glyph-name="logicalnot" unicode="¬"/>
<glyph d="M61 217v55q2 9 9 10h322q8 -2 9 -8v-55q-2 -8 -9 -9h-323q-7 2 -8 7z" glyph-name="uni00AD" horiz-adv-x="414" unicode="­"/>
<glyph d="M318 285q136 0 170 113q10 32 10 69q0 122 -100 166q-38 16 -80 16q-103 0 -151 -74q-29 -44 -29 -105q0 -122 97 -167q40 -18 83 -18zM318 685q121 0 184 -84q42 -56 42 -134q0 -111 -80 -172q-60 -46 -146 -46q-127 0 -189 90q-37 56 -37 128q0 105 79 168 q62 50 147 50zM286 576v-103q5 -1 20 -1q46 0 56 45q1 7 1 12q-1 23 -20 37q-15 12 -37 12q-8 0 -20 -2zM237 472l1 35v54q-3 16 -21 17h-7q-2 2 -2 3v14q0 3 3 3q1 0 16 -1q26 -1 31 -1q3 0 30 1q30 1 34 1q49 0 74 -21q19 -17 19 -42q0 -49 -49 -67q-9 -3 -17 -4v-2 q6 -2 15 -11q3 -3 24 -35q7 -9 8 -11q18 -26 32 -37q10 -5 28 -5q4 -1 4 -4v-11q-2 -2 -4 -3h-5q-16 1 -24 1h-16q-18 -1 -28 -1q-6 3 -16 20q-3 4 -27 40q-3 4 -14 23q-6 9 -7 11q-11 14 -23 15q-8 0 -10 -1v-15v-61q4 -13 13 -14h11q1 -2 2 -3v-12q0 -3 -3 -3h-14 q-27 1 -37 1t-37 -1h-11q-2 2 -3 4v11q1 2 2 3h9q18 5 19 18v91z" glyph-name="registered" unicode="®"/>
<glyph d="M120 517v45q2 6 10 6h200q9 -2 10 -7v-44q-2 -6 -9 -7h-203q-7 2 -8 7z" glyph-name="macron" horiz-adv-x="290" unicode="¯"/>
<glyph d="M217 643q-33 0 -46 -31q-4 -9 -4 -18q0 -32 27 -46q10 -5 21 -5q34 0 46 33q3 10 3 20q0 27 -24 41q-11 6 -23 6zM218 685q78 0 99 -58q5 -16 5 -33q0 -50 -46 -77q-27 -16 -61 -16q-85 0 -104 66q-3 13 -4 27q2 51 50 76q27 15 61 15z" glyph-name="degree" horiz-adv-x="250" unicode="°"/>
<glyph d="M62 80h397v-72h-397v72zM299 152h-77v142h-160v72h160v131h77v-131h160v-72h-160v-142z" glyph-name="plusminus" unicode="±"/>
<glyph d="M229 387h-175q-14 1 -15 10q1 10 8 16q107 85 142 121q70 73 71 124q0 44 -38 53q-7 1 -14 1q-39 0 -66 -36l-4 -6q-7 -10 -14 -8l-11 6q-4 4 -3 9q19 51 68 78q33 19 73 19q90 0 103 -76q2 -11 2 -23q0 -88 -164 -194q-4 -2 -11 -6q-11 -7 -15 -10l-2 -6h86q38 0 58 27 q4 6 7 11q5 6 10 3l11 -7q3 -5 1 -8q-23 -41 -39 -95q-1 -5 -2 -8q-3 -6 -10 -6q-8 1 -13 7q-6 4 -44 4z" glyph-name="twosuperior" horiz-adv-x="336" unicode="²"/>
<glyph d="M146 380q-66 0 -90 41q-7 13 -7 26q2 38 31 39q33 -2 34 -41v-5q0 -15 20 -23q9 -4 19 -4q46 0 73 46q16 28 16 58q0 54 -40 67q-3 0 -5 1q-10 3 -11 11q0 8 8 10q1 1 2 1q61 11 76 52q3 9 3 19q0 32 -29 41q-9 3 -18 3q-36 -1 -66 -37q-7 -5 -12 -3l-11 9q-2 4 1 10 q41 72 137 73q65 0 84 -41q5 -11 5 -20q-2 -68 -94 -105q66 -27 67 -86q0 -69 -71 -111q-53 -31 -122 -31z" glyph-name="threesuperior" horiz-adv-x="336" unicode="³"/>
<glyph d="M107 473l-7 10q-1 3 4 8l111 103q28 23 48 24q24 0 34 -26q3 -8 3 -16q-2 -27 -30 -40l-155 -64q-6 -2 -8 1z" glyph-name="acute" horiz-adv-x="240" unicode="´"/>
<glyph d="M452 620l-193 -746q-5 -14 -10 -14h-37q-4 2 -1 16l86 329q-112 0 -172 56q-44 42 -44 106q0 35 11 72q45 154 320 217q54 12 113 20q74 9 93 9q7 -2 7 -7l-7 -27q-4 -7 -10 -8q-5 0 -47 -7l-201 -768q-3 -7 -9 -8h-34q-7 0 -5 10q1 1 1 2l198 760q-40 -7 -59 -12z" glyph-name="paragraph" unicode="¶"/>
<glyph d="M167 272q-48 0 -65 42q-6 15 -6 31q0 41 34 61q17 10 37 10q55 0 70 -50q4 -12 4 -24q0 -46 -41 -64q-15 -6 -33 -6z" glyph-name="periodcentered" horiz-adv-x="250" unicode="·"/>
<glyph d="M62 0h44l-55 -71q70 -22 71 -62q0 -52 -92 -76q-40 -11 -76 -11q-18 2 -19 18q2 15 18 16q42 0 65 26q9 11 9 21q0 28 -32 44l-6 3z" glyph-name="cedilla" horiz-adv-x="265" unicode="¸"/>
<glyph d="M171 502l42 132q14 42 14 47q-2 7 -8 8q-5 0 -32 -8l-35 -10q-6 -2 -9 4l-6 15q0 5 4 7l174 69q19 8 28 8q10 -1 11 -8q-1 -8 -5 -20q-20 -52 -51 -147l-29 -89q-23 -69 -23 -75q2 -18 22 -19h27q5 -1 5 -5l-3 -22q-3 -5 -6 -5q-2 0 -20 1q-59 2 -76 2q-30 0 -104 -2 q-14 -1 -16 -1q-2 2 -3 5l4 22q3 4 7 5h22q30 1 44 22q3 6 22 64z" glyph-name="onesuperior" horiz-adv-x="336" unicode="¹"/>
<glyph d="M178 293q47 0 89 97q22 51 22 73q0 29 -28 34q-5 1 -9 1q-45 -2 -88 -92q-21 -42 -21 -79q0 -25 24 -32q6 -2 11 -2zM187 251q-71 0 -100 58q-13 29 -13 66q0 63 41 112q4 5 8 9q43 43 106 46h17q63 0 94 -51q15 -24 15 -49q-1 -95 -54 -149q-37 -39 -98 -42h-16z" glyph-name="ordmasculine" horiz-adv-x="349" unicode="º"/>
<glyph d="M225 384l125 -136q3 -4 4 -6q-1 -3 -5 -7l-155 -145q-4 -3 -6 -4q-3 1 -5 3l-11 11q-3 4 -4 7q1 3 5 9l71 121l-42 123q-1 2 -3 5q-1 2 -1 3q1 3 4 7l12 11l4 2q4 -1 7 -4zM75 384l125 -136q3 -4 4 -6q-1 -3 -5 -7l-155 -145q-4 -3 -6 -4q-3 1 -5 3l-11 11q-3 4 -4 7 q1 3 5 9l71 121l-42 123q-1 2 -3 5q-1 2 -1 3q1 3 4 7l12 11l4 2q4 -1 7 -4z" glyph-name="guillemotright" horiz-adv-x="375" unicode="»"/>
<glyph d="M594 642l26 -16q4 -3 5 -6q-1 -6 -4 -11l-404 -616q-5 -7 -10 -8q-2 0 -7 2l-1 1l-26 18q-5 6 -5 7q1 6 5 12l404 616q3 4 9 4q2 0 7 -2zM148 373l42 132q14 42 14 47q-2 7 -8 8q-10 -1 -32 -8l-35 -10q-6 -2 -9 4l-6 15q0 5 4 7l174 69q19 8 28 8q10 -1 11 -8 q-1 -8 -5 -20q-20 -52 -51 -147l-29 -89q-23 -69 -23 -75q2 -18 22 -19h27q5 -1 5 -5l-3 -22q-3 -5 -6 -5q-2 0 -20 1q-59 2 -76 2q-30 0 -104 -2q-14 -1 -16 -1q-2 2 -3 5l4 22q3 4 7 5h22q30 1 44 22q6 11 22 64zM462 141h98l42 104q5 13 -4 14q-5 -1 -10 -4l-124 -102 q-11 -8 -4 -11q1 -1 2 -1zM540 85h-145q-21 2 -22 17q1 13 20 29l304 247q11 9 24 9q13 -2 14 -16q0 -5 -2 -10l-85 -220h51q5 -2 3 -9l-16 -38q-5 -8 -9 -9h-50l-27 -75q-5 -9 -11 -10h-72q-10 0 -6 12q1 1 1 2z" glyph-name="onequarter" horiz-adv-x="750" unicode="¼"/>
<glyph d="M601 0h-175q-14 1 -15 10q1 10 8 16q107 85 142 121q70 73 71 124q0 44 -38 53q-7 1 -14 1q-39 0 -66 -36l-4 -6q-7 -10 -14 -8l-11 6q-4 4 -3 9q19 51 68 78q33 19 73 19q90 0 103 -76q2 -11 2 -23q0 -88 -164 -194q-4 -2 -11 -6q-11 -7 -15 -10l-2 -6h86q38 0 58 27 q4 6 7 11q5 6 10 3l11 -7q3 -5 1 -8q-23 -41 -39 -95q-1 -5 -2 -8q-3 -6 -10 -6q-8 1 -13 7q-6 4 -44 4zM591 642l26 -16q4 -3 5 -6q-1 -6 -4 -11l-404 -616q-5 -7 -10 -8q-2 0 -7 2l-1 1l-26 18q-5 6 -5 7q1 6 5 12l404 616q3 4 9 4q2 0 7 -2zM148 373l42 132q14 42 14 47 q-2 7 -8 8q-10 -1 -32 -8l-35 -10q-6 -2 -9 4l-6 15q0 5 4 7l174 69q19 8 28 8q10 -1 11 -8q-1 -8 -5 -20q-20 -52 -51 -147l-29 -89q-23 -69 -23 -75q2 -18 22 -19h27q5 -1 5 -5l-3 -22q-3 -5 -6 -5q-2 0 -20 1q-59 2 -76 2q-30 0 -104 -2q-14 -1 -16 -1q-2 2 -3 5l4 22 q3 4 7 5h22q30 1 44 22q6 11 22 64z" glyph-name="onehalf" horiz-adv-x="750" unicode="½"/>
<glyph d="M477 141h98l42 104q5 13 -4 14q-5 -1 -10 -4l-124 -102q-11 -8 -4 -11q1 -1 2 -1zM555 85h-145q-21 2 -22 17q1 13 20 29l304 247q11 9 24 9q13 -2 14 -16q0 -5 -2 -10l-85 -220h51q5 -2 3 -9l-16 -38q-5 -8 -9 -9h-50l-27 -75q-5 -9 -11 -10h-72q-10 0 -6 12q1 1 1 2z M138 251q-66 0 -90 41q-7 13 -7 26q2 38 31 39q33 -2 34 -41v-5q0 -15 20 -23q9 -4 19 -4q46 0 73 46q16 28 16 58q0 54 -40 67q-3 0 -5 1q-10 3 -11 11q0 8 8 10q1 1 2 1q61 11 76 52q3 9 3 19q0 32 -29 41q-9 3 -18 3q-36 -1 -66 -37q-7 -5 -12 -3l-11 9q-2 4 1 10 q41 72 137 73q65 0 84 -41q5 -11 5 -20q-2 -68 -94 -105q66 -27 67 -86q0 -69 -71 -111q-53 -31 -122 -31zM613 642l26 -16q4 -3 5 -6q-1 -6 -4 -11l-404 -616q-5 -7 -10 -8q-2 0 -7 2l-1 1l-26 18q-5 6 -5 7q1 6 5 12l404 616q3 4 9 4q2 0 7 -2z" glyph-name="threequarters" horiz-adv-x="750" unicode="¾"/>
<glyph d="M299 300q-41 0 -58 33q-6 13 -6 28q0 40 32 58q14 8 30 8q43 0 58 -39q5 -13 5 -27q0 -32 -28 -51q-16 -10 -33 -10zM165 -297q-121 0 -157 86q-10 24 -10 45q0 162 151 228q22 9 46 16q114 34 115 71q0 31 -41 35q-8 1 -17 1q-54 0 -88 -34q-5 -4 -9 1l-10 11q-3 4 -2 8 q19 31 58 52q28 15 54 15q78 0 100 -64q6 -19 6 -42q-1 -103 -151 -178q-73 -37 -95 -62q-24 -29 -24 -72q0 -38 31 -61q21 -16 51 -16q70 0 99 44q13 19 13 42q-4 34 -27 39q-12 -1 -16 -9q5 -12 5 -24q0 -36 -33 -48q-10 -3 -21 -3q-36 0 -44 36q-1 7 -1 13q0 54 53 74 q20 8 40 8q61 0 83 -45q9 -18 9 -39q0 -52 -51 -91q-48 -37 -117 -37z" glyph-name="questiondown" horiz-adv-x="425" unicode="¿"/>
<glyph d="M681 737l-7 -10q-3 -1 -7 0l-155 71q-32 16 -33 41q0 28 27 43q9 5 18 5q24 -1 44 -23l111 -119q4 -4 2 -8zM312 336h151l74 249q0 1 1 3v1q-1 9 -10 10q-7 -1 -11 -6zM452 300h-167l-98 -127q-61 -81 -62 -106q2 -30 41 -31h25q7 0 7 -8v-2l-3 -21q-4 -7 -11 -8h-14 q-62 3 -127 3q-55 0 -107 -2q-12 -1 -15 -1q-7 0 -8 5v4l4 22q3 7 7 8h16q40 0 91 42q15 13 26 27l470 555q9 9 23 9q19 0 77 8q13 2 32 6q11 2 15 2q11 -2 10 -10l-149 -555q-11 -37 -11 -56q0 -21 25 -27q6 -1 11 -1h21q8 -1 8 -7l-3 -23q-4 -8 -12 -9q-3 0 -16 1 q-60 2 -122 2q-59 0 -112 -2q-15 -1 -20 -1q-11 2 -10 10l4 21q3 7 8 8h20q34 0 51 25q12 19 22 55z" glyph-name="Agrave" horiz-adv-x="657" unicode="À"/>
<glyph d="M568 729l-6 10q-1 5 3 10l132 114q21 17 40 18q32 0 42 -32q3 -8 3 -16q-2 -31 -31 -43l-175 -62q-6 -2 -8 1zM312 336h151l74 249q0 1 1 3v1q-1 9 -10 10q-7 -1 -11 -6zM452 300h-167l-98 -127q-61 -81 -62 -106q2 -30 41 -31h25q7 0 7 -8v-2l-3 -21q-4 -7 -11 -8h-14 q-62 3 -127 3q-55 0 -107 -2q-12 -1 -15 -1q-7 0 -8 5v4l4 22q3 7 7 8h16q40 0 91 42q15 13 26 27l470 555q9 9 23 9q19 0 77 8q13 2 32 6q11 2 15 2q11 -2 10 -10l-149 -555q-11 -37 -11 -56q0 -21 25 -27q6 -1 11 -1h21q8 -1 8 -7l-3 -23q-4 -8 -12 -9q-3 0 -16 1 q-60 2 -122 2q-59 0 -112 -2q-15 -1 -20 -1q-11 2 -10 10l4 21q3 7 8 8h20q34 0 51 25q12 19 22 55z" glyph-name="Aacute" horiz-adv-x="657" unicode="Á"/>
<glyph d="M718 732l-80 53l-126 -57q-6 -1 -9 3l-7 12q0 3 2 7l147 147q10 9 17 -2l79 -148q2 -5 -2 -8l-10 -9q-5 -2 -11 2zM312 336h151l74 249q0 1 1 3v1q-1 9 -10 10q-7 -1 -11 -6zM452 300h-167l-98 -127q-61 -81 -62 -106q2 -30 41 -31h25q7 0 7 -8v-2l-3 -21q-4 -7 -11 -8 h-14q-62 3 -127 3q-55 0 -107 -2q-12 -1 -15 -1q-7 0 -8 5v4l4 22q3 7 7 8h16q40 0 91 42q15 13 26 27l470 555q9 9 23 9q19 0 77 8q13 2 32 6q11 2 15 2q11 -2 10 -10l-149 -555q-11 -37 -11 -56q0 -21 25 -27q6 -1 11 -1h21q8 -1 8 -7l-3 -23q-4 -8 -12 -9q-3 0 -16 1 q-60 2 -122 2q-59 0 -112 -2q-15 -1 -20 -1q-11 2 -10 10l4 21q3 7 8 8h20q34 0 51 25q12 19 22 55z" glyph-name="Acircumflex" horiz-adv-x="657" unicode="Â"/>
<glyph d="M480 747l-13 8q-2 5 -1 10q16 50 53 79q17 13 30 13q25 0 87 -15q34 -8 60 -8q34 1 51 29q4 5 8 4l15 -8q6 -3 -1 -19q-1 -1 -1 -2q-28 -61 -67 -74q-8 -3 -15 -3q-33 0 -76 11q-45 12 -71 12q-25 0 -47 -28l-4 -6q-4 -4 -8 -3zM312 336h151l74 249q0 1 1 3v1 q-1 9 -10 10q-7 -1 -11 -6zM452 300h-167l-98 -127q-61 -81 -62 -106q2 -30 41 -31h25q7 0 7 -8v-2l-3 -21q-4 -7 -11 -8h-14q-62 3 -127 3q-55 0 -107 -2q-12 -1 -15 -1q-7 0 -8 5v4l4 22q3 7 7 8h16q40 0 91 42q15 13 26 27l470 555q9 9 23 9q19 0 77 8q13 2 32 6 q11 2 15 2q11 -2 10 -10l-149 -555q-11 -37 -11 -56q0 -21 25 -27q6 -1 11 -1h21q8 -1 8 -7l-3 -23q-4 -8 -12 -9q-3 0 -16 1q-60 2 -122 2q-59 0 -112 -2q-15 -1 -20 -1q-11 2 -10 10l4 21q3 7 8 8h20q34 0 51 25q12 19 22 55z" glyph-name="Atilde" horiz-adv-x="657" unicode="Ã"/>
<glyph d="M721 748q-53 9 -58 55q0 32 31 44q12 4 27 4q38 0 49 -33q3 -9 3 -19q0 -36 -33 -48q-10 -3 -19 -3zM523 748q-53 9 -58 55q0 32 31 44q12 4 27 4q38 0 49 -33q3 -9 3 -19q0 -36 -33 -48q-10 -3 -19 -3zM312 336h151l74 249q0 1 1 3v1q-1 9 -10 10q-7 -1 -11 -6zM452 300 h-167l-98 -127q-61 -81 -62 -106q2 -30 41 -31h25q7 0 7 -8v-2l-3 -21q-4 -7 -11 -8h-14q-62 3 -127 3q-55 0 -107 -2q-12 -1 -15 -1q-7 0 -8 5v4l4 22q3 7 7 8h16q40 0 91 42q15 13 26 27l470 555q9 9 23 9q19 0 77 8q13 2 32 6q11 2 15 2q11 -2 10 -10l-149 -555 q-11 -37 -11 -56q0 -21 25 -27q6 -1 11 -1h21q8 -1 8 -7l-3 -23q-4 -8 -12 -9q-3 0 -16 1q-60 2 -122 2q-59 0 -112 -2q-15 -1 -20 -1q-11 2 -10 10l4 21q3 7 8 8h20q34 0 51 25q12 19 22 55z" glyph-name="Adieresis" horiz-adv-x="657" unicode="Ä"/>
<glyph d="M626 871q-24 0 -40 -24q-10 -15 -10 -33q0 -47 40 -55q6 -1 12 -1q36 0 48 34q3 11 3 23q0 46 -41 55q-6 1 -12 1zM631 901q80 0 106 -48q9 -17 9 -37q0 -53 -59 -76q-29 -12 -63 -12q-79 0 -106 45q-9 16 -9 35q0 57 62 82q28 11 60 11zM312 336h151l74 249q0 1 1 3v1 q-1 9 -10 10q-7 -1 -11 -6zM452 300h-167l-98 -127q-61 -81 -62 -106q2 -30 41 -31h25q7 0 7 -8v-2l-3 -21q-4 -7 -11 -8h-14q-62 3 -127 3q-55 0 -107 -2q-12 -1 -15 -1q-7 0 -8 5v4l4 22q3 7 7 8h16q40 0 91 42q15 13 26 27l470 555q9 9 23 9q55 0 77 3q13 2 30 5 q13 3 18 3q10 -2 9 -10l-149 -550q-11 -37 -11 -56q0 -21 25 -27q6 -1 11 -1h21q8 -1 8 -7l-3 -23q-4 -8 -12 -9q-3 0 -16 1q-60 2 -122 2q-59 0 -112 -2q-15 -1 -20 -1q-11 2 -10 10l4 21q3 7 8 8h20q34 0 51 25q12 19 22 55z" glyph-name="Aring" horiz-adv-x="657" unicode="Å"/>
<glyph d="M365 90l69 218h-177l-125 -153q-51 -64 -57 -95q0 -19 22 -23q4 -1 6 -1h28q7 -2 6 -10l-3 -21q-4 -7 -11 -8q-3 0 -17 1q-54 2 -97 2q-65 0 -120 -2q-11 -1 -14 -1q-8 2 -8 10l4 21q3 7 8 8h18q57 0 119 66l5 5l457 506q10 11 0 18q-4 3 -8 3h-24q-7 0 -7 4q1 2 1 4 l8 26q4 5 11 5q5 0 24 -1q65 -2 115 -2q141 0 278 2q30 1 37 1q15 0 18 -10q2 -4 3 -9l32 -137q0 -6 -4 -8l-13 -7q-7 -1 -14 5l-111 120q-7 7 -18 7h-134l-94 -291h89q55 0 94 50q12 14 22 32q6 7 10 7l19 -6q5 -3 5 -7q-39 -90 -53 -199q-3 -7 -9 -7l-19 1q-5 2 -6 10 q-8 72 -78 82q-14 2 -31 2h-53l-85 -272h192q73 0 171 112q8 9 25 29q6 6 12 4l13 -9q4 -5 2 -13l-51 -145q-10 -16 -22 -17q-6 0 -66 1q-65 1 -103 1q-45 0 -142 1h-124q-32 0 -74 -1h-27q-10 -1 -21 -1q-6 -1 -8 -1q-10 2 -10 11l3 20q3 7 8 8h37q50 1 67 54zM289 344h156 l81 246q4 11 -3 11q-4 -1 -7 -4z" glyph-name="AE" horiz-adv-x="944" unicode="Æ"/>
<glyph d="M631 197l-71 -214q-4 -6 -11 -5l-21 5q-4 3 -3 8q3 16 3 17q-2 13 -15 14q-16 -1 -39 -11q-35 -18 -109 -24q-6 -1 -11 -1l-41 -59q71 -17 78 -54q1 -6 1 -12q0 -42 -66 -71q-52 -22 -112 -22q-18 2 -19 15q1 15 12 16q65 2 80 38q4 10 4 19q0 26 -40 41q-4 2 -8 3l64 87 q-141 9 -203 106q-33 53 -33 123q0 160 74 271q26 40 66 83q106 115 270 115h11q72 -1 121 -33q33 -22 45 -23q19 1 26 21q4 7 9 7l21 -4q5 -3 3 -10l-53 -212q-4 -7 -11 -6l-22 2q-7 2 -6 10q1 11 1 29q0 110 -63 154q-32 21 -74 21q-81 0 -148 -83q-12 -14 -24 -31 q-90 -132 -96 -297v-17q0 -117 77 -162q28 -17 55 -17q157 2 241 174q3 5 10 4l22 -6q6 -4 5 -9z" glyph-name="Ccedilla" horiz-adv-x="672" unicode="Ç"/>
<glyph d="M530 737l-7 -10q-3 -1 -7 0l-155 71q-32 16 -33 41q0 28 27 43q9 5 18 5q24 -1 44 -23l111 -119q4 -4 2 -8zM404 634l-84 -259h78q55 0 94 50q12 14 22 32q6 7 10 7l19 -6q5 -3 5 -7q-39 -90 -53 -199q-3 -7 -9 -7l-19 1q-5 2 -6 10q-8 70 -75 81q-15 2 -34 2h-42 l-96 -303h192q73 0 171 112q8 9 25 29q6 6 12 4l13 -9q4 -5 2 -13l-51 -145q-10 -16 -22 -17q-6 0 -66 1q-65 1 -103 1q-45 0 -143 1h-127q-28 0 -67 -1h-27q-10 -1 -21 -1q-7 -1 -9 -1q-9 0 -9 6q1 2 1 4l3 21q4 8 8 8h27q51 1 68 54l152 475q5 17 5 26q0 36 -37 42 q-5 1 -9 1h-35q-6 0 -5 6q1 1 1 2l6 24q4 7 12 7h13q57 -3 135 -3q141 0 278 2q30 1 37 1q15 0 18 -10q2 -4 3 -9l32 -137q0 -6 -4 -8l-13 -7q-7 -1 -14 5l-111 120q-7 7 -18 7h-133z" glyph-name="Egrave" horiz-adv-x="675" unicode="È"/>
<glyph d="M427 729l-6 10q-1 5 3 10l132 114q21 17 40 18q32 0 42 -32q3 -8 3 -16q-2 -31 -31 -43l-175 -62q-6 -2 -8 1zM404 634l-84 -259h78q55 0 94 50q12 14 22 32q6 7 10 7l19 -6q5 -3 5 -7q-39 -90 -53 -199q-3 -7 -9 -7l-19 1q-5 2 -6 10q-8 70 -75 81q-15 2 -34 2h-42 l-96 -303h192q73 0 171 112q8 9 25 29q6 6 12 4l13 -9q4 -5 2 -13l-51 -145q-10 -16 -22 -17q-6 0 -66 1q-65 1 -103 1q-45 0 -143 1h-127q-28 0 -67 -1h-27q-10 -1 -21 -1q-7 -1 -9 -1q-9 0 -9 6q1 2 1 4l3 21q4 8 8 8h27q51 1 68 54l152 475q5 17 5 26q0 36 -37 42 q-5 1 -9 1h-35q-6 0 -5 6q1 1 1 2l6 24q4 7 12 7h13q57 -3 135 -3q141 0 278 2q30 1 37 1q15 0 18 -10q2 -4 3 -9l32 -137q0 -6 -4 -8l-13 -7q-7 -1 -14 5l-111 120q-7 7 -18 7h-133z" glyph-name="Eacute" horiz-adv-x="675" unicode="É"/>
<glyph d="M572 732l-80 53l-126 -57q-6 -1 -9 3l-7 12q0 3 2 7l147 147q10 9 17 -2l79 -148q2 -5 -2 -8l-10 -9q-5 -2 -11 2zM404 634l-84 -259h78q55 0 94 50q12 14 22 32q6 7 10 7l19 -6q5 -3 5 -7q-39 -90 -53 -199q-3 -7 -9 -7l-19 1q-5 2 -6 10q-8 70 -75 81q-15 2 -34 2h-42 l-96 -303h192q73 0 171 112q8 9 25 29q6 6 12 4l13 -9q4 -5 2 -13l-51 -145q-10 -16 -22 -17q-6 0 -66 1q-65 1 -103 1q-45 0 -143 1h-127q-28 0 -67 -1h-27q-10 -1 -21 -1q-7 -1 -9 -1q-9 0 -9 6q1 2 1 4l3 21q4 8 8 8h27q51 1 68 54l152 475q5 17 5 26q0 36 -37 42 q-5 1 -9 1h-35q-6 0 -5 6q1 1 1 2l6 24q4 7 12 7h13q57 -3 135 -3q141 0 278 2q30 1 37 1q15 0 18 -10q2 -4 3 -9l32 -137q0 -6 -4 -8l-13 -7q-7 -1 -14 5l-111 120q-7 7 -18 7h-133z" glyph-name="Ecircumflex" horiz-adv-x="675" unicode="Ê"/>
<glyph d="M575 748q-53 9 -58 55q0 32 31 44q12 4 27 4q38 0 49 -33q3 -9 3 -19q0 -36 -33 -48q-10 -3 -19 -3zM377 748q-53 9 -58 55q0 32 31 44q12 4 27 4q38 0 49 -33q3 -9 3 -19q0 -36 -33 -48q-10 -3 -19 -3zM404 634l-84 -259h78q55 0 94 50q12 14 22 32q6 7 10 7l19 -6 q5 -3 5 -7q-39 -90 -53 -199q-3 -7 -9 -7l-19 1q-5 2 -6 10q-8 70 -75 81q-15 2 -34 2h-42l-96 -303h192q73 0 171 112q8 9 25 29q6 6 12 4l13 -9q4 -5 2 -13l-51 -145q-10 -16 -22 -17q-6 0 -66 1q-65 1 -103 1q-45 0 -143 1h-127q-28 0 -67 -1h-27q-10 -1 -21 -1 q-7 -1 -9 -1q-9 0 -9 6q1 2 1 4l3 21q4 8 8 8h27q51 1 68 54l152 475q5 17 5 26q0 36 -37 42q-5 1 -9 1h-35q-6 0 -5 6q1 1 1 2l6 24q4 7 12 7h13q57 -3 135 -3q141 0 278 2q30 1 37 1q15 0 18 -10q2 -4 3 -9l32 -137q0 -6 -4 -8l-13 -7q-7 -1 -14 5l-111 120q-7 7 -18 7 h-133z" glyph-name="Edieresis" horiz-adv-x="675" unicode="Ë"/>
<glyph d="M385 737l-7 -10q-3 -1 -7 0l-155 71q-32 16 -33 41q0 28 27 43q9 5 18 5q24 -1 44 -23l111 -119q4 -4 2 -8zM364 565l-125 -461q-4 -15 -4 -28q2 -39 43 -40h37q7 -2 6 -10l-3 -21q-4 -8 -12 -8h-14q-72 3 -156 3q-66 0 -132 -2q-13 -1 -16 -1q-8 2 -8 10l5 23q3 6 8 6 h33q47 0 61 25q7 12 16 47l125 460q5 20 5 31q-1 34 -26 35h-46q-9 0 -9 5v3l5 25q3 6 13 6q3 0 18 -1q72 -2 137 -2q62 0 124 2q16 1 20 1q12 0 12 -8q-1 -3 -1 -4l-5 -19q-4 -7 -11 -8h-31q-48 0 -67 -62q-1 -4 -2 -7z" glyph-name="Igrave" horiz-adv-x="385" unicode="Ì"/>
<glyph d="M322 729l-6 10q-1 5 3 10l132 114q21 17 40 18q32 0 42 -32q3 -8 3 -16q-2 -31 -31 -43l-175 -62q-6 -2 -8 1zM364 565l-125 -461q-4 -15 -4 -28q2 -39 43 -40h37q7 -2 6 -10l-3 -21q-4 -8 -12 -8h-14q-72 3 -156 3q-66 0 -132 -2q-13 -1 -16 -1q-8 2 -8 10l5 23q3 6 8 6 h33q47 0 61 25q7 12 16 47l125 460q5 20 5 31q-1 34 -26 35h-46q-9 0 -9 5v3l5 25q3 6 13 6q3 0 18 -1q72 -2 137 -2q62 0 124 2q16 1 20 1q12 0 12 -8q-1 -3 -1 -4l-5 -19q-4 -7 -11 -8h-31q-48 0 -67 -62q-1 -4 -2 -7z" glyph-name="Iacute" horiz-adv-x="385" unicode="Í"/>
<glyph d="M422 732l-80 53l-126 -57q-6 -1 -9 3l-7 12q0 3 2 7l147 147q10 9 17 -2l79 -148q2 -5 -2 -8l-10 -9q-5 -2 -11 2zM364 565l-125 -461q-4 -15 -4 -28q2 -39 43 -40h37q7 -2 6 -10l-3 -21q-4 -8 -12 -8h-14q-72 3 -156 3q-66 0 -132 -2q-13 -1 -16 -1q-8 2 -8 10l5 23 q3 6 8 6h33q47 0 61 25q7 12 16 47l125 460q5 20 5 31q-1 34 -26 35h-46q-9 0 -9 5v3l5 25q3 6 13 6q3 0 18 -1q72 -2 137 -2q62 0 124 2q16 1 20 1q12 0 12 -8q-1 -3 -1 -4l-5 -19q-4 -7 -11 -8h-31q-48 0 -67 -62q-1 -4 -2 -7z" glyph-name="Icircumflex" horiz-adv-x="385" unicode="Î"/>
<glyph d="M440 748q-53 9 -58 55q0 32 31 44q12 4 27 4q38 0 49 -33q3 -9 3 -19q0 -36 -33 -48q-10 -3 -19 -3zM242 748q-53 9 -58 55q0 32 31 44q12 4 27 4q38 0 49 -33q3 -9 3 -19q0 -36 -33 -48q-10 -3 -19 -3zM364 565l-125 -461q-4 -15 -4 -28q2 -39 43 -40h37q7 -2 6 -10 l-3 -21q-4 -8 -12 -8h-14q-72 3 -156 3q-66 0 -132 -2q-13 -1 -16 -1q-8 2 -8 10l5 23q3 6 8 6h33q47 0 61 25q7 12 16 47l125 460q5 20 5 31q-1 34 -26 35h-46q-9 0 -9 5v3l5 25q3 6 13 6q3 0 18 -1q72 -2 137 -2q62 0 124 2q16 1 20 1q12 0 12 -8q-1 -3 -1 -4l-5 -19 q-4 -7 -11 -8h-31q-48 0 -67 -62q-1 -4 -2 -7z" glyph-name="Idieresis" horiz-adv-x="385" unicode="Ï"/>
<glyph d="M156 324h-93q-5 2 -4 8l8 27q3 6 9 7h90l53 215q2 7 2 16q-4 31 -38 34h-37q-11 0 -11 5q1 2 1 3l6 24q4 7 16 7q30 0 73 3q15 0 47 1q52 2 71 2q213 0 312 -58q29 -18 51 -39q71 -72 75 -167v-14q0 -184 -136 -296q-24 -20 -49 -34q-126 -71 -313 -71h-26q-13 0 -57 1 q-45 2 -59 2q-82 0 -133 -3h-9q-8 2 -8 10l6 22q4 6 10 7h12q59 0 78 75q1 1 1 2zM295 324l-53 -218q-7 -32 -7 -42q0 -20 33 -27q7 -1 13 -1q141 1 241 80q70 55 105 161q20 60 20 118q0 95 -57 158l-9 9q-50 47 -86 59q-46 15 -93 15q-29 -1 -33 -11l-64 -259h151 q7 -2 7 -6l-9 -30q-5 -6 -11 -6h-148z" glyph-name="Eth" horiz-adv-x="793" unicode="Ð"/>
<glyph d="M401 747l-13 8q-2 5 -1 10q16 50 53 79q17 13 30 13q25 0 87 -15q34 -8 60 -8q34 1 51 29q4 5 8 4l15 -8q6 -3 -1 -19q-1 -1 -1 -2q-28 -61 -67 -74q-8 -3 -15 -3q-33 0 -76 11q-45 12 -71 12q-25 0 -47 -28l-4 -6q-4 -4 -8 -3zM248 518l-75 -262q-36 -127 -36 -176 q1 -43 27 -44h40q8 -2 8 -10l-3 -21q-5 -8 -12 -8q-3 0 -16 1q-56 2 -100 2q-49 0 -98 -2q-12 -1 -15 -1q-8 2 -7 10l3 21q3 7 9 8h17q45 0 75 63q14 29 30 79l109 342q11 36 11 57q0 47 -32 56q-5 1 -9 1h-40q-9 0 -7 8v2l5 21q5 8 11 8h16q67 -3 152 -3q27 -1 38 -26 l230 -446q7 -14 14 2l2 4l82 267q26 82 26 123q-1 39 -27 40h-27q-10 0 -10 4v4l3 24q3 7 10 7q3 0 16 -1q49 -2 98 -2q34 0 69 2q12 1 17 1q10 0 10 -7v-5l-4 -19q-3 -8 -9 -8h-25q-34 -2 -71 -104l-178 -504q-10 -25 -21 -26q-18 2 -28 20l-263 500q-7 13 -14 1 q-1 -2 -1 -3z" glyph-name="Ntilde" horiz-adv-x="740" unicode="Ñ"/>
<glyph d="M565 737l-7 -10q-3 -1 -7 0l-155 71q-32 16 -33 41q0 28 27 43q9 5 18 5q24 -1 44 -23l111 -119q4 -4 2 -8zM359 35q86 0 161 111q81 123 96 290q2 27 2 53q0 111 -74 139q-21 7 -44 7q-75 0 -130 -62q-6 -8 -11 -14q-91 -110 -125 -253q-13 -55 -13 -104q0 -130 89 -160 q23 -7 49 -7zM372 -15q-115 1 -183 63q-91 85 -91 230q0 161 94 276q111 129 282 131q161 0 233 -112q46 -72 46 -177q0 -153 -94 -270q-98 -124 -249 -139q-19 -2 -38 -2z" glyph-name="Ograve" horiz-adv-x="764" unicode="Ò"/>
<glyph d="M482 729l-6 10q-1 5 3 10l132 114q21 17 40 18q32 0 42 -32q3 -8 3 -16q-2 -31 -31 -43l-175 -62q-6 -2 -8 1zM359 35q86 0 161 111q81 123 96 290q2 27 2 53q0 111 -74 139q-21 7 -44 7q-75 0 -130 -62q-6 -8 -11 -14q-91 -110 -125 -253q-13 -55 -13 -104 q0 -130 89 -160q23 -7 49 -7zM372 -15q-115 1 -183 63q-91 85 -91 230q0 161 94 276q111 129 282 131q161 0 233 -112q46 -72 46 -177q0 -153 -94 -270q-98 -124 -249 -139q-19 -2 -38 -2z" glyph-name="Oacute" horiz-adv-x="764" unicode="Ó"/>
<glyph d="M601 732l-80 53l-126 -57q-6 -1 -9 3l-7 12q0 3 2 7l147 147q10 9 17 -2l79 -148q2 -5 -2 -8l-10 -9q-5 -2 -11 2zM359 35q86 0 161 111q81 123 96 290q2 27 2 53q0 111 -74 139q-21 7 -44 7q-75 0 -130 -62q-6 -8 -11 -14q-91 -110 -125 -253q-13 -55 -13 -104 q0 -130 89 -160q23 -7 49 -7zM372 -15q-115 1 -183 63q-91 85 -91 230q0 161 94 276q111 129 282 131q161 0 233 -112q46 -72 46 -177q0 -153 -94 -270q-98 -124 -249 -139q-19 -2 -38 -2z" glyph-name="Ocircumflex" horiz-adv-x="764" unicode="Ô"/>
<glyph d="M358 747l-13 8q-2 5 -1 10q16 50 53 79q17 13 30 13q25 0 87 -15q34 -8 60 -8q34 1 51 29q4 5 8 4l15 -8q6 -3 -1 -19q-1 -1 -1 -2q-28 -61 -67 -74q-8 -3 -15 -3q-33 0 -76 11q-45 12 -71 12q-25 0 -47 -28l-4 -6q-4 -4 -8 -3zM359 35q86 0 161 111q81 123 96 290 q2 27 2 53q0 111 -74 139q-21 7 -44 7q-75 0 -130 -62q-6 -8 -11 -14q-91 -110 -125 -253q-13 -55 -13 -104q0 -130 89 -160q23 -7 49 -7zM372 -15q-115 1 -183 63q-91 85 -91 230q0 161 94 276q111 129 282 131q161 0 233 -112q46 -72 46 -177q0 -153 -94 -270 q-98 -124 -249 -139q-19 -2 -38 -2z" glyph-name="Otilde" horiz-adv-x="764" unicode="Õ"/>
<glyph d="M609 748q-53 9 -58 55q0 32 31 44q12 4 27 4q38 0 49 -33q3 -9 3 -19q0 -36 -33 -48q-10 -3 -19 -3zM411 748q-53 9 -58 55q0 32 31 44q12 4 27 4q38 0 49 -33q3 -9 3 -19q0 -36 -33 -48q-10 -3 -19 -3zM359 35q86 0 161 111q81 123 96 290q2 27 2 53q0 111 -74 139 q-21 7 -44 7q-75 0 -130 -62q-6 -8 -11 -14q-91 -110 -125 -253q-13 -55 -13 -104q0 -130 89 -160q23 -7 49 -7zM372 -15q-115 1 -183 63q-91 85 -91 230q0 161 94 276q111 129 282 131q161 0 233 -112q46 -72 46 -177q0 -153 -94 -270q-98 -124 -249 -139q-19 -2 -38 -2z " glyph-name="Odieresis" horiz-adv-x="764" unicode="Ö"/>
<glyph d="M457 97l-50 -52l-149 146l-145 -146l-50 51l144 140l-144 143l52 52l147 -148l145 148l50 -52l-144 -140z" glyph-name="multiply" unicode="×"/>
<glyph d="M636 644l43 55q5 2 7 1l26 -19q4 -3 0 -9l-44 -54q61 -53 80 -155q5 -27 5 -51q0 -162 -92 -283q-99 -131 -255 -143q-15 -1 -29 -1q-107 1 -167 45l-45 -59q-5 -4 -8 -2l-24 20q-3 5 0 10l45 58q-63 65 -77 166q-3 19 -3 35q0 189 102 307q104 120 279 120 q99 -1 157 -41zM232 120l360 468q-18 34 -65 44q-12 3 -22 3q-86 -1 -149 -77q-78 -96 -117 -232q-19 -67 -19 -120q0 -45 12 -86zM610 546l-358 -462q38 -48 102 -49q87 0 164 111q82 119 97 281q3 29 3 57q0 49 -8 62z" glyph-name="Oslash" horiz-adv-x="764" unicode="Ø"/>
<glyph d="M574 737l-7 -10q-3 -1 -7 0l-155 71q-32 16 -33 41q0 28 27 43q9 5 18 5q24 -1 44 -23l111 -119q4 -4 2 -8zM360 579l-82 -267q-29 -106 -29 -141q0 -100 83 -123q17 -5 33 -5q81 1 131 40q65 52 101 167l10 36l61 230q15 52 15 81q-2 36 -29 37h-26q-9 0 -9 5v3l3 21 q5 10 13 10q4 0 19 -1q50 -2 88 -2q41 0 78 2q10 1 13 1q9 0 9 -6v-6l-3 -19q-4 -7 -11 -8h-11q-38 0 -70 -94q-3 -8 -5 -15l-76 -246q-50 -161 -123 -226q-79 -68 -209 -68q-137 0 -193 82q-28 43 -28 101q0 51 21 125l85 279q5 15 5 30q-2 31 -30 32h-36q-7 0 -7 6v2l5 23 q3 8 13 8h14q61 -3 139 -3q60 0 112 2q10 1 13 1q10 0 9 -10v-2l-4 -19q-3 -7 -10 -8h-25q-39 0 -56 -52q-1 -2 -1 -3z" glyph-name="Ugrave" horiz-adv-x="742" unicode="Ù"/>
<glyph d="M521 729l-6 10q-1 5 3 10l132 114q21 17 40 18q32 0 42 -32q3 -8 3 -16q-2 -31 -31 -43l-175 -62q-6 -2 -8 1zM360 579l-82 -267q-29 -106 -29 -141q0 -100 83 -123q17 -5 33 -5q81 1 131 40q65 52 101 167l10 36l61 230q15 52 15 81q-2 36 -29 37h-26q-9 0 -9 5v3l3 21 q5 10 13 10q4 0 19 -1q50 -2 88 -2q41 0 78 2q10 1 13 1q9 0 9 -6v-6l-3 -19q-4 -7 -11 -8h-11q-38 0 -70 -94q-3 -8 -5 -15l-76 -246q-50 -161 -123 -226q-79 -68 -209 -68q-137 0 -193 82q-28 43 -28 101q0 51 21 125l85 279q5 15 5 30q-2 31 -30 32h-36q-7 0 -7 6v2l5 23 q3 8 13 8h14q61 -3 139 -3q60 0 112 2q10 1 13 1q10 0 9 -10v-2l-4 -19q-3 -7 -10 -8h-25q-39 0 -56 -52q-1 -2 -1 -3z" glyph-name="Uacute" horiz-adv-x="742" unicode="Ú"/>
<glyph d="M640 732l-80 53l-126 -57q-6 -1 -9 3l-7 12q0 3 2 7l147 147q10 9 17 -2l79 -148q2 -5 -2 -8l-10 -9q-5 -2 -11 2zM360 579l-82 -267q-29 -106 -29 -141q0 -100 83 -123q17 -5 33 -5q81 1 131 40q65 52 101 167l10 36l61 230q15 52 15 81q-2 36 -29 37h-26q-9 0 -9 5v3 l3 21q5 10 13 10q4 0 19 -1q50 -2 88 -2q41 0 78 2q10 1 13 1q9 0 9 -6v-6l-3 -19q-4 -7 -11 -8h-11q-38 0 -70 -94q-3 -8 -5 -15l-76 -246q-50 -161 -123 -226q-79 -68 -209 -68q-137 0 -193 82q-28 43 -28 101q0 51 21 125l85 279q5 15 5 30q-2 31 -30 32h-36q-7 0 -7 6v2 l5 23q3 8 13 8h14q61 -3 139 -3q60 0 112 2q10 1 13 1q10 0 9 -10v-2l-4 -19q-3 -7 -10 -8h-25q-39 0 -56 -52q-1 -2 -1 -3z" glyph-name="Ucircumflex" horiz-adv-x="742" unicode="Û"/>
<glyph d="M658 748q-53 9 -58 55q0 32 31 44q12 4 27 4q38 0 49 -33q3 -9 3 -19q0 -36 -33 -48q-10 -3 -19 -3zM460 748q-53 9 -58 55q0 32 31 44q12 4 27 4q38 0 49 -33q3 -9 3 -19q0 -36 -33 -48q-10 -3 -19 -3zM360 579l-82 -267q-29 -106 -29 -141q0 -100 83 -123q17 -5 33 -5 q81 1 131 40q65 52 101 167l10 36l61 230q15 52 15 81q-2 36 -29 37h-26q-9 0 -9 5v3l3 21q5 10 13 10q4 0 19 -1q50 -2 88 -2q41 0 78 2q10 1 13 1q9 0 9 -6v-6l-3 -19q-4 -7 -11 -8h-11q-38 0 -70 -94q-3 -8 -5 -15l-76 -246q-50 -161 -123 -226q-79 -68 -209 -68 q-137 0 -193 82q-28 43 -28 101q0 51 21 125l85 279q5 15 5 30q-2 31 -30 32h-36q-7 0 -7 6v2l5 23q3 8 13 8h14q61 -3 139 -3q60 0 112 2q10 1 13 1q10 0 9 -10v-2l-4 -19q-3 -7 -10 -8h-25q-39 0 -56 -52q-1 -2 -1 -3z" glyph-name="Udieresis" horiz-adv-x="742" unicode="Ü"/>
<glyph d="M400 729l-6 10q-1 5 3 10l132 114q21 17 40 18q32 0 42 -32q3 -8 3 -16q-2 -31 -31 -43l-175 -62q-6 -2 -8 1zM205 87l33 148q2 12 2 24q0 15 -3 27l-102 310q-15 37 -61 38h-23q-7 0 -7 4v4l4 23q3 8 10 8q4 0 15 -1q50 -2 117 -2q69 0 125 2q13 1 16 1q8 0 9 -5v-3 l-2 -23q-3 -7 -9 -8h-26q-24 -2 -25 -25q0 -11 3 -21l69 -260q6 -14 11 -15q7 2 13 13q3 5 38 62q106 170 113 191q5 17 5 25q-2 29 -35 30h-24q-8 2 -7 10l2 23q3 6 12 6q5 0 22 -1q50 -2 86 -2q47 0 93 2q13 1 17 1q10 -2 10 -10l-3 -22q-3 -6 -8 -7h-19q-44 -1 -71 -43 q-5 -8 -63 -89q-137 -194 -147 -212q-15 -27 -28 -87l-25 -111q-4 -18 -4 -31q0 -21 19 -24q8 -1 21 -1h16q7 -2 7 -8l-3 -23q-4 -7 -11 -8q-4 0 -18 1q-56 2 -117 2q-70 0 -123 -3h-13q-8 0 -8 6v2l4 23q2 7 9 8h19q54 1 65 51z" glyph-name="Yacute" horiz-adv-x="580" unicode="Ý"/>
<glyph d="M342 505l-81 -309q24 -14 79 -14q93 0 142 83q28 49 28 103q0 97 -81 129q-24 10 -45 10q-29 0 -42 -2zM101 114l120 453q5 20 5 35q-2 31 -28 32h-37q-6 2 -6 7l8 26q3 6 8 6h14q79 -3 136 -3q35 0 81 2l46 1q9 0 10 -5v-3l-4 -23q-4 -7 -11 -8h-20q-41 0 -60 -52 q-2 -4 -3 -8l-9 -30q14 -1 37 -1q123 0 179 -32q14 -8 25 -17q47 -38 54 -91q3 -18 3 -41q0 -96 -81 -156q-81 -61 -219 -61q-64 0 -100 7l-11 -43q-5 -19 -5 -32q1 -40 28 -41h38q7 -1 8 -8l-4 -25q-3 -6 -11 -6q-3 0 -15 1q-58 2 -123 2q-64 0 -120 -2q-13 -1 -17 -1 q-9 2 -9 8l3 25q3 6 7 6h23q36 0 55 61q3 8 5 17z" glyph-name="Thorn" horiz-adv-x="630" unicode="Þ"/>
<glyph d="M298 -10q-86 0 -101 45q-2 8 -2 15q0 33 25 45q7 3 14 3q38 -2 50 -44q9 -29 29 -30q50 2 51 71q0 23 -40 83q-3 4 -4 6q-36 59 -42 83q-3 13 -3 25q0 55 66 122l9 9q61 68 62 155q0 39 -27 58q-13 9 -26 9q-65 0 -111 -183q-7 -28 -16 -68q-57 -262 -114 -426 q-42 -121 -118 -198q-66 -66 -134 -67q-72 0 -90 43q-4 10 -4 21q5 50 48 53q40 0 51 -43l2 -12q4 -16 27 -17q62 0 124 262v2l78 338q27 121 64 186q24 43 58 81q32 36 95 58q36 13 67 13q126 -9 132 -104q0 -64 -82 -137q-9 -8 -19 -16q-36 -31 -44 -46q-9 -17 -9 -37 q1 -39 47 -95q49 -62 50 -120q0 -77 -65 -117q-42 -26 -98 -26z" glyph-name="germandbls" horiz-adv-x="507" unicode="ß"/>
<glyph d="M345 481l-7 -8q-4 -4 -9 0l-119 79q-23 16 -24 38q0 27 25 38q9 4 17 4q24 -1 40 -24l77 -119q3 -5 0 -8zM134 101q2 -29 24 -30q23 0 92 98q35 48 47 74q23 52 23 96q0 24 -25 39q-10 6 -19 6q-38 -2 -75 -68q-67 -119 -67 -215zM394 432h71q10 -2 8 -12 q-67 -193 -71 -208q-1 -5 -11 -40q-28 -93 -28 -104q0 -12 12 -12q14 2 56 56q6 6 10 4l12 -8q3 -4 -1 -13q-22 -44 -68 -76q-43 -29 -90 -29q-39 2 -41 32q0 16 38 128l1 1v1l-9 5q-59 -91 -99 -125q-50 -42 -100 -42q-27 0 -52 32q-17 23 -17 46q0 88 62 197 q67 118 152 151q27 11 53 11q50 -1 78 -35l16 29q8 10 18 11z" glyph-name="agrave" horiz-adv-x="476" unicode="à"/>
<glyph d="M315 473l-7 10q-1 3 4 8l111 103q28 23 48 24q24 0 34 -26q3 -8 3 -16q-2 -27 -30 -40l-155 -64q-6 -2 -8 1zM134 101q2 -29 24 -30q23 0 92 98q35 48 47 74q23 52 23 96q0 24 -25 39q-10 6 -19 6q-38 -2 -75 -68q-67 -119 -67 -215zM394 432h71q10 -2 8 -12 q-67 -193 -71 -208q-1 -5 -11 -40q-28 -93 -28 -104q0 -12 12 -12q14 2 56 56q6 6 10 4l12 -8q3 -4 -1 -13q-22 -44 -68 -76q-43 -29 -90 -29q-39 2 -41 32q0 16 38 128l1 1v1l-9 5q-59 -91 -99 -125q-50 -42 -100 -42q-27 0 -52 32q-17 23 -17 46q0 88 62 197 q67 118 152 151q27 11 53 11q50 -1 78 -35l16 29q8 10 18 11z" glyph-name="aacute" horiz-adv-x="476" unicode="á"/>
<glyph d="M378 648l54 -158q1 -5 -2 -8l-8 -4q-5 -2 -8 0l-66 62l-107 -61q-5 -1 -7 1l-6 9q-2 4 1 9l135 154q8 9 13 -1q1 -2 1 -3zM134 101q2 -29 24 -30q23 0 92 98q35 48 47 74q23 52 23 96q0 24 -25 39q-10 6 -19 6q-38 -2 -75 -68q-67 -119 -67 -215zM394 432h71q10 -2 8 -12 q-67 -193 -71 -208q-1 -5 -11 -40q-28 -93 -28 -104q0 -12 12 -12q14 2 56 56q6 6 10 4l12 -8q3 -4 -1 -13q-22 -44 -68 -76q-43 -29 -90 -29q-39 2 -41 32q0 16 38 128l1 1v1l-9 5q-59 -91 -99 -125q-50 -42 -100 -42q-27 0 -52 32q-17 23 -17 46q0 88 62 197 q67 118 152 151q27 11 53 11q50 -1 78 -35l16 29q8 10 18 11z" glyph-name="acircumflex" horiz-adv-x="476" unicode="â"/>
<glyph d="M219 483l-13 8q-3 5 -1 10q22 54 58 78q15 9 27 9q18 0 59 -12q32 -10 57 -10q29 1 45 28q4 5 8 4l15 -8q4 -5 -2 -18q-24 -50 -58 -68q-11 -6 -20 -6q-19 0 -66 12l-44 10h-6q-25 0 -46 -26q-4 -4 -6 -8q-4 -4 -7 -3zM134 101q2 -29 24 -30q23 0 92 98q35 48 47 74 q23 52 23 96q0 24 -25 39q-10 6 -19 6q-38 -2 -75 -68q-67 -119 -67 -215zM394 432h71q10 -2 8 -12q-67 -193 -71 -208q-1 -5 -11 -40q-28 -93 -28 -104q0 -12 12 -12q14 2 56 56q6 6 10 4l12 -8q3 -4 -1 -13q-22 -44 -68 -76q-43 -29 -90 -29q-39 2 -41 32q0 16 38 128l1 1 v1l-9 5q-59 -91 -99 -125q-50 -42 -100 -42q-27 0 -52 32q-17 23 -17 46q0 88 62 197q67 118 152 151q27 11 53 11q50 -1 78 -35l16 29q8 10 18 11z" glyph-name="atilde" horiz-adv-x="476" unicode="ã"/>
<glyph d="M424 528q-45 0 -52 37q-1 7 -1 13q0 30 29 41q11 4 24 4q37 0 46 -33q2 -8 2 -16q0 -36 -34 -44q-7 -2 -14 -2zM248 528q-45 0 -52 37q-1 7 -1 13q0 30 29 41q11 4 24 4q37 0 46 -33q2 -8 2 -16q0 -36 -34 -44q-7 -2 -14 -2zM134 101q2 -29 24 -30q23 0 92 98 q35 48 47 74q23 52 23 96q0 24 -25 39q-10 6 -19 6q-38 -2 -75 -68q-67 -119 -67 -215zM394 432h71q10 -2 8 -12q-67 -193 -71 -208q-1 -5 -11 -40q-28 -93 -28 -104q0 -12 12 -12q14 2 56 56q6 6 10 4l12 -8q3 -4 -1 -13q-22 -44 -68 -76q-43 -29 -90 -29q-39 2 -41 32 q0 16 38 128l1 1v1l-9 5q-59 -91 -99 -125q-50 -42 -100 -42q-27 0 -52 32q-17 23 -17 46q0 88 62 197q67 118 152 151q27 11 53 11q50 -1 78 -35l16 29q8 10 18 11z" glyph-name="adieresis" horiz-adv-x="476" unicode="ä"/>
<glyph d="M319 515q34 0 42 35q1 8 1 15q0 42 -37 48q-4 1 -8 1q-27 0 -37 -29q-3 -11 -3 -22q0 -37 31 -46q6 -2 11 -2zM315 486q-61 0 -91 35q-14 18 -14 39q0 50 59 74q27 10 53 10q67 0 94 -39q13 -18 13 -41q0 -46 -59 -68q-27 -10 -55 -10zM134 101q2 -29 24 -30q23 0 92 98 q35 48 47 74q23 52 23 96q0 24 -25 39q-10 6 -19 6q-38 -2 -75 -68q-67 -119 -67 -215zM394 432h71q10 -2 8 -12q-67 -193 -71 -208q-1 -5 -11 -40q-28 -93 -28 -104q0 -12 12 -12q14 2 56 56q6 6 10 4l12 -8q3 -4 -1 -13q-22 -44 -68 -76q-43 -29 -90 -29q-39 2 -41 32 q0 16 38 128l1 1v1l-9 5q-59 -91 -99 -125q-50 -42 -100 -42q-27 0 -52 32q-17 23 -17 46q0 88 62 197q67 118 152 151q27 11 53 11q50 -1 78 -35l16 29q8 10 18 11z" glyph-name="aring" horiz-adv-x="476" unicode="å"/>
<glyph d="M121 104q2 -35 27 -36q26 1 83 45q1 88 66 182q17 24 33 41q16 18 16 26q-1 9 -12 10q-29 0 -85 -50q-26 -23 -47 -49q-67 -80 -80 -156q-1 -8 -1 -13zM355 141v-33q0 -21 21 -38q16 -13 37 -13q61 1 99 51q4 4 9 1l15 -11q5 -5 2 -11q-20 -36 -76 -66q-59 -31 -122 -31 q-65 0 -95 56q-7 15 -11 31q-100 -86 -173 -87q-30 0 -49 33q-9 15 -9 29q0 104 114 219q90 92 185 126q5 2 9 3q84 27 187 27q98 -1 99 -75q-1 -64 -81 -124q-54 -40 -161 -87zM360 179q66 40 98 77q34 41 34 86q-2 37 -32 38h-2q-30 0 -65 -86q-24 -59 -33 -115z" glyph-name="ae" horiz-adv-x="593" unicode="æ"/>
<glyph d="M39 -92l67 84q-52 12 -72 62q-9 22 -9 47q0 89 58 188q67 114 158 134q17 4 34 4q58 0 75 -40q3 -8 3 -15q0 -33 -27 -52q-10 -6 -18 -6q-31 1 -40 26q-11 31 -32 32q-18 0 -38 -44q-4 -10 -10 -23q-31 -79 -37 -122q-3 -29 -3 -63q2 -62 38 -63q37 0 74 29q5 4 8 7 q5 5 9 4l12 -10q4 -5 1 -11q-24 -35 -75 -62q-32 -17 -65 -22l-49 -63q70 -22 71 -62q0 -52 -92 -76q-40 -11 -76 -11q-18 2 -19 18q2 15 18 16q42 0 65 26q9 11 9 21q0 28 -32 44z" glyph-name="ccedilla" horiz-adv-x="331" unicode="ç"/>
<glyph d="M342 481l-7 -8q-4 -4 -9 0l-119 79q-23 16 -24 38q0 27 25 38q9 4 17 4q24 -1 40 -24l77 -119q3 -5 0 -8zM161 221h2q34 0 73 27q9 6 16 13q27 25 31 71q1 6 1 11q-2 33 -27 34q-34 0 -71 -81q-16 -38 -25 -75zM315 111l16 -11q4 -5 2 -10q-19 -38 -75 -69t-116 -31 q-77 0 -105 58q-12 24 -12 54q0 107 67 198q24 32 54 57q82 70 167 70q67 0 77 -53q1 -8 1 -16q-1 -78 -91 -130q-67 -38 -147 -44q-8 -19 -8 -63q0 -45 33 -61q10 -4 21 -4q60 1 108 52q4 4 8 3z" glyph-name="egrave" horiz-adv-x="390" unicode="è"/>
<glyph d="M242 473l-7 10q-1 3 4 8l111 103q28 23 48 24q24 0 34 -26q3 -8 3 -16q-2 -27 -30 -40l-155 -64q-6 -2 -8 1zM161 221h2q34 0 73 27q9 6 16 13q27 25 31 71q1 6 1 11q-2 33 -27 34q-34 0 -71 -81q-16 -38 -25 -75zM315 111l16 -11q4 -5 2 -10q-19 -38 -75 -69t-116 -31 q-77 0 -105 58q-12 24 -12 54q0 107 67 198q24 32 54 57q82 70 167 70q67 0 77 -53q1 -8 1 -16q-1 -78 -91 -130q-67 -38 -147 -44q-8 -19 -8 -63q0 -45 33 -61q10 -4 21 -4q60 1 108 52q4 4 8 3z" glyph-name="eacute" horiz-adv-x="390" unicode="é"/>
<glyph d="M339 648l54 -158q1 -5 -2 -8l-8 -4q-5 -2 -8 0l-66 62l-107 -61q-5 -1 -7 1l-6 9q-2 4 1 9l135 154q8 9 13 -1q1 -2 1 -3zM161 221h2q34 0 73 27q9 6 16 13q27 25 31 71q1 6 1 11q-2 33 -27 34q-34 0 -71 -81q-16 -38 -25 -75zM315 111l16 -11q4 -5 2 -10 q-19 -38 -75 -69t-116 -31q-77 0 -105 58q-12 24 -12 54q0 107 67 198q24 32 54 57q82 70 167 70q67 0 77 -53q1 -8 1 -16q-1 -78 -91 -130q-67 -38 -147 -44q-8 -19 -8 -63q0 -45 33 -61q10 -4 21 -4q60 1 108 52q4 4 8 3z" glyph-name="ecircumflex" horiz-adv-x="390" unicode="ê"/>
<glyph d="M401 528q-45 0 -52 37q-1 7 -1 13q0 30 29 41q11 4 24 4q37 0 46 -33q2 -8 2 -16q0 -36 -34 -44q-7 -2 -14 -2zM225 528q-45 0 -52 37q-1 7 -1 13q0 30 29 41q11 4 24 4q37 0 46 -33q2 -8 2 -16q0 -36 -34 -44q-7 -2 -14 -2zM161 221h2q34 0 73 27q9 6 16 13q27 25 31 71 q1 6 1 11q-2 33 -27 34q-34 0 -71 -81q-16 -38 -25 -75zM315 111l16 -11q4 -5 2 -10q-19 -38 -75 -69t-116 -31q-77 0 -105 58q-12 24 -12 54q0 107 67 198q24 32 54 57q82 70 167 70q67 0 77 -53q1 -8 1 -16q-1 -78 -91 -130q-67 -38 -147 -44q-8 -19 -8 -63q0 -45 33 -61 q10 -4 21 -4q60 1 108 52q4 4 8 3z" glyph-name="edieresis" horiz-adv-x="390" unicode="ë"/>
<glyph d="M281 481l-7 -8q-4 -4 -9 0l-119 79q-23 16 -24 38q0 27 25 38q9 4 17 4q24 -1 40 -24l77 -119q3 -5 0 -8zM261 116l12 -12q3 -5 1 -10q-31 -50 -90 -79q-49 -25 -105 -25q-38 1 -39 30q0 15 52 167q4 10 7 19l27 79q3 11 8 28q7 21 7 28q-2 12 -13 13q-18 0 -66 -59 q-5 -5 -7 -8q-6 -5 -11 -1l-9 9q-5 6 -3 9l2 3q81 108 173 119q9 1 17 1q43 -1 44 -36q0 -18 -29 -102q-2 -5 -3 -8l-54 -153q-16 -49 -16 -61q2 -13 13 -14q20 0 67 53q5 6 7 9q4 4 8 1z" glyph-name="igrave" horiz-adv-x="296" unicode="ì"/>
<glyph d="M200 473l-7 10q-1 3 4 8l111 103q28 23 48 24q24 0 34 -26q3 -8 3 -16q-2 -27 -30 -40l-155 -64q-6 -2 -8 1zM261 116l12 -12q3 -5 1 -10q-31 -50 -90 -79q-49 -25 -105 -25q-38 1 -39 30q0 15 52 167q4 10 7 19l27 79q3 11 8 28q7 21 7 28q-2 12 -13 13q-18 0 -66 -59 q-5 -5 -7 -8q-6 -5 -11 -1l-9 9q-5 6 -3 9l2 3q81 108 173 119q9 1 17 1q43 -1 44 -36q0 -18 -29 -102q-2 -5 -3 -8l-54 -153q-16 -49 -16 -61q2 -13 13 -14q20 0 67 53q5 6 7 9q4 4 8 1z" glyph-name="iacute" horiz-adv-x="296" unicode="í"/>
<glyph d="M277 648l54 -158q1 -5 -2 -8l-8 -4q-5 -2 -8 0l-66 62l-107 -61q-5 -1 -7 1l-6 9q-2 4 1 9l135 154q8 9 13 -1q1 -2 1 -3zM261 116l12 -12q3 -5 1 -10q-31 -50 -90 -79q-49 -25 -105 -25q-38 1 -39 30q0 15 52 167q4 10 7 19l27 79q3 11 8 28q7 21 7 28q-2 12 -13 13 q-18 0 -66 -59q-5 -5 -7 -8q-6 -5 -11 -1l-9 9q-5 6 -3 9l2 3q81 108 173 119q9 1 17 1q43 -1 44 -36q0 -18 -29 -102q-2 -5 -3 -8l-54 -153q-16 -49 -16 -61q2 -13 13 -14q20 0 67 53q5 6 7 9q4 4 8 1z" glyph-name="icircumflex" horiz-adv-x="296" unicode="î"/>
<glyph d="M324 528q-45 0 -52 37q-1 7 -1 13q0 30 29 41q11 4 24 4q37 0 46 -33q2 -8 2 -16q0 -36 -34 -44q-7 -2 -14 -2zM148 528q-45 0 -52 37q-1 7 -1 13q0 30 29 41q11 4 24 4q37 0 46 -33q2 -8 2 -16q0 -36 -34 -44q-7 -2 -14 -2zM261 116l12 -12q3 -5 1 -10q-31 -50 -90 -79 q-49 -25 -105 -25q-38 1 -39 30q0 15 52 167q4 10 7 19l27 79q15 43 15 56q-2 12 -13 13q-18 0 -66 -59q-5 -5 -7 -8q-6 -5 -11 -1l-9 9q-5 6 -3 9l2 3q81 108 173 119q9 1 17 1q43 -1 44 -36q0 -18 -29 -102q-2 -5 -3 -8l-54 -153q-16 -46 -16 -61q2 -13 13 -14q20 0 67 53 q5 6 7 9q4 4 8 1z" glyph-name="idieresis" horiz-adv-x="296" unicode="ï"/>
<glyph d="M220 687l17 14q5 2 9 -1q53 -36 95 -91q8 -11 13 -19l88 29q6 0 8 -4l9 -23q1 -8 -4 -10l-80 -27q48 -90 48 -215q0 -117 -55 -218q-74 -131 -200 -132q-118 0 -139 107q-4 21 -4 45q0 108 56 191q64 93 172 94q36 -1 58 -16l6 2v5q0 60 -21 111l-113 -38q-7 -1 -10 4 l-9 24q-2 7 4 10l115 38q-19 44 -66 112q0 4 3 8zM166 28q36 1 89 111q53 120 59 191q-1 53 -40 54q-57 0 -114 -156q-1 -1 -1 -2q-39 -109 -39 -145q2 -52 44 -53h2z" glyph-name="eth" horiz-adv-x="435" unicode="ð"/>
<glyph d="M247 483l-13 8q-3 5 -1 10q22 54 58 78q15 9 27 9q18 0 59 -12q32 -10 57 -10q29 1 45 28q4 5 8 4l15 -8q4 -5 -2 -18q-24 -50 -58 -68q-11 -6 -20 -6q-19 0 -66 12l-44 10h-6q-25 0 -46 -26q-4 -4 -6 -8q-4 -4 -7 -3zM119 0h-85q-9 0 -10 8q1 2 1 3l69 192 q45 122 45 141q-1 15 -13 16q-18 0 -64 -50q-2 -3 -3 -4q-6 -4 -10 -1l-10 11q-4 5 -1 10q79 98 182 101q33 0 39 -31q1 -5 1 -8q-1 -21 -48 -130l9 -7q61 89 102 126q57 49 110 50q42 0 59 -42q5 -13 5 -25q-1 -27 -58 -187q-32 -91 -32 -102q1 -16 13 -17q15 0 50 38l5 5 q5 4 10 0l9 -8q5 -5 1 -12q-38 -51 -99 -74q-34 -13 -69 -13q-39 1 -40 38q1 20 52 166q40 114 40 131q-2 21 -20 22q-23 0 -85 -74q-31 -37 -52 -71q-44 -70 -49 -84l-39 -112q-5 -6 -15 -6z" glyph-name="ntilde" horiz-adv-x="531" unicode="ñ"/>
<glyph d="M327 481l-7 -8q-4 -4 -9 0l-119 79q-23 16 -24 38q0 27 25 38q9 4 17 4q24 -1 40 -24l77 -119q3 -5 0 -8zM149 48q50 0 102 97q1 1 1 2q46 86 59 159q2 12 2 21q-2 42 -37 43q-39 0 -80 -62q-14 -22 -32 -54q-50 -88 -50 -162q0 -31 22 -41q7 -3 13 -3zM163 -10 q-67 0 -104 53q-28 40 -28 100q1 140 79 226q56 58 143 58q85 0 121 -62q20 -35 20 -85q0 -94 -45 -177q-17 -32 -39 -55q-58 -57 -147 -58z" glyph-name="ograve" horiz-adv-x="419" unicode="ò"/>
<glyph d="M227 473l-7 10q-1 3 4 8l111 103q28 23 48 24q24 0 34 -26q3 -8 3 -16q-2 -27 -30 -40l-155 -64q-6 -2 -8 1zM149 48q50 0 102 97q1 1 1 2q46 86 59 159q2 12 2 21q-2 42 -37 43q-39 0 -80 -62q-14 -22 -32 -54q-50 -88 -50 -162q0 -31 22 -41q7 -3 13 -3zM163 -10 q-67 0 -104 53q-28 40 -28 100q1 140 79 226q56 58 143 58q85 0 121 -62q20 -35 20 -85q0 -94 -45 -177q-17 -32 -39 -55q-58 -57 -147 -58z" glyph-name="oacute" horiz-adv-x="419" unicode="ó"/>
<glyph d="M324 648l54 -158q1 -5 -2 -8l-8 -4q-5 -2 -8 0l-66 62l-107 -61q-5 -1 -7 1l-6 9q-2 4 1 9l135 154q8 9 13 -1q1 -2 1 -3zM149 48q50 0 102 97q1 1 1 2q46 86 59 159q2 12 2 21q-2 42 -37 43q-39 0 -80 -62q-14 -22 -32 -54q-50 -88 -50 -162q0 -31 22 -41q7 -3 13 -3z M163 -10q-67 0 -104 53q-28 40 -28 100q1 140 79 226q56 58 143 58q85 0 121 -62q20 -35 20 -85q0 -94 -45 -177q-17 -32 -39 -55q-58 -57 -147 -58z" glyph-name="ocircumflex" horiz-adv-x="419" unicode="ô"/>
<glyph d="M156 483l-13 8q-3 5 -1 10q22 54 58 78q15 9 27 9q18 0 59 -12q32 -10 57 -10q29 1 45 28q4 5 8 4l15 -8q4 -5 -2 -18q-24 -50 -58 -68q-11 -6 -20 -6q-19 0 -66 12l-44 10h-6q-25 0 -46 -26q-4 -4 -6 -8q-4 -4 -7 -3zM149 48q50 0 102 97q1 1 1 2q46 86 59 159 q2 12 2 21q-2 42 -37 43q-39 0 -80 -62q-14 -22 -32 -54q-50 -88 -50 -162q0 -31 22 -41q7 -3 13 -3zM163 -10q-67 0 -104 53q-28 40 -28 100q1 140 79 226q56 58 143 58q85 0 121 -62q20 -35 20 -85q0 -94 -45 -177q-17 -32 -39 -55q-58 -57 -147 -58z" glyph-name="otilde" horiz-adv-x="419" unicode="õ"/>
<glyph d="M376 528q-45 0 -52 37q-1 7 -1 13q0 30 29 41q11 4 24 4q37 0 46 -33q2 -8 2 -16q0 -36 -34 -44q-7 -2 -14 -2zM200 528q-45 0 -52 37q-1 7 -1 13q0 30 29 41q11 4 24 4q37 0 46 -33q2 -8 2 -16q0 -36 -34 -44q-7 -2 -14 -2zM149 48q50 0 102 97q1 1 1 2q46 86 59 159 q2 12 2 21q-2 42 -37 43q-39 0 -80 -62q-14 -22 -32 -54q-50 -88 -50 -162q0 -31 22 -41q7 -3 13 -3zM163 -10q-67 0 -104 53q-28 40 -28 100q1 140 79 226q56 58 143 58q85 0 121 -62q20 -35 20 -85q0 -94 -45 -177q-17 -32 -39 -55q-58 -57 -147 -58z" glyph-name="odieresis" horiz-adv-x="419" unicode="ö"/>
<glyph d="M261 149q41 0 55 -34q4 -11 4 -23q0 -42 -40 -53q-10 -2 -19 -2q-43 0 -56 34q-4 11 -4 21q0 40 37 53q11 4 23 4zM261 459q38 0 54 -32q5 -12 5 -24q0 -38 -35 -51q-12 -5 -24 -5q-45 0 -57 37q-3 9 -3 19q0 37 35 51q12 5 25 5zM62 284h397v-72h-397v72z" glyph-name="divide" unicode="÷"/>
<glyph d="M109 96l196 260q-12 12 -35 13q-32 0 -61 -36q-18 -22 -49 -71q-53 -85 -53 -164zM314 318l-194 -254q18 -15 30 -16q51 2 109 96q36 58 54 134q5 21 5 34zM48 -12l-16 13q-4 5 0 9l26 32q-27 42 -27 101q1 144 77 225q57 59 146 59q53 -1 86 -28l23 29q5 3 7 2l20 -15 q3 -4 0 -9l-23 -29q26 -42 26 -97q0 -94 -46 -177q-17 -30 -37 -52q-57 -61 -151 -61q-43 1 -78 29l-24 -30q-4 -4 -9 -1z" glyph-name="oslash" horiz-adv-x="419" unicode="ø"/>
<glyph d="M358 481l-7 -8q-4 -4 -9 0l-119 79q-23 16 -24 38q0 27 25 38q9 4 17 4q24 -1 40 -24l77 -119q3 -5 0 -8zM405 417h89q13 -2 10 -13l-70 -214q-36 -109 -36 -123q3 -11 13 -12q14 1 54 53q5 5 10 1l11 -8q3 -4 0 -11q-24 -46 -74 -76q-42 -24 -89 -24q-39 4 -42 34 q0 23 49 152l-11 6q-87 -135 -158 -174q-34 -18 -65 -18q-25 0 -44 28q-8 11 -8 19q0 43 39 138q7 16 21 50q40 97 40 123q-2 16 -17 17q-20 0 -59 -41q-5 -6 -9 -11q-5 -5 -11 -1l-10 10q-2 6 0 9q54 69 115 88q27 8 56 8q40 0 50 -33q2 -7 2 -14q-1 -40 -54 -171 q-42 -102 -42 -124q3 -15 17 -18q16 0 87 88q32 39 46 62q25 43 43 97l32 96q4 7 15 7z" glyph-name="ugrave" horiz-adv-x="521" unicode="ù"/>
<glyph d="M318 473l-7 10q-1 3 4 8l111 103q28 23 48 24q24 0 34 -26q3 -8 3 -16q-2 -27 -30 -40l-155 -64q-6 -2 -8 1zM405 417h89q13 -2 10 -13l-70 -214q-36 -109 -36 -123q3 -11 13 -12q14 1 54 53q5 5 10 1l11 -8q3 -4 0 -11q-24 -46 -74 -76q-42 -24 -89 -24q-39 4 -42 34 q0 23 49 152l-11 6q-87 -135 -158 -174q-34 -18 -65 -18q-25 0 -44 28q-8 11 -8 19q0 43 39 138q7 16 21 50q40 97 40 123q-2 16 -17 17q-20 0 -59 -41q-5 -6 -9 -11q-5 -5 -11 -1l-10 10q-2 6 0 9q54 69 115 88q27 8 56 8q40 0 50 -33q2 -7 2 -14q-1 -40 -54 -171 q-42 -102 -42 -124q3 -15 17 -18q16 0 87 88q32 39 46 62q25 43 43 97l32 96q4 7 15 7z" glyph-name="uacute" horiz-adv-x="521" unicode="ú"/>
<glyph d="M395 648l54 -158q1 -5 -2 -8l-8 -4q-5 -2 -8 0l-66 62l-107 -61q-5 -1 -7 1l-6 9q-2 4 1 9l135 154q8 9 13 -1q1 -2 1 -3zM405 417h89q13 -2 10 -13l-70 -214q-36 -109 -36 -123q3 -11 13 -12q14 1 54 53q5 5 10 1l11 -8q3 -4 0 -11q-24 -46 -74 -76q-42 -24 -89 -24 q-39 4 -42 34q0 23 49 152l-11 6q-87 -135 -158 -174q-34 -18 -65 -18q-25 0 -44 28q-8 11 -8 19q0 43 39 138q7 16 21 50q40 97 40 123q-2 16 -17 17q-20 0 -59 -41q-5 -6 -9 -11q-5 -5 -11 -1l-10 10q-2 6 0 9q54 69 115 88q27 8 56 8q40 0 50 -33q2 -7 2 -14 q-1 -40 -54 -171q-42 -102 -42 -124q3 -15 17 -18q16 0 87 88q32 39 46 62q25 43 43 97l32 96q4 7 15 7z" glyph-name="ucircumflex" horiz-adv-x="521" unicode="û"/>
<glyph d="M437 528q-45 0 -52 37q-1 7 -1 13q0 30 29 41q11 4 24 4q37 0 46 -33q2 -8 2 -16q0 -36 -34 -44q-7 -2 -14 -2zM261 528q-45 0 -52 37q-1 7 -1 13q0 30 29 41q11 4 24 4q37 0 46 -33q2 -8 2 -16q0 -36 -34 -44q-7 -2 -14 -2zM405 417h89q13 -2 10 -13l-70 -214 q-36 -109 -36 -123q3 -11 13 -12q14 1 54 53q5 5 10 1l11 -8q3 -4 0 -11q-24 -46 -74 -76q-42 -24 -89 -24q-39 4 -42 34q0 23 49 152l-11 6q-87 -135 -158 -174q-34 -18 -65 -18q-25 0 -44 28q-8 11 -8 19q0 43 39 138q7 16 21 50q40 97 40 123q-2 16 -17 17q-20 0 -59 -41 q-5 -6 -9 -11q-5 -5 -11 -1l-10 10q-2 6 0 9q54 69 115 88q27 8 56 8q40 0 50 -33q2 -7 2 -14q-1 -40 -54 -171q-42 -102 -42 -124q3 -15 17 -18q16 0 87 88q32 39 46 62q25 43 43 97l32 96q4 7 15 7z" glyph-name="udieresis" horiz-adv-x="521" unicode="ü"/>
<glyph d="M275 473l-7 10q-1 3 4 8l111 103q28 23 48 24q24 0 34 -26q3 -8 3 -16q-2 -27 -30 -40l-155 -64q-6 -2 -8 1zM46 275l-15 3q-4 3 -2 14q16 64 60 103q37 32 83 32q42 0 57 -49q7 -27 10 -70q7 -100 7 -197q0 -45 -2 -73l12 -1q29 52 64 142q11 30 15 47q8 41 8 67 q0 10 -13 58q-5 17 -5 28q0 31 29 43q12 5 25 5q53 0 59 -58q1 -9 1 -19q0 -49 -58 -168q-7 -17 -15 -31q-85 -158 -189 -289q-33 -42 -60 -69q-73 -76 -128 -87q-12 -3 -23 -3q-56 0 -66 39q-2 7 -2 14q0 40 31 56q10 5 19 5q19 -1 35 -18q16 -15 32 -16q20 1 40 14 q50 31 93 97q14 20 14 51q0 9 -2 28q-2 13 -11 97q-23 220 -29 253q-6 23 -18 24q-21 0 -41 -49q-4 -10 -6 -18q-4 -6 -9 -5z" glyph-name="yacute" horiz-adv-x="445" unicode="ý"/>
<glyph d="M277 374l-123 -337q73 11 136 72q70 69 71 156q0 83 -43 106q-9 5 -16 5q-18 0 -25 -2zM269 652l113 31q8 2 11 2q4 -1 5 -5q0 -4 -2 -9l-102 -246q10 2 26 2q133 0 153 -106q3 -17 3 -35q-1 -121 -113 -208q-60 -46 -168 -69q-29 -6 -55 -9l-64 -196q-8 -26 -8 -38 q2 -29 43 -30h23q6 -1 6 -8l-7 -22q-4 -5 -11 -6q-3 0 -13 1q-51 2 -112 2q-69 0 -119 -3h-12q-7 0 -7 4v4l5 20q3 7 8 8h13q48 0 72 50q6 13 12 29l187 533q-53 -14 -100 -63q-8 -7 -12 -13q-5 -5 -11 -2l-10 9q-4 4 0 11q63 85 154 117l75 222q6 19 17 23z" glyph-name="thorn" horiz-adv-x="497" unicode="þ"/>
<glyph d="M686 284h157l102 294q6 19 -6 20q-8 -1 -25 -16q-46 -42 -169 -213q-37 -51 -59 -85zM829 246h-173q-93 -124 -133 -167q-144 -146 -307 -149q-98 0 -160 67q-57 62 -57 159t64 157q49 45 117 45q59 0 75 -42q3 -8 3 -14q0 -43 -40 -52q-8 -2 -15 -2q-5 0 -9.5 0.5 t-8.5 2.5t-6.5 3.5t-6.5 5t-5.5 4t-5.5 4.5l-4 5q-20 19 -41 19q-24 -1 -49 -32q-26 -33 -26 -79q0 -114 115 -147q37 -10 78 -10q146 0 291 145q59 59 138 161q186 239 239 285q66 57 141 67q23 3 49 3q90 0 120 -38q9 -11 9 -24q0 -17 -20 -22q-4 -1 -8 -1q-23 1 -38 22 q-15 18 -38 20q-21 0 -35 -32q-5 -13 -11 -31l-147 -459q-12 -36 -12 -56q2 -27 27 -28h36q7 -1 8 -7l-3 -24q-6 -7 -13 -8h-15q-64 3 -136 3q-63 0 -118 -2q-14 -1 -19 -1q-9 0 -9 7v3l3 21q4 7 9 8h22q45 0 64 36q5 9 8 19z" glyph-name="A.swash" horiz-adv-x="1060" unicode=""/>
<glyph d="M945 578q6 19 -6 20q-8 -1 -25 -16q-46 -42 -169 -213q-37 -51 -59 -85h157zM1379 517q0 -6 -4 -8l-13 -7q-7 -1 -14 5l-111 120q-7 7 -18 7h-133l-84 -259h78q55 0 94 50q12 14 22 32q6 7 10 7l19 -6q5 -3 5 -7q-39 -90 -53 -199q-3 -7 -9 -7l-19 1q-5 2 -6 10 q-8 70 -75 81q-15 2 -34 2h-42l-96 -303h192q73 0 171 112q8 9 25 29q6 6 12 4l13 -9q4 -5 2 -13l-51 -145q-10 -16 -22 -17q-71 0 -212 2h-105q-71 1 -106 1q-26 0 -64 -1h-31t-21 -1q-15 -1 -20 -1q-9 0 -9 7v3l3 21q4 7 9 8h22q45 0 64 36q5 9 8 19l53 155h-173 q-93 -124 -133 -167q-144 -146 -307 -149q-98 0 -160 67q-57 62 -57 159t64 157q49 45 117 45q59 0 75 -42q3 -8 3 -14q0 -43 -40 -52q-8 -2 -15 -2q-5 0 -9.5 0.5t-8.5 2.5t-6.5 3.5t-6.5 5t-5.5 4t-5.5 4.5l-4 5q-20 19 -41 19q-24 -1 -49 -32q-26 -33 -26 -79 q0 -114 115 -147q37 -10 78 -10q146 0 291 145q59 59 138 161q186 239 239 285t130 53q25 2 57 2q26 0 233 3q19 0 23 -14q1 -3 2 -5z" glyph-name="AE.swash" horiz-adv-x="1364" unicode=""/>
<glyph d="M1000 729l-6 10q-1 5 3 10l132 114q21 17 40 18q32 0 42 -32q3 -8 3 -16q-2 -31 -31 -43l-175 -62q-6 -2 -8 1zM686 284h157l102 294q6 19 -6 20q-8 -1 -25 -16q-46 -42 -169 -213q-37 -51 -59 -85zM829 246h-173q-93 -124 -133 -167q-144 -146 -307 -149q-98 0 -160 67 q-57 62 -57 159t64 157q49 45 117 45q59 0 75 -42q3 -8 3 -14q0 -43 -40 -52q-8 -2 -15 -2q-5 0 -9.5 0.5t-8.5 2.5t-6.5 3.5t-6.5 5t-5.5 4t-5.5 4.5l-4 5q-20 19 -41 19q-24 -1 -49 -32q-26 -33 -26 -79q0 -114 115 -147q37 -10 78 -10q146 0 291 145q59 59 138 161 q186 239 239 285q66 57 141 67q23 3 49 3q90 0 120 -38q9 -11 9 -24q0 -17 -20 -22q-4 -1 -8 -1q-23 1 -38 22q-15 18 -38 20q-21 0 -35 -32q-5 -13 -11 -31l-147 -459q-12 -36 -12 -56q2 -27 27 -28h36q7 -1 8 -7l-3 -24q-6 -7 -13 -8h-15q-64 3 -136 3q-63 0 -118 -2 q-14 -1 -19 -1q-9 0 -9 7v3l3 21q4 7 9 8h22q45 0 64 36q5 9 8 19z" glyph-name="Aacute.swash" horiz-adv-x="1060" unicode=""/>
<glyph d="M1045 739q-89 2 -107 97q-2 12 3 14l10 3q3 1 13 -12q2 -1 2 -2q23 -30 93 -30q71 0 106 32q13 13 17 12l11 -5q3 -3 -1 -13q-40 -79 -109 -93q-18 -3 -38 -3zM686 284h157l102 294q6 19 -6 20q-8 -1 -25 -16q-46 -42 -169 -213q-37 -51 -59 -85zM829 246h-173 q-93 -124 -133 -167q-144 -146 -307 -149q-98 0 -160 67q-57 62 -57 159t64 157q49 45 117 45q59 0 75 -42q3 -8 3 -14q0 -43 -40 -52q-8 -2 -15 -2q-5 0 -9.5 0.5t-8.5 2.5t-6.5 3.5t-6.5 5t-5.5 4t-5.5 4.5l-4 5q-20 19 -41 19q-24 -1 -49 -32q-26 -33 -26 -79 q0 -114 115 -147q37 -10 78 -10q146 0 291 145q59 59 138 161q186 239 239 285q66 57 141 67q23 3 49 3q90 0 120 -38q9 -11 9 -24q0 -17 -20 -22q-4 -1 -8 -1q-23 1 -38 22q-15 18 -38 20q-21 0 -35 -32q-5 -13 -11 -31l-147 -459q-12 -36 -12 -56q2 -27 27 -28h36 q7 -1 8 -7l-3 -24q-6 -7 -13 -8h-15q-64 3 -136 3q-63 0 -118 -2q-14 -1 -19 -1q-9 0 -9 7v3l3 21q4 7 9 8h22q45 0 64 36q5 9 8 19z" glyph-name="Abreve.swash" horiz-adv-x="1060" unicode=""/>
<glyph d="M1139 732l-80 53l-126 -57q-6 -1 -9 3l-7 12q0 3 2 7l147 147q10 9 17 -2l79 -148q2 -5 -2 -8l-10 -9q-5 -2 -11 2zM686 284h157l102 294q6 19 -6 20q-8 -1 -25 -16q-46 -42 -169 -213q-37 -51 -59 -85zM829 246h-173q-93 -124 -133 -167q-144 -146 -307 -149 q-98 0 -160 67q-57 62 -57 159t64 157q49 45 117 45q59 0 75 -42q3 -8 3 -14q0 -43 -40 -52q-8 -2 -15 -2q-5 0 -9.5 0.5t-8.5 2.5t-6.5 3.5t-6.5 5t-5.5 4t-5.5 4.5l-4 5q-20 19 -41 19q-24 -1 -49 -32q-26 -33 -26 -79q0 -114 115 -147q37 -10 78 -10q146 0 291 145 q59 59 138 161q186 239 239 285q66 57 141 67q23 3 49 3q90 0 120 -38q9 -11 9 -24q0 -17 -20 -22q-4 -1 -8 -1q-23 1 -38 22q-15 18 -38 20q-21 0 -35 -32q-5 -13 -11 -31l-147 -459q-12 -36 -12 -56q2 -27 27 -28h36q7 -1 8 -7l-3 -24q-6 -7 -13 -8h-15q-64 3 -136 3 q-63 0 -118 -2q-14 -1 -19 -1q-9 0 -9 7v3l3 21q4 7 9 8h22q45 0 64 36q5 9 8 19z" glyph-name="Acircumflex.swash" horiz-adv-x="1060" unicode=""/>
<glyph d="M1147 748q-53 9 -58 55q0 32 31 44q12 4 27 4q38 0 49 -33q3 -9 3 -19q0 -36 -33 -48q-10 -3 -19 -3zM949 748q-53 9 -58 55q0 32 31 44q12 4 27 4q38 0 49 -33q3 -9 3 -19q0 -36 -33 -48q-10 -3 -19 -3zM686 284h157l102 294q6 19 -6 20q-8 -1 -25 -16 q-46 -42 -169 -213q-37 -51 -59 -85zM829 246h-173q-93 -124 -133 -167q-144 -146 -307 -149q-98 0 -160 67q-57 62 -57 159t64 157q49 45 117 45q59 0 75 -42q3 -8 3 -14q0 -43 -40 -52q-8 -2 -15 -2q-5 0 -9.5 0.5t-8.5 2.5t-6.5 3.5t-6.5 5t-5.5 4t-5.5 4.5l-4 5 q-20 19 -41 19q-24 -1 -49 -32q-26 -33 -26 -79q0 -114 115 -147q37 -10 78 -10q146 0 291 145q59 59 138 161q186 239 239 285q66 57 141 67q23 3 49 3q90 0 120 -38q9 -11 9 -24q0 -17 -20 -22q-4 -1 -8 -1q-23 1 -38 22q-15 18 -38 20q-21 0 -35 -32q-5 -13 -11 -31 l-147 -459q-12 -36 -12 -56q2 -27 27 -28h36q7 -1 8 -7l-3 -24q-6 -7 -13 -8h-15q-64 3 -136 3q-63 0 -118 -2q-14 -1 -19 -1q-9 0 -9 7v3l3 21q4 7 9 8h22q45 0 64 36q5 9 8 19z" glyph-name="Adieresis.swash" horiz-adv-x="1060" unicode=""/>
<glyph d="M1083 737l-7 -10q-3 -1 -7 0l-155 71q-32 16 -33 41q0 28 27 43q9 5 18 5q24 -1 44 -23l111 -119q4 -4 2 -8zM686 284h157l102 294q6 19 -6 20q-8 -1 -25 -16q-46 -42 -169 -213q-37 -51 -59 -85zM829 246h-173q-93 -124 -133 -167q-144 -146 -307 -149q-98 0 -160 67 q-57 62 -57 159t64 157q49 45 117 45q59 0 75 -42q3 -8 3 -14q0 -43 -40 -52q-8 -2 -15 -2q-5 0 -9.5 0.5t-8.5 2.5t-6.5 3.5t-6.5 5t-5.5 4t-5.5 4.5l-4 5q-20 19 -41 19q-24 -1 -49 -32q-26 -33 -26 -79q0 -114 115 -147q37 -10 78 -10q146 0 291 145q59 59 138 161 q186 239 239 285q66 57 141 67q23 3 49 3q90 0 120 -38q9 -11 9 -24q0 -17 -20 -22q-4 -1 -8 -1q-23 1 -38 22q-15 18 -38 20q-21 0 -35 -32q-5 -13 -11 -31l-147 -459q-12 -36 -12 -56q2 -27 27 -28h36q7 -1 8 -7l-3 -24q-6 -7 -13 -8h-15q-64 3 -136 3q-63 0 -118 -2 q-14 -1 -19 -1q-9 0 -9 7v3l3 21q4 7 9 8h22q45 0 64 36q5 9 8 19z" glyph-name="Agrave.swash" horiz-adv-x="1060" unicode=""/>
<glyph d="M943 772v44q2 6 10 6h220q9 -2 10 -7v-43q-2 -7 -9 -7h-223q-7 2 -8 7zM686 284h157l102 294q6 19 -6 20q-8 -1 -25 -16q-46 -42 -169 -213q-37 -51 -59 -85zM829 246h-173q-93 -124 -133 -167q-144 -146 -307 -149q-98 0 -160 67q-57 62 -57 159t64 157q49 45 117 45 q59 0 75 -42q3 -8 3 -14q0 -43 -40 -52q-8 -2 -15 -2q-5 0 -9.5 0.5t-8.5 2.5t-6.5 3.5t-6.5 5t-5.5 4t-5.5 4.5l-4 5q-20 19 -41 19q-24 -1 -49 -32q-26 -33 -26 -79q0 -114 115 -147q37 -10 78 -10q146 0 291 145q59 59 138 161q186 239 239 285q66 57 141 67q23 3 49 3 q90 0 120 -38q9 -11 9 -24q0 -17 -20 -22q-4 -1 -8 -1q-23 1 -38 22q-15 18 -38 20q-21 0 -35 -32q-5 -13 -11 -31l-147 -459q-12 -36 -12 -56q2 -27 27 -28h36q7 -1 8 -7l-3 -24q-6 -7 -13 -8h-15q-64 3 -136 3q-63 0 -118 -2q-14 -1 -19 -1q-9 0 -9 7v3l3 21q4 7 9 8h22 q45 0 64 36q5 9 8 19z" glyph-name="Amacron.swash" horiz-adv-x="1060" unicode=""/>
<glyph d="M945 578q6 19 -6 20q-8 -1 -25 -16q-46 -42 -169 -213q-37 -51 -59 -85h157zM1221 623q0 -17 -20 -22q-4 -1 -8 -1q-23 1 -38 22q-15 18 -38 20q-21 0 -35 -32q-5 -13 -11 -31l-147 -459q-12 -36 -12 -56q2 -27 27 -28h36q7 -1 8 -7l-3 -24q-6 -7 -13 -8q-2 0 -8 1 q-20 1 -35 1h-7q-18 1 -79 1q-68 0 -111 -72q-26 -44 -26 -87q8 -58 63 -61q6 0 33 10q9 3 16 3q10 -2 11 -19q0 -16 -38 -30q-23 -8 -42 -8q-130 0 -142 76q-1 9 -1 18q0 54 87 136q54 51 60 60q2 3 3 5q14 28 25 58l53 157h-173q-93 -124 -133 -167q-144 -146 -307 -149 q-98 0 -160 67q-57 62 -57 159t64 157q49 45 117 45q59 0 75 -42q3 -8 3 -14q0 -43 -40 -52q-8 -2 -15 -2q-5 0 -9.5 0.5t-8.5 2.5t-6.5 3.5t-6.5 5t-5.5 4t-5.5 4.5l-4 5q-20 19 -41 19q-24 -1 -49 -32q-26 -33 -26 -79q0 -114 115 -147q37 -10 78 -10q146 0 291 145 q59 59 138 161q186 239 239 285q66 57 141 67q23 3 49 3q90 0 120 -38q9 -11 9 -24z" glyph-name="Aogonek.swash" horiz-adv-x="1060" unicode=""/>
<glyph d="M1075 864q-24 0 -40 -24q-10 -15 -10 -33q0 -47 40 -55q6 -1 12 -1q36 0 48 34q3 11 3 23q0 46 -41 55q-6 1 -12 1zM1080 894q80 0 106 -48q9 -17 9 -37q0 -53 -59 -76q-29 -12 -63 -12q-79 0 -106 45q-9 16 -9 35q0 57 62 82q28 11 60 11zM686 284h157l102 294 q6 19 -6 20q-8 -1 -25 -16q-46 -42 -169 -213q-37 -51 -59 -85zM829 246h-173q-93 -124 -133 -167q-144 -146 -307 -149q-98 0 -160 67q-57 62 -57 159t64 157q49 45 117 45q59 0 75 -42q3 -8 3 -14q0 -43 -40 -52q-8 -2 -15 -2q-5 0 -9.5 0.5t-8.5 2.5t-6.5 3.5t-6.5 5 t-5.5 4t-5.5 4.5l-4 5q-20 19 -41 19q-24 -1 -49 -32q-26 -33 -26 -79q0 -114 115 -147q37 -10 78 -10q146 0 291 145q59 59 138 161q186 239 239 285q66 57 141 67q23 3 49 3q90 0 120 -38q9 -11 9 -24q0 -17 -20 -22q-4 -1 -8 -1q-23 1 -38 22q-15 18 -38 20 q-21 0 -35 -32q-5 -13 -11 -31l-147 -459q-12 -36 -12 -56q2 -27 27 -28h36q7 -1 8 -7l-3 -24q-6 -7 -13 -8h-15q-64 3 -136 3q-63 0 -118 -2q-14 -1 -19 -1q-9 0 -9 7v3l3 21q4 7 9 8h22q45 0 64 36q5 9 8 19z" glyph-name="Aring.swash" horiz-adv-x="1060" unicode=""/>
<glyph d="M921 747l-13 8q-2 5 -1 10q16 50 53 79q17 13 30 13q25 0 87 -15q34 -8 60 -8q34 1 51 29q4 5 8 4l15 -8q6 -3 -1 -19q-1 -1 -1 -2q-28 -61 -67 -74q-8 -3 -15 -3q-33 0 -76 11q-45 12 -71 12q-25 0 -47 -28l-4 -6q-4 -4 -8 -3zM686 284h157l102 294q6 19 -6 20 q-8 -1 -25 -16q-46 -42 -169 -213q-37 -51 -59 -85zM829 246h-173q-93 -124 -133 -167q-144 -146 -307 -149q-98 0 -160 67q-57 62 -57 159t64 157q49 45 117 45q59 0 75 -42q3 -8 3 -14q0 -43 -40 -52q-8 -2 -15 -2q-5 0 -9.5 0.5t-8.5 2.5t-6.5 3.5t-6.5 5t-5.5 4 t-5.5 4.5l-4 5q-20 19 -41 19q-24 -1 -49 -32q-26 -33 -26 -79q0 -114 115 -147q37 -10 78 -10q146 0 291 145q59 59 138 161q186 239 239 285q66 57 141 67q23 3 49 3q90 0 120 -38q9 -11 9 -24q0 -17 -20 -22q-4 -1 -8 -1q-23 1 -38 22q-15 18 -38 20q-21 0 -35 -32 q-5 -13 -11 -31l-147 -459q-12 -36 -12 -56q2 -27 27 -28h36q7 -1 8 -7l-3 -24q-6 -7 -13 -8h-15q-64 3 -136 3q-63 0 -118 -2q-14 -1 -19 -1q-9 0 -9 7v3l3 21q4 7 9 8h22q45 0 64 36q5 9 8 19z" glyph-name="Atilde.swash" horiz-adv-x="1060" unicode=""/>
<glyph d="M523 323l-67 -248q-1 -3 -1 -6q0 -24 35 -35q16 -5 35 -5q81 0 124 56q32 41 32 105q0 79 -80 115q-37 17 -78 18zM602 628l-72 -271q24 -5 58 -5q109 0 148 88q14 32 14 65q0 80 -65 114q-24 13 -44 13q-26 0 -39 -4zM326 95l135 496q2 12 2 15q0 18 -31 20h-10 q-120 0 -228 -77q-86 -62 -101 -126q-2 -10 -2 -19q0 -43 42 -55q9 -2 17 -2q22 1 34 25q17 29 51 30q40 0 47 -41q1 -8 1 -15q0 -44 -49 -61q-17 -6 -35 -6q-96 0 -136 71q-18 34 -18 74q0 99 80 167q27 22 60 38q81 37 245 40q33 1 95 1h21q201 0 272 -37q71 -38 71 -114 q0 -69 -73 -127q-52 -40 -126 -60v-2q72 -16 111 -73q24 -37 24 -79q0 -73 -57 -123q-20 -18 -45 -29q-57 -25 -157 -28q-22 -1 -46 -1q-19 0 -59 1q-60 2 -101 2q-23 0 -70 -2q-46 -1 -69 -1q-8 0 -9 5v3l4 21q3 7 9 8h27q48 0 65 36q5 11 9 25z" glyph-name="B.swash" horiz-adv-x="885" unicode=""/>
<glyph d="M268 -248q-110 0 -170 85q-50 72 -50 193q0 173 83 351q39 83 90 149q121 155 238 155q91 0 144 -70q36 -48 36 -105q0 -45 -29 -68q-14 -11 -30 -11q-35 0 -51 36q-6 15 -6 32q0 6 8 51q1 6 1 9q0 82 -60 90q-9 1 -17 1q-49 0 -105 -85q-25 -38 -45 -84 q-73 -170 -106 -360q-12 -65 -12 -105q0 -139 50 -179q30 -22 79 -22q66 0 121 64q18 20 27 39q19 40 22 71q13 27 30 28q23 -5 24 -33q0 -33 -43 -95q-75 -109 -180 -132q-25 -5 -49 -5z" glyph-name="C.swash" horiz-adv-x="562" unicode=""/>
<glyph d="M431 729l-6 10q-1 5 3 10l132 114q21 17 40 18q32 0 42 -32q3 -8 3 -16q-2 -31 -31 -43l-175 -62q-6 -2 -8 1zM268 -248q-110 0 -170 85q-50 72 -50 193q0 173 83 351q39 83 90 149q121 155 238 155q91 0 144 -70q36 -48 36 -105q0 -45 -29 -68q-14 -11 -30 -11 q-35 0 -51 36q-6 15 -6 32q0 6 8 51q1 6 1 9q0 82 -60 90q-9 1 -17 1q-49 0 -105 -85q-25 -38 -45 -84q-73 -170 -106 -360q-12 -65 -12 -105q0 -139 50 -179q30 -22 79 -22q66 0 121 64q18 20 27 39q19 40 22 71q13 27 30 28q23 -5 24 -33q0 -33 -43 -95 q-75 -109 -180 -132q-25 -5 -49 -5z" glyph-name="Cacute.swash" horiz-adv-x="562" unicode=""/>
<glyph d="M480 839l126 57q6 1 9 -3l7 -12q0 -3 -2 -7l-147 -147q-10 -9 -17 2l-79 148q-2 5 2 8l10 9q5 2 11 -2zM268 -248q-110 0 -170 85q-50 72 -50 193q0 173 83 351q39 83 90 149q121 155 238 155q91 0 144 -70q36 -48 36 -105q0 -45 -29 -68q-14 -11 -30 -11q-35 0 -51 36 q-6 15 -6 32q0 6 8 51q1 6 1 9q0 82 -60 90q-9 1 -17 1q-49 0 -105 -85q-25 -38 -45 -84q-73 -170 -106 -360q-12 -65 -12 -105q0 -139 50 -179q30 -22 79 -22q66 0 121 64q18 20 27 39q19 40 22 71q13 27 30 28q23 -5 24 -33q0 -33 -43 -95q-75 -109 -180 -132 q-25 -5 -49 -5z" glyph-name="Ccaron.swash" horiz-adv-x="562" unicode=""/>
<glyph d="M288 -247l-42 -62q71 -17 78 -54q1 -6 1 -12q0 -42 -66 -71q-52 -22 -112 -22q-18 2 -19 15q1 15 12 16q65 2 80 38q4 10 4 19q0 26 -40 41q-4 2 -8 3l66 89q-114 13 -163 118q-31 65 -31 159q0 173 83 351q39 83 90 149q121 155 238 155q91 0 144 -70q36 -48 36 -105 q0 -45 -29 -68q-14 -11 -30 -11q-35 0 -51 36q-6 15 -6 32q0 6 8 51q1 6 1 9q0 82 -60 90q-9 1 -17 1q-49 0 -105 -85q-25 -38 -45 -84q-73 -170 -106 -360q-12 -65 -12 -105q0 -139 50 -179q30 -22 79 -22q66 0 121 64q18 20 27 39q19 40 22 71q13 27 30 28q23 -5 24 -33 q0 -32 -42 -94q-75 -109 -181 -132q-15 -4 -29 -5z" glyph-name="Ccedilla.swash" horiz-adv-x="562" unicode=""/>
<glyph d="M614 600l-127 -511q-3 -13 -3 -24q2 -32 37 -33q96 0 188 61q27 17 46 36q119 116 121 278q-1 134 -97 191q-53 32 -125 32q-28 0 -35 -14q-3 -7 -5 -16zM348 112l123 482q1 4 1 8q-2 22 -56 22q-103 0 -209 -77q-84 -62 -102 -122q-4 -12 -4 -22q0 -45 42 -55 q8 -2 15 -2q25 1 34 18q20 36 57 37q31 0 40 -33q2 -9 2 -18q0 -41 -47 -61q-23 -9 -50 -9q-76 0 -114 56q-25 36 -25 87q0 106 79 173q23 19 50 32q75 37 219 41q42 1 131 1h24q266 0 357 -65q9 -6 15 -12q73 -64 86 -151q3 -24 3 -51q0 -145 -107 -253l-3 -3 q-142 -138 -429 -138q-20 0 -58 1q-39 2 -58 2q-28 0 -85 -2q-31 -1 -39 -1q-9 2 -7 10l5 22q4 6 10 7h27q43 0 62 42q6 15 11 34z" glyph-name="D.swash" horiz-adv-x="1020" unicode=""/>
<glyph d="M584 839l126 57q6 1 9 -3l7 -12q0 -3 -2 -7l-147 -147q-10 -9 -17 2l-79 148q-2 5 2 8l10 9q5 2 11 -2zM614 600l-127 -511q-3 -13 -3 -24q2 -32 37 -33q96 0 188 61q27 17 46 36q119 116 121 278q-1 134 -97 191q-53 32 -125 32q-28 0 -35 -14q-3 -7 -5 -16zM348 112 l123 482q1 4 1 8q-2 22 -56 22q-103 0 -209 -77q-84 -62 -102 -122q-4 -12 -4 -22q0 -45 42 -55q8 -2 15 -2q25 1 34 18q20 36 57 37q31 0 40 -33q2 -9 2 -18q0 -41 -47 -61q-23 -9 -50 -9q-76 0 -114 56q-25 36 -25 87q0 106 79 173q23 19 50 32q75 37 219 41q42 1 131 1 h24q266 0 357 -65q9 -6 15 -12q73 -64 86 -151q3 -24 3 -51q0 -145 -107 -253l-3 -3q-142 -138 -429 -138q-20 0 -58 1q-39 2 -58 2q-28 0 -85 -2q-31 -1 -39 -1q-9 2 -7 10l5 22q4 6 10 7h27q43 0 62 42q6 15 11 34z" glyph-name="Dcaron.swash" horiz-adv-x="1020" unicode=""/>
<glyph d="M711 324h-166l-58 -235q-3 -13 -3 -24q2 -32 37 -33q96 0 188 61q27 17 46 36q121 117 121 278q0 133 -95 191q-54 32 -127 32q-28 0 -35 -14q-3 -7 -5 -16l-58 -234h168q7 -2 7 -6l-9 -30q-5 -6 -11 -6zM413 366l58 228q1 4 1 8q-2 22 -56 22q-103 0 -209 -77 q-84 -62 -102 -122q-4 -12 -4 -22q0 -45 42 -55q8 -2 15 -2q25 1 34 18q20 36 57 37q31 0 40 -33q2 -9 2 -18q0 -41 -47 -61q-23 -9 -50 -9q-76 0 -114 56q-25 36 -25 87q0 106 79 173q23 19 50 32q75 37 219 41q42 1 131 1h24q266 0 357 -65q9 -6 15 -12q73 -64 86 -151 q3 -24 3 -51q0 -145 -107 -253l-3 -3q-142 -138 -429 -138q-20 0 -58 1q-39 2 -58 2q-28 0 -85 -2q-31 -1 -39 -1q-9 2 -7 10l5 22q4 6 10 7h27q43 0 62 42q6 15 11 34l54 212h-71q-5 2 -4 8l8 27q3 6 9 7h69z" glyph-name="Dcroat.swash" horiz-adv-x="1020" unicode=""/>
<glyph d="M286 358q41 -34 71 -35q40 4 44 30q0 23 -32 28q-6 1 -11 1q-31 -1 -72 -24zM250 -15q-130 0 -186 81q-28 42 -28 97q1 123 161 200q-64 48 -64 135q0 88 79 145q71 52 173 52q122 0 158 -88q13 -31 13 -68q-1 -55 -36 -56q-21 1 -22 17q1 10 8 24q4 6 4 15q0 31 -39 54 q-32 18 -73 18q-87 0 -127 -74q-18 -34 -18 -70q1 -48 20 -71q21 11 47 17q26 7 55 7q75 0 89 -49q2 -9 2 -17q0 -40 -46 -59q-24 -10 -54 -10q-55 0 -111 32q-6 4 -11 7q-63 -51 -64 -154q0 -48 42 -81q34 -26 79 -26q95 0 154 71q20 25 29 50q8 16 20 17q11 0 18 -16 q2 -4 2 -8t-1 -5q-18 -50 -61 -99q-82 -88 -212 -88z" glyph-name="E.swash" horiz-adv-x="540" unicode=""/>
<glyph d="M350 729l-6 10q-1 5 3 10l132 114q21 17 40 18q32 0 42 -32q3 -8 3 -16q-2 -31 -31 -43l-175 -62q-6 -2 -8 1zM286 358q41 -34 71 -35q40 4 44 30q0 23 -32 28q-6 1 -11 1q-31 -1 -72 -24zM250 -15q-130 0 -186 81q-28 42 -28 97q1 123 161 200q-64 48 -64 135 q0 88 79 145q71 52 173 52q122 0 158 -88q13 -31 13 -68q-1 -55 -36 -56q-21 1 -22 17q1 10 8 24q4 6 4 15q0 31 -39 54q-32 18 -73 18q-87 0 -127 -74q-18 -34 -18 -70q1 -48 20 -71q21 11 47 17q26 7 55 7q75 0 89 -49q2 -9 2 -17q0 -40 -46 -59q-24 -10 -54 -10 q-55 0 -111 32q-6 4 -11 7q-63 -51 -64 -154q0 -48 42 -81q34 -26 79 -26q95 0 154 71q20 25 29 50q8 16 20 17q11 0 18 -16q2 -4 2 -8t-1 -5q-18 -50 -61 -99q-82 -88 -212 -88z" glyph-name="Eacute.swash" horiz-adv-x="540" unicode=""/>
<glyph d="M415 739q-89 2 -107 97q-2 12 3 14l10 3q3 1 13 -12q2 -1 2 -2q23 -30 93 -30q71 0 106 32q13 13 17 12l11 -5q3 -3 -1 -13q-40 -79 -109 -93q-18 -3 -38 -3zM286 358q41 -34 71 -35q40 4 44 30q0 23 -32 28q-6 1 -11 1q-31 -1 -72 -24zM250 -15q-130 0 -186 81 q-28 42 -28 97q1 123 161 200q-64 48 -64 135q0 88 79 145q71 52 173 52q122 0 158 -88q13 -31 13 -68q-1 -55 -36 -56q-21 1 -22 17q1 10 8 24q4 6 4 15q0 31 -39 54q-32 18 -73 18q-87 0 -127 -74q-18 -34 -18 -70q1 -48 20 -71q21 11 47 17q26 7 55 7q75 0 89 -49 q2 -9 2 -17q0 -40 -46 -59q-24 -10 -54 -10q-55 0 -111 32q-6 4 -11 7q-63 -51 -64 -154q0 -48 42 -81q34 -26 79 -26q95 0 154 71q20 25 29 50q8 16 20 17q11 0 18 -16q2 -4 2 -8t-1 -5q-18 -50 -61 -99q-82 -88 -212 -88z" glyph-name="Ebreve.swash" horiz-adv-x="540" unicode=""/>
<glyph d="M409 839l126 57q6 1 9 -3l7 -12q0 -3 -2 -7l-147 -147q-10 -9 -17 2l-79 148q-2 5 2 8l10 9q5 2 11 -2zM286 358q41 -34 71 -35q40 4 44 30q0 23 -32 28q-6 1 -11 1q-31 -1 -72 -24zM250 -15q-130 0 -186 81q-28 42 -28 97q1 123 161 200q-64 48 -64 135q0 88 79 145 q71 52 173 52q122 0 158 -88q13 -31 13 -68q-1 -55 -36 -56q-21 1 -22 17q1 10 8 24q4 6 4 15q0 31 -39 54q-32 18 -73 18q-87 0 -127 -74q-18 -34 -18 -70q1 -48 20 -71q21 11 47 17q26 7 55 7q75 0 89 -49q2 -9 2 -17q0 -40 -46 -59q-24 -10 -54 -10q-55 0 -111 32 q-6 4 -11 7q-63 -51 -64 -154q0 -48 42 -81q34 -26 79 -26q95 0 154 71q20 25 29 50q8 16 20 17q11 0 18 -16q2 -4 2 -8t-1 -5q-18 -50 -61 -99q-82 -88 -212 -88z" glyph-name="Ecaron.swash" horiz-adv-x="540" unicode=""/>
<glyph d="M494 732l-80 53l-126 -57q-6 -1 -9 3l-7 12q0 3 2 7l147 147q10 9 17 -2l79 -148q2 -5 -2 -8l-10 -9q-5 -2 -11 2zM286 358q41 -34 71 -35q40 4 44 30q0 23 -32 28q-6 1 -11 1q-31 -1 -72 -24zM250 -15q-130 0 -186 81q-28 42 -28 97q1 123 161 200q-64 48 -64 135 q0 88 79 145q71 52 173 52q122 0 158 -88q13 -31 13 -68q-1 -55 -36 -56q-21 1 -22 17q1 10 8 24q4 6 4 15q0 31 -39 54q-32 18 -73 18q-87 0 -127 -74q-18 -34 -18 -70q1 -48 20 -71q21 11 47 17q26 7 55 7q75 0 89 -49q2 -9 2 -17q0 -40 -46 -59q-24 -10 -54 -10 q-55 0 -111 32q-6 4 -11 7q-63 -51 -64 -154q0 -48 42 -81q34 -26 79 -26q95 0 154 71q20 25 29 50q8 16 20 17q11 0 18 -16q2 -4 2 -8t-1 -5q-18 -50 -61 -99q-82 -88 -212 -88z" glyph-name="Ecircumflex.swash" horiz-adv-x="540" unicode=""/>
<glyph d="M512 748q-53 9 -58 55q0 32 31 44q12 4 27 4q38 0 49 -33q3 -9 3 -19q0 -36 -33 -48q-10 -3 -19 -3zM314 748q-53 9 -58 55q0 32 31 44q12 4 27 4q38 0 49 -33q3 -9 3 -19q0 -36 -33 -48q-10 -3 -19 -3zM286 358q41 -34 71 -35q40 4 44 30q0 23 -32 28q-6 1 -11 1 q-31 -1 -72 -24zM250 -15q-130 0 -186 81q-28 42 -28 97q1 123 161 200q-64 48 -64 135q0 88 79 145q71 52 173 52q122 0 158 -88q13 -31 13 -68q-1 -55 -36 -56q-21 1 -22 17q1 10 8 24q4 6 4 15q0 31 -39 54q-32 18 -73 18q-87 0 -127 -74q-18 -34 -18 -70q1 -48 20 -71 q21 11 47 17q26 7 55 7q75 0 89 -49q2 -9 2 -17q0 -40 -46 -59q-24 -10 -54 -10q-55 0 -111 32q-6 4 -11 7q-63 -51 -64 -154q0 -48 42 -81q34 -26 79 -26q95 0 154 71q20 25 29 50q8 16 20 17q11 0 18 -16q2 -4 2 -8t-1 -5q-18 -50 -61 -99q-82 -88 -212 -88z" glyph-name="Edieresis.swash" horiz-adv-x="540" unicode=""/>
<glyph d="M395 738q-56 0 -62 46q-1 5 -1 10q0 41 36 54q13 4 27 4q39 0 53 -35q4 -12 4 -24q0 -38 -35 -51q-11 -4 -22 -4zM286 358q41 -34 71 -35q40 4 44 30q0 23 -32 28q-6 1 -11 1q-31 -1 -72 -24zM250 -15q-130 0 -186 81q-28 42 -28 97q1 123 161 200q-64 48 -64 135 q0 88 79 145q71 52 173 52q122 0 158 -88q13 -31 13 -68q-1 -55 -36 -56q-21 1 -22 17q1 10 8 24q4 6 4 15q0 31 -39 54q-32 18 -73 18q-87 0 -127 -74q-18 -34 -18 -70q1 -48 20 -71q21 11 47 17q26 7 55 7q75 0 89 -49q2 -9 2 -17q0 -40 -46 -59q-24 -10 -54 -10 q-55 0 -111 32q-6 4 -11 7q-63 -51 -64 -154q0 -48 42 -81q34 -26 79 -26q95 0 154 71q20 25 29 50q8 16 20 17q11 0 18 -16q2 -4 2 -8t-1 -5q-18 -50 -61 -99q-82 -88 -212 -88z" glyph-name="Edotaccent.swash" horiz-adv-x="540" unicode=""/>
<glyph d="M443 737l-7 -10q-3 -1 -7 0l-155 71q-32 16 -33 41q0 28 27 43q9 5 18 5q24 -1 44 -23l111 -119q4 -4 2 -8zM286 358q41 -34 71 -35q40 4 44 30q0 23 -32 28q-6 1 -11 1q-31 -1 -72 -24zM250 -15q-130 0 -186 81q-28 42 -28 97q1 123 161 200q-64 48 -64 135q0 88 79 145 q71 52 173 52q122 0 158 -88q13 -31 13 -68q-1 -55 -36 -56q-21 1 -22 17q1 10 8 24q4 6 4 15q0 31 -39 54q-32 18 -73 18q-87 0 -127 -74q-18 -34 -18 -70q1 -48 20 -71q21 11 47 17q26 7 55 7q75 0 89 -49q2 -9 2 -17q0 -40 -46 -59q-24 -10 -54 -10q-55 0 -111 32 q-6 4 -11 7q-63 -51 -64 -154q0 -48 42 -81q34 -26 79 -26q95 0 154 71q20 25 29 50q8 16 20 17q11 0 18 -16q2 -4 2 -8t-1 -5q-18 -50 -61 -99q-82 -88 -212 -88z" glyph-name="Egrave.swash" horiz-adv-x="540" unicode=""/>
<glyph d="M283 772v44q2 6 10 6h220q9 -2 10 -7v-43q-2 -7 -9 -7h-223q-7 2 -8 7zM286 358q41 -34 71 -35q40 4 44 30q0 23 -32 28q-6 1 -11 1q-31 -1 -72 -24zM250 -15q-130 0 -186 81q-28 42 -28 97q1 123 161 200q-64 48 -64 135q0 88 79 145q71 52 173 52q122 0 158 -88 q13 -31 13 -68q-1 -55 -36 -56q-21 1 -22 17q1 10 8 24q4 6 4 15q0 31 -39 54q-32 18 -73 18q-87 0 -127 -74q-18 -34 -18 -70q1 -48 20 -71q21 11 47 17q26 7 55 7q75 0 89 -49q2 -9 2 -17q0 -40 -46 -59q-24 -10 -54 -10q-55 0 -111 32q-6 4 -11 7q-63 -51 -64 -154 q0 -48 42 -81q34 -26 79 -26q95 0 154 71q20 25 29 50q8 16 20 17q11 0 18 -16q2 -4 2 -8t-1 -5q-18 -50 -61 -99q-82 -88 -212 -88z" glyph-name="Emacron.swash" horiz-adv-x="540" unicode=""/>
<glyph d="M401 353q0 23 -32 28q-6 1 -11 1q-31 -1 -72 -24q41 -34 71 -35q40 4 44 30zM556 539q-1 -55 -36 -56q-21 1 -22 17q1 10 8 24q4 6 4 15q0 31 -39 54q-32 18 -73 18q-87 0 -127 -74q-18 -34 -18 -70q1 -48 20 -71q21 11 47 17q26 7 55 7q75 0 89 -49q2 -9 2 -17 q0 -40 -46 -59q-24 -10 -54 -10q-55 0 -111 32q-6 4 -11 7q-63 -51 -64 -154q0 -48 42 -81q34 -26 79 -26q95 0 154 71q20 25 29 50q8 16 20 17q11 0 18 -16q2 -6 2 -10q-1 -32 -62 -101q-29 -30 -89 -62q-20 -12 -31 -19q-50 -35 -74 -105q-9 -27 -9 -47q8 -58 63 -61 q6 0 33 10q9 3 16 3q10 -2 11 -19q0 -16 -38 -30q-23 -8 -42 -8q-130 0 -142 76q-1 9 -1 18q0 58 74 120q7 7 23 19q10 8 14 12q-4 0 -43 5q-129 12 -173 99q-18 35 -18 78q1 123 161 200q-64 48 -64 135q0 88 79 145q71 52 173 52q122 0 158 -88q13 -31 13 -68z" glyph-name="Eogonek.swash" horiz-adv-x="540" unicode=""/>
<glyph d="M711 324h-166l-58 -235q-3 -13 -3 -24q2 -32 37 -33q96 0 188 61q27 17 46 36q121 117 121 278q0 133 -95 191q-54 32 -127 32q-28 0 -35 -14q-3 -7 -5 -16l-58 -234h168q7 -2 7 -6l-9 -30q-5 -6 -11 -6zM413 366l58 228q1 4 1 8q-2 22 -56 22q-103 0 -209 -77 q-84 -62 -102 -122q-4 -12 -4 -22q0 -45 42 -55q8 -2 15 -2q25 1 34 18q20 36 57 37q31 0 40 -33q2 -9 2 -18q0 -41 -47 -61q-23 -9 -50 -9q-76 0 -114 56q-25 36 -25 87q0 106 79 173q23 19 50 32q75 37 219 41q42 1 131 1h24q266 0 357 -65q9 -6 15 -12q73 -64 86 -151 q3 -24 3 -51q0 -145 -107 -253l-3 -3q-142 -138 -429 -138q-20 0 -58 1q-39 2 -58 2q-28 0 -85 -2q-31 -1 -39 -1q-9 2 -7 10l5 22q4 6 10 7h27q43 0 62 42q6 15 11 34l54 212h-71q-5 2 -4 8l8 27q3 6 9 7h69z" glyph-name="Eth.swash" horiz-adv-x="1020" unicode=""/>
<glyph d="M696 466l-59 -251q-3 -5 -10 -5l-22 2q-5 3 -5 9q3 18 3 33q0 66 -66 74q-5 1 -10 1l-94 6l-61 -202q-37 -122 -85 -203q-19 -31 -45 -68q-58 -85 -152 -106q-20 -5 -38 -5q-83 0 -106 49q-7 14 -7 31q2 37 31 49q8 3 15 3q49 -2 56 -58q5 -34 30 -38q33 0 61 39 q9 12 14 26q42 103 83 244l142 489q1 4 1 8q0 14 -36 16h-28q-180 0 -227 -72q-13 -21 -13 -43q5 -36 31 -41q5 0 21 4q19 4 25 4q25 0 36 -25q5 -11 5 -21q0 -35 -32 -51q-14 -7 -30 -7q-43 0 -71 38q-22 31 -22 80q0 101 81 156q5 3 9 6q73 45 218 48h27q110 0 258 -25h2 q118 -20 148 -20q49 0 57 24q2 8 2 16q0 6 -9 25q-11 24 -11 35q0 25 21 34q8 3 16 3q42 0 51 -42q1 -8 1 -14q0 -44 -36 -88q-50 -59 -138 -60q-35 0 -133 9l-89 9l-63 -221h84q81 1 115 57q11 19 20 46q4 11 9 9l21 -7q5 -3 4 -9z" glyph-name="F.swash" horiz-adv-x="690" unicode=""/>
<glyph d="M747 648l-57 -201q-4 -7 -10 -6l-20 2q-7 3 -7 10q2 18 2 28q0 85 -60 129q-42 30 -101 30q-105 0 -187 -95q-7 -8 -13 -15q-88 -111 -93 -285v-17q0 -135 92 -170q24 -9 49 -9q101 0 141 89q13 30 16 61v12q0 32 -21 35q-5 1 -10 1h-32q-9 2 -7 10l4 21q3 8 11 8 q4 0 18 -1q62 -2 138 -2q41 0 74 1l32 2q10 0 9 -10v-2l-3 -19q-3 -7 -9 -8h-26q-25 0 -39 -52l-2 -10l-69 -269q-13 -60 -45 -121q-29 -57 -89 -93q-44 -26 -86 -26q-106 0 -131 64q-5 15 -5 30q0 64 51 70q6 1 10 1q41 -6 47 -42q0 -33 -9 -43q-6 -7 -6 -18q0 -22 26 -28 q6 -1 11 -1q57 0 85 84q4 12 7 25t11 45q26 118 54 213l-9 2q-71 -92 -195 -93q-145 0 -205 114q-34 65 -34 156q0 166 120 298q7 8 14 15q118 117 295 117q119 0 182 -50q16 -12 27 -12q12 0 20 30q1 1 1 2q7 5 8 5q3 0 7 -1l12 -3q6 -3 6 -8z" glyph-name="G.swash" horiz-adv-x="715" unicode=""/>
<glyph d="M503 739q-89 2 -107 97q-2 12 3 14l10 3q3 1 13 -12q2 -1 2 -2q23 -30 93 -30q71 0 106 32q13 13 17 12l11 -5q3 -3 -1 -13q-40 -79 -109 -93q-18 -3 -38 -3zM747 648l-57 -201q-4 -7 -10 -6l-20 2q-7 3 -7 10q2 18 2 28q0 85 -60 129q-42 30 -101 30q-105 0 -187 -95 q-7 -8 -13 -15q-88 -111 -93 -285v-17q0 -135 92 -170q24 -9 49 -9q101 0 141 89q13 30 16 61v12q0 32 -21 35q-5 1 -10 1h-32q-9 2 -7 10l4 21q3 8 11 8q4 0 18 -1q62 -2 138 -2q41 0 74 1l32 2q10 0 9 -10v-2l-3 -19q-3 -7 -9 -8h-26q-25 0 -39 -52l-2 -10l-69 -269 q-13 -60 -45 -121q-29 -57 -89 -93q-44 -26 -86 -26q-106 0 -131 64q-5 15 -5 30q0 64 51 70q6 1 10 1q41 -6 47 -42q0 -33 -9 -43q-6 -7 -6 -18q0 -22 26 -28q6 -1 11 -1q57 0 85 84q4 12 7 25t11 45q26 118 54 213l-9 2q-71 -92 -195 -93q-145 0 -205 114q-34 65 -34 156 q0 166 120 298q7 8 14 15q118 117 295 117q119 0 182 -50q16 -12 27 -12q12 0 20 30q1 1 1 2q7 5 8 5q3 0 7 -1l12 -3q6 -3 6 -8z" glyph-name="Gbreve.swash" horiz-adv-x="715" unicode=""/>
<glyph d="M197 -292q-9 0 -11 6v3q0 10 10 13q35 9 59 39q15 20 15 40q0 15 -4.5 24t-17.5 22l-1 1q-17 17 -20 22q-5 10 -5 19q0 31 26 40q7 3 14 3q38 0 58 -50q9 -21 9 -39q0 -86 -86 -128q-29 -15 -46 -15zM433 -182q25 121 65 258l-9 2q-71 -92 -195 -93q-145 0 -205 114 q-34 65 -34 156q0 166 120 298q7 8 14 15q118 117 295 117q119 0 182 -50q16 -12 27 -12q12 0 20 30q1 1 1 2q2 1 3 3q3 3 10 1h2l12 -3q6 -3 6 -8l-57 -201q-4 -7 -10 -6l-20 2q-7 3 -7 10q2 18 2 28q0 85 -60 129q-42 30 -101 30q-105 0 -187 -95q-7 -8 -13 -15 q-88 -111 -93 -285v-17q0 -135 92 -170q24 -9 49 -9q101 0 141 89q13 30 16 61v12q0 32 -21 35q-5 1 -10 1h-32q-9 2 -7 10l4 21q3 8 11 8q4 0 18 -1q62 -2 138 -2q41 0 74 1l32 2q10 0 9 -10v-2l-3 -19q-3 -7 -9 -8h-26q-22 0 -35 -39q-3 -11 -6 -23l-66 -269 q-13 -55 -48 -121q-29 -57 -89 -93q-44 -26 -86 -26q-11 3 -12 7q3 13 12 19q68 37 86 116z" glyph-name="Gcommaaccent.swash" horiz-adv-x="715" unicode=""/>
<glyph d="M518 360h298l38 125q50 162 133 262q22 26 43 42q79 54 151 56q68 -5 73 -45q0 -34 -33 -45q-11 -4 -23 -4q-21 1 -42 28q-16 19 -44 19q-34 0 -71 -122q-2 -5 -5 -16l-163 -554q-6 -20 -6 -34q2 -35 31 -36h23q9 -2 8 -10l-5 -22q-3 -7 -12 -7h-12q-56 3 -127 3 q-53 0 -107 -2q-13 -1 -16 -1q-9 2 -8 10l2 19q3 9 9 10h28q32 0 57 71q2 7 4 13l62 199h-299l-72 -217q-8 -27 -8 -39q1 -26 25 -27h33q8 -1 8 -8l-4 -22q-3 -8 -11 -9h-14q-62 3 -135 3q-51 0 -100 -2q-11 -1 -13 -1q-8 2 -7 12l4 19q4 8 9 8h29q28 0 52 72q1 1 1 2 l150 462q4 11 4 20q-2 34 -67 34q-112 0 -216 -72q-84 -57 -96 -116q-2 -8 -2 -15q0 -47 44 -64q12 -4 23 -4q24 1 37 25q18 30 46 31q46 0 52 -37q1 -7 1 -13q2 -41 -45 -61q-25 -10 -55 -10q-91 0 -129 63q-19 32 -19 74q0 109 83 177q19 16 40 27q67 34 144 40q31 2 75 2 h18q13 0 40 -1q32 -2 50 -2q28 0 95 2q25 1 29 1q13 -2 14 -13q0 -6 -3 -13q-10 -22 -25 -66z" glyph-name="H.swash" horiz-adv-x="1005" unicode=""/>
<glyph d="M112 108l125 460q5 20 5 31q-2 34 -41 35h-26q-9 0 -9 5v3l5 25q3 6 13 6q3 0 20 -1q67 -2 122 -2q58 0 119 2q16 1 20 1q12 0 12 -8q-1 -3 -1 -4l-5 -19q-4 -7 -11 -8h-19q-38 0 -53 -24q-9 -16 -17 -45l-125 -461q-5 -20 -5 -31q2 -36 35 -37h35q7 -2 6 -10l-3 -21 q-4 -8 -12 -8q-3 0 -16 1q-65 2 -126 2q-59 0 -130 -2q-15 -1 -18 -1q-8 2 -8 8l4 21q4 10 9 10h43q26 0 38 30q6 14 14 42z" glyph-name="I.swash" horiz-adv-x="382" unicode=""/>
<glyph d="M301 729l-6 10q-1 5 3 10l132 114q21 17 40 18q32 0 42 -32q3 -8 3 -16q-2 -31 -31 -43l-175 -62q-6 -2 -8 1zM112 108l125 460q5 20 5 31q-2 34 -41 35h-26q-9 0 -9 5v3l5 25q3 6 13 6q3 0 20 -1q67 -2 122 -2q58 0 119 2q16 1 20 1q12 0 12 -8q-1 -3 -1 -4l-5 -19 q-4 -7 -11 -8h-19q-38 0 -53 -24q-9 -16 -17 -45l-125 -461q-5 -20 -5 -31q2 -36 35 -37h35q7 -2 6 -10l-3 -21q-4 -8 -12 -8q-3 0 -16 1q-65 2 -126 2q-59 0 -130 -2q-15 -1 -18 -1q-8 2 -8 8l4 21q4 10 9 10h43q26 0 38 30q6 14 14 42z" glyph-name="Iacute.swash" horiz-adv-x="382" unicode=""/>
<glyph d="M430 732l-80 53l-126 -57q-6 -1 -9 3l-7 12q0 3 2 7l147 147q10 9 17 -2l79 -148q2 -5 -2 -8l-10 -9q-5 -2 -11 2zM112 108l125 460q5 20 5 31q-2 34 -41 35h-26q-9 0 -9 5v3l5 25q3 6 13 6q3 0 20 -1q67 -2 122 -2q58 0 119 2q16 1 20 1q12 0 12 -8q-1 -3 -1 -4l-5 -19 q-4 -7 -11 -8h-19q-38 0 -53 -24q-9 -16 -17 -45l-125 -461q-5 -20 -5 -31q2 -36 35 -37h35q7 -2 6 -10l-3 -21q-4 -8 -12 -8q-3 0 -16 1q-65 2 -126 2q-59 0 -130 -2q-15 -1 -18 -1q-8 2 -8 8l4 21q4 10 9 10h43q26 0 38 30q6 14 14 42z" glyph-name="Icircumflex.swash" horiz-adv-x="382" unicode=""/>
<glyph d="M448 748q-53 9 -58 55q0 32 31 44q12 4 27 4q38 0 49 -33q3 -9 3 -19q0 -36 -33 -48q-10 -3 -19 -3zM250 748q-53 9 -58 55q0 32 31 44q12 4 27 4q38 0 49 -33q3 -9 3 -19q0 -36 -33 -48q-10 -3 -19 -3zM112 108l125 460q5 20 5 31q-2 34 -41 35h-26q-9 0 -9 5v3l5 25 q3 6 13 6q3 0 20 -1q67 -2 122 -2q58 0 119 2q16 1 20 1q12 0 12 -8q-1 -3 -1 -4l-5 -19q-4 -7 -11 -8h-19q-38 0 -53 -24q-9 -16 -17 -45l-125 -461q-5 -20 -5 -31q2 -36 35 -37h35q7 -2 6 -10l-3 -21q-4 -8 -12 -8q-3 0 -16 1q-65 2 -126 2q-59 0 -130 -2q-15 -1 -18 -1 q-8 2 -8 8l4 21q4 10 9 10h43q26 0 38 30q6 14 14 42z" glyph-name="Idieresis.swash" horiz-adv-x="382" unicode=""/>
<glyph d="M346 738q-56 0 -62 46q-1 5 -1 10q0 41 36 54q13 4 27 4q39 0 53 -35q4 -12 4 -24q0 -38 -35 -51q-11 -4 -22 -4zM112 108l125 460q5 20 5 31q-2 34 -41 35h-26q-9 0 -9 5v3l5 25q3 6 13 6q3 0 20 -1q67 -2 122 -2q58 0 119 2q16 1 20 1q12 0 12 -8q-1 -3 -1 -4l-5 -19 q-4 -7 -11 -8h-19q-38 0 -53 -24q-9 -16 -17 -45l-125 -461q-5 -20 -5 -31q2 -36 35 -37h35q7 -2 6 -10l-3 -21q-4 -8 -12 -8q-3 0 -16 1q-65 2 -126 2q-59 0 -130 -2q-15 -1 -18 -1q-8 2 -8 8l4 21q4 10 9 10h43q26 0 38 30q6 14 14 42z" glyph-name="Idotaccent.swash" horiz-adv-x="382" unicode=""/>
<glyph d="M404 737l-7 -10q-3 -1 -7 0l-155 71q-32 16 -33 41q0 28 27 43q9 5 18 5q24 -1 44 -23l111 -119q4 -4 2 -8zM112 108l125 460q5 20 5 31q-2 34 -41 35h-26q-9 0 -9 5v3l5 25q3 6 13 6q3 0 20 -1q67 -2 122 -2q58 0 119 2q16 1 20 1q12 0 12 -8q-1 -3 -1 -4l-5 -19 q-4 -7 -11 -8h-19q-38 0 -53 -24q-9 -16 -17 -45l-125 -461q-5 -20 -5 -31q2 -36 35 -37h35q7 -2 6 -10l-3 -21q-4 -8 -12 -8q-3 0 -16 1q-65 2 -126 2q-59 0 -130 -2q-15 -1 -18 -1q-8 2 -8 8l4 21q4 10 9 10h43q26 0 38 30q6 14 14 42z" glyph-name="Igrave.swash" horiz-adv-x="382" unicode=""/>
<glyph d="M224 772v44q2 6 10 6h220q9 -2 10 -7v-43q-2 -7 -9 -7h-223q-7 2 -8 7zM112 108l125 460q5 20 5 31q-2 34 -41 35h-26q-9 0 -9 5v3l5 25q3 6 13 6q3 0 20 -1q67 -2 122 -2q58 0 119 2q16 1 20 1q12 0 12 -8q-1 -3 -1 -4l-5 -19q-4 -7 -11 -8h-19q-38 0 -53 -24 q-9 -16 -17 -45l-125 -461q-5 -20 -5 -31q2 -36 35 -37h35q7 -2 6 -10l-3 -21q-4 -8 -12 -8q-3 0 -16 1q-65 2 -126 2q-59 0 -130 -2q-15 -1 -18 -1q-8 2 -8 8l4 21q4 10 9 10h43q26 0 38 30q6 14 14 42z" glyph-name="Imacron.swash" horiz-adv-x="382" unicode=""/>
<glyph d="M476 661l-5 -19q-4 -7 -11 -8h-19q-38 0 -53 -24q-9 -16 -17 -45l-125 -461q-5 -20 -5 -31q2 -36 35 -37h35q7 -2 6 -10l-3 -21q-4 -8 -12 -8q-2 0 -9 1q-23 3 -41 3q-31 0 -57 -6q-44 -10 -77 -77q-21 -43 -21 -77q8 -58 63 -61q6 0 33 10q9 3 16 3q10 -2 11 -19 q0 -16 -38 -30q-23 -8 -42 -8q-130 0 -142 76q-1 9 -1 18q0 66 92 137q30 23 52 33q-52 0 -113 -2q-13 -1 -16 -1q-8 2 -8 8l4 21q4 10 9 10h43q26 0 39 32q6 14 13 40l125 460q5 20 5 31q-2 34 -41 35h-26q-9 0 -9 5v3l5 25q3 6 13 6q3 0 20 -1q67 -2 122 -2q58 0 119 2 q16 1 20 1q12 0 12 -8q-1 -3 -1 -4z" glyph-name="Iogonek.swash" horiz-adv-x="382" unicode=""/>
<glyph d="M293 355h114q14 48 61 133q14 25 27 45l-2 3q-51 -21 -99 -21q-121 1 -176 73q-39 43 -63 46q-42 0 -61 -41q-6 -13 -6 -25q2 -29 33 -34q54 -6 62 -35q2 -8 2 -16q0 -34 -36 -45q-11 -3 -24 -3q-42 0 -63 48q-13 29 -13 66q1 65 41 98q46 38 128 38q65 0 111 -32 q28 -20 65 -58q31 -31 67 -31q19 0 53 9q25 47 77 79q38 23 73 23q32 0 37 -25q1 -4 1 -6q0 -31 -59 -61q-30 -16 -70 -27q-17 -32 -45 -198q-1 -2 -1 -3h97q7 -2 7 -6l-7 -29q-3 -5 -10 -6h-92q-13 -55 -25 -95q-60 -200 -107 -288q-44 -81 -97 -128q-83 -72 -201 -72 q-80 0 -108 43q-10 16 -10 35q0 54 45 63q7 1 14 1q38 0 51 -50q3 -12 4 -24q9 -27 35 -31q58 0 95 40q5 6 9 11q31 44 73 203q40 150 60 212q17 50 29 80h-107q-6 1 -6 7l7 30q3 4 10 4z" glyph-name="J.swash" horiz-adv-x="600" unicode=""/>
<glyph d="M369 588l-72 -241q24 13 241 205q51 45 55 50q7 10 7 19q-2 12 -16 13h-20q-9 1 -8 10l5 21q3 7 10 8q3 0 15 -1q58 -2 115 -2q43 0 85 2q9 1 12 1q11 -2 11 -11l-4 -18q-5 -9 -10 -10h-31q-36 -1 -81 -30q-11 -8 -169 -132q-91 -71 -101 -79q88 -221 199 -406 q49 -81 87 -124q45 -51 62 -65q43 -34 84 -34q37 0 59 31q10 15 10 29q0 6 -1 9q-1 5 -1 12q0 34 21 42q4 2 8 2h3q40 -2 41 -47q0 -47 -49 -83q-50 -36 -125 -36q-145 0 -248 112q-19 21 -36 44q-67 90 -154 300q-32 76 -55 144l-33 -22l-54 -199q-6 -23 -6 -37 q2 -28 30 -29h25q7 -2 7 -10l-4 -21q-3 -7 -13 -8q-3 0 -14 1q-55 2 -119 2q-72 0 -121 -3h-8q-8 2 -8 11l4 20q4 7 11 8h18q37 0 57 34q5 9 7 17l136 483q6 21 6 34q-2 29 -29 30h-25q-10 0 -10 7q1 2 1 3l7 23q4 6 12 6h12q55 -3 120 -3q63 0 115 2q11 1 14 1q7 -2 6 -12 l-3 -19q-3 -8 -12 -8h-24q-40 -2 -54 -46z" glyph-name="K.swash" horiz-adv-x="650" unicode=""/>
<glyph d="M268 -252q-9 0 -11 6v3q0 10 10 13q35 9 59 39q15 20 15 40q0 15 -4.5 24t-17.5 22l-1 1q-17 17 -20 22q-5 10 -5 19q0 31 26 40q7 3 14 3q38 0 58 -50q9 -21 9 -39q0 -86 -86 -128q-29 -15 -46 -15zM369 588l-72 -241q24 13 241 205q51 45 55 50q7 10 7 19q-2 12 -16 13 h-20q-9 1 -8 10l5 21q3 7 10 8q3 0 15 -1q58 -2 115 -2q43 0 85 2q9 1 12 1q11 -2 11 -11l-4 -18q-5 -9 -10 -10h-31q-36 -1 -81 -30q-11 -8 -169 -132q-91 -71 -101 -79q88 -221 199 -406q49 -81 87 -124q45 -51 62 -65q43 -34 84 -34q37 0 59 31q10 15 10 29q0 6 -1 9 q-1 5 -1 12q0 34 21 42q4 2 8 2h3q40 -2 41 -47q0 -47 -49 -83q-50 -36 -125 -36q-145 0 -248 112q-19 21 -36 44q-67 90 -154 300q-32 76 -55 144l-33 -22l-54 -199q-6 -23 -6 -37q2 -28 30 -29h25q7 -2 7 -10l-4 -21q-3 -7 -13 -8q-3 0 -14 1q-55 2 -119 2q-72 0 -121 -3 h-8q-8 2 -8 11l4 20q4 7 11 8h18q37 0 57 34q5 9 7 17l136 483q6 21 6 34q-2 29 -29 30h-25q-10 0 -10 7q1 2 1 3l7 23q4 6 12 6h12q55 -3 120 -3q63 0 115 2q11 1 14 1q7 -2 6 -12l-3 -19q-3 -8 -12 -8h-24q-40 -2 -54 -46z" glyph-name="Kcommaaccent.swash" horiz-adv-x="650" unicode=""/>
<glyph d="M464 685q97 0 117 -52q4 -11 4 -22q0 -33 -30 -44q-7 -3 -13 -3q-44 1 -56 38q-15 41 -44 42q-34 0 -55 -56q-12 -31 -26 -94q-30 -130 -58 -208.5t-42 -99t-37 -41.5l-1 -1q-48 -44 -94 -71l-4 -2l1 -4q37 15 104 15q89 0 136 -34q8 -6 15 -12q36 -33 111 -126 q58 -73 90 -86q12 -5 22 -5q33 1 34 19q0 3 -4 16q-6 23 -6 32q0 33 26 48q9 5 18 5q42 0 55 -38q3 -10 3 -20q0 -69 -76 -93q-28 -8 -60 -8q-121 0 -232 94q-22 18 -60 55q-74 69 -113 88q-15 7 -29 11q-13 3 -28 3q-9 0 -37 -2q-67 -90 -107 -93q-25 0 -32 24q-1 5 -1 9 q0 52 89 89l22 8q31 17 59 63q17 27 39 133q34 158 48 223q25 109 123 165q61 35 129 35z" glyph-name="L.swash" horiz-adv-x="520" unicode=""/>
<glyph d="M380 729l-6 10q-1 5 3 10l132 114q21 17 40 18q32 0 42 -32q3 -8 3 -16q-2 -31 -31 -43l-175 -62q-6 -2 -8 1zM464 685q97 0 117 -52q4 -11 4 -22q0 -33 -30 -44q-7 -3 -13 -3q-44 1 -56 38q-15 41 -44 42q-34 0 -55 -56q-12 -31 -26 -94q-30 -130 -58 -208.5t-42 -99 t-37 -41.5l-1 -1q-48 -44 -94 -71l-4 -2l1 -4q37 15 104 15q89 0 136 -34q8 -6 15 -12q36 -33 111 -126q58 -73 90 -86q12 -5 22 -5q33 1 34 19q0 3 -4 16q-6 23 -6 32q0 33 26 48q9 5 18 5q42 0 55 -38q3 -10 3 -20q0 -69 -76 -93q-28 -8 -60 -8q-121 0 -232 94 q-22 18 -60 55q-74 69 -113 88q-15 7 -29 11q-13 3 -28 3q-9 0 -37 -2q-67 -90 -107 -93q-25 0 -32 24q-1 5 -1 9q0 52 89 89l22 8q31 17 59 63q17 27 39 133q34 158 48 223q25 109 123 165q61 35 129 35z" glyph-name="Lacute.swash" horiz-adv-x="520" unicode=""/>
<glyph d="M663 453q-9 0 -11 6v3q0 10 10 13q35 9 59 39q15 20 15 40q0 15 -4.5 24t-17.5 22l-1 1q-17 17 -20 22q-5 10 -5 19q0 31 26 40q7 3 14 3q38 0 58 -50q9 -21 9 -39q0 -86 -86 -128q-29 -15 -46 -15zM464 685q97 0 117 -52q4 -11 4 -22q0 -33 -30 -44q-7 -3 -13 -3 q-44 1 -56 38q-15 41 -44 42q-34 0 -55 -56q-12 -31 -26 -94q-30 -130 -58 -208.5t-42 -99t-37 -41.5l-1 -1q-48 -44 -94 -71l-4 -2l1 -4q37 15 104 15q89 0 136 -34q8 -6 15 -12q36 -33 111 -126q58 -73 90 -86q12 -5 22 -5q33 1 34 19q0 3 -4 16q-6 23 -6 32q0 33 26 48 q9 5 18 5q42 0 55 -38q3 -10 3 -20q0 -69 -76 -93q-28 -8 -60 -8q-121 0 -232 94q-22 18 -60 55q-74 69 -113 88q-15 7 -29 11q-13 3 -28 3q-9 0 -37 -2q-67 -90 -107 -93q-25 0 -32 24q-1 5 -1 9q0 52 89 89l22 8q31 17 59 63q17 27 39 133q34 158 48 223q25 109 123 165 q61 35 129 35z" glyph-name="Lcaron.swash" horiz-adv-x="520" unicode=""/>
<glyph d="M108 -292q-9 0 -11 6v3q0 10 10 13q35 9 59 39q15 20 15 40q0 15 -4.5 24t-17.5 22l-1 1q-17 17 -20 22q-5 10 -5 19q0 31 26 40q7 3 14 3q38 0 58 -50q9 -21 9 -39q0 -86 -86 -128q-29 -15 -46 -15zM464 685q97 0 117 -52q4 -11 4 -22q0 -33 -30 -44q-7 -3 -13 -3 q-44 1 -56 38q-15 41 -44 42q-34 0 -55 -56q-12 -31 -26 -94q-30 -130 -58 -208.5t-42 -99t-37 -41.5l-1 -1q-48 -44 -94 -71l-4 -2l1 -4q37 15 104 15q89 0 136 -34q8 -6 15 -12q36 -33 111 -126q58 -73 90 -86q12 -5 22 -5q33 1 34 19q0 3 -4 16q-6 23 -6 32q0 33 26 48 q9 5 18 5q42 0 55 -38q3 -10 3 -20q0 -69 -76 -93q-28 -8 -60 -8q-121 0 -232 94q-22 18 -60 55q-74 69 -113 88q-15 7 -29 11q-13 3 -28 3q-9 0 -37 -2q-67 -90 -107 -93q-25 0 -32 24q-1 5 -1 9q0 52 89 89l22 8q31 17 59 63q17 27 39 133q34 158 48 223q25 109 123 165 q61 35 129 35z" glyph-name="Lcommaaccent.swash" horiz-adv-x="520" unicode=""/>
<glyph d="M730 -119q0 -69 -76 -93q-28 -8 -60 -8q-121 0 -232 94q-22 18 -60 55q-74 69 -113 88q-15 7 -29 11q-13 3 -28 3q-9 0 -37 -2q-67 -90 -107 -93q-25 0 -32 24q-1 5 -1 9q0 52 89 89l22 8q31 17 59 63q17 28 40 139q3 11 8 36q-47 -9 -97 -18q-6 1 -8 7l-5 28q1 6 5 7v-1 q81 15 114 21q8 39 30 137q25 109 123 165q61 35 129 35q97 0 117 -52q4 -11 4 -22q0 -33 -28 -44q-8 -3 -15 -3h-4q-39 2 -52 38q-15 41 -44 42q-34 0 -55 -56q-12 -31 -26 -94q-12 -53 -29 -119l150 33q6 0 8 -4l5 -30q0 -5 -6 -9q-139 -30 -171 -35q-39 -130 -85 -177 q-4 -3 -10 -9q-48 -44 -94 -71l-4 -2l1 -4q37 15 104 15q89 0 136 -34q8 -6 15 -12q36 -33 111 -126q58 -73 90 -86q12 -5 22 -5q33 1 34 19q0 3 -4 16q-6 23 -6 32q0 33 26 48q9 5 18 5q42 0 55 -38q3 -10 3 -20z" glyph-name="Lslash.swash" horiz-adv-x="520" unicode=""/>
<glyph d="M1541 663l-4 -21q-3 -8 -10 -8h-30q-31 -2 -49 -63q-72 -241 -132 -475q-3 -11 -3 -19q1 -17 14 -18q27 0 56 31q6 7 10 13q20 26 27 27q12 -3 14 -22q-1 -9 -5 -17q-28 -43 -91 -76q-60 -30 -121 -30q-37 0 -47 24q-1 4 -1 6v7q0 21 14 74q79 294 136 486q4 15 -2 15 q-3 -1 -6 -4q-4 -5 -295 -422q-97 -139 -103 -147q-17 -23 -35 -24q-15 2 -19 23l-47 537v4q0 10 -5 10q-5 -1 -9 -10q-94 -301 -192 -451q-23 -34 -45 -61q-146 -176 -341 -177q-96 0 -164 68q-69 70 -69 179q0 112 76 172q47 36 102 36q54 0 73 -43q6 -14 6 -30 q0 -36 -34 -47q-11 -4 -23 -4q-26 0 -48 29q-3 5 -4 6q-12 14 -26 14q-38 0 -63 -46q-18 -35 -18 -82q0 -69 61 -117q56 -44 137 -44q171 1 309 150q107 116 221 437q6 17 6 23q-4 11 -22 11h-39q-33 1 -49 1q-90 0 -143 -14q-93 -25 -94 -62q0 -31 35 -37h3q48 -7 56 -39 q1 -4 1 -8q0 -45 -40 -58q-9 -3 -17 -3q-50 0 -71 67q-9 27 -9 54q1 79 73 130q63 44 208 50q45 2 119 2h141q27 -1 28 -24l27 -438q1 -12 9 -12q5 2 10 8l315 451q14 15 39 15q112 0 177 3h13q9 -2 9 -10z" glyph-name="M.swash" horiz-adv-x="1470" unicode=""/>
<glyph d="M1165 -279q-222 0 -400 232q-3 4 -5 7q-135 178 -221 461q-16 54 -29 107q-2 10 -7 5q-3 -4 -4 -11q-36 -204 -105 -331q-104 -190 -257 -219q-25 -5 -51 -5q-83 0 -124 58q-24 34 -24 79q0 60 42 82q13 7 25 7q52 -2 53 -52q0 -17 -24 -45q-11 -15 -15 -23q-2 -7 -2 -8 q0 -26 50 -31q10 -1 20 -1q100 0 194 96q21 22 38 45q67 91 119 247q32 97 32 150q-2 29 -34 30h-16q-96 0 -154 -17q-56 -16 -75 -47q-5 -9 -5 -16q0 -26 21 -36q4 -2 7 -3q53 -9 54 -48q0 -37 -37 -46q-9 -2 -18 -2q-39 0 -60 44q-10 24 -10 50q1 96 70 147q53 38 167 42 q30 1 76 1h124q25 0 31 -20q1 -2 1 -3q37 -169 120 -369q35 -85 60 -124q3 -4 5 -5q4 2 9 29q75 341 210 456q7 6 14 11q67 49 142 49q71 0 91 -47q5 -13 5 -25q0 -33 -31 -48q-11 -5 -21 -5q-25 1 -47 29q-14 16 -38 18q-32 -1 -68 -23q-146 -93 -222 -438q-6 -29 -6 -47 q1 -32 20 -63q59 -101 150 -179q109 -92 208 -93q61 0 84 39q4 8 6 16q17 67 45 69q31 -5 34 -39q0 -24 -23 -54q-4 -5 -7 -8q-68 -74 -187 -75z" glyph-name="N.swash" horiz-adv-x="1005" unicode=""/>
<glyph d="M742 729l-6 10q-1 5 3 10l132 114q21 17 40 18q32 0 42 -32q3 -8 3 -16q-2 -31 -31 -43l-175 -62q-6 -2 -8 1zM1165 -279q-222 0 -400 232q-3 4 -5 7q-135 178 -221 461q-16 54 -29 107q-2 10 -7 5q-3 -4 -4 -11q-36 -204 -105 -331q-104 -190 -257 -219q-25 -5 -51 -5 q-83 0 -124 58q-24 34 -24 79q0 60 42 82q13 7 25 7q52 -2 53 -52q0 -17 -24 -45q-11 -15 -15 -23q-2 -7 -2 -8q0 -26 50 -31q10 -1 20 -1q100 0 194 96q21 22 38 45q67 91 119 247q32 97 32 150q-2 29 -34 30h-16q-96 0 -154 -17q-56 -16 -75 -47q-5 -9 -5 -16 q0 -26 21 -36q4 -2 7 -3q53 -9 54 -48q0 -37 -37 -46q-9 -2 -18 -2q-39 0 -60 44q-10 24 -10 50q1 96 70 147q53 38 167 42q30 1 76 1h124q25 0 31 -20q1 -2 1 -3q37 -169 120 -369q35 -85 60 -124q3 -4 5 -5q4 2 9 29q75 341 210 456q7 6 14 11q67 49 142 49q71 0 91 -47 q5 -13 5 -25q0 -33 -31 -48q-11 -5 -21 -5q-25 1 -47 29q-14 16 -38 18q-32 -1 -68 -23q-146 -93 -222 -438q-6 -29 -6 -47q1 -32 20 -63q59 -101 150 -179q109 -92 208 -93q61 0 84 39q4 8 6 16q17 67 45 69q31 -5 34 -39q0 -24 -23 -54q-4 -5 -7 -8q-68 -74 -187 -75z" glyph-name="Nacute.swash" horiz-adv-x="1005" unicode=""/>
<glyph d="M777 809l126 57q6 1 9 -3l7 -12q0 -3 -2 -7l-147 -147q-10 -9 -17 2l-79 148q-2 5 2 8l10 9q5 2 11 -2zM1165 -279q-222 0 -400 232q-3 4 -5 7q-135 178 -221 461q-16 54 -29 107q-2 10 -7 5q-3 -4 -4 -11q-36 -204 -105 -331q-104 -190 -257 -219q-25 -5 -51 -5 q-83 0 -124 58q-24 34 -24 79q0 60 42 82q13 7 25 7q52 -2 53 -52q0 -17 -24 -45q-11 -15 -15 -23q-2 -7 -2 -8q0 -26 50 -31q10 -1 20 -1q100 0 194 96q21 22 38 45q67 91 119 247q32 97 32 150q-2 29 -34 30h-16q-96 0 -154 -17q-56 -16 -75 -47q-5 -9 -5 -16 q0 -26 21 -36q4 -2 7 -3q53 -9 54 -48q0 -37 -37 -46q-9 -2 -18 -2q-39 0 -60 44q-10 24 -10 50q1 96 70 147q53 38 167 42q30 1 76 1h124q25 0 31 -20q1 -2 1 -3q37 -169 120 -369q35 -85 60 -124q3 -4 5 -5q4 2 9 29q75 341 210 456q7 6 14 11q67 49 142 49q71 0 91 -47 q5 -13 5 -25q0 -33 -31 -48q-11 -5 -21 -5q-25 1 -47 29q-14 16 -38 18q-32 -1 -68 -23q-146 -93 -222 -438q-6 -29 -6 -47q1 -32 20 -63q59 -101 150 -179q109 -92 208 -93q61 0 84 39q4 8 6 16q17 67 45 69q31 -5 34 -39q0 -24 -23 -54q-4 -5 -7 -8q-68 -74 -187 -75z" glyph-name="Ncaron.swash" horiz-adv-x="1005" unicode=""/>
<glyph d="M426 -252q-9 0 -11 6v3q0 10 10 13q35 9 59 39q15 20 15 40q0 15 -4.5 24t-17.5 22l-1 1q-17 17 -20 22q-5 10 -5 19q0 31 26 40q7 3 14 3q38 0 58 -50q9 -21 9 -39q0 -86 -86 -128q-29 -15 -46 -15zM1165 -279q-222 0 -400 232q-3 4 -5 7q-135 178 -221 461 q-16 54 -29 107q-2 10 -7 5q-3 -4 -4 -11q-36 -204 -105 -331q-104 -190 -257 -219q-25 -5 -51 -5q-83 0 -124 58q-24 34 -24 79q0 60 42 82q13 7 25 7q52 -2 53 -52q0 -17 -24 -45q-11 -15 -15 -23q-2 -7 -2 -8q0 -26 50 -31q10 -1 20 -1q100 0 194 96q21 22 38 45 q67 91 119 247q32 97 32 150q-2 29 -34 30h-16q-96 0 -154 -17q-56 -16 -75 -47q-5 -9 -5 -16q0 -26 21 -36q4 -2 7 -3q53 -9 54 -48q0 -37 -37 -46q-9 -2 -18 -2q-39 0 -60 44q-10 24 -10 50q1 96 70 147q53 38 167 42q30 1 76 1h124q25 0 31 -20q1 -2 1 -3 q37 -169 120 -369q35 -85 60 -124q3 -4 5 -5q4 2 9 29q75 341 210 456q7 6 14 11q67 49 142 49q71 0 91 -47q5 -13 5 -25q0 -33 -31 -48q-11 -5 -21 -5q-25 1 -47 29q-14 16 -38 18q-32 -1 -68 -23q-146 -93 -222 -438q-6 -29 -6 -47q1 -32 20 -63q59 -101 150 -179 q109 -92 208 -93q61 0 84 39q4 8 6 16q17 67 45 69q31 -5 34 -39q0 -24 -23 -54q-4 -5 -7 -8q-68 -74 -187 -75z" glyph-name="Ncommaaccent.swash" horiz-adv-x="1005" unicode=""/>
<glyph d="M654 747l-13 8q-2 5 -1 10q16 50 53 79q17 13 30 13q25 0 87 -15q34 -8 60 -8q34 1 51 29q4 5 8 4l15 -8q6 -3 -1 -19q-1 -1 -1 -2q-28 -61 -67 -74q-8 -3 -15 -3q-33 0 -76 11q-45 12 -71 12q-25 0 -47 -28l-4 -6q-4 -4 -8 -3zM1165 -279q-222 0 -400 232q-3 4 -5 7 q-135 178 -221 461q-16 54 -29 107q-2 10 -7 5q-3 -4 -4 -11q-36 -204 -105 -331q-104 -190 -257 -219q-25 -5 -51 -5q-83 0 -124 58q-24 34 -24 79q0 60 42 82q13 7 25 7q52 -2 53 -52q0 -17 -24 -45q-11 -15 -15 -23q-2 -7 -2 -8q0 -26 50 -31q10 -1 20 -1q100 0 194 96 q21 22 38 45q67 91 119 247q32 97 32 150q-2 29 -34 30h-16q-96 0 -154 -17q-56 -16 -75 -47q-5 -9 -5 -16q0 -26 21 -36q4 -2 7 -3q53 -9 54 -48q0 -37 -37 -46q-9 -2 -18 -2q-39 0 -60 44q-10 24 -10 50q1 96 70 147q53 38 167 42q30 1 76 1h124q25 0 31 -20q1 -2 1 -3 q37 -169 120 -369q35 -85 60 -124q3 -4 5 -5q4 2 9 29q75 341 210 456q7 6 14 11q67 49 142 49q71 0 91 -47q5 -13 5 -25q0 -33 -31 -48q-11 -5 -21 -5q-25 1 -47 29q-14 16 -38 18q-32 -1 -68 -23q-146 -93 -222 -438q-6 -29 -6 -47q1 -32 20 -63q59 -101 150 -179 q109 -92 208 -93q61 0 84 39q4 8 6 16q17 67 45 69q31 -5 34 -39q0 -24 -23 -54q-4 -5 -7 -8q-68 -74 -187 -75z" glyph-name="Ntilde.swash" horiz-adv-x="1005" unicode=""/>
<glyph d="M337 35q86 0 161 111q81 123 96 290q2 27 2 53q0 111 -74 139q-21 7 -44 7q-75 0 -130 -62q-6 -8 -11 -14q-91 -110 -125 -253q-13 -55 -13 -104q0 -130 89 -160q23 -7 49 -7zM350 -15q-115 1 -183 63q-91 85 -91 230q0 161 94 276q111 129 282 131q161 0 233 -112 q46 -72 46 -177q0 -153 -94 -270q-98 -124 -249 -139q-19 -2 -38 -2z" glyph-name="O.swash" horiz-adv-x="730" unicode=""/>
<glyph d="M512 152l124 398q3 11 3 19q0 43 -56 58q-21 6 -45 6q-107 -1 -186 -83q-89 -92 -136 -223q-27 -75 -27 -135q0 -92 66 -137q36 -23 78 -23q137 0 176 112q2 4 3 8zM713 339l-96 -303h192q73 0 171 112q8 9 25 29q6 6 12 4l13 -9q4 -5 2 -13l-51 -145q-10 -16 -22 -17 h-20q-85 2 -148 2q-45 0 -141 1h-121q-24 0 -90 -7q-58 -8 -83 -8q-131 1 -196 65q-82 89 -84 208q0 178 106 296q120 131 326 131q56 0 120 -7q97 -8 104 -8q56 0 144 1q55 1 76 1q52 1 95 1q15 0 18 -10q2 -4 3 -9l32 -137q0 -6 -4 -8l-13 -7q-7 -1 -14 5l-111 120 q-7 7 -18 7h-133l-84 -259h78q55 0 94 50q12 14 22 32q6 7 10 7l19 -6q5 -3 5 -7q-39 -90 -53 -199q-3 -7 -9 -7l-19 1q-5 2 -6 10q-8 70 -75 81q-15 2 -34 2h-42z" glyph-name="OE.swash" horiz-adv-x="1080" unicode=""/>
<glyph d="M445 729l-6 10q-1 5 3 10l132 114q21 17 40 18q32 0 42 -32q3 -8 3 -16q-2 -31 -31 -43l-175 -62q-6 -2 -8 1zM337 35q86 0 161 111q81 123 96 290q2 27 2 53q0 111 -74 139q-21 7 -44 7q-75 0 -130 -62q-6 -8 -11 -14q-91 -110 -125 -253q-13 -55 -13 -104 q0 -130 89 -160q23 -7 49 -7zM350 -15q-115 1 -183 63q-91 85 -91 230q0 161 94 276q111 129 282 131q161 0 233 -112q46 -72 46 -177q0 -153 -94 -270q-98 -124 -249 -139q-19 -2 -38 -2z" glyph-name="Oacute.swash" horiz-adv-x="730" unicode=""/>
<glyph d="M480 739q-89 2 -107 97q-2 12 3 14l10 3q3 1 13 -12q2 -1 2 -2q23 -30 93 -30q71 0 106 32q13 13 17 12l11 -5q3 -3 -1 -13q-40 -79 -109 -93q-18 -3 -38 -3zM337 35q86 0 161 111q81 123 96 290q2 27 2 53q0 111 -74 139q-21 7 -44 7q-75 0 -130 -62q-6 -8 -11 -14 q-91 -110 -125 -253q-13 -55 -13 -104q0 -130 89 -160q23 -7 49 -7zM350 -15q-115 1 -183 63q-91 85 -91 230q0 161 94 276q111 129 282 131q161 0 233 -112q46 -72 46 -177q0 -153 -94 -270q-98 -124 -249 -139q-19 -2 -38 -2z" glyph-name="Obreve.swash" horiz-adv-x="730" unicode=""/>
<glyph d="M584 732l-80 53l-126 -57q-6 -1 -9 3l-7 12q0 3 2 7l147 147q10 9 17 -2l79 -148q2 -5 -2 -8l-10 -9q-5 -2 -11 2zM337 35q86 0 161 111q81 123 96 290q2 27 2 53q0 111 -74 139q-21 7 -44 7q-75 0 -130 -62q-6 -8 -11 -14q-91 -110 -125 -253q-13 -55 -13 -104 q0 -130 89 -160q23 -7 49 -7zM350 -15q-115 1 -183 63q-91 85 -91 230q0 161 94 276q111 129 282 131q161 0 233 -112q46 -72 46 -177q0 -153 -94 -270q-98 -124 -249 -139q-19 -2 -38 -2z" glyph-name="Ocircumflex.swash" horiz-adv-x="730" unicode=""/>
<glyph d="M622 748q-53 9 -58 55q0 32 31 44q12 4 27 4q38 0 49 -33q3 -9 3 -19q0 -36 -33 -48q-10 -3 -19 -3zM424 748q-53 9 -58 55q0 32 31 44q12 4 27 4q38 0 49 -33q3 -9 3 -19q0 -36 -33 -48q-10 -3 -19 -3zM337 35q86 0 161 111q81 123 96 290q2 27 2 53q0 111 -74 139 q-21 7 -44 7q-75 0 -130 -62q-6 -8 -11 -14q-91 -110 -125 -253q-13 -55 -13 -104q0 -130 89 -160q23 -7 49 -7zM350 -15q-115 1 -183 63q-91 85 -91 230q0 161 94 276q111 129 282 131q161 0 233 -112q46 -72 46 -177q0 -153 -94 -270q-98 -124 -249 -139q-19 -2 -38 -2z " glyph-name="Odieresis.swash" horiz-adv-x="730" unicode=""/>
<glyph d="M518 737l-7 -10q-3 -1 -7 0l-155 71q-32 16 -33 41q0 28 27 43q9 5 18 5q24 -1 44 -23l111 -119q4 -4 2 -8zM337 35q86 0 161 111q81 123 96 290q2 27 2 53q0 111 -74 139q-21 7 -44 7q-75 0 -130 -62q-6 -8 -11 -14q-91 -110 -125 -253q-13 -55 -13 -104q0 -130 89 -160 q23 -7 49 -7zM350 -15q-115 1 -183 63q-91 85 -91 230q0 161 94 276q111 129 282 131q161 0 233 -112q46 -72 46 -177q0 -153 -94 -270q-98 -124 -249 -139q-19 -2 -38 -2z" glyph-name="Ograve.swash" horiz-adv-x="730" unicode=""/>
<glyph d="M374 729l-6 7q-2 5 2 10l104 124q18 18 37 19q21 0 35 -24q5 -10 5 -19q-1 -20 -22 -32l-145 -85q-6 -4 -10 0zM514 729l-6 9q-1 5 3 10l118 111q15 13 30 13q24 0 35 -27q4 -9 4 -17q-1 -21 -20 -30l-155 -69q-6 -2 -9 0zM337 35q86 0 161 111q81 123 96 290q2 27 2 53 q0 111 -74 139q-21 7 -44 7q-75 0 -130 -62q-6 -8 -11 -14q-91 -110 -125 -253q-13 -55 -13 -104q0 -130 89 -160q23 -7 49 -7zM350 -15q-115 1 -183 63q-91 85 -91 230q0 161 94 276q111 129 282 131q161 0 233 -112q46 -72 46 -177q0 -153 -94 -270q-98 -124 -249 -139 q-19 -2 -38 -2z" glyph-name="Ohungarumlaut.swash" horiz-adv-x="730" unicode=""/>
<glyph d="M378 772v44q2 6 10 6h220q9 -2 10 -7v-43q-2 -7 -9 -7h-223q-7 2 -8 7zM337 35q86 0 161 111q81 123 96 290q2 27 2 53q0 111 -74 139q-21 7 -44 7q-75 0 -130 -62q-6 -8 -11 -14q-91 -110 -125 -253q-13 -55 -13 -104q0 -130 89 -160q23 -7 49 -7zM350 -15 q-115 1 -183 63q-91 85 -91 230q0 161 94 276q111 129 282 131q161 0 233 -112q46 -72 46 -177q0 -153 -94 -270q-98 -124 -249 -139q-19 -2 -38 -2z" glyph-name="Omacron.swash" horiz-adv-x="730" unicode=""/>
<glyph d="M636 644l43 55q5 2 7 1l26 -19q4 -3 0 -9l-44 -54q61 -53 80 -155q5 -27 5 -51q0 -162 -92 -283q-99 -131 -255 -143q-15 -1 -29 -1q-107 1 -167 45l-45 -59q-5 -4 -8 -2l-24 20q-3 5 0 10l45 58q-63 65 -77 166q-3 19 -3 35q0 189 102 307q104 120 279 120 q99 -1 157 -41zM232 120l360 468q-18 34 -65 44q-12 3 -22 3q-86 -1 -149 -77q-78 -96 -117 -232q-19 -67 -19 -120q0 -45 12 -86zM610 546l-358 -462q38 -48 102 -49q87 0 164 111q82 119 97 281q3 29 3 57q0 49 -8 62z" glyph-name="Oslash.swash" horiz-adv-x="764" unicode=""/>
<glyph d="M366 747l-13 8q-2 5 -1 10q16 50 53 79q17 13 30 13q25 0 87 -15q34 -8 60 -8q34 1 51 29q4 5 8 4l15 -8q6 -3 -1 -19q-1 -1 -1 -2q-28 -61 -67 -74q-8 -3 -15 -3q-33 0 -76 11q-45 12 -71 12q-25 0 -47 -28l-4 -6q-4 -4 -8 -3zM337 35q86 0 161 111q81 123 96 290 q2 27 2 53q0 111 -74 139q-21 7 -44 7q-75 0 -130 -62q-6 -8 -11 -14q-91 -110 -125 -253q-13 -55 -13 -104q0 -130 89 -160q23 -7 49 -7zM350 -15q-115 1 -183 63q-91 85 -91 230q0 161 94 276q111 129 282 131q161 0 233 -112q46 -72 46 -177q0 -153 -94 -270 q-98 -124 -249 -139q-19 -2 -38 -2z" glyph-name="Otilde.swash" horiz-adv-x="730" unicode=""/>
<glyph d="M591 616l-78 -277q0 -1 -1 -4q0 -22 60 -26h15q113 0 151 115q13 38 13 68q0 72 -52 113q-33 25 -73 25q-28 0 -34 -12q-1 -1 -1 -2zM318 114l130 462q4 15 4 26q0 18 -19 20q-7 1 -19 1q-104 0 -189 -48q-9 -5 -16 -10q-127 -86 -128 -155q0 -42 38 -56q10 -4 19 -4 q18 1 34 23q21 30 55 31q38 -1 45 -37q1 -6 1 -12q0 -48 -50 -67q-21 -8 -46 -8q-74 0 -115 54q-28 37 -28 88q1 108 93 180q73 57 229 65q50 3 140 3h71h44q123 0 186 -38q7 -5 13 -9q64 -48 65 -132q0 -83 -64 -146q-73 -71 -191 -71q-87 0 -120 11l-48 -178 q-6 -26 -6 -37q2 -33 40 -34h38q9 -2 8 -10l-3 -21q-3 -8 -12 -8h-14q-70 3 -169 3q-41 0 -80 -2l-38 -1q-8 2 -8 10l2 19q3 9 11 10h21q46 0 63 38q6 13 13 40z" glyph-name="P.swash" horiz-adv-x="828" unicode=""/>
<glyph d="M172 87q-35 0 -44 -20q-1 -3 -1 -5q0 -23 38 -33q11 -3 18 -3q31 0 69 18q-50 40 -80 43zM808 -279q-202 0 -360 125q-77 62 -172 173q-81 -41 -152 -43q-58 0 -80 34q-7 11 -7 24q0 22 38 48q56 36 141 36q52 0 93 -23q11 -7 16 -9q69 41 133 120q98 121 98 245 q0 112 -85 158q-40 21 -87 21q-122 0 -170 -85q-24 -43 -24 -101q0 -95 64 -127q25 -12 55 -12q69 0 89 60q5 14 5 25q0 22 -30 31l-12 2q-34 4 -46 31q-3 8 -3 16q0 30 31 43q11 4 22 4q59 0 78 -59q7 -22 7 -46q0 -81 -65 -133q-56 -43 -135 -43q-90 0 -141 68 q-34 45 -34 100q0 74 76 154q94 99 225 122q33 5 64 5q178 0 237 -112q23 -45 23 -98q0 -122 -108 -237q-11 -12 -22 -23q-80 -80 -198 -144q-10 -5 -14 -8q166 -122 225 -162q207 -134 287 -136q69 0 106 39q6 6 6 12q0 2 -10 26q-3 8 -3 14q0 47 33 61q9 4 16 4 q55 0 59 -55v-10q0 -39 -49 -77q-78 -58 -220 -58z" glyph-name="Q.swash" horiz-adv-x="690" unicode=""/>
<glyph d="M602 614l-75 -248q17 -10 83 -10q92 0 137 84q21 40 21 78q0 66 -68 99q-33 16 -66 16q-24 0 -31 -17q-1 -1 -1 -2zM302 78l160 506q3 9 3 15q-2 25 -36 26q-141 -1 -241 -81q-57 -47 -73 -67q-22 -29 -22 -59q0 -37 42 -53q10 -4 17 -4q24 1 33 22q18 42 55 43 q38 0 45 -36q1 -5 1 -10q0 -63 -66 -80q-18 -4 -36 -4q-77 0 -113 55q-23 36 -23 89q0 86 74 150q24 21 52 36q72 40 232 43q32 1 76 1h105q146 0 204 -19q17 -5 31 -12q77 -45 81 -117q0 -65 -62 -121q-60 -53 -151 -71q99 -290 213 -434q18 -22 34 -38q86 -87 165 -87 q61 0 87 37q9 14 9 28q0 8 -1 12q-3 12 -3 22q1 31 26 35q39 -1 40 -48q0 -68 -66 -109q-52 -32 -124 -32q-117 0 -203 62q-32 23 -64 56q-98 100 -194 361q-22 61 -36 109q-7 18 -26 18q-7 0 -21 2q-9 1 -14 1l-67 -219q-7 -23 -7 -39q0 -27 29 -30q7 -1 15 -1h41 q7 -2 7 -8l-3 -25q-3 -6 -12 -6h-13q-74 3 -177 3q-35 0 -73 -2l-37 -1q-7 2 -6 10l4 21q3 8 10 8h19q46 0 59 40q1 1 1 2z" glyph-name="R.swash" horiz-adv-x="880" unicode=""/>
<glyph d="M590 729l-6 10q-1 5 3 10l132 114q21 17 40 18q32 0 42 -32q3 -8 3 -16q-2 -31 -31 -43l-175 -62q-6 -2 -8 1zM602 614l-75 -248q17 -10 83 -10q92 0 137 84q21 40 21 78q0 66 -68 99q-33 16 -66 16q-24 0 -31 -17q-1 -1 -1 -2zM302 78l160 506q3 9 3 15q-2 25 -36 26 q-141 -1 -241 -81q-57 -47 -73 -67q-22 -29 -22 -59q0 -37 42 -53q10 -4 17 -4q24 1 33 22q18 42 55 43q38 0 45 -36q1 -5 1 -10q0 -63 -66 -80q-18 -4 -36 -4q-77 0 -113 55q-23 36 -23 89q0 86 74 150q24 21 52 36q72 40 232 43q32 1 76 1h105q146 0 204 -19q17 -5 31 -12 q77 -45 81 -117q0 -65 -62 -121q-60 -53 -151 -71q99 -290 213 -434q18 -22 34 -38q86 -87 165 -87q61 0 87 37q9 14 9 28q0 8 -1 12q-3 12 -3 22q1 31 26 35q39 -1 40 -48q0 -68 -66 -109q-52 -32 -124 -32q-117 0 -203 62q-32 23 -64 56q-98 100 -194 361q-22 61 -36 109 q-7 18 -26 18q-7 0 -21 2q-9 1 -14 1l-67 -219q-7 -23 -7 -39q0 -27 29 -30q7 -1 15 -1h41q7 -2 7 -8l-3 -25q-3 -6 -12 -6h-13q-74 3 -177 3q-35 0 -73 -2l-37 -1q-7 2 -6 10l4 21q3 8 10 8h19q46 0 59 40q1 1 1 2z" glyph-name="Racute.swash" horiz-adv-x="880" unicode=""/>
<glyph d="M584 839l126 57q6 1 9 -3l7 -12q0 -3 -2 -7l-147 -147q-10 -9 -17 2l-79 148q-2 5 2 8l10 9q5 2 11 -2zM602 614l-75 -248q17 -10 83 -10q92 0 137 84q21 40 21 78q0 66 -68 99q-33 16 -66 16q-24 0 -31 -17q-1 -1 -1 -2zM302 78l160 506q3 9 3 15q-2 25 -36 26 q-141 -1 -241 -81q-57 -47 -73 -67q-22 -29 -22 -59q0 -37 42 -53q10 -4 17 -4q24 1 33 22q18 42 55 43q38 0 45 -36q1 -5 1 -10q0 -63 -66 -80q-18 -4 -36 -4q-77 0 -113 55q-23 36 -23 89q0 86 74 150q24 21 52 36q72 40 232 43q32 1 76 1h105q146 0 204 -19q17 -5 31 -12 q77 -45 81 -117q0 -65 -62 -121q-60 -53 -151 -71q99 -290 213 -434q18 -22 34 -38q86 -87 165 -87q61 0 87 37q9 14 9 28q0 8 -1 12q-3 12 -3 22q1 31 26 35q39 -1 40 -48q0 -68 -66 -109q-52 -32 -124 -32q-117 0 -203 62q-32 23 -64 56q-98 100 -194 361q-22 61 -36 109 q-7 18 -26 18q-7 0 -21 2q-9 1 -14 1l-67 -219q-7 -23 -7 -39q0 -27 29 -30q7 -1 15 -1h41q7 -2 7 -8l-3 -25q-3 -6 -12 -6h-13q-74 3 -177 3q-35 0 -73 -2l-37 -1q-7 2 -6 10l4 21q3 8 10 8h19q46 0 59 40q1 1 1 2z" glyph-name="Rcaron.swash" horiz-adv-x="880" unicode=""/>
<glyph d="M503 -272q-9 0 -11 6v3q0 10 10 13q35 9 59 39q15 20 15 40q0 15 -4.5 24t-17.5 22l-1 1q-17 17 -20 22q-5 10 -5 19q0 31 26 40q7 3 14 3q38 0 58 -50q9 -21 9 -39q0 -86 -86 -128q-29 -15 -46 -15zM602 614l-75 -248q17 -10 83 -10q92 0 137 84q21 40 21 78 q0 66 -68 99q-33 16 -66 16q-24 0 -31 -17q-1 -1 -1 -2zM302 78l160 506q3 9 3 15q-2 25 -36 26q-141 -1 -241 -81q-57 -47 -73 -67q-22 -29 -22 -59q0 -37 42 -53q10 -4 17 -4q24 1 33 22q18 42 55 43q38 0 45 -36q1 -5 1 -10q0 -63 -66 -80q-18 -4 -36 -4q-77 0 -113 55 q-23 36 -23 89q0 86 74 150q24 21 52 36q72 40 232 43q32 1 76 1h105q146 0 204 -19q17 -5 31 -12q77 -45 81 -117q0 -65 -62 -121q-60 -53 -151 -71q99 -290 213 -434q18 -22 34 -38q86 -87 165 -87q61 0 87 37q9 14 9 28q0 8 -1 12q-3 12 -3 22q1 31 26 35q39 -1 40 -48 q0 -68 -66 -109q-52 -32 -124 -32q-117 0 -203 62q-32 23 -64 56q-98 100 -194 361q-22 61 -36 109q-7 18 -26 18q-7 0 -21 2q-9 1 -14 1l-67 -219q-7 -23 -7 -39q0 -27 29 -30q7 -1 15 -1h41q7 -2 7 -8l-3 -25q-3 -6 -12 -6h-13q-74 3 -177 3q-35 0 -73 -2l-37 -1 q-7 2 -6 10l4 21q3 8 10 8h19q46 0 59 40q1 1 1 2z" glyph-name="Rcommaaccent.swash" horiz-adv-x="880" unicode=""/>
<glyph d="M209 -267q-192 0 -261 108q-29 46 -29 103q0 81 70 131q52 37 115 37q80 0 107 -56q9 -20 9 -42q0 -37 -36 -47q-11 -3 -22 -3q-25 0 -40 25q-5 8 -6 16q-10 61 -43 63q-27 -2 -44 -44q-14 -33 -14 -77q0 -73 63 -125q58 -49 138 -49q139 0 203 101q36 57 36 131 q0 104 -55 220l-41 87q-52 122 -52 181q0 93 78 148q64 44 155 44q113 0 147 -69q8 -17 8 -32q0 -44 -35 -61q-15 -6 -31 -6q-32 0 -47 30q-4 10 -4 19q0 23 12 44q3 5 3 11q0 23 -39 29q-9 1 -18 1q-70 0 -94 -63q-8 -23 -8 -48q0 -67 43 -159q4 -9 12 -25q5 -11 7 -16 q7 -14 20 -42q55 -110 66 -174q6 -31 6 -62q0 -145 -107 -237q-106 -92 -272 -92z" glyph-name="S.swash" horiz-adv-x="650" unicode=""/>
<glyph d="M485 729l-6 10q-1 5 3 10l132 114q21 17 40 18q32 0 42 -32q3 -8 3 -16q-2 -31 -31 -43l-175 -62q-6 -2 -8 1zM209 -267q-192 0 -261 108q-29 46 -29 103q0 81 70 131q52 37 115 37q80 0 107 -56q9 -20 9 -42q0 -37 -36 -47q-11 -3 -22 -3q-25 0 -40 25q-5 8 -6 16 q-10 61 -43 63q-27 -2 -44 -44q-14 -33 -14 -77q0 -73 63 -125q58 -49 138 -49q139 0 203 101q36 57 36 131q0 104 -55 220l-41 87q-52 122 -52 181q0 93 78 148q64 44 155 44q113 0 147 -69q8 -17 8 -32q0 -44 -35 -61q-15 -6 -31 -6q-32 0 -47 30q-4 10 -4 19q0 23 12 44 q3 5 3 11q0 23 -39 29q-9 1 -18 1q-70 0 -94 -63q-8 -23 -8 -48q0 -67 43 -159q4 -9 12 -25q5 -11 7 -16q7 -14 20 -42q55 -110 66 -174q6 -31 6 -62q0 -145 -107 -237q-106 -92 -272 -92z" glyph-name="Sacute.swash" horiz-adv-x="650" unicode=""/>
<glyph d="M564 839l126 57q6 1 9 -3l7 -12q0 -3 -2 -7l-147 -147q-10 -9 -17 2l-79 148q-2 5 2 8l10 9q5 2 11 -2zM209 -267q-192 0 -261 108q-29 46 -29 103q0 81 70 131q52 37 115 37q80 0 107 -56q9 -20 9 -42q0 -37 -36 -47q-11 -3 -22 -3q-25 0 -40 25q-5 8 -6 16 q-10 61 -43 63q-27 -2 -44 -44q-14 -33 -14 -77q0 -73 63 -125q58 -49 138 -49q139 0 203 101q36 57 36 131q0 104 -55 220l-41 87q-52 122 -52 181q0 93 78 148q64 44 155 44q113 0 147 -69q8 -17 8 -32q0 -44 -35 -61q-15 -6 -31 -6q-32 0 -47 30q-4 10 -4 19q0 23 12 44 q3 5 3 11q0 23 -39 29q-9 1 -18 1q-70 0 -94 -63q-8 -23 -8 -48q0 -67 43 -159q4 -9 12 -25q5 -11 7 -16q7 -14 20 -42q55 -110 66 -174q6 -31 6 -62q0 -145 -107 -237q-106 -92 -272 -92z" glyph-name="Scaron.swash" horiz-adv-x="650" unicode=""/>
<glyph d="M229 -267l-43 -62q71 -17 78 -54q1 -6 1 -12q0 -42 -66 -71q-52 -22 -112 -22q-18 2 -19 15q1 15 12 16q65 2 80 38q4 10 4 19q0 26 -40 41q-4 2 -8 3l65 89q-178 9 -238 117q-24 43 -24 94q0 81 70 131q52 37 115 37q80 0 107 -56q9 -20 9 -42q0 -37 -36 -47 q-11 -3 -22 -3q-25 0 -40 25q-5 8 -6 16q-10 61 -43 63q-27 -2 -44 -44q-14 -33 -14 -77q0 -73 63 -125q58 -49 138 -49q139 0 203 101q36 57 36 131q0 104 -55 220l-41 87q-52 122 -52 181q0 93 78 148q64 44 155 44q114 0 147 -71q8 -17 8 -32q-1 -44 -37 -59 q-14 -6 -29 -6q-32 0 -47 30q-4 10 -4 19q0 23 12 44q3 5 3 11q0 23 -39 29q-9 1 -18 1q-70 0 -94 -63q-8 -23 -8 -48q0 -67 43 -159q4 -9 12 -25q5 -11 7 -16q7 -14 20 -42q55 -110 66 -174q6 -31 6 -62q0 -145 -107 -238q-99 -85 -252 -91z" glyph-name="Scedilla.swash" horiz-adv-x="650" unicode=""/>
<glyph d="M118 -552q-9 0 -11 6v3q0 10 10 13q35 9 59 39q15 20 15 40q0 15 -4.5 24t-17.5 22l-1 1q-17 17 -20 22q-5 10 -5 19q0 31 26 40q7 3 14 3q38 0 58 -50q9 -21 9 -39q0 -86 -86 -128q-29 -15 -46 -15zM209 -267q-192 0 -261 108q-29 46 -29 103q0 81 70 131q52 37 115 37 q80 0 107 -56q9 -20 9 -42q0 -37 -36 -47q-11 -3 -22 -3q-25 0 -40 25q-5 8 -6 16q-10 61 -43 63q-27 -2 -44 -44q-14 -33 -14 -77q0 -73 63 -125q58 -49 138 -49q139 0 203 101q36 57 36 131q0 104 -55 220l-41 87q-52 122 -52 181q0 93 78 148q64 44 155 44q113 0 147 -69 q8 -17 8 -32q0 -44 -35 -61q-15 -6 -31 -6q-32 0 -47 30q-4 10 -4 19q0 23 12 44q3 5 3 11q0 23 -39 29q-9 1 -18 1q-70 0 -94 -63q-8 -23 -8 -48q0 -67 43 -159q4 -9 12 -25q5 -11 7 -16q7 -14 20 -42q55 -110 66 -174q6 -31 6 -62q0 -145 -107 -237q-106 -92 -272 -92z " glyph-name="Scommaaccent.swash" horiz-adv-x="650" unicode=""/>
<glyph d="M544 588l-149 -468q-11 -35 -11 -52q8 -32 44 -34h39q8 -1 7 -10l-4 -19q-4 -8 -13 -8q-4 0 -17 1q-66 2 -143 2q-68 0 -139 -3h-17q-8 0 -8 6v4l3 19q4 7 11 8h17q52 0 75 37q13 21 27 64l150 464q-69 9 -165 9q-105 0 -145 -60q-16 -24 -16 -52q1 -22 10 -36q8 -8 17 0 q16 11 40 11q36 0 46 -35q2 -10 2 -20q0 -31 -32 -47q-15 -7 -34 -7q-46 0 -71 45q-17 31 -17 78q0 71 54 126q16 16 35 28q72 46 205 46q95 0 245 -17q138 -17 149 -17q51 1 52 29q-1 12 -9 24q-13 17 -14 31q0 26 24 34q8 3 16 3q48 -1 49 -61q0 -39 -34 -79 q-49 -56 -132 -57q-23 0 -95 8q-35 3 -52 5z" glyph-name="T.swash" horiz-adv-x="630" unicode=""/>
<glyph d="M499 839l126 57q6 1 9 -3l7 -12q0 -3 -2 -7l-147 -147q-10 -9 -17 2l-79 148q-2 5 2 8l10 9q5 2 11 -2zM862 630l-148 -346l9 -7q94 149 183 150q88 -1 89 -106q0 -101 -59 -210q-3 -5 -5 -9q-79 -133 -178 -134q-46 0 -59 39q-4 12 -4 25q0 36 27 48q9 3 17 3 q31 0 39 -29q1 -5 1 -8q7 -34 19 -36q20 0 46 88q0 3 8 29q33 116 33 182q-1 42 -30 43q-40 -1 -127 -115q-34 -47 -51 -90l-57 -140q-5 -7 -17 -7h-80q-12 0 -11 9q1 2 1 3l208 559q4 10 4 19q0 11 -4 19q-12 24 -112 24q-15 0 -45 -1h-35l-154 -510q-9 -29 -9 -46 q6 -38 52 -40h39q8 -1 7 -10l-4 -21q-4 -8 -13 -8h-16q-73 3 -179 3q-52 0 -117 -2q-16 -1 -19 -1q-8 0 -8 6v4l3 21q4 7 11 8h27q49 0 71 40q12 22 24 61l150 495q-123 0 -153 -12q-12 -6 -20 -13q-53 -47 -116 -112q-4 -3 -9 -2l-20 11q-3 3 -1 9l76 171q4 9 10 10 q5 -1 22 -10q30 -14 187 -14h211q217 0 268 16l9 3q10 5 16 5q9 -2 10 -15q-1 -10 -17 -49z" glyph-name="T_h.caron" horiz-adv-x="1011" unicode=""/>
<glyph d="M193 -292q-9 0 -11 6v3q0 10 10 13q35 9 59 39q15 20 15 40q0 15 -4.5 24t-17.5 22l-1 1q-17 17 -20 22q-5 10 -5 19q0 31 26 40q7 3 14 3q38 0 58 -50q9 -21 9 -39q0 -86 -86 -128q-29 -15 -46 -15zM862 630l-148 -346l9 -7q94 149 183 150q88 -1 89 -106 q0 -101 -59 -210q-3 -5 -5 -9q-79 -133 -178 -134q-46 0 -59 39q-4 12 -4 25q0 36 27 48q9 3 17 3q31 0 39 -29q1 -5 1 -8q7 -34 19 -36q20 0 46 88q0 3 8 29q33 116 33 182q-1 42 -30 43q-40 -1 -127 -115q-34 -47 -51 -90l-57 -140q-5 -7 -17 -7h-80q-12 0 -11 9q1 2 1 3 l208 559q4 10 4 19q0 11 -4 19q-12 24 -112 24q-15 0 -45 -1h-35l-154 -510q-9 -29 -9 -46q6 -38 52 -40h39q8 -1 7 -10l-4 -21q-4 -8 -13 -8h-16q-73 3 -179 3q-52 0 -117 -2q-16 -1 -19 -1q-8 0 -8 6v4l3 21q4 7 11 8h27q49 0 71 40q12 22 24 61l150 495q-123 0 -153 -12 q-12 -6 -20 -13q-53 -47 -116 -112q-4 -3 -9 -2l-20 11q-3 3 -1 9l76 171q4 9 10 10q5 -1 22 -10q30 -14 187 -14h211q217 0 268 16l9 3q10 5 16 5q9 -2 10 -15q-1 -10 -17 -49z" glyph-name="T_h.commaaccent" horiz-adv-x="1011" unicode=""/>
<glyph d="M519 839l126 57q6 1 9 -3l7 -12q0 -3 -2 -7l-147 -147q-10 -9 -17 2l-79 148q-2 5 2 8l10 9q5 2 11 -2zM544 588l-149 -468q-11 -35 -11 -52q8 -32 44 -34h39q8 -1 7 -10l-4 -19q-4 -8 -13 -8q-4 0 -17 1q-66 2 -143 2q-68 0 -139 -3h-17q-8 0 -8 6v4l3 19q4 7 11 8h17 q52 0 75 37q13 21 27 64l150 464q-69 9 -165 9q-105 0 -145 -60q-16 -24 -16 -52q1 -22 10 -36q8 -8 17 0q16 11 40 11q36 0 46 -35q2 -10 2 -20q0 -31 -32 -47q-15 -7 -34 -7q-46 0 -71 45q-17 31 -17 78q0 71 54 126q16 16 35 28q72 46 205 46q95 0 245 -17 q138 -17 149 -17q51 1 52 29q-1 12 -9 24q-13 17 -14 31q0 26 24 34q8 3 16 3q48 -1 49 -61q0 -39 -34 -79q-49 -56 -132 -57q-23 0 -95 8q-35 3 -52 5z" glyph-name="Tcaron.swash" horiz-adv-x="630" unicode=""/>
<glyph d="M168 -292q-9 0 -11 6v3q0 10 10 13q35 9 59 39q15 20 15 40q0 15 -4.5 24t-17.5 22l-1 1q-17 17 -20 22q-5 10 -5 19q0 31 26 40q7 3 14 3q38 0 58 -50q9 -21 9 -39q0 -86 -86 -128q-29 -15 -46 -15zM544 588l-149 -468q-11 -35 -11 -52q8 -32 44 -34h39q8 -1 7 -10 l-4 -19q-4 -8 -13 -8q-4 0 -17 1q-66 2 -143 2q-68 0 -139 -3h-17q-8 0 -8 6v4l3 19q4 7 11 8h17q52 0 75 37q13 21 27 64l150 464q-69 9 -165 9q-105 0 -145 -60q-16 -24 -16 -52q1 -22 10 -36q8 -8 17 0q16 11 40 11q36 0 46 -35q2 -10 2 -20q0 -31 -32 -47q-15 -7 -34 -7 q-46 0 -71 45q-17 31 -17 78q0 71 54 126q16 16 35 28q72 46 205 46q95 0 245 -17q138 -17 149 -17q51 1 52 29q-1 12 -9 24q-13 17 -14 31q0 26 24 34q8 3 16 3q48 -1 49 -61q0 -39 -34 -79q-49 -56 -132 -57q-23 0 -95 8q-35 3 -52 5z" glyph-name="Tcommaaccent.swash" horiz-adv-x="630" unicode=""/>
<glyph d="M737 368q0 95 -77 128q-2 1 -3 1q-24 10 -46 10q-28 0 -42 -2l-81 -309q26 -14 79 -14q87 0 137 74q33 50 33 112zM876 362q0 -47 -23 -90q-61 -113 -238 -126q-20 -1 -39 -1q-62 0 -100 7q-15 -60 -15 -75q0 -36 25 -40q6 -1 14 -1h26q8 -2 8 -8l-4 -25q-2 -6 -11 -6 q-23 0 -69 1q-46 2 -69 2t-69 -2q-45 -1 -68 -1q-9 2 -9 8l3 25q3 7 15 7q3 0 9 -1h6q39 0 58 71q1 3 2 7q102 393 108 418q3 14 10 38q5 20 5 24q-2 28 -37 29q-109 0 -195 -52l-10 -6q-127 -84 -128 -155q0 -39 33 -55q12 -5 24 -5q17 0 35 24q20 27 42 30q5 1 9 1 q38 0 47 -35q2 -8 2 -15q0 -52 -57 -69q-19 -6 -39 -6q-81 0 -121 62q-22 35 -22 80q1 108 93 180q83 64 277 68h43h50q34 0 76 1q52 2 102 2q9 -2 10 -6q0 -5 -2 -15q-2 -7 -2 -10q-3 -7 -11 -8h-20q-43 0 -62 -57q-1 -2 -1 -3l-9 -30q13 -1 37 -1q118 0 175 -30 q16 -9 29 -19q48 -39 55 -95q2 -16 2 -37z" glyph-name="Thorn.swash" horiz-adv-x="852" unicode=""/>
<glyph d="M370 579l-82 -267q-29 -106 -29 -141q0 -100 83 -123q17 -5 33 -5q81 1 131 40q65 52 101 167l10 36l61 230q15 52 15 81q-2 36 -29 37h-26q-9 0 -9 5v3l3 21q5 10 13 10q4 0 19 -1q50 -2 88 -2q41 0 78 2q10 1 13 1q9 0 9 -6v-6l-3 -19q-4 -7 -11 -8h-11q-38 0 -70 -94 q-3 -8 -5 -15l-76 -246q-50 -161 -123 -226q-79 -68 -209 -68q-137 0 -193 82q-28 43 -28 101q0 51 21 125l85 279q5 15 5 30q-2 31 -30 32h-36q-7 0 -7 6v2l5 23q3 8 13 8h14q61 -3 139 -3q60 0 112 2q10 1 13 1q10 0 9 -10v-2l-4 -19q-3 -7 -10 -8h-25q-39 0 -56 -52 q-1 -2 -1 -3z" glyph-name="U.swash" horiz-adv-x="750" unicode=""/>
<glyph d="M525 729l-6 10q-1 5 3 10l132 114q21 17 40 18q32 0 42 -32q3 -8 3 -16q-2 -31 -31 -43l-175 -62q-6 -2 -8 1zM370 579l-82 -267q-29 -106 -29 -141q0 -100 83 -123q17 -5 33 -5q81 1 131 40q65 52 101 167l10 36l61 230q15 52 15 81q-2 36 -29 37h-26q-9 0 -9 5v3l3 21 q5 10 13 10q4 0 19 -1q50 -2 88 -2q41 0 78 2q10 1 13 1q9 0 9 -6v-6l-3 -19q-4 -7 -11 -8h-11q-38 0 -70 -94q-3 -8 -5 -15l-76 -246q-50 -161 -123 -226q-79 -68 -209 -68q-137 0 -193 82q-28 43 -28 101q0 51 21 125l85 279q5 15 5 30q-2 31 -30 32h-36q-7 0 -7 6v2l5 23 q3 8 13 8h14q61 -3 139 -3q60 0 112 2q10 1 13 1q10 0 9 -10v-2l-4 -19q-3 -7 -10 -8h-25q-39 0 -56 -52q-1 -2 -1 -3z" glyph-name="Uacute.swash" horiz-adv-x="750" unicode=""/>
<glyph d="M550 739q-89 2 -107 97q-2 12 3 14l10 3q3 1 13 -12q2 -1 2 -2q23 -30 93 -30q71 0 106 32q13 13 17 12l11 -5q3 -3 -1 -13q-40 -79 -109 -93q-18 -3 -38 -3zM370 579l-82 -267q-29 -106 -29 -141q0 -100 83 -123q17 -5 33 -5q81 1 131 40q65 52 101 167l10 36l61 230 q15 52 15 81q-2 36 -29 37h-26q-9 0 -9 5v3l3 21q5 10 13 10q4 0 19 -1q50 -2 88 -2q41 0 78 2q10 1 13 1q9 0 9 -6v-6l-3 -19q-4 -7 -11 -8h-11q-38 0 -70 -94q-3 -8 -5 -15l-76 -246q-50 -161 -123 -226q-79 -68 -209 -68q-137 0 -193 82q-28 43 -28 101q0 51 21 125 l85 279q5 15 5 30q-2 31 -30 32h-36q-7 0 -7 6v2l5 23q3 8 13 8h14q61 -3 139 -3q60 0 112 2q10 1 13 1q10 0 9 -10v-2l-4 -19q-3 -7 -10 -8h-25q-39 0 -56 -52q-1 -2 -1 -3z" glyph-name="Ubreve.swash" horiz-adv-x="750" unicode=""/>
<glyph d="M664 732l-80 53l-126 -57q-6 -1 -9 3l-7 12q0 3 2 7l147 147q10 9 17 -2l79 -148q2 -5 -2 -8l-10 -9q-5 -2 -11 2zM370 579l-82 -267q-29 -106 -29 -141q0 -100 83 -123q17 -5 33 -5q81 1 131 40q65 52 101 167l10 36l61 230q15 52 15 81q-2 36 -29 37h-26q-9 0 -9 5v3 l3 21q5 10 13 10q4 0 19 -1q50 -2 88 -2q41 0 78 2q10 1 13 1q9 0 9 -6v-6l-3 -19q-4 -7 -11 -8h-11q-38 0 -70 -94q-3 -8 -5 -15l-76 -246q-50 -161 -123 -226q-79 -68 -209 -68q-137 0 -193 82q-28 43 -28 101q0 51 21 125l85 279q5 15 5 30q-2 31 -30 32h-36q-7 0 -7 6v2 l5 23q3 8 13 8h14q61 -3 139 -3q60 0 112 2q10 1 13 1q10 0 9 -10v-2l-4 -19q-3 -7 -10 -8h-25q-39 0 -56 -52q-1 -2 -1 -3z" glyph-name="Ucircumflex.swash" horiz-adv-x="750" unicode=""/>
<glyph d="M652 748q-53 9 -58 55q0 32 31 44q12 4 27 4q38 0 49 -33q3 -9 3 -19q0 -36 -33 -48q-10 -3 -19 -3zM454 748q-53 9 -58 55q0 32 31 44q12 4 27 4q38 0 49 -33q3 -9 3 -19q0 -36 -33 -48q-10 -3 -19 -3zM370 579l-82 -267q-29 -106 -29 -141q0 -100 83 -123q17 -5 33 -5 q81 1 131 40q65 52 101 167l10 36l61 230q15 52 15 81q-2 36 -29 37h-26q-9 0 -9 5v3l3 21q5 10 13 10q4 0 19 -1q50 -2 88 -2q41 0 78 2q10 1 13 1q9 0 9 -6v-6l-3 -19q-4 -7 -11 -8h-11q-38 0 -70 -94q-3 -8 -5 -15l-76 -246q-50 -161 -123 -226q-79 -68 -209 -68 q-137 0 -193 82q-28 43 -28 101q0 51 21 125l85 279q5 15 5 30q-2 31 -30 32h-36q-7 0 -7 6v2l5 23q3 8 13 8h14q61 -3 139 -3q60 0 112 2q10 1 13 1q10 0 9 -10v-2l-4 -19q-3 -7 -10 -8h-25q-39 0 -56 -52q-1 -2 -1 -3z" glyph-name="Udieresis.swash" horiz-adv-x="750" unicode=""/>
<glyph d="M598 737l-7 -10q-3 -1 -7 0l-155 71q-32 16 -33 41q0 28 27 43q9 5 18 5q24 -1 44 -23l111 -119q4 -4 2 -8zM370 579l-82 -267q-29 -106 -29 -141q0 -100 83 -123q17 -5 33 -5q81 1 131 40q65 52 101 167l10 36l61 230q15 52 15 81q-2 36 -29 37h-26q-9 0 -9 5v3l3 21 q5 10 13 10q4 0 19 -1q50 -2 88 -2q41 0 78 2q10 1 13 1q9 0 9 -6v-6l-3 -19q-4 -7 -11 -8h-11q-38 0 -70 -94q-3 -8 -5 -15l-76 -246q-50 -161 -123 -226q-79 -68 -209 -68q-137 0 -193 82q-28 43 -28 101q0 51 21 125l85 279q5 15 5 30q-2 31 -30 32h-36q-7 0 -7 6v2l5 23 q3 8 13 8h14q61 -3 139 -3q60 0 112 2q10 1 13 1q10 0 9 -10v-2l-4 -19q-3 -7 -10 -8h-25q-39 0 -56 -52q-1 -2 -1 -3z" glyph-name="Ugrave.swash" horiz-adv-x="750" unicode=""/>
<glyph d="M434 729l-6 7q-2 5 2 10l104 124q18 18 37 19q21 0 35 -24q5 -10 5 -19q-1 -20 -22 -32l-145 -85q-6 -4 -10 0zM574 729l-6 9q-1 5 3 10l118 111q15 13 30 13q24 0 35 -27q4 -9 4 -17q-1 -21 -20 -30l-155 -69q-6 -2 -9 0zM370 579l-82 -267q-29 -106 -29 -141 q0 -100 83 -123q17 -5 33 -5q81 1 131 40q65 52 101 167l10 36l61 230q15 52 15 81q-2 36 -29 37h-26q-9 0 -9 5v3l3 21q5 10 13 10q4 0 19 -1q50 -2 88 -2q41 0 78 2q10 1 13 1q9 0 9 -6v-6l-3 -19q-4 -7 -11 -8h-11q-38 0 -70 -94q-3 -8 -5 -15l-76 -246 q-50 -161 -123 -226q-79 -68 -209 -68q-137 0 -193 82q-28 43 -28 101q0 51 21 125l85 279q5 15 5 30q-2 31 -30 32h-36q-7 0 -7 6v2l5 23q3 8 13 8h14q61 -3 139 -3q60 0 112 2q10 1 13 1q10 0 9 -10v-2l-4 -19q-3 -7 -10 -8h-25q-39 0 -56 -52q-1 -2 -1 -3z" glyph-name="Uhungarumlaut.swash" horiz-adv-x="750" unicode=""/>
<glyph d="M438 772v44q2 6 10 6h220q9 -2 10 -7v-43q-2 -7 -9 -7h-223q-7 2 -8 7zM370 579l-82 -267q-29 -106 -29 -141q0 -100 83 -123q17 -5 33 -5q81 1 131 40q65 52 101 167l10 36l61 230q15 52 15 81q-2 36 -29 37h-26q-9 0 -9 5v3l3 21q5 10 13 10q4 0 19 -1q50 -2 88 -2 q41 0 78 2q10 1 13 1q9 0 9 -6v-6l-3 -19q-4 -7 -11 -8h-11q-38 0 -70 -94q-3 -8 -5 -15l-76 -246q-50 -161 -123 -226q-79 -68 -209 -68q-137 0 -193 82q-28 43 -28 101q0 51 21 125l85 279q5 15 5 30q-2 31 -30 32h-36q-7 0 -7 6v2l5 23q3 8 13 8h14q61 -3 139 -3 q60 0 112 2q10 1 13 1q10 0 9 -10v-2l-4 -19q-3 -7 -10 -8h-25q-39 0 -56 -52q-1 -2 -1 -3z" glyph-name="Umacron.swash" horiz-adv-x="750" unicode=""/>
<glyph d="M852 661l-3 -19q-4 -7 -11 -8h-11q-42 -2 -75 -109l-76 -246q-46 -149 -114 -214q-48 -46 -119 -72q-31 -11 -62 -82q-20 -44 -20 -70q8 -58 63 -61q6 0 33 10q9 3 16 3q10 -2 11 -19q0 -16 -38 -30q-23 -8 -42 -8q-130 0 -142 76q-1 9 -1 18q0 63 88 132q23 18 25 21h-6 q-4 0 -12 1q-12 1 -21 1q-128 1 -183 81q-29 44 -29 102q0 51 21 125l85 279q5 15 5 30q-2 31 -30 32h-36q-7 0 -7 6v2l5 23q3 8 13 8h14q61 -3 139 -3q60 0 112 2q10 1 13 1q10 0 9 -10v-2l-4 -19q-3 -7 -10 -8h-25q-39 0 -56 -52q-1 -2 -1 -3l-82 -267q-29 -91 -29 -141 q0 -100 83 -123q17 -5 33 -5q81 1 131 40q65 52 101 167l10 36l61 230q14 56 14 82q-2 35 -28 36h-26q-9 0 -9 5v3l3 21q5 10 13 10q4 0 19 -1q50 -2 88 -2q41 0 78 2q10 1 13 1q9 0 9 -6v-6z" glyph-name="Uogonek.swash" horiz-adv-x="750" unicode=""/>
<glyph d="M550 864q-24 0 -40 -24q-10 -15 -10 -33q0 -47 40 -55q6 -1 12 -1q36 0 48 34q3 11 3 23q0 46 -41 55q-6 1 -12 1zM555 894q80 0 106 -48q9 -17 9 -37q0 -53 -59 -76q-29 -12 -63 -12q-79 0 -106 45q-9 16 -9 35q0 57 62 82q28 11 60 11zM370 579l-82 -267 q-29 -106 -29 -141q0 -100 83 -123q17 -5 33 -5q81 1 131 40q65 52 101 167l10 36l61 230q15 52 15 81q-2 36 -29 37h-26q-9 0 -9 5v3l3 21q5 10 13 10q4 0 19 -1q50 -2 88 -2q41 0 78 2q10 1 13 1q9 0 9 -6v-6l-3 -19q-4 -7 -11 -8h-11q-38 0 -70 -94q-3 -8 -5 -15 l-76 -246q-50 -161 -123 -226q-79 -68 -209 -68q-137 0 -193 82q-28 43 -28 101q0 51 21 125l85 279q5 15 5 30q-2 31 -30 32h-36q-7 0 -7 6v2l5 23q3 8 13 8h14q61 -3 139 -3q60 0 112 2q10 1 13 1q10 0 9 -10v-2l-4 -19q-3 -7 -10 -8h-25q-39 0 -56 -52q-1 -2 -1 -3z" glyph-name="Uring.swash" horiz-adv-x="750" unicode=""/>
<glyph d="M406 747l-13 8q-2 5 -1 10q16 50 53 79q17 13 30 13q25 0 87 -15q34 -8 60 -8q34 1 51 29q4 5 8 4l15 -8q6 -3 -1 -19q-1 -1 -1 -2q-28 -61 -67 -74q-8 -3 -15 -3q-33 0 -76 11q-45 12 -71 12q-25 0 -47 -28l-4 -6q-4 -4 -8 -3zM370 579l-82 -267q-29 -106 -29 -141 q0 -100 83 -123q17 -5 33 -5q81 1 131 40q65 52 101 167l10 36l61 230q15 52 15 81q-2 36 -29 37h-26q-9 0 -9 5v3l3 21q5 10 13 10q4 0 19 -1q50 -2 88 -2q41 0 78 2q10 1 13 1q9 0 9 -6v-6l-3 -19q-4 -7 -11 -8h-11q-38 0 -70 -94q-3 -8 -5 -15l-76 -246 q-50 -161 -123 -226q-79 -68 -209 -68q-137 0 -193 82q-28 43 -28 101q0 51 21 125l85 279q5 15 5 30q-2 31 -30 32h-36q-7 0 -7 6v2l5 23q3 8 13 8h14q61 -3 139 -3q60 0 112 2q10 1 13 1q10 0 9 -10v-2l-4 -19q-3 -7 -10 -8h-25q-39 0 -56 -52q-1 -2 -1 -3z" glyph-name="Utilde.swash" horiz-adv-x="750" unicode=""/>
<glyph d="M409 -10q-126 0 -174 94q-23 45 -23 104q0 142 169 351l40 50l-6 2q-30 -9 -103 -9q-94 0 -149 -16q-59 -24 -60 -68q1 -35 17 -36h1q2 1 3 1q14 3 25 3q46 0 59 -32q3 -7 3 -14q0 -45 -51 -54q-12 -2 -24 -2q-35 0 -59 41q-16 29 -16 68q0 75 61 134q69 66 174 66 q10 0 30 -1h30q42 -2 63 -2q28 0 54 4q6 0 16 2q9 1 12 1q8 -1 9 -13q-1 -9 -13 -24q-64 -77 -111 -199q-40 -106 -40 -193q0 -89 71 -125q35 -17 81 -17q75 0 137 61q17 18 31 38q55 82 65 221q1 19 1 36q0 56 -48 101q-2 2 -6 5l-10 10q-28 30 -28 60q0 32 33 44 q10 3 21 3q70 0 99 -86q16 -47 16 -109q0 -147 -95 -298q-15 -23 -31 -44q-45 -60 -117 -107q-80 -51 -157 -51z" glyph-name="V.swash" horiz-adv-x="790" unicode=""/>
<glyph d="M668 530q-29 0 -44 -67q-1 -1 -1 -2q-16 -72 -16 -169q0 -19 2 -40h4q66 129 77 223q1 11 1 21q-1 33 -23 34zM297 668q14 0 202 9q10 -1 11 -13q-1 -9 -13 -24q-57 -68 -114 -195q-59 -131 -59 -214q0 -103 56 -126q13 -5 27 -5q78 2 127 61q-11 50 -11 133t41 177 q20 44 45 79q42 55 81 56h3q54 0 58 -81v-15q0 -102 -101 -267q-11 -19 -22 -35q16 -67 70 -93q22 -10 46 -10q80 2 132 95q47 87 47 214q0 72 -29 108q-11 15 -33 34q-35 33 -36 65q0 32 31 46q11 4 22 4q66 0 102 -72q24 -50 24 -117q0 -126 -59 -263q-21 -46 -44 -81 q-98 -147 -206 -148q-108 0 -144 107q-3 9 -5 17q-73 -99 -151 -118q-25 -6 -52 -6q-91 0 -133 77q-23 44 -23 104q0 158 222 410q8 10 11 13l-1 2q-52 -17 -107 -17q-104 0 -149 -13q-68 -26 -71 -69q0 -29 31 -36q8 -1 18 -2q35 -2 43 -42q2 -8 2 -16q0 -26 -31 -40 q-15 -7 -31 -7q-39 0 -63 45q-17 34 -17 80q0 78 68 133q72 56 185 56z" glyph-name="W.swash" horiz-adv-x="998" unicode=""/>
<glyph d="M703 685q48 -1 57 -39q5 -25 31 -200h2q22 38 94 116q18 19 32 32q71 64 110 86q47 25 90 25q78 0 94 -48q2 -8 2 -14q0 -42 -40 -51q-9 -2 -17 -2q-25 1 -39 20q-12 17 -31 18q-61 -1 -143 -70q-68 -58 -132 -147q-8 -11 -12 -18q12 -85 47 -229q3 -13 5 -19 q21 -70 36 -80q6 -3 11 -3q29 1 56 41q18 26 27 27q12 -3 14 -22q-1 -11 -5 -18q-44 -71 -122 -95q-33 -10 -67 -10q-46 0 -64 53q-3 9 -5 18q-15 52 -33 174q-4 26 -6 44q-13 -16 -42 -54q-86 -111 -145 -171q-132 -132 -261 -147q-21 -2 -43 -2q-86 0 -150 60 q-70 66 -70 172q0 103 68 167q54 49 124 49q52 0 72 -39q6 -13 6 -26q0 -43 -41 -53q-10 -2 -19 -2q-15 0 -38 21q-3 2 -4 3q-19 17 -40 17q-30 -1 -57 -35q-28 -36 -28 -88q0 -91 95 -134q48 -21 100 -21q116 0 229 88q56 44 130 121q54 56 101 126q-41 216 -51 253 q-9 27 -27 28q-23 0 -53 -30q-7 -6 -11 -12q-10 -12 -18 -13q-11 2 -12 18q1 11 7 22q37 54 109 80q38 13 77 13z" glyph-name="X.swash" horiz-adv-x="1030" unicode=""/>
<glyph d="M148 86l55 155q46 133 47 258q0 71 -46 94q-16 7 -33 7q-53 -1 -81 -52q-6 -11 -11 -9l-16 7q-2 4 2 16q35 90 113 115q27 8 55 8q92 0 124 -83q9 -25 11 -52q1 -9 1 -23q0 -65 -34 -152v-1q-5 -12 3 -13h1q10 1 14 9q51 109 134 198q32 35 62 57q80 60 170 60 q67 0 94 -43q10 -16 10 -34q0 -49 -38 -64q-9 -3 -17 -3q-31 0 -46 25q-5 8 -5 15v7q-2 22 -34 23q-63 0 -128 -46q-23 -17 -39 -35q-106 -119 -169 -270q-15 -38 -31 -83l-31 -88q-6 -18 -6 -28q2 -25 33 -25h43q7 -2 7 -8l-6 -23q-4 -7 -11 -8q-4 0 -17 1q-61 2 -139 2 q-69 0 -122 -3h-13q-9 0 -7 8v2l5 21q3 7 10 8h16q49 0 66 40z" glyph-name="Y.swash" horiz-adv-x="540" unicode=""/>
<glyph d="M400 729l-6 10q-1 5 3 10l132 114q21 17 40 18q32 0 42 -32q3 -8 3 -16q-2 -31 -31 -43l-175 -62q-6 -2 -8 1zM148 86l55 155q46 133 47 258q0 71 -46 94q-16 7 -33 7q-53 -1 -81 -52q-6 -11 -11 -9l-16 7q-2 4 2 16q35 90 113 115q27 8 55 8q92 0 124 -83q9 -25 11 -52 q1 -9 1 -23q0 -65 -34 -152v-1q-5 -12 3 -13h1q10 1 14 9q51 109 134 198q32 35 62 57q80 60 170 60q67 0 94 -43q10 -16 10 -34q0 -49 -38 -64q-9 -3 -17 -3q-31 0 -46 25q-5 8 -5 15v7q-2 22 -34 23q-63 0 -128 -46q-23 -17 -39 -35q-106 -119 -169 -270q-15 -38 -31 -83 l-31 -88q-6 -18 -6 -28q2 -25 33 -25h43q7 -2 7 -8l-6 -23q-4 -7 -11 -8q-4 0 -17 1q-61 2 -139 2q-69 0 -122 -3h-13q-9 0 -7 8v2l5 21q3 7 10 8h16q49 0 66 40z" glyph-name="Yacute.swash" horiz-adv-x="540" unicode=""/>
<glyph d="M557 748q-53 9 -58 55q0 32 31 44q12 4 27 4q38 0 49 -33q3 -9 3 -19q0 -36 -33 -48q-10 -3 -19 -3zM359 748q-53 9 -58 55q0 32 31 44q12 4 27 4q38 0 49 -33q3 -9 3 -19q0 -36 -33 -48q-10 -3 -19 -3zM148 86l55 155q46 133 47 258q0 71 -46 94q-16 7 -33 7 q-53 -1 -81 -52q-6 -11 -11 -9l-16 7q-2 4 2 16q35 90 113 115q27 8 55 8q92 0 124 -83q9 -25 11 -52q1 -9 1 -23q0 -65 -34 -152v-1q-5 -12 3 -13h1q10 1 14 9q51 109 134 198q32 35 62 57q80 60 170 60q67 0 94 -43q10 -16 10 -34q0 -49 -38 -64q-9 -3 -17 -3 q-31 0 -46 25q-5 8 -5 15v7q-2 22 -34 23q-63 0 -128 -46q-23 -17 -39 -35q-106 -119 -169 -270q-15 -38 -31 -83l-31 -88q-6 -18 -6 -28q2 -25 33 -25h43q7 -2 7 -8l-6 -23q-4 -7 -11 -8q-4 0 -17 1q-61 2 -139 2q-69 0 -122 -3h-13q-9 0 -7 8v2l5 21q3 7 10 8h16 q49 0 66 40z" glyph-name="Ydieresis.swash" horiz-adv-x="540" unicode=""/>
<glyph d="M112 108l377 387l-2 9q-23 -3 -41 -3q-65 0 -106 45q-2 3 -4 5q-31 37 -44 47q-26 19 -52 19q-37 0 -48 -29q-2 -7 -2 -14q0 -13 20 -18q2 -1 3 -1q32 -5 33 -45q0 -29 -29 -45q-16 -9 -35 -9q-41 0 -59 38q-8 18 -8 38q0 59 55 97q52 34 137 34q102 0 176 -46 q9 -5 17 -11q7 -5 20 -15q39 -29 56 -30q19 0 34 45q1 4 2 7q19 58 66 59q39 -2 40 -43q0 -35 -56 -70q-29 -18 -57 -26l-401 -410l2 -4h20q141 -1 222 -102q24 -30 60 -79q54 -73 78 -91q24 -16 52 -17q7 0 12.5 1t9.5 2.5t7.5 4.5t6 5t4.5 6l3 6t1.5 7t1 6.5t0.5 6.5l1 5 q11 74 64 75q50 -2 51 -61q0 -46 -59 -78q-49 -27 -110 -27q-127 0 -214 61q-41 29 -135 123l-8 8q-51 51 -71 63q-28 18 -54 18q-22 0 -40 -40q-7 -15 -11 -33q-8 -36 -39 -48q-9 -3 -19 -3q-45 7 -50 48q0 46 72 95q27 18 50 27z" glyph-name="Z.swash" horiz-adv-x="585" unicode=""/>
<glyph d="M412 729l-6 10q-1 5 3 10l132 114q21 17 40 18q32 0 42 -32q3 -8 3 -16q-2 -31 -31 -43l-175 -62q-6 -2 -8 1zM112 108l377 387l-2 9q-23 -3 -41 -3q-65 0 -106 45q-2 3 -4 5q-31 37 -44 47q-26 19 -52 19q-37 0 -48 -29q-2 -7 -2 -14q0 -13 20 -18q2 -1 3 -1 q32 -5 33 -45q0 -29 -29 -45q-16 -9 -35 -9q-41 0 -59 38q-8 18 -8 38q0 59 55 97q52 34 137 34q102 0 176 -46q9 -5 17 -11q7 -5 20 -15q39 -29 56 -30q19 0 34 45q1 4 2 7q19 58 66 59q39 -2 40 -43q0 -35 -56 -70q-29 -18 -57 -26l-401 -410l2 -4h20q141 -1 222 -102 q24 -30 60 -79q54 -73 78 -91q24 -16 52 -17q7 0 12.5 1t9.5 2.5t7.5 4.5t6 5t4.5 6l3 6t1.5 7t1 6.5t0.5 6.5l1 5q11 74 64 75q50 -2 51 -61q0 -46 -59 -78q-49 -27 -110 -27q-127 0 -214 61q-41 29 -135 123l-8 8q-51 51 -71 63q-28 18 -54 18q-22 0 -40 -40 q-7 -15 -11 -33q-8 -36 -39 -48q-9 -3 -19 -3q-45 7 -50 48q0 46 72 95q27 18 50 27z" glyph-name="Zacute.swash" horiz-adv-x="585" unicode=""/>
<glyph d="M487 839l126 57q6 1 9 -3l7 -12q0 -3 -2 -7l-147 -147q-10 -9 -17 2l-79 148q-2 5 2 8l10 9q5 2 11 -2zM112 108l377 387l-2 9q-23 -3 -41 -3q-65 0 -106 45q-2 3 -4 5q-31 37 -44 47q-26 19 -52 19q-37 0 -48 -29q-2 -7 -2 -14q0 -13 20 -18q2 -1 3 -1q32 -5 33 -45 q0 -29 -29 -45q-16 -9 -35 -9q-41 0 -59 38q-8 18 -8 38q0 59 55 97q52 34 137 34q102 0 176 -46q9 -5 17 -11q7 -5 20 -15q39 -29 56 -30q19 0 34 45q1 4 2 7q19 58 66 59q39 -2 40 -43q0 -35 -56 -70q-29 -18 -57 -26l-401 -410l2 -4h20q141 -1 222 -102q24 -30 60 -79 q54 -73 78 -91q24 -16 52 -17q7 0 12.5 1t9.5 2.5t7.5 4.5t6 5t4.5 6l3 6t1.5 7t1 6.5t0.5 6.5l1 5q11 74 64 75q50 -2 51 -61q0 -46 -59 -78q-49 -27 -110 -27q-127 0 -214 61q-41 29 -135 123l-8 8q-51 51 -71 63q-28 18 -54 18q-22 0 -40 -40q-7 -15 -11 -33 q-8 -36 -39 -48q-9 -3 -19 -3q-45 7 -50 48q0 46 72 95q27 18 50 27z" glyph-name="Zcaron.swash" horiz-adv-x="585" unicode=""/>
<glyph d="M478 738q-56 0 -62 46q-1 5 -1 10q0 41 36 54q13 4 27 4q39 0 53 -35q4 -12 4 -24q0 -38 -35 -51q-11 -4 -22 -4zM112 108l377 387l-2 9q-23 -3 -41 -3q-65 0 -106 45q-2 3 -4 5q-31 37 -44 47q-26 19 -52 19q-37 0 -48 -29q-2 -7 -2 -14q0 -13 20 -18q2 -1 3 -1 q32 -5 33 -45q0 -29 -29 -45q-16 -9 -35 -9q-41 0 -59 38q-8 18 -8 38q0 59 55 97q52 34 137 34q102 0 176 -46q9 -5 17 -11q7 -5 20 -15q39 -29 56 -30q19 0 34 45q1 4 2 7q19 58 66 59q39 -2 40 -43q0 -35 -56 -70q-29 -18 -57 -26l-401 -410l2 -4h20q141 -1 222 -102 q24 -30 60 -79q54 -73 78 -91q24 -16 52 -17q7 0 12.5 1t9.5 2.5t7.5 4.5t6 5t4.5 6l3 6t1.5 7t1 6.5t0.5 6.5l1 5q11 74 64 75q50 -2 51 -61q0 -46 -59 -78q-49 -27 -110 -27q-127 0 -214 61q-41 29 -135 123l-8 8q-51 51 -71 63q-28 18 -54 18q-22 0 -40 -40 q-7 -15 -11 -33q-8 -36 -39 -48q-9 -3 -19 -3q-45 7 -50 48q0 46 72 95q27 18 50 27z" glyph-name="Zdotaccent.swash" horiz-adv-x="585" unicode=""/>
<glyph d="M481 397l70 197l-4 6q-44 -24 -93 -24q-8 0 -83 8q-26 3 -50 3q-70 0 -93 -55q-8 -20 -8 -42q1 -32 21 -65q18 2 27 2q58 0 76 -40q4 -8 4 -15q0 -34 -27 -52q-9 -6 -16 -6q-32 1 -41 26q-12 31 -33 32q-18 0 -36 -43q-4 -9 -10 -24q-25 -70 -30 -100q-4 -33 -4 -83 q2 -64 41 -65q37 0 72 29q5 4 8 7q5 5 9 4l13 -10q4 -5 1 -11q-19 -31 -66 -58q-47 -28 -96 -28q-48 0 -80 40q-24 30 -24 71q0 106 62 205q51 81 118 109q-45 50 -46 107q0 63 53 103q42 30 102 30q35 0 124 -21q44 -10 70 -10q38 0 96 38q23 16 31 16q17 0 36 -17 q7 -8 8 -13q0 -14 -12 -44l-1 -2l-77 -205h104q6 -2 5 -9l-7 -26q-4 -8 -13 -9h-104l-79 -220q-14 -45 -14 -53q4 -17 22 -19q21 0 76 41q7 6 9 8q5 4 9 0l11 -12q4 -5 3 -8q-23 -31 -75 -62q-65 -38 -125 -38q-39 0 -50 27q-2 5 -2 9q0 35 11 62l91 265h-78q-8 2 -6 11 l6 26q4 7 11 7h83z" glyph-name="c_t" horiz-adv-x="660" unicode=""/>
<glyph d="M202 263l-31 -69h8q63 0 124 52q50 44 51 84q-1 33 -23 34q-24 0 -73 -41q-2 -2 -6 -5q-7 -5 -10 -8q-25 -23 -40 -47zM190 678h168q16 -2 17 -14q0 -4 -4 -15l-142 -310l5 -4q58 58 96 76q33 16 63 16q72 -1 73 -68q0 -83 -166 -160q-24 -12 -27 -13q17 -102 80 -252 q21 -49 36 -75q40 -66 70 -67q17 0 21 23q1 4 1 8q0 5 -2 14q-1 3 -1 6q2 16 20 17q21 -4 24 -25q0 -67 -68 -84q-18 -5 -38 -5q-88 1 -143 104q-43 80 -81 260q-8 38 -12 53l-24 -4l-56 -147q-5 -11 -15 -12h-87q-11 0 -9 13q1 2 1 3l231 564q8 19 8 33q-3 26 -27 29h-22 q-11 1 -10 7l9 22q4 7 11 7z" glyph-name="k.alt" horiz-adv-x="463" unicode=""/>
<glyph d="M242 12l197 538q7 20 7 37q0 26 -13 39q-21 23 -60 23q-79 0 -118 -125q-7 -22 -34 -144q-57 -261 -109 -407q-74 -207 -194 -256q-34 -14 -69 -14q-67 0 -82 45q-3 10 -3 20q0 37 32 51q10 4 19 4q37 0 49 -46q0 -3 1 -6q5 -23 21 -24q74 0 140 274v2q8 34 25 114 q33 159 56 242q40 142 84 204q10 13 20 24q73 80 181 81q93 0 169 -40q16 -10 17 -24q0 -5 -2 -12l-128 -328l9 -7q94 149 183 150q88 -1 89 -106q0 -101 -59 -210q-3 -5 -5 -9q-79 -133 -178 -134q-45 0 -59 37q-4 13 -4 27q-1 33 24 46q10 5 20 5q33 0 39 -33q1 -3 1 -4 q3 -35 19 -36q19 0 41 78q1 5 5 17q4 15 6 22q34 112 34 182q-1 42 -29 43q-40 -1 -127 -115q-34 -47 -51 -90l-57 -140q-5 -7 -17 -7h-80q-12 0 -11 9q1 2 1 3z" glyph-name="longs_h" horiz-adv-x="745" unicode=""/>
<glyph d="M488 116l12 -12q3 -5 1 -10q-31 -50 -90 -79q-49 -25 -105 -25q-38 1 -39 30q0 15 52 167q4 10 7 19l27 79q3 11 8 28q7 21 7 28q-2 12 -13 13q-18 0 -66 -59q-5 -5 -7 -8q-6 -5 -11 -1l-9 9q-5 6 -3 9l2 3q81 108 173 119q9 1 17 1q43 -1 44 -36q0 -18 -29 -102 q-2 -5 -3 -8l-54 -153q-16 -49 -16 -61q2 -13 13 -14q20 0 67 53q5 6 7 9q4 4 8 1zM-151 -297q-67 0 -82 45q-3 10 -3 20q0 37 32 51q10 4 19 4q37 0 49 -46q0 -3 1 -6q5 -23 21 -24q74 0 140 274v2q12 48 37 163q28 128 44 193q37 153 101 231q44 53 121 72q24 6 46 6 q89 0 111 -48q5 -11 5 -21q0 -33 -28 -48q-12 -7 -26 -7q-50 0 -62 47q0 5 -1 8q-5 28 -31 29q-57 0 -93 -139q-2 -6 -29 -129q-57 -261 -109 -407q-74 -207 -194 -256q-34 -14 -69 -14z" glyph-name="longs_i" horiz-adv-x="523" unicode=""/>
<glyph d="M568 612l-183 -513q-6 -17 -6 -27q2 -15 16 -16q23 0 70 47l2 2q5 5 9 0l11 -12q2 -6 0 -11q-8 -15 -45 -41q-70 -51 -142 -51q-23 0 -38 25q-5 10 -5 17q0 16 28 93l148 428q7 20 7 36q-1 25 -14 37q-24 21 -56 22q-75 0 -115 -126q-6 -21 -34 -142q-66 -278 -110 -407 q-69 -199 -184 -253q-38 -17 -78 -17q-67 0 -82 45q-3 10 -3 20q0 37 32 51q10 4 19 4q37 0 49 -46q0 -3 1 -6q5 -23 21 -24q72 0 135 258l4 18q8 33 24 109q35 163 58 247q40 142 84 204q10 13 20 24q73 80 176 81q90 0 166 -40q16 -10 17 -24q0 -5 -2 -12z" glyph-name="longs_l" horiz-adv-x="505" unicode=""/>
<glyph d="M333 638q-59 0 -100 -193l-13 -65q-50 -254 -65 -312q-14 -54 -28 -95q-38 -106 -71 -151l5 -2q3 1 7 1q24 0 42 -30q6 -11 8 -20q7 -23 33 -24q72 0 135 258l4 18q9 39 29 129q32 150 51 227q32 122 74 185l-4 4h-8q-39 0 -58 36q-1 3 -2 5q-14 28 -39 29zM-121 -297 q-67 0 -82 45q-3 10 -3 20q0 37 32 51q10 4 19 4q37 0 49 -46q0 -3 1 -6q5 -23 21 -24q70 0 124 274v2q7 37 22 125q25 151 41 221q32 142 89 217q6 8 11 14q44 52 117 72q24 6 45 6q90 0 111 -49q3 -6 4 -12q51 54 128 68q17 3 32 3q89 0 111 -48q5 -11 5 -21 q0 -33 -28 -48q-12 -7 -26 -7q-50 0 -62 47q0 5 -1 8q-5 28 -31 29q-58 0 -94 -140q-2 -9 -27 -128q-51 -241 -110 -407q-71 -199 -183 -253q-37 -17 -75 -17q-64 0 -91 37q-9 14 -10 31l-2 2q-55 -69 -137 -70z" glyph-name="longs_longs" unicode=""/>
<glyph d="M163 -104q0 42 -37 61q-16 8 -32 8q-43 0 -62 -37q-8 -16 -8 -32q0 -43 38 -62q15 -8 32 -8q41 0 61 36q8 17 8 34zM187 -104q0 -52 -44 -80q-23 -14 -49 -14q-52 0 -80 44q-14 24 -14 50q0 51 44 79q24 14 50 14q51 0 79 -44q14 -23 14 -49zM164 693q0 41 -36 61 q-17 9 -34 9q-42 0 -62 -37q-8 -16 -8 -33q0 -43 38 -62q15 -8 32 -8q43 0 62 38q8 15 8 32zM188 693q0 -52 -44 -80q-24 -14 -50 -14q-52 0 -80 44q-14 24 -14 50q0 52 44 79q24 14 50 14q52 0 80 -44q14 -23 14 -49zM164 493q0 43 -38 62q-15 8 -32 8q-43 0 -62 -38 q-8 -15 -8 -32q0 -41 36 -61q17 -8 34 -8q43 0 62 37q8 16 8 32zM188 493q0 -51 -44 -79q-24 -14 -50 -14q-52 0 -80 44q-14 23 -14 49q0 52 44 80q24 14 50 14q52 0 80 -44q14 -24 14 -50zM164 294q0 43 -38 62q-15 8 -32 8q-43 0 -62 -38q-8 -15 -8 -32q0 -43 38 -62 q15 -8 32 -8q43 0 62 38q8 15 8 32zM188 294q0 -52 -44 -80q-24 -14 -50 -14q-52 0 -80 44q-14 24 -14 50q0 52 44 80q24 14 50 14q52 0 80 -44q14 -24 14 -50zM164 94q0 43 -38 62q-15 8 -32 8q-43 0 -62 -38q-8 -15 -8 -32q0 -41 36 -61q17 -8 34 -8q43 0 62 37q8 16 8 32 zM188 94q0 -51 -44 -79q-24 -14 -50 -14q-52 0 -80 44q-14 23 -14 49q0 52 44 80q24 14 50 14q52 0 80 -44q14 -24 14 -50z" glyph-name="orn.001" horiz-adv-x="188" unicode=""/>
<glyph d="M690 552q16 -16 27 -40q2 -5 2 -7q0 -9 -56 -48q-16 -11 -19 -12q-8 0 -34 38q-8 13 -9 17q0 8 46 40q24 16 31 17q7 -1 12 -5zM520 561q33 -37 34 -48q0 -12 -28 -37q-19 -16 -30 -17q-14 0 -36 34q-7 13 -8 19q0 12 35 42q15 12 21 13q6 0 12 -6zM613 633q13 -8 33 -32 q7 -10 8 -14q0 -3 -3.5 -7.5t-9 -9.5t-12 -10t-13 -9t-12 -7.5t-9.5 -5.5l-4 -2q-11 0 -36 29q-12 15 -13 22q0 10 36 37q16 12 22 13q8 -1 13 -4zM431 648q46 -46 46 -50q0 -8 -41 -45q-13 -11 -16 -12q-10 0 -40 32q-12 14 -13 19q0 8 30 41q17 18 25 19q6 -1 9 -4z M348 559q2 -2 10 -9q33 -28 34 -35q0 -10 -25 -42q-18 -21 -28 -22q-8 0 -33 22q-19 17 -20 28q0 20 27 48q14 13 23 14q8 -1 12 -4zM436 473q34 -34 35 -47q0 -8 -22 -41q-14 -20 -21 -21q-14 0 -42 38q-9 13 -10 17q0 14 28 45q13 14 20 15q6 0 12 -6zM586 467 q28 -37 29 -43q0 -8 -40 -45q-16 -14 -20 -15q-13 0 -33 41q-4 9 -4 12q0 18 43 50q9 7 12 8q7 -1 13 -8zM105 686q-48 -113 -48 -195q0 -122 45 -204q20 -37 49 -70q62 -71 128 -101q12 -6 17 -6q6 2 7 7q-2 10 -18 21q-170 110 -198 293q-5 31 -5 64q0 18 2 49q1 7 5 24.5 t9.5 37.5t11 39.5t8.5 32.5l4 13q-1 6 -5 7q-7 -2 -12 -12zM895 679q-18 31 -25 32q-1 -2 -2 -3q1 -10 8 -26q27 -56 30 -156q0 -137 -55 -233q-17 -27 -36 -48q-3 -3 -111 -95q-28 -24 -29 -27q2 -3 7 -4q21 0 96 53q34 25 55 45q103 99 103 286q0 93 -39 171q-1 3 -2 5z M760 440q2 -3 4 -3q6 1 7 10q0 2 -5 16q-5 15 -5 18q0 2 6 10q7 9 8 12q-2 12 -11 15q-1 0 -8 -2q-6 -2 -7 -2q-2 0 -4 1.5t-4.5 3.5t-5 5.5l-5 7t-5 7.5t-4.5 7.5t-3.5 7t-3 6t-2.5 4.5v2q1 8 10 19q1 1 6 4q18 14 19 19q-3 10 -13 14q-1 0 -11 -5q-28 -13 -34 -13 q-7 0 -35 34q-15 20 -16 27q0 1 5 7q5 8 6 10q-1 7 -9 9q-2 0 -15 -8q-20 -11 -24 -12q-2 0 -9 7q-9 8 -12 9q-7 -1 -8 -10q0 -1 2 -7q3 -5 3 -6q0 -12 -57 -40q-9 -5 -11 -5q-8 0 -47 37q-15 16 -16 20q0 1 4 5q5 6 6 8q-1 4 -7 5q-2 0 -11 -4q-11 -5 -14 -5q-2 0 -12 7 q-9 7 -11 8q-6 -1 -8 -7q0 -1 3 -5q2 -4 2 -5q0 -10 -44 -49q-20 -17 -25 -18q-2 0 -17 8q-23 12 -27 12q-8 -2 -9 -8q0 -2 20 -24q8 -10 9 -14q0 -7 -32 -54q-18 -26 -24 -27q-1 0 -9 3q-7 3 -9 3q-6 -2 -7 -7q0 -10 53 -45q51 -34 52 -45q0 -3 -9 -18q-8 -16 -8 -19 q2 -10 11 -11q2 0 15 10q14 11 17 12q8 0 43 -43q30 -36 39 -37q3 0 31 45q22 36 31 37q6 0 30 -41q16 -28 23 -29q7 0 46 39q26 25 34 26q2 0 26 -20q8 -6 11 -7q10 1 11 12q0 3 -10 18q-10 16 -11 20q0 13 52 45q21 12 27 13q9 -1 22 -30zM994 552v-7q0 -14 -15 -46 q-6 -14 -6 -22q0 -6 6 -24q8 -24 8 -35q0 -4 -8 -21q-7 -15 -7 -18q0 -9 13 -34q4 -8 4 -12q0 -10 -26 -22q-22 -12 -25 -20v-4q0 -4 10 -40q4 -13 4 -21q-2 -24 -22 -25q-4 0 -12 1q-9 2 -13 2q-21 -5 -22 -38q0 -43 -22 -48q-5 -1 -9 -1q-25 -1 -35 -7q-8 -6 -15 -27 q-5 -12 -12 -17q-32 -17 -98 -17q-15 0 -85 12l-70 12q-2 -1 -3 -2q0 -18 28 -40q25 -19 56 -22q8 -1 9 -5q-2 -6 -13 -7q-9 0 -56 2q-45 1 -53 1q-12 0 -80 -2q-63 -1 -74 -1q-7 1 -8 6q2 5 9 6q44 0 76 31q14 16 15 29q-1 1 -2 1q-3 0 -76 -17q-15 -4 -20 -4q-11 0 -51 14 q-14 5 -22 5q-5 0 -33 -4q-28 -5 -33 -5q-10 1 -15 4q-12 8 -27 43q-13 29 -27 41q-11 9 -45 13q-20 3 -28 12q-10 12 -10 31q0 26 -5 34q-2 3 -25 29q-13 16 -14 26q0 8 14 34q7 15 7 26q0 2 -19 44q-4 9 -4 12v1q0 8 11 20q10 13 11 32q0 8 -15 21q-14 14 -15 29 q0 3 23 56q6 14 6 18q0 2 -9 34q-3 9 -3 15q0 2 1 4v4q3 8 28 23q13 8 18 14q4 7 4 14q0 6 -3 19q-4 14 -4 20q0 4 1 6q1 8 21 10q14 1 21 5q6 4 13 20q5 11 14 13h2q2 0 14 -6q9 -4 11 -4q4 0 12 2q6 1 9 1q13 -2 16 -15q0 -2 -18 -27q-4 -7 -5 -9q0 -4 2 -12q3 -9 3 -13 q0 -5 -26 -48q-9 -15 -9 -20q0 -8 4 -26q4 -17 4 -24q0 -5 -1 -7t-24 -29q-7 -9 -8 -12q0 -3 22 -28q7 -10 8 -13q0 -8 -15 -36q-7 -13 -7 -21q0 -4 28 -34q5 -5 6 -7q4 -7 4 -16q0 -31 6 -39q2 -3 3 -4q10 -11 37 -20q17 -6 26 -17q5 -7 5 -14q0 -2 -7 -25q-2 -6 -2 -9 q1 -24 48 -24q60 0 69 -9q6 -7 6 -19q0 -5 -2 -15t-2 -14q0 -23 28 -45q24 -18 52 -18q31 0 36 11t5 57q-3 99 -30 106q-77 0 -160 74q-71 63 -81 120q-1 7 -1 13q0 74 26 118q11 18 25 34q7 7 55 38q16 10 23 17q8 8 8 18q0 8 -42 118l-42 111q10 9 22 9q21 0 24 -7 q1 -4 2 -9q7 -55 41 -156q22 -64 33 -65q8 1 8 12q0 10 -5.5 35.5t-13 55.5l-14.5 58t-13 47l-5 19q0 8 9 9q5 1 18 1q15 0 16 -6q1 -3 1 -7q0 -71 20 -169q11 -53 20 -54q16 1 17 30q0 23 -25 165q-1 9 -2 13t-1.5 8.5t-1.5 7.5v2q0 9 7 10h16q22 0 24 -6q1 -5 1 -11 q0 -182 11 -214q5 -9 12 -10q10 0 12 14q2 13 2 70l-7 147q0 9 8 10h16q29 -3 30 -10q0 -4 -8 -63q-16 -129 -16 -151q0 -27 7 -30q4 -1 7 -1q18 0 41 241q0 12 12 13q7 1 18 1q26 -3 27 -7q0 -6 -1 -9q-29 -84 -46 -188q-4 -25 -4 -36q1 -7 14 -8q12 0 16 12q2 7 7 32 q20 108 43 176q10 26 15 27h6q12 1 18 1q30 -3 31 -8q0 -3 -2 -7q-42 -70 -65 -147q-10 -32 -10 -51q1 -24 17 -33q134 -81 137 -197q0 -73 -57 -137q-69 -76 -184 -87q-33 -3 -41 -123q-1 -9 -1 -13q0 -32 6 -35q5 -2 16 -2q94 0 117 49q5 12 5 24q0 7 -3 20q-2 12 -2 17 q4 18 21 21q7 0 22 -5q11 -3 15 -3q7 0 30 47q4 9 6 11q7 8 40 12q20 3 27 11q4 6 4 11t-3 13q-5 12 -5 19q0 6 3 15q6 14 28 24q16 9 21 19q3 8 3 14q0 5 -6 28q-6 21 -6 25q0 12 13 44q4 11 4 19q0 3 -21 50q-5 10 -5 14q0 3 4 20q4 14 4 17q-1 28 -17 41q-34 28 -47 57 q-3 8 -3 14q4 20 28 24q1 0 32 -18q7 -4 9 -4q5 0 16 5q13 5 18 5q13 0 17 -16q1 -4 1 -7t-1 -9v-8q0 -9 2 -13q2 -6 14 -14q10 -8 15 -19q7 -14 7 -31q0 -24 2 -31q3 -11 28 -39q18 -20 20 -35z" glyph-name="orn.002" horiz-adv-x="994" unicode=""/>
<glyph d="M342 299q-41 -42 -41 -79q1 -24 9 -25q6 1 12 10q11 17 37 32q5 3 43 13q9 2 14 5q26 16 37 52q5 15 5 28q-1 42 -9 43q-6 0 -69 -48q-26 -20 -38 -31zM615 300q-30 31 -88 64q-21 12 -29 12q-6 -1 -7 -8q0 -39 17 -76q14 -27 33 -33q72 -20 95 -61l1 -2q4 -8 8 -9 q9 5 13 33q-2 36 -43 80zM134 311q19 0 29 23q3 9 3 18q0 28 -24 36q-5 1 -9 1q-21 0 -31 -20q-4 -9 -4 -17q0 -27 24 -38q7 -3 12 -3zM833 625q27 0 32 28q1 6 1 10q0 26 -21 41q-7 4 -12 4q-14 0 -26 -22q-7 -12 -7 -23q5 -34 33 -38zM828 329q21 0 29 25q3 8 3 16 q0 28 -23 36q-5 1 -9 1q-22 0 -32 -22q-3 -8 -3 -15q0 -28 24 -39q6 -2 11 -2zM136 611q23 0 31 26q2 7 2 15q0 24 -21 39q-7 5 -12 5q-16 0 -28 -23q-6 -11 -6 -21q0 -32 25 -40q5 -1 9 -1zM485 702q107 0 165 70q25 32 26 58q0 27 -22 47q-10 8 -18 8q-12 0 -54 -27 q-18 -12 -28 -16q-35 -15 -69 -15q-33 0 -67 14q-9 4 -28 13q-33 17 -46 17q-24 0 -39 -32q-7 -14 -7 -25q0 -34 50 -69q61 -43 137 -43zM90 47q75 -12 381 -12q259 0 394 9l27 3q17 4 18 14q-2 10 -18 13q-52 8 -554 8q-266 0 -267 -22q2 -10 19 -13zM770 157q29 32 29 71 q-1 25 -12 44q-6 10 -18 25q-25 32 -27 62q-1 7 -1 13q0 53 38 78q6 3 11 5q14 5 15 10q0 5 -12 8h-2q-36 7 -47 30q-3 6 -3 11q0 22 33 36q12 4 22 5q19 2 20 7q-2 4 -7 9q-40 30 -51 52q-8 17 -8 37q1 42 30 73q27 28 27 67q0 45 -39 74q-19 13 -36 13q-12 0 -12 -12 q0 -3 3 -20q2 -14 2 -17q-1 -90 -109 -199q-6 -6 -39 -35q-58 -50 -59 -54q0 -1 43 -25q34 -19 35 -27q0 -9 -51 -37q-36 -21 -37 -28q1 -7 96 -79q106 -78 107 -158q-1 -42 -18 -60q-6 -7 -7 -13q2 -8 15 -9q26 0 66 39q2 3 3 4zM80 952q-18 -4 -19 -14q1 -23 287 -23 q498 0 554 9q17 4 18 14q-2 11 -18 14q-70 11 -448 11q-309 0 -374 -11zM179 733q31 -36 38 -55q5 -16 5 -32q0 -46 -43 -75q-6 -4 -10 -6q-9 -6 -10 -13q1 -8 8 -12q3 -1 10 -5q41 -19 42 -36q0 -25 -52 -38q-3 -1 -5 -1q-8 -2 -9 -9q1 -8 10 -15q46 -31 47 -84 q0 -42 -37 -86q-8 -9 -11 -13q-9 -14 -9 -37q0 -58 53 -92q22 -15 40 -15q5 2 6 7q0 4 -5 27q-5 25 -5 30q0 65 60 130q22 24 52 50q70 63 78 75q4 5 4 8q0 6 -43 32q-31 20 -32 28q1 11 12 18q8 5 26 13q20 9 29 14q8 7 9 14q-2 9 -11 15q-78 51 -130 127q-44 65 -44 121 q0 3 6 22q6 20 6 24q-2 5 -7 6q-30 0 -66 -32q-27 -26 -28 -51q1 -36 16 -54zM104 461q-48 17 -50 40q1 21 54 38q8 4 9 12q-2 9 -11 13q-22 8 -41 39q-14 23 -14 46q0 34 33 68q14 15 17 18q14 18 14 47q0 69 -66 97q-9 4 -17 6q-24 6 -28 18q-3 10 -3 44q0 42 18 47 q4 1 7 1q30 0 209 3q194 4 230 4q35 0 237 -3q218 -4 258 -4q12 0 16 -15q4 -17 4 -53q0 -31 -11 -37q-6 -3 -18 -4q-37 -5 -66 -38q-23 -26 -23 -56q1 -30 15 -52q35 -52 36 -79q0 -49 -48 -88l-2 -2q-6 -6 -6 -10q0 -6 6 -8h2q53 -13 54 -38q0 -27 -39 -42q-7 -3 -14 -4 q-8 -3 -9 -6q0 -3 9 -8q1 -1 2 -1q42 -23 43 -81q0 -40 -33 -80q-14 -17 -18 -22q-9 -13 -9 -43q0 -88 75 -105q13 -3 25 -3q23 0 27 -21q2 -12 2 -47q0 -30 -14 -37q-12 -6 -38 -10q-36 -5 -600 -5q-55 0 -237 4q-47 1 -51 1q-36 0 -39 38q-1 7 -1 18q1 59 27 67 q74 20 84 80q1 9 1 17q-1 20 -9 30q-4 5 -13 14q-37 39 -40 71q-1 6 -1 11q0 44 38 76q7 6 12 9q13 7 14 16q0 6 -9 9z" glyph-name="orn.003" horiz-adv-x="980" unicode=""/>
<glyph d="M330 406q5 0 8 3q38 55 94 56q29 0 64 -24q2 -2 10 -11q19 -23 25 -24q25 0 46 29q10 15 10 26q0 41 -81 61q-38 9 -75 9q-81 0 -128 -30q-26 -18 -27 -40q0 -21 28 -43q14 -10 26 -12zM415 719q-15 105 -84 153q-38 25 -80 25q-31 0 -66 -16q-11 -5 -12 -9 q0 -56 41 -100q55 -58 165 -58q34 0 36 5zM415 690l-29 -2q-154 0 -211 92q-11 19 -18 39q0 1 -1 4t-2 6.5t-2 7.5l-2 8t-2 7t-2 5l-1 2q-15 0 -55 -65q-12 -21 -18 -34q-3 -7 -5 -22q-4 -27 -17 -30q-4 -1 -7 -1q-27 0 -39 20q-4 8 -4 17q0 42 56 98q74 76 159 82h11 q137 0 192 -125q14 -30 19 -61l5 -19q25 0 84 22q106 41 107 99q0 27 -18 37q-4 2 -7 2q-2 0 -5.5 -2.5t-8 -6.5t-8 -7.5l-8.5 -8.5l-4 -4q-17 -7 -26 -7q-35 7 -40 55q0 37 31 56q18 11 42 11q51 0 74 -53q11 -25 11 -53q-2 -109 -184 -159q-1 0 -3 -0.5t-4.5 -1l-5 -1 t-5.5 -1l-6 -1t-5.5 -1t-4.5 -0.5t-3 -1l-1 -1q1 -30 8 -40q128 -11 174 -88q18 -31 18 -67q-3 -95 -99 -114q-2 -1 -3 -2l1 -2q21 -43 21 -116q0 -168 -74 -204q-16 -8 -46 -14l-2 -2l1 -6q3 -8 3 -10q-1 -26 -15 -27q-13 2 -14 27q0 1 2 9l2 8l-1 1q-69 7 -96 60 q-25 52 -25 158q0 74 20 114q1 2 1 3q-1 2 -2 3q-98 19 -99 113q0 74 67 118q49 32 124 37q6 2 6 37z" glyph-name="orn.004" horiz-adv-x="666" unicode=""/>
</font>
</defs>
</svg>
