<?xml version="1.0" encoding="UTF-8"?>
<!DOCTYPE svg  PUBLIC '-//W3C//DTD SVG 1.1//EN'  'http://www.w3.org/Graphics/SVG/1.1/DTD/svg11.dtd'>
<svg version="1.1" xmlns="http://www.w3.org/2000/svg">
<defs>
<font id="ACaslonPro-SemiboldItalic" horiz-adv-x="500">
<font-face font-family="Adobe Caslon Pro" font-style="italic" font-weight="600" ascent="735" bbox="-232 -700 1523 1002" cap-height="673" descent="-265" panose-1="2 5 6 2 5 5 11 9 10 3" slope="-22" underline-position="-100" underline-thickness="50" unicode-range="U+0020-FB06" units-per-em="1000" x-height="416"/>
<missing-glyph/>
<glyph d="M722 276l6 -6q98 145 190 146q69 0 79 -73q1 -10 1 -20q0 -104 -66 -221q-74 -133 -166 -134q-39 0 -53 31q-5 11 -5 23q0 33 25 46q9 4 17 4q30 0 36 -31v-3q5 -26 20 -27q22 0 57 107q2 4 3 8q38 116 38 179q-2 46 -30 47q-45 0 -131 -102q-9 -10 -15 -18 q-30 -40 -56 -102l-52 -122q-4 -8 -12 -8h-64q-12 2 -8 14l211 548q11 27 11 32q-1 9 -3 12q-23 20 -179 25q-15 1 -26 1h-20l-158 -510q-10 -33 -10 -48q0 -33 39 -36q6 -1 13 -1h40q7 -2 6 -10l-4 -20q-3 -9 -12 -10q-4 0 -18 1q-63 2 -130 2q-74 0 -146 -3h-15 q-9 2 -9 10l2 22q3 8 12 8h26q50 0 72 37q13 22 26 64l154 494h-26q-129 -1 -159 -22q-42 -31 -111 -112q-5 -4 -12 -4l-16 10q-4 4 -2 10q23 43 75 164q1 3 1 4q5 9 10 10q7 -1 16 -8q48 -14 172 -14h319q149 1 186 18q9 4 10 4q7 -2 8 -8q-1 -22 -15 -50z" glyph-name="T_h" horiz-adv-x="981" unicode="Th"/>
<glyph d="M506 824l124 62q6 1 8 -2l7 -12q0 -3 -3 -6l-142 -136q-10 -5 -16 2l-76 136q-1 5 2 8l11 9q5 3 10 -2zM702 276l6 -6q98 145 190 146q69 0 79 -73q1 -10 1 -20q0 -104 -66 -221q-74 -133 -166 -134q-39 0 -53 31q-5 11 -5 23q0 33 25 46q9 4 17 4q30 0 36 -31v-3 q5 -26 20 -27q22 0 57 107q2 4 3 8q38 116 38 179q-2 46 -30 47q-45 0 -131 -102q-9 -10 -15 -18q-30 -40 -56 -102l-52 -122q-4 -8 -12 -8h-64q-12 2 -8 14l214 555q1 2 2 7q3 7 4 9q-2 0 -15 -1t-15 -1q-39 0 -179 16l-152 -479q-10 -35 -10 -49q6 -32 47 -34h39 q8 -1 7 -10l-4 -22q-4 -8 -13 -8q-4 0 -18 1q-64 2 -137 2q-61 0 -129 -2q-15 -1 -18 -1q-8 0 -8 6v4l3 22q4 7 11 8h21q53 0 76 37q13 21 26 61l153 473q-59 10 -160 10q-109 0 -152 -64q-17 -27 -17 -58q1 -26 10 -41q8 -8 15 -1q15 12 38 12q30 0 42 -30q4 -11 4 -22 q0 -29 -29 -43q-15 -7 -31 -7q-45 0 -69 43q-17 32 -17 78q0 71 54 126q16 16 35 28q72 46 207 46q86 0 223 -17t197 -17q51 1 52 29q-1 12 -9 24q-11 15 -12 29q0 25 24 32q7 2 14 2q41 -1 42 -56q0 -19 -22 -68q-3 -6 -4 -9z" glyph-name="T_h.caronswash" horiz-adv-x="990" unicode="h"/>
<glyph d="M316 -142q0 -79 -78 -118q-28 -14 -46 -14q-7 2 -8 10q2 7 9 10q35 10 56 39q12 16 12 33q0 22 -20 45q-1 1 -3 2q-20 19 -21 35q0 29 24 38q7 2 13 2q41 0 56 -47q6 -18 6 -35zM702 276l6 -6q98 145 190 146q69 0 79 -73q1 -10 1 -20q0 -104 -66 -221 q-74 -133 -166 -134q-39 0 -53 31q-5 11 -5 23q0 33 25 46q9 4 17 4q30 0 36 -31v-3q5 -26 20 -27q22 0 57 107q2 4 3 8q38 116 38 179q-2 46 -30 47q-45 0 -131 -102q-9 -10 -15 -18q-30 -40 -56 -102l-52 -122q-4 -8 -12 -8h-64q-12 2 -8 14l214 555q1 2 2 7q3 7 4 9 q-2 0 -15 -1t-15 -1q-39 0 -179 16l-152 -479q-10 -35 -10 -49q6 -32 47 -34h39q8 -1 7 -10l-4 -22q-4 -8 -13 -8q-4 0 -18 1q-64 2 -137 2q-61 0 -129 -2q-15 -1 -18 -1q-8 0 -8 6v4l3 22q4 7 11 8h21q53 0 76 37q13 21 26 61l153 473q-59 10 -160 10q-109 0 -152 -64 q-17 -27 -17 -58q1 -26 10 -41q8 -8 15 -1q15 12 38 12q30 0 42 -30q4 -11 4 -22q0 -29 -29 -43q-15 -7 -31 -7q-45 0 -69 43q-17 32 -17 78q0 71 54 126q16 16 35 28q72 46 207 46q86 0 223 -17t197 -17q51 1 52 29q-1 12 -9 24q-11 15 -12 29q0 25 24 32q7 2 14 2 q41 -1 42 -56q0 -19 -22 -68q-3 -6 -4 -9z" glyph-name="T_h.commaaccentswash" horiz-adv-x="990" unicode="h"/>
<glyph d="M702 276l6 -6q98 145 190 146q69 0 79 -73q1 -10 1 -20q0 -104 -66 -221q-74 -133 -166 -134q-39 0 -53 31q-5 11 -5 23q0 33 25 46q9 4 17 4q30 0 36 -31v-3q5 -26 20 -27q22 0 57 107q2 4 3 8q38 116 38 179q-2 46 -30 47q-45 0 -131 -102q-9 -10 -15 -18 q-30 -40 -56 -102l-52 -122q-4 -8 -12 -8h-64q-12 2 -8 14l214 555q1 2 2 7q3 7 4 9q-2 0 -15 -1t-15 -1q-39 0 -179 16l-152 -479q-10 -35 -10 -49q6 -32 47 -34h39q8 -1 7 -10l-4 -22q-4 -8 -13 -8q-4 0 -18 1q-64 2 -137 2q-61 0 -129 -2q-15 -1 -18 -1q-8 0 -8 6v4l3 22 q4 7 11 8h21q53 0 76 37q13 21 26 61l153 473q-59 10 -160 10q-109 0 -152 -64q-17 -27 -17 -58q1 -26 10 -41q8 -8 15 -1q15 12 38 12q30 0 42 -30q4 -11 4 -22q0 -29 -29 -43q-15 -7 -31 -7q-45 0 -69 43q-17 32 -17 78q0 71 54 126q16 16 35 28q72 46 207 46 q86 0 223 -17t197 -17q51 1 52 29q-1 12 -9 24q-11 15 -12 29q0 25 24 32q7 2 14 2q41 -1 42 -56q0 -19 -22 -68q-3 -6 -4 -9z" glyph-name="T_h.swash" horiz-adv-x="990" unicode="h"/>
<glyph d="M398 349h-161q-49 -225 -113 -400q-34 -92 -68 -138h12q27 0 43 -35q2 -6 4 -11q8 -23 37 -24q69 0 126 162q19 54 41 138q5 18 79 308zM644 330q-2 18 -35 19h-116q-5 -17 -17 -62q-57 -214 -90 -304q-22 -57 -43 -98q34 -2 45 -34q2 -8 2 -14q5 -29 22 -31q44 0 90 111 q15 35 64 178l68 196q10 27 10 39zM246 393h162q37 117 76 176q-33 1 -50 32q-20 33 -49 34q-66 0 -109 -130q-14 -44 -30 -112zM299 -188v-1q-79 -107 -177 -108q-78 0 -96 54l-2 8l-2 2q-39 -50 -102 -62q-13 -2 -26 -2q-51 0 -72 35q-7 12 -7 24q0 34 28 46q9 3 18 3 q35 0 47 -40l2 -8q5 -16 20 -17q52 0 105 162q14 47 28 103l81 339h-85q-7 2 -7 10l4 27q3 6 8 7h89q43 144 102 208q67 73 166 73q71 0 97 -40q4 -7 6 -14h1q41 43 103 58q22 6 43 6q77 0 100 -45q5 -11 5 -22q0 -34 -30 -45q-8 -3 -16 -3q-47 2 -54 47q-8 28 -36 29 q-67 0 -113 -155q-9 -32 -25 -97h119q42 0 74 8q7 2 18 5q16 5 24 5q12 -2 12 -16v-10q2 -32 -37 -140q-2 -5 -3 -8l-67 -186q-79 -217 -191 -268q-30 -14 -61 -14q-68 1 -91 42z" glyph-name="f_f_j" horiz-adv-x="774" unicode="ffj"/>
<glyph d="M391 324q1 3 1 7q-2 19 -33 19h-114q-9 -27 -32 -106q-43 -145 -69 -218q-30 -85 -59 -140h9q35 0 47 -33q3 -8 3 -15q5 -29 22 -31q48 0 99 130q19 48 55 159q60 182 71 228zM50 -179q-78 -117 -173 -118q-65 0 -82 42q-4 10 -4 20q0 39 33 47q6 1 11 1q32 0 43 -33 q2 -7 3 -13q0 -20 23 -23q4 -1 7 -1q46 0 89 114q19 50 59 182q7 23 34 122q48 173 54 189h-85q-7 2 -6 10l6 27q3 6 9 7h86q38 102 54 133q30 53 74 96q49 49 125 60q15 2 29 2q84 0 108 -48q6 -11 6 -21q0 -45 -36 -54q-6 -1 -12 -1q-34 1 -48 32q-2 4 -5 12t-5 12 q-8 31 -30 32q-39 -1 -68 -32q-47 -55 -94 -223h116q42 0 74 8q7 2 18 5q16 5 24 5q14 -5 15 -26q0 -35 -37 -142q-1 -4 -2 -6l-67 -186q-79 -217 -191 -268q-30 -14 -61 -14q-69 0 -90 41q-3 5 -4 10z" glyph-name="f_j" horiz-adv-x="524" unicode="fj"/>
<glyph d="M398 350h-160q-50 -225 -113 -400q-33 -90 -69 -138h12q24 0 41 -32q4 -7 6 -14q8 -23 37 -24q68 0 124 157q20 55 44 143q5 18 32 128q39 155 46 180zM246 394h163q38 120 75 176q-35 4 -50 32q-20 33 -49 34q-66 0 -109 -130q-14 -44 -30 -112zM143 350h-85q-7 2 -7 8 l5 29q3 6 8 7h88q46 151 108 215q65 66 156 66q78 0 103 -41q4 -7 5 -13h1q41 43 103 58q22 6 43 6q77 0 100 -45q5 -11 5 -22q0 -34 -30 -45q-8 -3 -16 -3q-47 2 -54 47q-8 28 -36 29q-66 0 -112 -150q-9 -31 -27 -102h102q6 -2 6 -7l-7 -31q-4 -6 -10 -6h-99 q-5 -17 -17 -62q-57 -214 -90 -304q-105 -280 -259 -281q-85 0 -102 57q-1 3 -1 5l-2 2q-39 -50 -102 -62q-13 -2 -26 -2q-51 0 -72 35q-7 12 -7 24q0 34 28 46q9 3 18 3q35 0 47 -40l2 -8q5 -16 20 -17q55 0 109 180q12 39 23 85z" glyph-name="ff" horiz-adv-x="550" unicode="ff"/>
<glyph d="M469 290l-58 -158q-3 -9 -9 -28q-7 -19 -7 -22q-3 -11 -3 -17q2 -10 11 -11q19 0 71 58q8 10 11 14q4 5 10 1l14 -11q2 -7 0 -8q-11 -21 -51 -56q-70 -61 -139 -62q-33 1 -34 26q0 10 42 128q3 10 6 18l40 106q17 47 18 56q0 1 1 3v3q-2 19 -33 20h-114q-10 -28 -33 -110 q-42 -142 -67 -213q-94 -266 -212 -313q-28 -11 -56 -11q-65 0 -82 42q-4 10 -4 20q0 39 33 47q6 1 11 1q32 0 43 -33q2 -7 3 -13q0 -20 23 -23q4 -1 7 -1q49 0 95 127q20 55 53 169q10 31 50 176q33 122 38 135h-86q-7 2 -6 10l7 27q3 6 9 7h86q38 102 54 133q30 53 74 96 q49 49 125 60q15 2 29 2q86 0 109 -49q5 -11 5 -21q-8 -51 -48 -54q-34 1 -48 32q-2 4 -5 12t-5 12q-8 31 -30 32q-39 -1 -68 -32q-47 -55 -94 -223h116q42 0 74 8q7 2 18 5q16 5 24 5q12 -2 13 -19q0 -9 -1 -13q0 -7 -30 -90z" glyph-name="fi" horiz-adv-x="524" unicode="fi"/>
<glyph d="M424 394l68 172q8 21 8 33q-1 12 -6 19q-26 29 -75 29q-37 -1 -70 -27q-35 -35 -73 -149l-16 -48q-6 -19 -9 -29h173zM145 350h-86q-8 0 -6 8v2l6 24q2 9 10 10h88q33 99 51 132q26 47 69 93q67 65 167 66q88 0 142 -22q7 -3 12 -6q13 -9 14 -17q0 -5 -14 -38l-193 -496 q-6 -15 -6 -29q0 -5 1 -7q2 -7 12 -8q21 0 72 53q4 5 6 7q4 5 10 0l12 -10q2 -8 0 -12q-10 -15 -52 -49q-78 -60 -138 -61q-20 0 -30 20q-2 6 -2 10q0 23 24 86l94 244h-166q-42 -164 -86 -290q-4 -13 -7 -21q-62 -202 -160 -290q-56 -46 -112 -46q-61 0 -79 38q-5 10 -5 20 q0 38 28 49q7 3 14 3q34 0 46 -40q1 -4 2 -6q7 -21 24 -22q24 1 46 22q53 64 116 298z" glyph-name="fl" horiz-adv-x="533" unicode="fl"/>
<glyph d="M398 350h-161q-49 -225 -113 -400q-34 -92 -68 -138h12q27 0 43 -35q2 -6 4 -11q8 -23 37 -24q69 0 126 162q19 54 41 138q5 18 79 308zM246 394h162q37 117 76 176q-33 1 -50 32q-20 33 -49 34q-66 0 -109 -130q-14 -44 -30 -112zM144 350h-85q-7 2 -7 10l4 27q3 6 8 7 h89q43 144 102 208q67 73 166 73q71 0 97 -40q4 -7 6 -14h1q41 43 103 58q22 6 43 6q77 0 100 -45q5 -11 5 -22q0 -34 -30 -45q-8 -3 -16 -3q-47 2 -54 47q-8 28 -36 29q-67 0 -113 -155q-9 -32 -25 -97h119q42 0 74 8q7 2 18 5q16 5 24 5q12 -2 13 -19q0 -9 -1 -13 q0 -7 -30 -90l-58 -158q-3 -9 -9 -28q-7 -19 -7 -22q-3 -11 -3 -17q2 -10 11 -11q19 0 71 58q8 10 11 14q4 5 10 1l14 -11q2 -7 0 -8q-10 -21 -50 -56q-71 -61 -139 -62q-30 3 -32 26q1 20 47 146l39 107q20 52 20 62q-2 18 -35 19h-116q-5 -17 -17 -62q-57 -214 -90 -304 q-105 -280 -264 -281q-78 0 -96 54l-2 8l-2 2q-39 -50 -102 -62q-13 -2 -26 -2q-51 0 -72 35q-7 12 -7 24q0 34 28 46q9 3 18 3q35 0 47 -40l2 -8q5 -16 20 -17q52 0 105 162q14 47 28 103z" glyph-name="ffi" horiz-adv-x="774" unicode="ffi"/>
<glyph d="M501 394h177l67 172q7 17 7 32q-1 13 -6 20q-25 31 -72 31q-43 -1 -74 -30q-35 -34 -73 -146q-2 -4 -26 -79zM399 350h-161q-46 -214 -113 -400q-33 -90 -69 -138h12q24 0 41 -33q3 -7 5 -13q10 -23 38 -24q69 0 126 162q19 54 41 138q5 17 30 117q43 165 50 191z M246 394h163q38 120 75 176q-28 1 -49 33q-22 32 -50 33q-66 0 -109 -130q-14 -44 -30 -112zM144 350h-87q-7 2 -7 8l6 29q3 6 8 7h90q44 152 109 216q65 65 158 65q74 0 99 -44q3 -6 4 -10h1q46 49 127 61q21 3 42 3q88 0 142 -22q7 -3 12 -6q13 -9 14 -17q0 -3 -14 -34 q0 -3 -1 -4l-192 -496q-6 -15 -6 -29q0 -5 1 -7q2 -7 12 -8q21 0 68 49q6 8 9 11q5 5 11 0l12 -10q2 -8 0 -12q-10 -15 -53 -49q-76 -60 -134 -61q-20 0 -30 20q-2 6 -2 10q0 23 24 86l95 244h-169q-5 -17 -17 -62q-57 -214 -90 -304q-105 -280 -264 -281q-78 0 -96 57 q-1 3 -2 5l-2 2q-39 -50 -102 -62q-13 -2 -26 -2q-51 0 -72 35q-7 12 -7 24q0 34 28 46q9 3 18 3q35 0 47 -40l2 -8q5 -16 20 -17q52 0 105 162q14 47 28 103z" glyph-name="ffl" horiz-adv-x="780" unicode="ffl"/>
<glyph glyph-name="space" horiz-adv-x="200" unicode=" "/>
<glyph d="M326 642q-1 -21 -16 -52l-167 -392l-1 -2q-4 -8 -16 -8q-13 2 -8 22q1 5 80 395q5 23 6 27q13 52 66 53q43 0 54 -31q2 -6 2 -12zM82 -10q-24 0 -41 24q-11 16 -11 36q0 40 33 56q12 6 25 6q36 0 52 -37q4 -11 4 -21q0 -41 -33 -57q-14 -7 -29 -7z" glyph-name="exclam" horiz-adv-x="268" unicode="!"/>
<glyph d="M272 449l-28 8q4 17 17 85q17 97 23 113q11 30 52 30q35 -2 36 -34q0 -8 -68 -138q-23 -43 -32 -64zM138 449l-28 8q4 17 17 85q17 97 23 113q11 30 52 30q35 -2 36 -34q0 -8 -66 -135q-24 -44 -34 -67z" glyph-name="quotedbl" horiz-adv-x="232" unicode='"'/>
<glyph d="M262 385l-42 -130h88l42 130h-88zM286 187h-86l-64 -188q-5 -13 -10 -14h-50q-5 2 -2 12l64 190h-86q-9 0 -9 7q1 2 1 3l14 46q4 12 13 12h1h86l42 130h-88q-12 0 -12 7v3l14 48q5 9 14 10h90l60 182q4 9 12 10h46q7 -1 4 -12l-58 -180h86l58 178q6 13 12 14h46 q7 0 5 -11q-1 -2 -1 -3l-58 -178h88q8 0 9 -7q-1 -2 -1 -3l-16 -48q-5 -10 -16 -10h-82l-42 -130h94q11 0 11 -8q-1 -2 -1 -4l-16 -48q-4 -8 -18 -8h-92l-64 -192q-4 -9 -8 -10h-52q-4 2 -2 10z" glyph-name="numbersign" unicode="#"/>
<glyph d="M248 60l50 194q-1 1 -4.5 4t-7.5 6.5t-8.5 8t-8.5 8t-7 6.5l-2 3h-4l-52 -218q12 -6 44 -12zM324 226l-42 -160q52 13 67 59q5 14 5 29q-1 39 -30 72zM258 416l40 158q-48 -11 -64 -57q-4 -14 -4 -27q1 -43 28 -74zM322 358l52 206q-19 12 -44 12l-46 -184q2 -2 19 -17 q16 -15 19 -17zM400 544l-50 -208q73 -64 74 -144q0 -99 -83 -142q-30 -15 -67 -20l-22 -96q-2 -11 -8 -11q-1 1 -2 1l-18 6q-6 0 -4 12v2l22 82q-19 2 -46 6l-26 -102q-4 -5 -8 -6l-20 6q-4 2 -2 12l26 102q-31 13 -52 34q-21 12 -22 12q-10 0 -25 -27q-2 -3 -3 -5 q-7 -5 -10 -4l-8 4q-4 4 -2 10l64 178q4 7 8 6l12 -4q7 -5 6 -10q-6 -26 -6 -47q1 -65 48 -101l58 224q-71 65 -79 132q-1 10 -1 20q0 55 46 98q43 39 106 44l20 80q0 6 4 6h4l20 -2q4 -5 2 -12l-18 -70q32 -4 44 -8l18 80q5 7 10 6l16 -2q6 -4 4 -12l-20 -84q10 -3 24 -11 q11 -7 16 -7q8 0 13 22q1 1 1 2q4 5 8 6l10 -2q4 -1 4 -8l-26 -156q-1 -7 -6 -8l-14 2q-6 2 -6 10q-1 67 -34 104z" glyph-name="dollar" unicode="$"/>
<glyph d="M666 303q-2 49 -40 50q-46 0 -96 -103q-45 -101 -50 -171q0 -42 27 -54q6 -2 11 -2q50 0 101 111q43 101 47 169zM730 279q0 -109 -60 -196q-62 -89 -148 -90q-90 0 -105 87q-3 15 -3 31q0 96 57 181q65 94 155 95q91 0 102 -85q2 -11 2 -23zM600 643l26 -16q3 -4 4 -6 q-1 -3 -4 -10l-406 -618q-5 -7 -10 -8q-4 1 -8 4l-22 16q-4 5 -4 8q1 4 4 10l406 618q5 4 8 4q4 0 6 -2zM388 539q0 -111 -61 -199q-62 -88 -147 -89q-92 0 -104 90q-2 13 -2 26q0 97 56 182q65 95 156 96q84 0 99 -77q3 -14 3 -29zM324 563q-2 46 -40 50q-46 0 -96 -104 q-45 -102 -50 -172q0 -42 27 -54q6 -2 11 -2q49 0 100 110q44 102 48 172z" glyph-name="percent" horiz-adv-x="738" unicode="%"/>
<glyph d="M440 -22q-233 0 -315 137q-33 56 -33 121q0 111 79 180q21 17 39 26q-42 56 -42 118q0 70 57 112q43 32 101 32q74 0 98 -52q8 -20 8 -42q0 -42 -35 -62q-10 -6 -17 -6q-5 2 -2 18v4q1 4 1 5q0 36 -36 51q-14 6 -29 6q-46 0 -73 -42q-17 -27 -17 -60q1 -38 22 -72 q31 12 50 12q41 0 50 -24q2 -5 2 -10q0 -42 -32 -47q-5 -1 -8 -1q-30 0 -64 23q-1 1 -2 1q-10 13 -24 4q-40 -29 -51 -97q-3 -17 -3 -33q0 -112 105 -168q73 -38 181 -38q154 0 232 86q46 51 46 112q0 67 -52 108q-38 30 -90 30q-75 0 -95 -64q-5 -14 -5 -26q0 -36 24 -56 q5 -4 8 -4q10 2 10 17q0 25 21 39q10 6 21 6q54 -3 56 -50q0 -44 -44 -55q-12 -3 -26 -3q-51 0 -85 42q-27 35 -27 82q0 70 59 113q45 33 109 33q21 0 61 -4q41 -4 63 -4q103 0 128 57q6 15 6 31q0 34 -30 56q-14 10 -26 10q-16 -1 -12 -22q1 -3 1 -8q0 -26 -24 -37 q-10 -5 -21 -5q-37 0 -46 32q-2 6 -2 12q0 40 44 57q17 7 34 7q78 0 111 -56q13 -24 13 -50q0 -131 -133 -162q-12 -2 -23 -4q-19 -2 -20 -11q1 -6 6 -13q30 -51 30 -120q0 -135 -113 -211q-91 -61 -219 -61z" glyph-name="ampersand" horiz-adv-x="844" unicode="&amp;"/>
<glyph d="M158 449l-28 8q5 20 20 102q14 81 18 96q14 30 54 30q31 -6 34 -34q0 -8 -67 -140q-21 -41 -31 -62z" glyph-name="quotesingle" horiz-adv-x="142" unicode="'"/>
<glyph d="M77 70q0 299 220 540q71 76 158 140q11 5 20 -8q7 -12 -2 -21q-2 -2 -4 -3q-160 -138 -245 -348q-67 -165 -67 -334q0 -109 16 -236q2 -8 -9 -12q-3 -1 -5 -2q-15 -4 -18 4q-40 72 -58 195q-6 46 -6 85z" glyph-name="parenleft" horiz-adv-x="320" unicode="("/>
<glyph d="M294 466q0 -299 -220 -540q-71 -76 -158 -140q-11 -5 -20 8q-7 12 2 21q2 2 4 3q160 138 245 348q67 165 67 334q0 109 -16 236q-2 8 9 12q3 1 5 2q15 4 18 -4q40 -72 58 -195q6 -46 6 -85z" glyph-name="parenright" horiz-adv-x="320" unicode=")"/>
<glyph d="M208 377q-31 1 -32 22q0 16 43 104l8 16l-3 1q-11 -9 -35 -31q-47 -44 -65 -54q-7 -2 -8 -2q-19 1 -30 22q-3 7 -3 15q1 18 19 29q6 3 113 27q6 1 9 2v5q-41 6 -100 22q-20 7 -21 27q0 6 3 13q6 24 31 28q4 1 6 1q5 0 7 -1q10 -3 52 -53q18 -21 27 -30l3 1 q-16 95 -16 112q0 19 24 28q10 4 20 4q33 -1 34 -24q0 -12 -42 -97q-7 -13 -10 -21l2 -3q9 7 36 32q52 48 66 51h5q21 -1 29 -24q2 -8 2 -13q0 -24 -30 -32q-1 -1 -2 -1q-13 -3 -53 -11q-38 -7 -52 -10v-4q91 -18 107 -25q12 -7 13 -23q0 -7 -3 -13q-15 -26 -37 -27 q-7 0 -13 3q-15 8 -67 71q-3 4 -5 7l-3 -1q0 -9 6 -50q7 -49 7 -59q0 -26 -28 -33q-7 -1 -14 -1z" glyph-name="asterisk" horiz-adv-x="300" unicode="*"/>
<glyph d="M298 38h-70v172h-160v64h160v168h70v-168h160v-64h-160v-172z" glyph-name="plus" unicode="+"/>
<glyph d="M180 24q0 -95 -100 -144q-39 -19 -60 -20q-9 0 -11 5q-1 3 -1 5q-1 13 10 16q42 12 69 46q17 22 17 44q0 27 -20 48l-6 6l-6 6q-23 23 -24 42q0 37 28 51q10 5 20 5q55 0 77 -66q7 -23 7 -44z" glyph-name="comma" horiz-adv-x="252" unicode=","/>
<glyph d="M392 214h-322q-7 2 -8 8v46q2 9 8 10h323q8 -2 9 -8v-46q-2 -9 -10 -10z" glyph-name="hyphen" horiz-adv-x="416" unicode="-"/>
<glyph d="M108 -10q-46 0 -60 39q-4 12 -4 25q0 37 31 54q14 8 31 8q49 0 64 -44q4 -11 4 -20q0 -37 -34 -55q-15 -7 -32 -7z" glyph-name="period" horiz-adv-x="252" unicode="."/>
<glyph d="M-22 -11l-29 21q-5 6 2 17l476 652q7 6 15 4l31 -19q5 -6 -2 -17l-477 -652q-10 -11 -16 -6z" glyph-name="slash" horiz-adv-x="330" unicode="/"/>
<glyph d="M366 599q-67 0 -138 -146q-64 -132 -85 -269q-5 -33 -5 -57q0 -90 54 -97q4 -1 8 -1q70 0 142 155q63 136 83 275q5 32 5 54q-2 82 -64 86zM368 645q111 0 139 -107q9 -32 9 -71q0 -161 -76 -303q-75 -139 -181 -171q-28 -8 -55 -8q-111 0 -143 113q-11 39 -11 85 q0 142 72 276q75 140 183 176q31 10 63 10z" glyph-name="zero" unicode="0"/>
<glyph d="M222 234l59 178q25 77 25 91q-2 15 -16 16q-4 0 -48 -14l-58 -22q-6 -1 -10 4l-10 18q-1 7 6 10l236 116q32 14 38 14q12 -1 13 -10q0 -14 -6 -28q-30 -79 -79 -229l-52 -160q-20 -74 -42 -134q-5 -15 -5 -23q2 -23 41 -24h54q8 -2 6 -10l-4 -22q-6 -7 -10 -8q-3 0 -54 1 q-93 2 -104 2q-17 0 -116 -2q-41 -1 -44 -1q-6 1 -4 8l6 24q2 8 12 8h38q46 0 63 19q9 11 15 26q30 83 50 152z" glyph-name="one" unicode="1"/>
<glyph d="M126 80h162q68 1 122 74q6 10 12 8l14 -8q2 -6 -2 -12q-32 -52 -66 -140q-3 -8 -4 -12q-4 -9 -10 -10q-12 1 -20 12q-9 8 -58 8h-214q-20 0 -43 -2q-13 -1 -27 -1q-12 2 -12 13q1 11 14 22q207 153 294 253q86 102 88 180q0 64 -42 91q-21 13 -48 13q-75 -1 -132 -96 q-9 -12 -12 -12l-20 10q-2 4 0 12q26 67 87 115q59 47 127 47q94 0 132 -74q18 -35 18 -79q0 -150 -277 -346q-20 -15 -55 -39q-20 -13 -28 -19v-8z" glyph-name="two" unicode="2"/>
<glyph d="M158 -15q-99 0 -141 60q-17 26 -17 52q0 32 23 44q8 4 17 4q45 -1 46 -54v-13q0 -28 32 -46q19 -11 40 -11q77 0 127 67q41 55 41 128q0 65 -48 100q-15 11 -32 16q-21 10 -22 20q0 12 18 16h2q74 8 117 61q27 34 27 74t-33 60q-20 12 -47 12q-60 0 -111 -56 q-8 -9 -13 -16q-3 -10 -10 -7q-1 1 -2 1l-14 10q-6 5 2 16q52 87 135 113q30 9 61 9q90 0 120 -62q10 -20 10 -41q0 -92 -108 -160q-16 -10 -32 -18q74 -30 86 -109q2 -13 2 -26q0 -104 -90 -177q-83 -67 -186 -67z" glyph-name="three" unicode="3"/>
<glyph d="M298 244l86 228q3 6 3 11q-1 5 -5 6q-7 -1 -14 -7l-242 -222q-14 -11 -3 -15q3 -1 5 -1h170zM372 176l-59 -165q-6 -11 -19 -11h-76q-9 2 -5 14l61 162h-244q-19 2 -22 16q1 15 24 32l436 394q31 26 48 27q11 -2 12 -16q0 -6 -4 -19l-128 -366h90q8 -1 6 -10l-18 -46 q-6 -11 -17 -12h-85z" glyph-name="four" unicode="4"/>
<glyph d="M244 544l-44 -120h4q82 -7 130 -28q96 -50 96 -162q-2 -78 -64 -149q-89 -99 -232 -100q-81 0 -108 32q-8 10 -8 22q3 32 28 34q26 -1 50 -24q19 -18 64 -18q81 0 133 69q35 47 35 98q-1 79 -60 114q-43 21 -98 24q-30 0 -34 4q-7 6 -4 18l94 264q5 8 16 8h198 q32 0 54 29q3 4 8 11q5 5 16 0q14 -9 11 -14q-1 -1 -1 -2l-58 -102q-6 -8 -30 -8h-196z" glyph-name="five" unicode="5"/>
<glyph d="M286 346q-54 0 -82 -35q-3 -3 -4 -5q-43 -65 -48 -175q2 -107 74 -108q68 0 108 100q26 65 26 131v6q0 54 -38 76q-17 10 -36 10zM214 364l4 -4q49 30 114 30q78 0 116 -62q20 -34 20 -77q0 -110 -76 -190q-72 -75 -168 -76q-113 0 -152 93q-16 38 -16 86q0 162 142 311 q107 113 236 161q4 1 6 2q17 7 26 7q13 -2 14 -18q0 -15 -12 -18q-146 -68 -233 -210q-11 -17 -21 -35z" glyph-name="six" unicode="6"/>
<glyph d="M262 630h266q13 -2 14 -10q-1 -4 -8 -18q-20 -26 -84 -144q-13 -25 -22 -42q-135 -252 -181 -356q-1 -3 -2 -5q-26 -60 -55 -68q-7 -2 -14 -2q-33 0 -39 30q-1 5 -1 10q0 23 24 61q101 144 146 216q44 67 146 242h-196q-57 0 -90 -35q-9 -11 -30 -39q-7 -8 -18 -2 q-11 11 -8 16l86 170q6 12 14 11q2 -1 4 -1q10 -4 9 -10q-1 -5 -1 -7q2 -17 40 -17z" glyph-name="seven" unicode="7"/>
<glyph d="M318 354q110 58 116 147v12q0 51 -37 79q-24 17 -57 17q-68 0 -96 -55q-12 -25 -12 -54q0 -52 61 -119q10 -12 25 -27zM248 284q-86 -43 -107 -112q-7 -25 -7 -53q0 -63 46 -91q20 -11 40 -11q76 0 102 74q8 22 8 41q0 65 -56 125q-9 10 -26 27zM364 645q94 0 135 -62 q19 -28 19 -61q-1 -110 -176 -194q69 -69 82 -118q4 -17 4 -33q0 -87 -70 -144q-61 -48 -146 -48q-120 0 -155 88q-9 24 -9 47q0 98 138 168q9 5 40 20q-49 58 -54 65q-34 49 -34 90q0 71 59 125q65 57 167 57z" glyph-name="eight" unicode="8"/>
<glyph d="M268 276q57 0 90 54q42 77 44 174q-7 98 -68 103q-70 0 -110 -107q-24 -65 -24 -124q0 -65 35 -90q15 -10 33 -10zM330 256l-4 4q-21 -13 -36 -18q-22 -6 -50 -6q-101 0 -133 91q-11 29 -11 59q0 92 62 170q73 88 180 89q132 0 157 -119q5 -24 5 -52q0 -162 -133 -308 q-108 -118 -244 -167q-15 -5 -29 -9q-21 -5 -22 -5q-11 3 -14 15q1 14 10 18q151 72 236 197q13 19 26 41z" glyph-name="nine" unicode="9"/>
<glyph d="M252 354q0 -37 -34 -55q-15 -7 -32 -7q-40 0 -56 35q-6 14 -6 29q0 34 30 52q14 8 32 8q49 0 63 -44q3 -10 3 -18zM84 -10q-40 0 -56 35q-6 13 -6 27q0 34 28 52q16 10 34 10q49 0 63 -45q3 -10 3 -19q0 -34 -32 -52q-16 -8 -34 -8z" glyph-name="colon" horiz-adv-x="252" unicode=":"/>
<glyph d="M172 292q-40 0 -56 35q-6 13 -6 27q0 32 28 51q16 11 34 11q45 0 62 -42q4 -11 4 -20q0 -37 -34 -55q-15 -7 -32 -7zM168 24q0 -95 -97 -144q-39 -20 -63 -20q-9 0 -11 5q-1 3 -1 5q-1 13 10 16q42 12 69 46q17 22 17 44q0 27 -20 48l-6 6l-6 6q-23 23 -24 42q0 37 28 51 q10 5 20 5q49 0 74 -62q10 -26 10 -48z" glyph-name="semicolon" horiz-adv-x="252" unicode=";"/>
<glyph d="M404 38l-310 184v38l310 182v-72l-220 -124v-4l220 -128v-76z" glyph-name="less" unicode="&lt;"/>
<glyph d="M72 140v64h392v-64h-392zM464 294h-392v64h392v-64z" glyph-name="equal" unicode="="/>
<glyph d="M432 258v-38l-310 -182v72l220 124v6l-220 128v74z" glyph-name="greater" unicode="&gt;"/>
<glyph d="M174 -10q-34 0 -51 29q-7 13 -7 27q0 36 29 53q13 7 27 7q43 0 55 -39q3 -11 3 -21q0 -28 -25 -46q-15 -10 -31 -10zM322 232l10 -10q2 -3 2 -8q-34 -44 -81 -58q-15 -4 -29 -4q-67 0 -92 52q-10 23 -10 51q0 84 133 157q5 3 21 12q73 42 94 65q28 33 28 78q0 39 -33 63 q-24 17 -57 17q-67 0 -99 -43q-15 -21 -15 -45q0 -35 23 -41q3 -1 5 -1q13 1 16 8q-2 9 -2 20q0 31 27 45q12 5 25 5q33 0 41 -32q1 -6 1 -12q0 -47 -48 -68q-20 -8 -40 -8q-59 0 -80 44q-8 17 -8 38q0 52 49 91q47 37 113 37q114 0 149 -86q9 -23 9 -45q-1 -161 -192 -232 q-93 -37 -110 -63q-6 -10 -6 -20q9 -38 64 -41q48 0 84 36q6 1 8 -2z" glyph-name="question" horiz-adv-x="426" unicode="?"/>
<glyph d="M370 220q30 0 103 94q36 45 45 66q22 42 22 74q-5 42 -34 46q-49 0 -106 -94q-51 -92 -56 -154q2 -31 26 -32zM516 647q-130 0 -232 -110q-92 -99 -109 -226q-3 -24 -3 -46q0 -133 95 -198q61 -42 143 -42q105 1 164 34l12 4l10 -22q-2 -6 -8 -10q-52 -35 -153 -44 q-21 -2 -41 -2q-173 0 -255 106q-51 67 -51 158q0 148 107 273q102 119 245 153q44 10 88 10q185 0 242 -135q22 -52 22 -118q0 -100 -70 -177q-81 -89 -206 -89q-37 0 -45 25q-1 4 -1 7q1 29 28 98l-6 2q-106 -128 -176 -132q-47 0 -56 47q-2 9 -2 19q0 78 75 176 q71 93 145 117q19 7 36 7q40 -1 60 -32l10 14q9 10 16 10h46q9 -1 6 -10q-31 -62 -65 -152q-2 -5 -3 -8q-36 -100 -36 -130q2 -17 26 -18q37 0 79 45q69 72 69 190q0 150 -118 192q-39 14 -88 14z" glyph-name="at" horiz-adv-x="774" unicode="@"/>
<glyph d="M478 336l74 256q4 12 -8 13q-7 -1 -12 -5l-210 -264h156zM466 300h-172l-116 -148q-51 -70 -52 -89q2 -25 38 -26h30q6 -2 6 -8l-4 -23q-3 -8 -10 -9h-14q-60 3 -122 3q-51 0 -102 -2q-13 -1 -16 -1q-8 2 -8 10l4 22q3 7 8 8h14q50 0 103 53q9 9 16 17l467 553 q9 10 26 10q28 0 64 7q8 1 22 4.5t18 3.5q11 0 11 -9q-1 -2 -1 -3l-148 -553q-10 -40 -10 -55q0 -21 25 -27q6 -1 11 -1h25q7 -2 7 -8l-4 -24q-3 -7 -13 -8q-3 0 -16 1q-57 2 -113 2q-52 0 -103 -2q-18 -1 -25 -1q-7 2 -6 11l4 21q3 7 9 8h17q38 0 54 21q13 19 24 58z" glyph-name="A" horiz-adv-x="650" unicode="A"/>
<glyph d="M370 636l-74 -272q17 -4 50 -4q105 0 153 69q28 40 29 97q0 56 -52 90q-34 22 -74 22q-22 0 -32 -2zM288 326l-60 -224q-5 -20 -5 -30q1 -20 15 -28q18 -12 62 -12q96 0 139 77q21 39 21 85q0 96 -103 124q-28 7 -57 8h-12zM114 96l126 474q6 24 6 37q-5 24 -46 26h-28 q-7 1 -7 8l4 23q3 6 13 6h76q28 0 79 2h39q27 1 40 1q111 -1 164 -33q59 -38 60 -106q0 -128 -149 -177q-28 -9 -59 -15q-3 0 -3 -1q0 -2 1 -3q147 -39 148 -162q0 -62 -48 -112q-5 -4 -8 -7q-68 -60 -222 -60q-24 0 -73 1q-49 2 -73 2q-23 0 -70 -2q-47 -1 -70 -1 q-9 0 -8 8v2l4 22q2 7 8 8h36q42 0 58 54q1 3 2 5z" glyph-name="B" horiz-adv-x="626" unicode="B"/>
<glyph d="M722 639l-54 -208q-4 -7 -10 -6l-20 2q-6 2 -6 10q3 20 3 40q0 96 -60 139q-35 25 -83 25q-90 0 -158 -84q-11 -14 -22 -30q-89 -129 -97 -289q-1 -12 -1 -23q0 -122 83 -166q29 -16 59 -16q165 2 244 174q6 7 10 6l20 -6q6 -3 6 -8l-72 -216q-5 -5 -10 -4l-20 4 q-3 5 -2 8q0 3 1 9t1 9q-3 13 -14 16q-15 0 -42 -12q-38 -19 -109 -26q-16 -2 -29 -2q-133 0 -204 86q-50 62 -50 149q1 195 142 349q108 115 258 116q75 -1 132 -38q31 -25 46 -26q20 0 26 24v2q4 8 10 6l16 -4q8 -2 6 -10z" glyph-name="C" horiz-adv-x="664" unicode="C"/>
<glyph d="M365 624l-129 -518q-6 -27 -6 -42q5 -25 58 -27q165 1 260 79q69 56 104 161q20 60 20 119q0 90 -53 153l-13 13q-46 46 -99 60q-47 13 -97 13q-42 -1 -45 -11zM124 114l117 469q2 10 2 14q-3 34 -43 36h-49q-7 0 -7 5v4l6 22q3 6 12 6q15 0 82 2q43 1 114 1 q206 0 303 -53q31 -17 55 -40q69 -71 74 -162v-20q0 -185 -138 -297q-23 -18 -46 -32q-125 -72 -318 -72h-16q-14 0 -65 1.5t-65 1.5q-72 0 -119 -3h-8q-9 2 -9 10l5 22q3 7 10 8h25q58 0 77 75q1 1 1 2z" glyph-name="D" horiz-adv-x="796" unicode="D"/>
<glyph d="M622 180l12 -8q3 -5 2 -11l-52 -146q-7 -17 -22 -18q-4 0 -35 1q-43 1 -71 1q-58 1 -198 1h-130q-17 0 -48 -1h-35l-44 -2q-6 0 -6 4v4l4 26q3 5 7 6h32q54 1 70 53l153 475q4 14 4 25q-6 40 -53 43h-32q-8 2 -6 10l6 22q4 8 12 8h11q28 -1 47 -1q58 -2 86 -2h72 q127 0 167 1q18 0 44 1q25 1 31 1q16 0 19 -11q2 -4 3 -9l30 -134q0 -8 -4 -11l-12 -6q-5 -1 -12 6l-102 118q-9 8 -18 8h-156l-84 -259h86q53 0 81 27q20 21 37 56q4 5 8 6l18 -6q5 -1 4 -6q-24 -56 -47 -168q-4 -21 -5 -32q-3 -6 -8 -6h-18q-6 4 -6 10q0 62 -45 76 q-23 7 -65 7h-50l-98 -303h224q46 1 88 38q12 10 86 97q4 5 6 7q5 6 12 2z" glyph-name="E" horiz-adv-x="677" unicode="E"/>
<glyph d="M394 633l-82 -265l120 2q65 2 93 55q10 19 19 49q4 6 12 4l18 -2q5 -5 4 -10l-60 -250q-3 -7 -10 -6l-18 2q-7 3 -6 10q3 22 3 39q0 54 -41 64q-10 2 -22 3l-124 5l-67 -222q-9 -29 -9 -44q7 -28 38 -30h30q8 -1 8 -8l-6 -24q-4 -8 -12 -8q-3 0 -14 1q-54 2 -122 2 q-69 0 -119 -2q-10 -1 -13 -1q-6 0 -6 8v2l4 22q4 7 10 8h26q46 2 64 59l156 499q3 9 3 17q0 21 -27 21h-30q-7 2 -6 10l4 20q3 9 14 10q3 0 41 -2q21 -1 77 -1q190 0 258 4q34 0 65 5l31 5q10 -1 10 -16l20 -156q1 -7 -4 -10l-16 -8q-8 0 -12 8q-11 26 -59 93 q-10 14 -15 19q-15 13 -21 14q-4 1 -23 2q-27 3 -184 3z" glyph-name="F" horiz-adv-x="632" unicode="F"/>
<glyph d="M500 88l22 104q2 14 2 18q-2 29 -38 30h-33q-10 2 -9 11l4 21q3 7 10 8q5 0 21 -1q55 -2 111 -2t102 2q12 1 16 1q8 -2 8 -12l-2 -20q-3 -7 -10 -8h-16q-40 -2 -48 -34l-34 -153q-5 -14 -20 -22q-108 -46 -200 -46q-151 0 -235 99q-63 74 -63 173q0 169 113 292 q106 114 257 133q25 3 50 3q99 -1 162 -50q14 -12 24 -12q13 0 24 24l4 8q2 6 10 4l14 -4q5 -2 6 -8l-58 -200q-4 -7 -10 -6h-20q-9 0 -6 12q2 18 2 28q0 87 -59 132q-41 31 -101 31q-107 0 -189 -104q-88 -111 -96 -267q-1 -14 -1 -27q0 -136 86 -192q39 -25 82 -25 q65 0 98 23q13 9 20 36z" glyph-name="G" horiz-adv-x="722" unicode="G"/>
<glyph d="M592 324h-312q-9 -1 -12 -6l-70 -217q-8 -24 -8 -36q4 -27 38 -28h30q7 -1 8 -8l-4 -22q-4 -9 -12 -10h-14q-59 3 -124 3q-61 0 -113 -3h-11q-8 0 -9 7q1 2 1 3l4 22q4 8 10 8h24q37 0 58 50q5 11 9 23l157 477q3 9 3 16q-5 27 -33 30h-36q-7 2 -6 10l4 22q4 8 10 8h14 q68 -3 126 -3q46 0 106 2q15 1 18 1q9 -1 10 -8l-8 -24q-2 -7 -8 -8h-24q-38 0 -53 -27q-5 -10 -9 -23l-70 -215q0 -5 6 -6h312q7 1 10 6l71 225q2 6 2 14q-2 25 -33 26h-20q-5 2 -6 10l6 24q2 5 10 6h14q64 -3 112 -3q43 0 96 2q13 1 16 1q10 0 10 -6v-2l-6 -24 q-1 -6 -8 -8h-24q-35 0 -51 -40q-1 -5 -3 -10l-156 -478q-6 -18 -6 -34q1 -33 26 -34h36q8 0 9 -7q-1 -2 -1 -3l-6 -22q-2 -8 -12 -8h-12q-53 3 -116 3q-61 0 -119 -2q-14 -1 -17 -1q-8 2 -8 12l4 18q2 9 8 10h28q37 0 58 41q9 18 18 44l64 194q1 7 -6 8z" glyph-name="H" horiz-adv-x="786" unicode="H"/>
<glyph d="M120 108l126 459q5 17 5 32q-2 33 -33 34h-46q-9 2 -10 8l6 26q0 6 12 6q3 0 20 -1q69 -2 126 -2q61 0 123 2q15 1 19 1q15 0 12 -12l-6 -20q-2 -7 -10 -8h-26q-46 0 -64 -27q-9 -16 -16 -40l-124 -461q-5 -18 -5 -29q2 -38 49 -39h36q8 -2 6 -10l-2 -20q-7 -9 -12 -10 h-16q-69 3 -144 3q-61 0 -129 -2q-16 -1 -19 -1q-7 2 -8 10l6 22q2 7 8 8h38q47 0 62 25q7 13 16 46z" glyph-name="I" horiz-adv-x="374" unicode="I"/>
<glyph d="M386 554l-130 -438q-47 -162 -104 -232q-71 -83 -166 -84q-78 0 -99 52q-5 11 -5 22q0 45 34 58q10 4 20 4q32 0 43 -31q3 -8 3 -15q0 -13 -4 -28q-2 -5 -2 -12q5 -12 30 -12q50 0 91 109q11 31 23 73l155 544q6 20 6 35q-2 33 -39 34h-32q-10 2 -10 8l6 24q2 7 10 8h12 q64 -3 132 -3q57 0 114 2q11 1 14 1q8 -2 8 -10l-4 -22q-2 -8 -10 -8h-26q-39 0 -61 -52q-5 -13 -9 -27z" glyph-name="J" horiz-adv-x="380" unicode="J"/>
<glyph d="M294 320l-70 -217q-5 -14 -5 -29q5 -34 33 -37h24q7 -2 6 -10l-4 -20q-2 -9 -12 -10q-3 0 -18 1q-60 2 -114 2q-62 0 -110 -3h-10q-8 2 -8 14l4 18q6 7 12 8h20q46 2 65 57l155 477q6 18 6 30q-2 31 -34 32h-24q-10 0 -10 7v3l8 24q5 6 12 6h11q53 -3 111 -3q63 0 113 2 q12 1 15 1q6 -2 5 -10l-3 -22q-2 -8 -12 -8h-22q-42 -2 -59 -49l-75 -230q54 1 76 22q195 169 235 221q2 2 3 4q8 11 8 19q-2 14 -24 15h-12q-9 2 -8 10l4 20q4 8 10 8q3 0 15 -1q57 -2 107 -2q44 0 85 2q9 1 11 1q12 -2 11 -10l-3 -20q-5 -9 -10 -10h-30q-38 -1 -76 -29 q-50 -37 -292 -252q28 -52 148 -229q22 -32 29 -41q30 -37 59 -44q5 -1 8 -1h26q9 -1 10 -10l-4 -20q-4 -10 -14 -10q-3 0 -14 1q-49 2 -114 2q-35 0 -80 -2l-46 -1q-8 0 -9 7q1 2 1 3l2 20q2 9 8 10h12q28 0 33 16q1 3 1 4q-1 4 -3 8t-27 47q-100 172 -112 190 q-13 17 -34 18z" glyph-name="K" horiz-adv-x="716" unicode="K"/>
<glyph d="M606 180l14 -6q7 -4 6 -8t-9 -29q-33 -111 -39 -135q-3 -17 -12 -18q-4 0 -14 3l-12 3q-19 6 -38 6q-6 0 -42 1q-146 3 -246 3q-96 0 -134 -1q-19 0 -47 -1q-21 -1 -25 -1q-9 0 -8 8v2l4 22q3 7 10 8h18q42 0 60 28q11 17 19 43l143 463q6 20 6 31q-2 30 -40 31h-36 q-9 2 -8 10l6 24q3 6 12 6q3 0 17 -1q62 -2 125 -2q73 0 138 3h14q8 -2 8 -10l-4 -22q-3 -7 -12 -8h-40q-38 0 -54 -26q-9 -15 -17 -39l-157 -504q-2 -8 -2 -11q2 -16 26 -16h60q143 0 164 4q21 3 39 20q35 30 90 103q6 7 7 10q4 8 10 6z" glyph-name="L" horiz-adv-x="648" unicode="L"/>
<glyph d="M376 22l-64 530q-2 14 -7 13q-4 -3 -7 -9l-134 -398q-19 -59 -19 -86q1 -34 25 -35h32q7 -2 8 -10l-4 -20q-2 -9 -12 -10q-3 0 -14 1q-46 2 -88 2q-34 0 -66 -2l-32 -1q-5 2 -6 10l4 22q4 8 8 8h20q46 0 74 57q10 23 26 68l138 396q10 23 10 46q-2 28 -44 29h-36 q-11 1 -12 10l4 20q5 9 12 10h11q71 -3 187 -3q16 0 18 -13q1 -4 2 -9l56 -466q2 -14 10 -15q6 0 12 9l338 478q11 16 28 16q74 0 155 3h19q9 -2 10 -10l-4 -22q-4 -8 -10 -8h-26q-32 -2 -52 -71l-128 -464q-4 -14 -4 -26q1 -34 30 -35h30q7 -1 8 -8l-4 -22q-4 -10 -12 -10 q-3 0 -15 1q-56 2 -119 2q-61 0 -116 -3h-14q-10 2 -10 12l2 18q5 9 12 10h22q50 0 70 46q4 10 8 23l138 482q2 12 -6 11q-5 -1 -10 -7l-408 -576q-11 -16 -28 -16q-12 2 -16 22z" glyph-name="M" horiz-adv-x="954" unicode="M"/>
<glyph d="M550 20l-252 514q-9 14 -14 3q-1 -2 -2 -5l-100 -334q-23 -78 -23 -115q1 -45 35 -46h38q9 -2 10 -10l-4 -21q-7 -8 -12 -9q-3 0 -16 1q-56 2 -104 2q-50 0 -98 -2q-13 -1 -16 -1q-8 2 -7 11l3 21q5 7 10 8h22q44 0 72 53q13 26 28 70l122 386q7 21 7 39q-2 47 -51 48 h-38q-10 2 -8 12l4 18q5 9 12 10h14q68 -3 156 -3q19 0 29 -23q1 -2 1 -3l222 -462q4 -6 8 -7q5 0 11 19q1 1 1 2l106 324q15 50 15 75q-2 37 -31 38h-30q-11 0 -11 6q1 2 1 4l2 22q5 7 10 8q4 0 16 -1q49 -2 98 -2q34 0 69 2q12 1 17 1q12 -2 10 -14l-4 -18q-2 -7 -8 -8 h-26q-35 0 -63 -79q-1 -1 -1 -2l-184 -526q-9 -21 -20 -26q-17 2 -26 20z" glyph-name="N" horiz-adv-x="764" unicode="N"/>
<glyph d="M481 637q-81 -1 -144 -74q-86 -96 -125 -235q-17 -63 -17 -115q0 -127 83 -168q30 -14 65 -14q95 0 176 113q83 117 99 275q3 27 3 52q0 112 -73 151q-30 15 -67 15zM457 685q143 0 217 -102q55 -77 55 -190q0 -147 -87 -263q-95 -128 -244 -143q-19 -2 -37 -2 q-112 1 -180 66q-88 86 -88 230q0 151 92 268q95 119 237 134q18 2 35 2z" glyph-name="O" horiz-adv-x="726" unicode="O"/>
<glyph d="M368 637l-84 -315q26 -16 78 -16q106 0 157 89q27 48 27 103q0 104 -92 133q-25 8 -50 8q-26 0 -36 -2zM274 284l-46 -176q-5 -19 -5 -32q2 -38 37 -39h38q9 -2 8 -10l-2 -21q-3 -9 -12 -9q-3 0 -17 1q-62 2 -125 2q-58 0 -113 -2q-15 -1 -19 -1q-7 2 -8 10l2 20 q5 9 12 10h18q49 0 69 58q3 9 6 19l119 450q6 24 6 35q-2 33 -32 34h-46q-6 2 -6 10l6 21q4 6 14 6q4 0 59 1q140 2 163 2q119 0 166 -22q20 -10 38 -25q48 -39 57 -90q3 -20 3 -46q0 -100 -83 -161q-78 -57 -207 -57q-64 0 -100 12z" glyph-name="P" horiz-adv-x="608" unicode="P"/>
<glyph d="M349 30q91 0 175 111q86 114 108 263q5 37 5 71q0 122 -85 154q-26 10 -57 10q-107 0 -199 -134q-77 -111 -98 -238q-5 -31 -5 -57q0 -147 111 -175q21 -5 45 -5zM201 -90l2 -8q45 8 114 8q123 -1 180 -76q41 -57 63 -61q4 -1 7 -1q25 0 32 23q2 5 2 9q0 9 -6 24 q-8 12 -8 32q0 34 32 41q6 1 12 1q38 0 43 -41q1 -5 1 -9q0 -70 -73 -101q-38 -15 -83 -15q-65 1 -114 52q-58 58 -122 72q-34 8 -76 8q-40 0 -50 -10q-20 -29 -42 -30q-28 7 -32 42q0 38 210 117q5 2 8 3v6q-134 25 -184 148q-24 61 -24 139q0 127 87 249q26 36 49 57 q66 55 110 72q59 24 140 24q144 0 215 -100q51 -71 51 -179q0 -124 -71 -244q-20 -33 -43 -60q-69 -79 -191 -111q-7 -2 -13 -3q-114 -25 -209 -69q-10 -5 -17 -9z" glyph-name="Q" horiz-adv-x="742" unicode="Q"/>
<glyph d="M380 637l-88 -279h28q75 0 132 24q60 25 86 88q12 30 12 62q0 53 -44 84q-34 23 -84 23q-30 0 -42 -2zM281 323l-67 -214q-8 -24 -8 -42q2 -29 30 -30h42q7 0 7 -5q-1 -2 -1 -3l-2 -24q-4 -8 -12 -8q-3 0 -17 1q-63 2 -125 2q-50 0 -103 -2q-13 -1 -17 -1q-8 2 -6 10 l4 22q2 8 10 8h26q32 0 48 41q1 4 2 6l160 499q4 12 4 24q-2 25 -34 26h-34q-9 0 -9 4q1 2 1 4l4 21q5 8 14 8q68 0 184 2q42 1 52 1q161 0 210 -63q26 -33 26 -82q0 -82 -86 -140q-65 -43 -150 -52v-4q34 -9 58 -58l24 -48q56 -113 67 -131q34 -53 76 -57q6 -1 11 -1h26 q8 -2 6 -10l-2 -20q-5 -9 -10 -10q-3 0 -12 1q-31 2 -68 2q-38 0 -73 -2q-14 -1 -19 -1q-8 0 -20 20q-7 11 -8 13t-107 229q-5 11 -7 15q-23 49 -79 49h-16z" glyph-name="R" horiz-adv-x="709" unicode="R"/>
<glyph d="M536 665l-36 -190q-4 -5 -8 -6h-18q-9 2 -10 10q1 6 1 20q0 79 -44 117q-27 23 -65 23q-54 0 -79 -52q-11 -22 -11 -45q0 -56 48 -107l24 -24q12 -11 18 -17q54 -54 71 -79q41 -61 41 -134q0 -114 -86 -167q-49 -29 -110 -29q-77 1 -142 74q-14 13 -26 2q-10 -13 -24 -38 q-5 -5 -10 -4l-12 6q-6 2 -5 6q1 2 1 4l74 218q4 4 10 4l16 -4q6 -4 6 -10q-6 -32 -6 -58q0 -97 64 -138q27 -16 54 -16q62 0 93 51q15 25 15 54q0 50 -52 106q-6 7 -19 20q-16 16 -23 24q-65 71 -84 104q-30 54 -30 119q0 69 50 122q53 54 136 54q57 0 118 -46q9 -4 14 -4 q9 2 16 34q2 4 10 4l12 -2q7 -1 8 -6z" glyph-name="S" horiz-adv-x="508" unicode="S"/>
<glyph d="M366 670h250q111 0 144 18q9 4 10 4q7 -2 8 -8q-7 -56 -10 -174v-15v-13q-2 -7 -8 -9l-16 -3q-8 0 -13 14q-1 1 -1 2q-21 85 -40 120q-29 22 -124 26h-16h-20l-158 -510q-10 -33 -10 -48q0 -33 39 -36q6 -1 13 -1h40q7 -2 6 -10l-4 -20q-3 -9 -12 -10q-4 0 -18 1 q-63 2 -130 2q-74 0 -146 -3h-15q-9 2 -9 10l2 22q3 8 12 8h26q50 0 72 37q13 22 26 64l154 494h-26q-129 -1 -159 -22q-42 -31 -111 -112q-5 -4 -12 -4l-16 10q-4 4 -2 10q23 43 75 164q1 3 1 4q5 9 10 10q7 -1 16 -8q48 -14 172 -14z" glyph-name="T" horiz-adv-x="662" unicode="T"/>
<glyph d="M743 554l-86 -274q-56 -181 -148 -246q-70 -49 -170 -49q-143 0 -199 85q-27 42 -27 98q0 53 20 126l86 277q5 15 5 31q-2 30 -33 31h-36q-6 0 -6 4v4l4 24q5 8 14 8q3 0 15 -1q56 -2 123 -2q59 0 111 2q10 1 13 1q10 -2 10 -12l-4 -20q-3 -7 -10 -8h-28q-40 0 -57 -44 q-2 -5 -3 -9l-82 -268q-26 -94 -29 -119q-1 -11 -1 -20q0 -103 93 -128q22 -6 43 -6q75 0 125 40q3 3 5 4q65 57 104 177l8 26l72 256q9 33 9 53q-2 37 -33 38h-32q-10 1 -9 8l3 22q5 9 14 10q4 0 18 -1q52 -2 96 -2q41 0 77 2q10 1 13 1q10 0 11 -7q0 -3 -1 -5l-4 -20 q-2 -7 -10 -8h-16q-43 -2 -68 -79z" glyph-name="U" horiz-adv-x="720" unicode="U"/>
<glyph d="M282 182l276 368q30 41 30 65q0 18 -18 18h-20q-12 2 -11 10l5 22q2 8 12 8q5 0 21 -1q46 -2 81 -2t66 2l30 1q12 -1 11 -9l-3 -21q-5 -9 -10 -10h-22q-46 -1 -124 -99l-427 -536q-14 -17 -32 -18q-15 2 -16 20q0 5 2 18l79 561q1 5 1 12q-2 41 -39 42h-32q-11 2 -10 9 l6 21q6 9 10 10q4 0 19 -1q63 -2 123 -2q51 0 108 2q14 1 18 1q11 0 11 -5q-1 -3 -1 -4l-3 -23q-3 -8 -11 -8h-28q-47 -2 -55 -41l-69 -400q-1 -4 -1 -9q1 -12 7 -13q8 1 16 12z" glyph-name="V" horiz-adv-x="612" unicode="V"/>
<glyph d="M323 580l-67 -406q-2 -11 5 -11q5 1 11 7l232 332q36 54 36 97q-2 33 -26 34h-14q-7 2 -8 7l4 27q5 6 12 6q3 0 13 -1q42 -2 85 -2q35 0 66 2l30 1q9 0 9 -5v-3l-3 -24q-4 -8 -12 -8h-16q-26 0 -31 -43q-1 -2 -1 -4l-50 -416q-2 -15 4 -16q4 2 10 8q27 31 138 218 q67 112 99 194q1 4 2 7q5 14 5 25q-2 26 -28 27h-16q-9 0 -8 7v2l4 21q2 9 10 10q5 0 19 -1q38 -2 71 -2q40 0 82 2q14 1 18 1q9 0 10 -4v-3l-4 -25q-4 -7 -8 -8h-18q-32 -1 -52 -27q-17 -24 -184 -302q-54 -89 -165 -242q-24 -34 -37 -50q-28 -30 -41 -32q-18 2 -18 26v10 l29 420q1 9 -3 9q-5 -1 -11 -7q-243 -340 -312 -426q-3 -4 -5 -6q-23 -25 -38 -26q-14 2 -15 25q0 11 1 17l71 559q1 8 1 20q-2 31 -23 32h-24q-9 0 -9 5v4l3 23q4 8 12 8q3 0 15 -1q54 -2 101 -2q43 0 94 2q14 1 18 1q11 0 11 -5q-1 -3 -1 -4l-4 -23q-2 -7 -10 -8h-16 q-36 0 -47 -29q-4 -11 -6 -24z" glyph-name="W" horiz-adv-x="872" unicode="W"/>
<glyph d="M418 374l100 -286q13 -37 46 -48q8 -3 16 -3h21q8 -2 8 -8l-3 -24q-3 -8 -10 -8h-12q-50 3 -110 3q-42 0 -94 -2q-20 -1 -26 -1q-8 2 -7 12l3 20q3 7 9 8h17q27 1 28 24q0 6 -2 13q-15 53 -72 224q-4 -4 -33 -34q-139 -140 -169 -182q-9 -12 -9 -25q2 -19 25 -20h18 q6 -2 6 -9l-2 -23q-2 -7 -12 -8q-3 0 -17 1q-55 2 -107 2q-32 0 -81 -2q-17 -1 -21 -1q-9 2 -9 10l3 20q3 9 10 10h22q39 0 85 38q18 14 21 17q31 24 242 227q12 11 16 15l-82 238q-18 52 -43 59q-6 2 -13 2h-26q-8 2 -8 10l4 21q3 8 10 9q4 0 22 -1q59 -2 104 -2q42 0 88 2 q16 1 20 1q8 0 8 -6v-2l-2 -24q-2 -7 -10 -8h-18q-25 -2 -26 -25q0 -8 4 -23l56 -175q41 37 136 141q30 32 36 41q5 9 5 16q-6 22 -29 25h-18q-8 0 -8 6v2l4 24q3 8 12 8q4 0 18 -1q52 -2 94 -2q37 0 77 2q13 1 17 1q9 0 10 -5v-4l-3 -23q-3 -7 -9 -8h-18q-26 -1 -78 -35 q-3 -2 -213 -204q-17 -16 -21 -20z" glyph-name="X" horiz-adv-x="628" unicode="X"/>
<glyph d="M376 204l-24 -111q-4 -16 -4 -29q0 -23 21 -26q8 -1 19 -1h22q7 -1 8 -8l-4 -22q-2 -9 -10 -10q-5 0 -20 1q-54 2 -108 2q-66 0 -118 -2q-11 -1 -14 -1q-8 2 -8 10l4 22q2 7 10 8h22q53 0 64 45l2 6l32 148q2 6 2 20q0 18 -4 32l-104 307q-14 37 -62 38h-22q-7 2 -8 8 l4 24q4 8 10 8q4 0 17 -1q48 -2 103 -2q63 0 117 2q12 1 15 1q9 -2 10 -8l-2 -24q-4 -8 -10 -8h-26q-28 -1 -29 -26q0 -9 3 -18l80 -269q3 -12 9 -12q6 2 11 10q3 4 22 33q135 204 144 229q5 17 5 25q-2 27 -39 28h-22q-8 2 -6 10l2 22q2 8 12 8q5 0 22 -1q49 -2 86 -2 q42 0 87 2q15 1 19 1q9 -2 10 -10l-4 -20q-2 -9 -8 -10h-18q-43 -1 -74 -43q-162 -223 -209 -296q-2 -3 -3 -4q-23 -37 -34 -86z" glyph-name="Y" horiz-adv-x="582" unicode="Y"/>
<glyph d="M382 0h-315q-14 1 -15 10q1 8 8 16l515 604h-76q-170 0 -215 -12q-56 -13 -92 -73q-5 -8 -8 -15q-4 -7 -10 -4l-16 6q-4 1 -4 6l42 138q5 11 10 12q8 -1 16 -6q21 -10 144 -12h345q12 -1 13 -11q-1 -11 -6 -17l-511 -602h78q156 0 229 18q66 18 114 96q4 7 10 4l14 -8 q6 -2 4 -10l-52 -146q-4 -8 -10 -8q-7 0 -18 4q-23 10 -194 10z" glyph-name="Z" horiz-adv-x="682" unicode="Z"/>
<glyph d="M114 -170h124q6 0 6 -4v-4l-6 -22q-2 -8 -14 -8h-206q-8 2 -6 14l256 934q4 10 14 10h198q9 0 8 -6v-2l-8 -24q-2 -6 -14 -6h-110q-9 0 -13 -12q-1 -1 -1 -2l-234 -858q-1 -9 6 -10z" glyph-name="bracketleft" horiz-adv-x="316" unicode="["/>
<glyph d="M116 671l40 12q9 3 12 -6l134 -670q1 -9 -8 -10l-40 -12q-5 0 -7 10q-1 1 -1 2l-136 664q-1 7 6 10z" glyph-name="backslash" horiz-adv-x="320" unicode="\"/>
<glyph d="M100 -208h-198q-9 0 -8 6v2l6 24q3 6 12 6h114q9 0 12 12v2l236 858q1 9 -6 10h-124q-7 2 -8 8l6 22q4 8 12 8h208q8 -2 6 -14l-254 -934q-4 -10 -14 -10z" glyph-name="bracketright" horiz-adv-x="316" unicode="]"/>
<glyph d="M426 264l-154 314h-4l-152 -314h-70l210 422h32l210 -422h-72z" glyph-name="asciicircum" unicode="^"/>
<glyph d="M0 -125v50h500v-50h-500z" glyph-name="underscore" unicode="_"/>
<glyph d="M250 470l-120 84q-18 15 -19 33q0 25 22 36q8 3 15 3q19 -1 38 -24l82 -115q2 -5 1 -8l-9 -9q-4 -2 -10 0z" glyph-name="grave" horiz-adv-x="240" unicode="`"/>
<glyph d="M144 58q31 0 112 106q40 52 52 78q24 48 24 90q0 21 -22 36q-12 8 -24 8q-40 -1 -82 -61q-70 -99 -82 -199q-2 -14 -2 -26q1 -31 24 -32zM404 418h54q8 -2 6 -10q-40 -94 -72 -191q-1 -3 -2 -5q-2 -7 -16 -54q-26 -84 -26 -92q2 -11 12 -12q16 1 62 58q7 5 10 3l12 -9 q3 -3 0 -12q-14 -27 -56 -61q-53 -42 -102 -43q-31 1 -32 26q0 19 41 138q1 1 1 2l-6 2q-114 -167 -206 -168q-29 0 -49 31q-13 19 -13 41q0 92 69 201q70 111 153 143q27 10 52 10q51 -1 76 -34l16 28q6 8 16 8z" glyph-name="a" horiz-adv-x="467" unicode="a"/>
<glyph d="M326 356q-35 0 -96 -67q-23 -27 -44 -57q-45 -67 -64 -141q-4 -17 -4 -27q2 -33 36 -34q44 1 103 63q93 102 99 207v11q0 38 -24 44q-3 1 -6 1zM192 675h152q14 -2 8 -17l-162 -362l8 -2q88 121 182 122q50 0 68 -47q6 -17 6 -34q0 -84 -66 -179q-24 -35 -54 -66 q-79 -82 -176 -96q-26 -4 -54 -4q-57 0 -75 42q-5 13 -5 28q0 23 14 60q7 17 194 479q6 17 6 24q-2 15 -24 16h-30q-9 0 -8 6v2l6 20q4 8 10 8z" glyph-name="b" horiz-adv-x="460" unicode="b"/>
<glyph d="M265 96l14 -10q5 -5 2 -10q-23 -34 -71 -61q-43 -25 -83 -25q-46 0 -73 39q-17 26 -17 60q0 105 64 207q65 103 146 118q12 2 23 2q50 0 66 -40q3 -9 3 -16q0 -32 -26 -46q-9 -4 -16 -4q-26 2 -34 24q-14 29 -31 30q-31 -2 -60 -68q-39 -94 -39 -176q1 -71 41 -72 q36 0 76 37l7 7q4 6 8 4z" glyph-name="c" horiz-adv-x="318" unicode="c"/>
<glyph d="M342 322q0 41 -33 54q-10 4 -21 4q-44 0 -99 -100q-52 -97 -62 -176q-1 -10 -1 -18q4 -31 26 -34q38 1 126 126q51 70 62 127q2 10 2 17zM396 675h146q15 0 16 -12q0 -3 -1 -5q-28 -68 -152 -441q-33 -99 -39 -123q-5 -22 -5 -31q2 -12 11 -13q3 0 6.5 1.5t7.5 4t8.5 6 t9 7.5t8.5 7.5t8.5 8l7 7l5.5 5.5l3 3q6 5 11 1l13 -11q2 -4 0 -10q-30 -38 -79 -66q-43 -24 -81 -24q-33 2 -34 26q0 29 40 140l-10 4q-74 -121 -150 -158q-25 -12 -48 -12q-45 0 -65 44q-9 19 -9 38q0 82 62 182q30 48 67 85q78 76 149 77q44 -1 71 -32l67 217q2 8 2 13 q-2 24 -28 25h-30q-8 2 -8 6l4 24q5 6 16 6z" glyph-name="d" horiz-adv-x="480" unicode="d"/>
<glyph d="M260 368q-42 0 -84 -78q-20 -38 -28 -72q36 0 82 26q10 6 18 12q40 36 42 76q-2 35 -30 36zM300 110l15 -11q5 -5 3 -9q-28 -46 -86 -77q-46 -23 -92 -23q-88 0 -103 77q-3 14 -3 29q0 96 66 192q26 37 58 66q70 60 150 62q50 0 66 -38q4 -11 4 -21q0 -76 -88 -127l-4 -2 q-74 -38 -146 -42q-10 -26 -10 -74q0 -45 35 -60q10 -4 19 -4q59 0 103 53q3 4 5 7q5 3 8 2z" glyph-name="e" horiz-adv-x="370" unicode="e"/>
<glyph d="M247 394h102q8 -2 6 -10l-5 -26q-3 -8 -11 -8h-100q-5 -17 -17 -61q-58 -214 -91 -305q-103 -280 -252 -281q-63 0 -80 40q-4 11 -4 22q0 33 28 45q9 3 18 3q37 0 48 -39q1 -7 2 -13q5 -15 20 -16q72 0 141 265q1 1 1 2l90 338h-86q-8 2 -7 10l5 24q5 9 12 10h84 q5 13 14 39q35 97 70 146q14 19 30 36q37 43 100 62q27 8 52 8q77 0 100 -43q6 -12 6 -23q0 -32 -29 -44q-9 -4 -17 -4q-47 1 -54 46q-8 28 -36 29q-60 0 -104 -127q-7 -23 -36 -125z" glyph-name="f" horiz-adv-x="296" unicode="f"/>
<glyph d="M174 -261q64 0 96 33q16 17 16 37q0 41 -43 71q-10 7 -27 17q-80 48 -89 54q-98 -46 -99 -108q0 -65 73 -92q34 -12 73 -12zM196 136q47 0 78 79q22 55 22 108q-5 58 -36 61q-31 -1 -55 -39q-43 -68 -45 -138v-15q1 -55 36 -56zM150 -297q-107 0 -174 53q-41 34 -42 71 q0 41 37 72q3 3 5 4q40 34 126 68q-38 29 -38 60q0 32 84 73q1 1 2 1l2 4q-75 29 -81 102q-1 8 -1 15q0 64 50 122q59 67 146 68q59 0 97 -42l1 -1q44 32 84 33q34 0 42 -32q2 -7 2 -12q0 -28 -25 -35q-6 -1 -11 -1q-20 1 -34 14q-8 9 -18 10q-15 -1 -24 -12q6 -19 6 -51 q0 -52 -38 -106q-46 -64 -120 -76q-5 -1 -9 -1.5t-7.5 -1.5t-7 -1.5t-6 -0.5t-4 -0.5t-2.5 -0.5h-2q-32 -16 -41 -38q-1 -5 -1 -8q1 -13 20 -28q9 -7 50 -29q54 -30 88 -51q75 -46 76 -100q0 -64 -67 -103q-3 -2 -5 -3q-63 -36 -160 -36z" glyph-name="g" horiz-adv-x="450" unicode="g"/>
<glyph d="M198 276l6 -6q98 145 190 146q69 0 79 -73q1 -10 1 -20q0 -104 -66 -221q-74 -133 -166 -134q-39 0 -53 31q-5 11 -5 23q0 33 25 46q9 4 17 4q30 0 36 -31v-3q5 -26 20 -27q25 1 60 115q38 110 38 179q-2 46 -30 47q-45 0 -131 -102q-9 -10 -15 -18q-38 -51 -56 -102 l-52 -122q-4 -8 -12 -8h-64q-12 2 -8 14l214 558q13 34 13 47q-5 18 -31 20h-30q-7 2 -6 10l4 18q5 8 14 8h158q11 -1 12 -10q-1 -7 -10 -31z" glyph-name="h" horiz-adv-x="486" unicode="h"/>
<glyph d="M232 280l-56 -152q-18 -49 -18 -64q2 -13 12 -14q21 2 72 57q4 5 6 7q4 5 9 1l11 -11q5 -7 2 -10q-59 -78 -140 -98q-23 -6 -45 -6q-28 2 -29 28q1 24 56 178l28 78q16 43 16 58q0 12 -12 12q-17 -1 -76 -68q-6 -6 -12 0l-10 9q-5 5 -4 9l4 4q100 117 180 118 q35 -2 36 -32q0 -22 -30 -104zM251 537q-43 0 -55 37q-3 9 -3 17q0 31 30 47q13 7 26 7q45 0 58 -34q3 -8 3 -16q0 -28 -26 -47q-16 -11 -33 -11z" glyph-name="i" horiz-adv-x="292" unicode="i"/>
<glyph d="M319 598q0 -33 -32 -52q-16 -9 -31 -9q-38 0 -56 29q-7 11 -7 22q0 38 33 55q16 8 34 8q47 0 57 -39q2 -7 2 -14zM-94 -230q-70 0 -91 42q-5 11 -5 20q0 36 28 50q9 4 18 4q35 0 47 -33q3 -8 3 -15q5 -29 22 -31q48 0 99 130q19 48 55 159l64 196q6 19 6 36q-2 15 -14 16 q-22 -2 -74 -52q-4 -2 -9 1l-11 11q-2 4 0 8q27 35 79 68q59 36 109 36q24 0 31 -21q1 -5 1 -9q0 -35 -37 -142q-1 -4 -2 -6l-67 -186q-79 -217 -191 -268q-30 -14 -61 -14z" glyph-name="j" horiz-adv-x="274" unicode="j"/>
<glyph d="M190 248l-22 -56q6 -1 17 -1q65 0 129 61q47 45 48 80q-4 24 -28 26q-35 0 -97 -56q-12 -12 -17 -18q-18 -18 -30 -36zM212 314l6 -2q46 60 109 89q33 15 62 15q62 -2 63 -59q0 -65 -114 -136q-38 -24 -68 -36v-6l68 -107q26 -37 43 -38q18 1 43 26q3 4 8 0l12 -12 q2 -5 -2 -10q-49 -47 -102 -48q-53 0 -77 32q-9 11 -17 28l-48 102q-8 15 -29 15h-5q-4 -1 -6 -1l-60 -158q-4 -8 -14 -8h-68q-10 0 -7 11q1 2 1 3l228 583q3 9 3 16q-2 25 -35 26h-26q-8 2 -6 10l8 18q6 7 10 8h160q13 0 8 -16q-1 -2 -1 -3z" glyph-name="k" horiz-adv-x="456" unicode="k"/>
<glyph d="M52 126l166 452q8 21 8 35q-2 25 -26 26h-32q-5 2 -4 8l6 23q3 4 8 5h154q12 -2 8 -15l-202 -546q-12 -30 -12 -45q2 -14 12 -15q23 0 67 47l5 5q6 1 10 -2l12 -10q2 -8 0 -12q-10 -14 -50 -43q-69 -49 -128 -49q-23 0 -32 23q-2 7 -2 13q0 12 32 100z" glyph-name="l" horiz-adv-x="258" unicode="l"/>
<glyph d="M43 12l69 186q8 21 24 61q27 69 27 79q-2 13 -13 14q-14 0 -59 -46q-10 -9 -13 -14q-6 -6 -12 0l-12 10q-3 8 -2 10q72 86 141 101q13 3 24 3q42 -2 43 -36q0 -17 -32 -90l-32 -74l8 -4q123 203 220 204q39 0 52 -30q3 -9 3 -17q0 -40 -53 -159l8 -4q74 115 117 157 q56 52 107 53q38 0 51 -36q4 -9 4 -18q0 -21 -38 -124q-10 -28 -17 -48q-8 -22 -22 -59q-18 -47 -18 -57q4 -13 12 -14q22 0 76 72q3 4 8 3l14 -9q4 -6 2 -14q-27 -40 -73 -77q-57 -45 -107 -45q-26 0 -33 23q-1 4 -1 7q1 30 60 180q43 108 43 128q-2 19 -21 20 q-25 0 -101 -95q-35 -43 -65 -89q-29 -50 -38 -70l-31 -86q-4 -8 -15 -8h-63q-10 0 -10 7v3l63 166q51 135 51 152q-2 17 -21 18q-25 0 -101 -91q-32 -38 -59 -77q-24 -35 -46 -84l-33 -86q-4 -8 -15 -8h-63q-10 2 -8 12z" glyph-name="m" horiz-adv-x="752" unicode="m"/>
<glyph d="M162 98l-32 -92q-5 -6 -14 -6h-64q-11 1 -8 13l68 185q44 129 45 135q1 3 1 5q-2 15 -15 16q-21 -1 -73 -52q-4 -5 -9 -1l-11 11q-6 5 -2 10q46 60 112 83q30 11 59 11q33 -6 38 -34q0 -20 -47 -134l6 -4q73 113 151 154q35 18 66 18q41 0 54 -37q3 -10 3 -19 q-1 -42 -54 -176q-40 -101 -40 -118q1 -15 12 -16q16 0 52 37q7 7 10 11q7 2 12 -2l10 -8q6 -3 0 -12q-23 -31 -72 -59q-48 -27 -94 -27q-33 2 -34 30q0 12 49 144q6 17 11 30q43 120 43 130q-2 23 -23 24q-28 0 -93 -68q-39 -41 -63 -80q-37 -59 -54 -102z" glyph-name="n" horiz-adv-x="530" unicode="n"/>
<glyph d="M146 44q59 2 114 93q52 88 66 161q2 12 2 21q0 33 -27 42q-8 3 -16 3q-53 0 -113 -93q-8 -12 -15 -24q-53 -90 -53 -156q0 -32 27 -44q8 -3 15 -3zM160 -10q-63 0 -97 52q-23 36 -23 85q1 134 84 225q59 64 142 64q69 0 103 -51q21 -31 21 -75q0 -90 -46 -177 q-18 -33 -40 -57q-58 -66 -144 -66z" glyph-name="o" horiz-adv-x="410" unicode="o"/>
<glyph d="M268 365l-118 -329q88 14 156 78q65 64 66 143q0 88 -53 107q-10 4 -21 4q-20 0 -30 -3zM136 0l-68 -196q-9 -26 -9 -40q2 -27 39 -28h28q8 -2 6 -9l-5 -21q-3 -6 -13 -6q-3 0 -13 1q-48 2 -103 2q-59 0 -106 -2q-11 -1 -14 -1q-7 2 -7 6l5 22q5 7 8 8h24q43 0 67 56 q5 11 9 22l187 530q-53 -14 -104 -69q-7 -8 -11 -13q-6 -5 -12 -1l-12 9q-2 4 0 10q72 86 158 118l31 96q5 11 16 14l89 28q4 2 8 2q3 -1 4 -4q0 -2 -3 -8l-50 -112q16 2 37 2q94 0 131 -69q15 -30 15 -64q-1 -120 -122 -209q-79 -56 -191 -72q-10 -1 -19 -2z" glyph-name="p" horiz-adv-x="480" unicode="p"/>
<glyph d="M165 26q73 0 139 139q42 88 49 146q1 4 1 7q0 38 -27 51q-8 4 -17 4q-32 0 -61 -30l-7 -7q-67 -72 -103 -175q-17 -48 -17 -82q6 -49 43 -53zM392 380l70 34q9 6 18 6q13 -2 6 -20l-230 -614q-7 -17 -7 -28q2 -21 23 -22h28q8 -2 6 -10l-6 -18q-4 -8 -10 -8q-4 0 -16 1 q-49 2 -96 2q-51 0 -102 -2q-13 -1 -16 -1q-7 0 -7 4v4l3 20q4 8 10 8h24q43 0 62 31q6 9 10 19l106 252l-8 4q-49 -51 -116 -52q-67 0 -93 54q-11 25 -11 59q0 111 67 206q19 28 43 51q55 53 130 56h14q48 -1 84 -36q5 -4 14 0z" glyph-name="q" horiz-adv-x="470" unicode="q"/>
<glyph d="M124 0h-66q-7 0 -8 5v3l50 162q47 159 48 170q0 12 -13 15q-3 1 -5 1q-21 0 -60 -44q-8 -8 -12 -14q-4 -4 -10 -2l-12 8q-2 4 0 10q33 55 87 83q35 19 71 19q36 -5 40 -38q0 -18 -40 -136l7 -4q46 100 103 150q33 27 60 28q35 0 48 -30q4 -10 4 -20q0 -32 -26 -50 q-9 -6 -16 -6q-19 1 -30 8q-17 12 -28 12q-28 0 -86 -91q-16 -25 -28 -49q-19 -42 -32 -82l-34 -102q-3 -6 -12 -6z" glyph-name="r" horiz-adv-x="374" unicode="r"/>
<glyph d="M252 124q0 -75 -64 -112q-39 -22 -88 -22q-84 0 -98 44q-2 7 -2 14q0 31 26 40q6 2 12 2q34 -1 48 -40q11 -25 32 -26q40 0 48 48q2 10 2 20q0 24 -31 72q-9 15 -14 23q-30 50 -34 70q-3 13 -3 25v6q0 63 54 101q40 27 94 27q56 0 73 -34q5 -10 5 -22q0 -35 -29 -41 q-5 -1 -9 -1q-32 2 -40 34q-8 25 -19 27q-3 1 -5 1q-33 0 -41 -40q-1 -9 -1 -18q0 -29 44 -87q1 -2 2 -3q38 -52 38 -108z" glyph-name="s" horiz-adv-x="312" unicode="s"/>
<glyph d="M243 350l-88 -220q-18 -49 -18 -58q2 -17 18 -18q24 0 86 52q4 3 5 4q6 4 10 0l11 -12q4 -4 2 -8q-19 -26 -70 -58q-66 -42 -122 -42q-36 0 -41 25q-1 3 -1 5q0 26 10 56l106 274h-74q-8 0 -6 8v2l8 26q4 8 10 8h77l41 106q4 11 20 13q3 1 6 1q29 3 65 24q2 1 3 2 q20 6 16 6q9 0 7 -14q0 -4 -1 -6l-65 -132h103q6 -2 4 -10l-8 -29q-3 -5 -10 -5h-104z" glyph-name="t" horiz-adv-x="318" unicode="t"/>
<glyph d="M368 310l30 90q3 6 14 6h68q10 0 11 -7q0 -3 -1 -5l-70 -204q-40 -113 -40 -126q1 -11 10 -12q17 0 58 47q5 5 8 9q4 5 10 1l12 -9q2 -4 0 -10q-18 -28 -60 -59q-55 -41 -106 -41q-30 3 -32 30q0 3 2.5 11t7 21.5l8.5 25.5t11 30t10 27t9 25l7 17l-7 4 q-134 -190 -234 -191q-25 0 -40 27q-6 10 -6 19q0 36 48 144q4 9 17 37q43 94 43 123q-2 15 -18 16q-20 0 -66 -48q-4 -3 -6 -6q-4 -6 -11 0l-11 10q-2 4 0 8q86 95 166 96q32 0 40 -31q2 -6 2 -11q-1 -33 -57 -167q-47 -111 -47 -133q1 -15 16 -16q30 0 113 100 q31 37 45 60q31 49 46 92z" glyph-name="u" horiz-adv-x="502" unicode="u"/>
<glyph d="M190 340h-50q-52 -1 -56 -38q0 -3 1.5 -5.5t2.5 -5t3.5 -4.5t3.5 -3.5t4.5 -3.5t4 -3t4.5 -3l4 -2q21 -16 22 -38q-2 -37 -42 -38q-30 0 -44 33q-6 16 -6 35q0 50 37 97l3 3q29 32 58 41q24 7 56 7q37 0 136 4q15 -1 16 -10q-1 -5 -4 -10q-53 -83 -67 -114 q-29 -67 -29 -131q0 -74 42 -92q8 -3 16 -3q53 1 90 44q64 83 64 172q-1 40 -13 58q-14 23 -14 38q0 28 28 42q14 6 30 6q32 0 44 -41q3 -12 3 -23q-1 -103 -66 -214q-60 -100 -149 -135q-35 -13 -69 -13q-40 1 -71 31q-25 24 -25 73q0 56 26 113q36 80 106 157l-6 6 q-35 -26 -94 -30z" glyph-name="v" horiz-adv-x="538" unicode="v"/>
<glyph d="M204 334h-80q-32 -4 -36 -28q1 -17 28 -28q21 -16 22 -38q0 -30 -29 -37q-7 -1 -13 -1q-29 0 -44 34q-8 19 -8 40q1 49 44 96q32 34 86 34h80l96 6h3q10 -1 11 -9q-1 -6 -6 -11q-40 -48 -76 -134q-29 -70 -29 -118q0 -54 40 -68q8 -3 17 -4q57 1 98 57q23 34 38 123 q2 13 6 46q5 52 11 76q14 30 52 34q29 -4 32 -28q0 -12 -29 -90q-8 -22 -13 -38q-23 -75 -23 -104q0 -45 36 -65q17 -9 36 -9q58 0 97 60q31 49 31 112q0 50 -18 76q-2 3 -3 4q-25 26 -26 50q0 30 29 41q8 3 17 3q66 -2 67 -102q0 -105 -57 -202q-9 -17 -19 -30 q-49 -69 -103 -85q-23 -7 -47 -7q-64 0 -90 68q-6 15 -8 30q-48 -63 -111 -88q-27 -10 -53 -10q-60 0 -85 50q-11 23 -11 50q0 84 97 220q20 29 38 50l-5 6l-8 -4q-49 -28 -82 -28z" glyph-name="w" horiz-adv-x="758" unicode="w"/>
<glyph d="M245 44l-30 108h-4q-77 -110 -114 -140q-27 -22 -48 -22q-39 2 -40 38q0 38 19 93l3 9q5 5 10 4l16 -4q4 -1 4 -8q-8 -26 -8 -42q1 -21 16 -22q27 0 131 129q3 3 5 6l-40 129q-7 21 -19 22q-21 -2 -61 -74q-4 -6 -10 -4l-16 7q-2 2 -2 9q10 31 44 74q48 59 94 60 q34 0 48 -46l4 -12l24 -97h4q64 92 86 117q39 37 73 38q28 0 33 -28q1 -4 1 -8q0 -49 -26 -112q-4 -6 -10 -4l-13 4q-7 4 -8 8q10 33 10 52q-2 17 -14 18q-27 -1 -123 -124l43 -142q8 -27 26 -28q16 0 53 56q5 8 7 12q1 4 8 2l14 -6q6 -4 4 -10q-64 -115 -136 -116 q-41 0 -56 49q-1 3 -2 5z" glyph-name="x" horiz-adv-x="465" unicode="x"/>
<glyph d="M236 24h5q54 96 82 175q6 15 8 25q12 48 12 64q0 22 -8 46q-10 30 -10 40q0 28 28 38q10 4 22 4q49 -2 50 -64q-1 -61 -70 -200q-83 -163 -182 -289q-33 -42 -61 -69q-60 -58 -95 -76q-29 -15 -56 -15q-54 0 -63 40q-1 7 -1 12q0 34 31 48q8 3 15 4q19 -1 36 -18 q14 -13 28 -14q21 1 45 17q48 35 99 114q12 20 12 47q0 8 -2 21q-9 144 -29 294q-5 36 -8 48q-6 23 -14 25q-3 1 -5 1q-19 0 -46 -58q-4 -8 -6 -14q-4 -6 -9 -5l-15 5q-4 2 -2 12q26 78 76 114q28 20 58 20q40 0 54 -54q6 -23 8 -56q10 -147 13 -282z" glyph-name="y" horiz-adv-x="423" unicode="y"/>
<glyph d="M178 118l2 -6h7q44 0 85 -31q6 -4 14 -11q52 -47 69 -53q7 -2 13 -2q26 0 34 19q2 5 2 8q-1 12 -10 28q-12 22 -12 42q0 27 26 36q7 2 14 2q45 -2 46 -56q0 -62 -51 -96q-37 -24 -91 -24q-69 1 -128 42q-39 29 -45 32q-11 6 -19 6q-24 0 -35 -34q-1 -1 -1 -2 q-12 -33 -48 -34q-22 6 -26 30q0 42 59 79q14 8 25 13l202 192l-4 6q-8 -1 -19 -1q-41 1 -79 31q-3 3 -10 9q-37 34 -56 35q-23 -1 -24 -16q1 -10 12 -18q17 -10 18 -34q0 -24 -22 -36q-8 -4 -16 -4q-40 0 -50 36q-2 9 -2 18q0 45 43 73q31 19 73 19q61 -1 122 -34 q41 -24 62 -24q19 2 30 36q12 36 43 44q7 2 13 2q20 0 25 -21q1 -4 1 -7q0 -39 -61 -82q-10 -7 -19 -12z" glyph-name="z" horiz-adv-x="482" unicode="z"/>
<glyph d="M163 284q0 -5 21 -20q7 -6 11 -10q26 -27 26 -58q0 -28 -32 -111q-2 -6 -4 -11q-24 -79 -26 -116q0 -92 58 -121q9 -5 18 -7q14 -4 35 -4q7 -2 7 -20q-1 -13 -7 -14q-20 0 -45 4q-68 8 -112 57q-40 44 -40 109q0 59 38 134q33 73 37 95q1 10 1 17q0 38 -12 50 q-10 14 -36 18q-11 2 -12 16q2 15 16 16q18 1 42 10q46 25 50 70q2 21 2 56v43q0 37 4 75q11 100 113 154q43 22 89 30q21 4 46 4q15 -1 16 -14q-1 -19 -12 -20q-20 0 -32 -2q-113 -21 -130 -150q-4 -25 -8 -75q-4 -53 -8 -73q-10 -57 -64 -94q-7 -4 -20 -11 q-29 -17 -30 -27z" glyph-name="braceleft" horiz-adv-x="316" unicode="{"/>
<glyph d="M140 -250v1002q1 7 6 8h47q6 -2 7 -10v-1000q-1 -9 -6 -10h-48q-6 2 -6 10z" glyph-name="bar" horiz-adv-x="250" unicode="|"/>
<glyph d="M232 258q0 5 -23 21q-6 5 -9 7q-26 27 -26 60q0 28 32 111q2 6 4 11q24 79 26 116q0 88 -55 119q-11 6 -21 9q-14 4 -36 4q-6 2 -6 18q1 15 8 16q19 0 44 -4q68 -8 113 -56q41 -44 41 -110q0 -50 -38 -133v-1q-38 -82 -40 -112q0 -35 12 -50t36 -18q11 -2 12 -16 q-2 -15 -16 -16q-23 -1 -36 -8q-50 -23 -56 -68v-4q-2 -21 -2 -56v-43q0 -37 -4 -75q-11 -100 -113 -154q-43 -22 -89 -30q-21 -4 -46 -4q-15 1 -16 14q1 19 12 20q4 0 13 1q13 1 19 1q113 21 130 150q4 25 8 75q4 53 8 73q10 57 64 94q7 4 20 11q29 17 30 27z" glyph-name="braceright" horiz-adv-x="316" unicode="}"/>
<glyph d="M400 320h58q0 -117 -66 -146q-17 -8 -36 -8q-28 0 -80 28q-3 1 -4 2l-38 26q-37 20 -62 20q-45 -6 -46 -82h-60q0 105 61 141q22 13 47 13q36 -1 74 -22l42 -26q38 -28 62 -28q47 2 48 82z" glyph-name="asciitilde" unicode="~"/>
<glyph glyph-name="uni00A0" horiz-adv-x="200" unicode=" "/>
<glyph d="M6 -297q-43 0 -54 32q-2 6 -2 12q1 21 16 52l167 392l1 2q4 8 14 8q13 0 11 -17q0 -3 -1 -5q-1 -5 -80 -395q-5 -23 -6 -27q-12 -54 -66 -54zM184 296q-24 0 -41 23q-11 15 -11 35q0 38 33 55q13 7 27 7q34 0 49 -35q5 -12 5 -23q0 -44 -38 -58q-11 -4 -24 -4z" glyph-name="exclamdown" horiz-adv-x="268" unicode="¡"/>
<glyph d="M250 166l74 314q-34 -9 -66 -50q-46 -61 -59 -150q-3 -19 -3 -34q0 -61 47 -78q4 -1 7 -2zM208 6l26 104q-135 5 -136 120q0 83 64 171q71 95 172 125l28 112q5 7 8 6l24 -4q6 -3 6 -10l-24 -96q9 2 26 2q51 0 67 -32q5 -11 5 -22q0 -31 -30 -42q-8 -2 -14 -2 q-17 1 -28 18q-14 22 -35 25q-3 1 -5 1l-76 -322q43 0 99 36q9 4 15 -2l6 -12q2 -9 -6 -16q-64 -45 -126 -54l-30 -120q-3 -7 -10 -6l-22 6q-6 4 -4 14z" glyph-name="cent" unicode="¢"/>
<glyph d="M332 214h-150q-19 -34 -57 -78q-2 -3 -3 -4l2 -4q24 3 45 3q78 0 136 -50q13 -12 27 -26q29 -31 62 -32q21 0 34 20q3 6 4 10q0 2 1 4v3q-2 11 -19 11q-30 0 -41 22q-3 6 -3 12q0 28 25 41q11 5 23 5q46 0 65 -38q7 -15 7 -32q0 -39 -39 -67q-39 -29 -103 -29 q-87 0 -143 62l-3 3q-48 48 -86 50h-6q-15 -34 -32 -58q-34 -43 -62 -44q-29 2 -30 26q0 28 44 67q25 22 48 31q17 20 39 88q1 3 1 4h-68q-9 1 -10 8l4 24q4 6 10 6h76q4 10 20 65q34 114 50 156q42 109 132 152q44 20 92 20q72 0 103 -45q9 -15 9 -27q0 -31 -30 -40 q-7 -2 -12 -2h-6q-35 2 -52 42q-10 25 -22 31q-9 5 -20 5q-34 0 -63 -65q-16 -34 -34 -90q-27 -85 -86 -193q-3 -6 -5 -9h134q9 -1 8 -6l-4 -24q-4 -8 -12 -8z" glyph-name="sterling" unicode="£"/>
<glyph d="M281 201q69 0 93 64q8 24 8 53q0 76 -55 104q-21 11 -46 11q-69 0 -93 -64q-8 -23 -8 -51q0 -75 53 -105q22 -12 48 -12zM473 86l-89 82q-41 -29 -109 -29q-66 1 -104 35l-86 -88q-5 -5 -12 0l-28 32q-6 6 0 12l88 84q-24 22 -33 72q-2 13 -2 24q1 74 42 115l-93 83 q-6 7 0 14l27 28q5 5 11 0l93 -86q44 33 109 33q56 0 92 -26q3 -2 5 -4l89 83q6 3 10 0l27 -25q6 -7 1 -13l-86 -83q32 -35 38 -90q1 -8 1 -14q-1 -74 -37 -117l86 -82q2 -5 0 -10l-28 -30q-6 -6 -12 0z" glyph-name="currency" unicode="¤"/>
<glyph d="M318 253l-14 -57h148q5 -2 5 -6l-3 -25q-3 -6 -14 -6h-144l-16 -73q-3 -14 -3 -22q2 -26 29 -27h28q8 0 8 -6v-2l-4 -22q-2 -9 -10 -10q-5 0 -19 1q-45 2 -85 2q-61 0 -108 -3h-12q-8 0 -8 6v4l2 22q4 8 10 8h36q32 0 44 39q1 4 2 6l18 77h-136q-6 2 -5 9l3 22q2 5 10 6 h134l12 57h-137q-7 2 -7 8l3 26q2 5 9 5h122l-4 12l-81 253q-10 30 -38 35q-5 1 -9 1h-23q-5 1 -5 6l3 28q3 6 9 6q3 0 14 -1q47 -2 102 -2q34 0 67 2l33 1q8 -2 9 -7l-3 -27q-2 -5 -8 -6h-18q-28 -1 -29 -24q0 -8 1 -10l60 -245q2 -14 11 -10q3 3 5 6l14 21 q119 184 130 213q5 15 5 24q-2 24 -35 25h-24q-7 2 -7 9l3 23q3 8 10 8q5 0 22 -1q47 -2 82 -2t75 2q13 1 17 1q10 -2 9 -10l-2 -22q-3 -7 -7 -8h-18q-30 -1 -62 -36q-11 -11 -184 -262q-1 -2 -2 -3h124q8 -1 8 -6l-4 -24q-4 -8 -12 -9h-136z" glyph-name="yen" unicode="¥"/>
<glyph d="M140 335v330q1 9 6 10h46q8 -2 8 -10v-330q-1 -9 -6 -10h-46q-8 2 -8 10zM140 -165v330q1 9 7 10h47q6 -2 6 -10v-330q-1 -9 -7 -10h-47q-6 2 -6 10z" glyph-name="brokenbar" horiz-adv-x="250" unicode="¦"/>
<glyph d="M392 200q0 50 -40 103q-3 3 -4 5q-8 10 -32 34q-60 59 -75 98q-6 18 -7 36q-67 -34 -68 -114q1 -36 28 -72q13 -16 42 -49q66 -74 82 -113q10 -25 10 -48q64 41 64 120zM476 244q0 -88 -80 -157q-31 -26 -66 -43q-18 -78 -58 -117q-16 -15 -36 -29q-57 -38 -148 -38 q-58 0 -78 31q-6 10 -6 19q0 39 32 45q6 1 10 1q35 -1 50 -30q15 -25 46 -26q36 0 71 34q37 36 37 88q-4 54 -55 114q-16 20 -43 48q-58 62 -63 125q-1 8 -1 15v6q0 62 59 123q38 39 85 57q21 77 74 125q58 50 150 50q59 0 79 -35q5 -10 5 -19q0 -38 -37 -43q-5 -1 -9 -1 q-35 1 -52 38q-12 24 -36 24q-39 0 -70 -43q-22 -32 -22 -68q0 -42 31 -81q20 -24 57 -61q73 -70 74 -152z" glyph-name="section" unicode="§"/>
<glyph d="M314 537q-46 7 -50 46q0 27 26 38q11 4 24 4q34 0 44 -30q2 -8 2 -16q0 -32 -32 -40q-7 -2 -14 -2zM156 537q-46 7 -50 46q0 27 26 38q11 4 24 4q34 0 44 -30q2 -8 2 -16q0 -32 -32 -40q-7 -2 -14 -2z" glyph-name="dieresis" horiz-adv-x="325" unicode="¨"/>
<glyph d="M598 408l-16 -4q-5 -1 -8 4q-24 43 -28 48q-8 10 -16 18q-41 39 -94 40q-75 0 -109 -79q-17 -39 -17 -83q2 -81 48 -134q46 -48 106 -48q72 0 125 61q4 5 7 9q5 3 10 0l12 -8q2 -5 -2 -10q-70 -95 -176 -96q-96 1 -150 54q-64 62 -64 158q1 89 60 152q52 52 140 56h10 q60 0 102 -28q14 -5 18 2l2 10q1 4 4 6t16 2q5 0 7 -6q1 -1 1 -2l14 -114q-1 -8 -2 -8zM434 647q-129 0 -215 -91q-81 -88 -81 -219q0 -179 129 -264q77 -50 167 -50q169 0 248 135q46 80 46 177q0 169 -124 256q-79 56 -170 56zM434 685q157 0 255 -104q91 -98 91 -244 q0 -154 -98 -254q-98 -98 -248 -98q-166 0 -264 113q-84 98 -84 237q0 147 100 248q104 100 248 102z" glyph-name="copyright" horiz-adv-x="780" unicode="©"/>
<glyph d="M121 330q1 -30 22 -31q22 0 70 55q24 28 39 54q26 44 26 69q-2 32 -35 33q-40 0 -84 -73q-38 -63 -38 -107zM325 533h47q5 -1 6 -4q0 -2 -3 -11q-5 -9 -44 -110q-35 -89 -35 -102q2 -8 8 -9q13 1 47 35q6 5 11 1l10 -7q2 -4 0 -10q-27 -35 -75 -54q-27 -11 -51 -11 q-24 1 -25 18q1 17 26 81l-7 3q-33 -53 -81 -83q-31 -19 -57 -19q-43 0 -53 40q-3 11 -3 21q0 62 58 136q65 82 137 90q7 1 13 1q34 -1 52 -28q15 22 19 22z" glyph-name="ordfeminine" horiz-adv-x="352" unicode="ª"/>
<glyph d="M373 350l-87 -122l57 -122l4 -6l1 -2q-1 -4 -4 -8l-12 -10q-1 -2 -4 -2q-4 2 -6 4l-126 136q-3 4 -4 6q0 3 6 6l154 146q4 3 6 4q3 -1 6 -4l10 -10q3 -4 4 -8q-1 -3 -5 -8zM233 349l-87 -121l57 -122l4 -6l1 -2q-1 -4 -4 -8l-12 -10l-4 -2q-6 1 -9 3l-123 137q-3 4 -4 6 q1 3 4 6l156 146q4 3 6 4q2 -1 4 -4l12 -10q3 -4 4 -8q-1 -3 -5 -9z" glyph-name="guillemotleft" horiz-adv-x="378" unicode="«"/>
<glyph d="M396 294h-324v64h392v-234h-68v170z" glyph-name="logicalnot" unicode="¬"/>
<glyph d="M392 214h-322q-7 2 -8 8v46q2 9 8 10h323q8 -2 9 -8v-46q-2 -9 -10 -10z" glyph-name="uni00AD" horiz-adv-x="416" unicode="­"/>
<glyph d="M292 575v-102q5 -2 20 -2q51 0 61 46q1 7 1 12q-1 23 -20 36q-19 12 -42 12q-14 0 -20 -2zM322 359v-13q-2 -2 -4 -3h-9q-25 2 -38 2q-11 0 -31 -1l-20 -1q-3 1 -4 3v13q2 2 3 2h9q16 7 18 20v90l2 36q0 49 -2 54q-2 15 -20 16h-6q-2 2 -2 3v15q2 2 3 2t14 -1 q28 -1 33 -1q3 0 28 1q31 1 36 1q50 0 74 -20q18 -16 18 -42q0 -48 -48 -67q-9 -4 -18 -5v-2q9 -1 16 -10q27 -41 32 -46q26 -34 32 -38q9 -6 29 -6q2 -2 3 -4v-10q-2 -3 -4 -4q-1 0 -8 1q-15 1 -22 1q-25 0 -42 -2q-9 9 -17 21q-20 34 -25 41q-1 1 -6 10q-13 20 -16 24 q-15 14 -28 14h-10v-16q0 -51 1 -62q4 -13 13 -14h13q3 -1 3 -2zM328 281q125 0 166 102q16 39 16 84q0 118 -96 164q-41 20 -86 20q-99 0 -150 -70q-34 -47 -34 -112q0 -121 97 -168q42 -20 87 -20zM328 249q-129 0 -190 91q-36 55 -36 127q0 105 79 168q62 50 147 50 q119 0 183 -83q43 -57 43 -135q0 -111 -80 -172q-60 -46 -146 -46z" glyph-name="registered" horiz-adv-x="518" unicode="®"/>
<glyph d="M112 560h192q9 -2 10 -6v-38q-2 -5 -10 -6h-194q-7 1 -8 6v38q2 6 10 6z" glyph-name="macron" horiz-adv-x="280" unicode="¯"/>
<glyph d="M268 595q0 31 -28 46q-12 6 -24 6q-36 0 -50 -33q-4 -11 -4 -21q0 -34 30 -50q12 -6 24 -6q34 0 47 33q5 12 5 25zM216 501q-80 0 -101 62q-4 14 -5 30q2 51 48 78q26 14 58 14q72 0 96 -53q8 -19 8 -39q0 -49 -45 -76q-27 -16 -59 -16z" glyph-name="degree" horiz-adv-x="250" unicode="°"/>
<glyph d="M66 74h394v-64h-394v64zM298 150h-70v142h-162v64h162v134h70v-134h162v-64h-162v-142z" glyph-name="plusminus" unicode="±"/>
<glyph d="M232 387h-170q-13 2 -14 10q1 6 8 14q10 8 35 27q117 92 156 144q33 46 33 82q0 42 -33 54q-10 4 -21 4q-41 -1 -72 -52q-7 -8 -14 -8l-10 6q-4 3 -4 10q24 56 75 82q29 14 61 14q85 0 98 -72q2 -11 2 -23q0 -95 -186 -214q-3 -2 -22 -14l-2 -4h98q39 0 59 33q3 4 5 7 q6 5 10 2l10 -6q5 -4 2 -8q-21 -30 -40 -88q-1 -4 -2 -6q-1 -5 -8 -6q-7 1 -12 8q-6 4 -42 4z" glyph-name="twosuperior" horiz-adv-x="332" unicode="²"/>
<glyph d="M164 684l-10 8q-2 4 0 10q43 71 128 72q64 0 82 -40q4 -10 4 -18q-2 -65 -92 -106q61 -28 62 -86q0 -69 -69 -112q-51 -32 -115 -32t-87 42q-7 13 -7 26q0 28 22 33q3 1 6 1q29 -1 30 -34v-8q0 -14 21 -24q10 -4 21 -4q50 0 79 47q17 27 17 59q0 49 -37 65q-5 2 -9 3 q-10 6 -10 12q0 7 7 9q2 1 3 1q55 12 74 51q6 13 6 27q0 30 -28 39q-9 3 -18 3q-36 -1 -66 -38q-9 -10 -14 -6z" glyph-name="threesuperior" horiz-adv-x="332" unicode="³"/>
<glyph d="M256 536l-152 -66q-6 -2 -8 0l-7 9q-1 4 1 7l120 106q24 20 42 20q22 0 31 -24q2 -7 2 -13q-2 -26 -29 -39z" glyph-name="acute" horiz-adv-x="240" unicode="´"/>
<glyph d="M216 -124l86 330q-123 0 -182 62q-39 40 -39 101q0 36 11 71q44 150 307 213q61 15 127 23q72 9 90 9q7 -2 8 -8l-6 -21q-4 -8 -10 -8q-6 -1 -25 -4t-25 -4l-203 -773q-3 -6 -9 -7h-28q-7 0 -5 10q1 1 1 2l198 764q-36 -6 -60 -12l-194 -756q-3 -7 -7 -8h-35q-5 0 -1 14 q1 1 1 2z" glyph-name="paragraph" unicode="¶"/>
<glyph d="M168 280q-42 0 -58 37q-6 13 -6 27q0 35 29 54q16 10 35 10q49 0 63 -46q3 -11 3 -20q0 -37 -34 -55q-15 -7 -32 -7z" glyph-name="periodcentered" horiz-adv-x="250" unicode="·"/>
<glyph d="M118 0l-52 -70q57 -20 58 -60q0 -46 -80 -73q-40 -13 -70 -13q-19 1 -20 18q2 15 18 16q42 0 65 27q9 11 9 21q0 26 -35 43q-2 1 -3 1l68 90h42z" glyph-name="cedilla" horiz-adv-x="280" unicode="¸"/>
<glyph d="M288 409l-4 -20q-2 -4 -6 -4h-20q-62 2 -76 2q-17 0 -62 -1l-46 -1q-2 0 -2 1v3l2 20q5 4 8 4h26q32 0 44 23q1 2 2 3q2 3 21 60q1 3 1 4l42 131q16 48 16 50q-2 7 -8 8q-12 -1 -36 -10l-34 -10q-5 -1 -8 4l-6 14q2 4 4 6l160 70q19 8 26 8q9 -1 10 -8q0 -4 -4 -18 q-14 -34 -52 -149l-29 -88q-21 -65 -23 -74v-7q4 -16 22 -17h26q6 -1 6 -4z" glyph-name="onesuperior" horiz-adv-x="332" unicode="¹"/>
<glyph d="M165 288q39 0 83 78q35 61 35 98q-7 32 -40 36q-43 0 -82 -71q-33 -58 -33 -105q0 -27 25 -34q6 -2 12 -2zM168 251q-66 0 -91 53q-11 24 -11 55q0 63 41 117q49 62 133 63q60 0 88 -48q12 -21 12 -44q0 -85 -50 -142q-47 -54 -122 -54z" glyph-name="ordmasculine" horiz-adv-x="336" unicode="º"/>
<glyph d="M177 107l87 121l-58 124l-4 8q1 3 4 6l12 12l4 2q4 -1 8 -4l124 -136q3 -4 4 -6l-4 -8l-156 -144q-4 -3 -6 -4q-3 1 -4 2l-12 12q-3 4 -4 6q1 3 5 9zM37 106l87 122l-58 124l-4 8q1 3 4 6l12 12q1 0 4 2q3 -1 6 -4l126 -136q3 -4 4 -6q-1 -3 -6 -8l-154 -144q-4 -3 -6 -4 q-4 1 -6 2l-10 12q-3 4 -4 6q1 3 5 8z" glyph-name="guillemotright" horiz-adv-x="378" unicode="»"/>
<glyph d="M586 643l26 -16q3 -4 4 -6q-1 -3 -4 -10l-406 -618q-5 -7 -10 -8q-4 1 -8 4l-22 16q-4 5 -4 8q1 4 4 10l406 618q5 4 8 4q4 0 6 -2zM262 280l-4 -20q-2 -4 -6 -4h-20q-62 2 -76 2q-17 0 -62 -1l-46 -1q-2 0 -2 1v3l2 20q5 4 8 4h26q32 0 44 23q1 2 2 3q5 8 22 64l42 131 q16 48 16 50q-2 7 -8 8q-12 -1 -36 -10l-34 -10q-5 -1 -8 4l-6 14q2 4 4 6l160 70q16 8 26 8q9 -1 10 -8q0 -4 -4 -18q-2 -6 -52 -149l-30 -88q-22 -72 -22 -74v-7q4 -16 22 -17h26q6 -1 6 -4zM558 142l48 120q7 14 -2 13q-5 -1 -10 -5l-136 -114q-14 -14 -4 -14h104z M614 94l-30 -84q-6 -10 -14 -10h-58q-9 0 -5 12q1 1 1 2l34 80h-150q-17 2 -18 16q0 12 18 24l292 244q9 8 22 9q15 0 13 -17q0 -4 -1 -6l-86 -222h56q6 -2 4 -10l-14 -30q-5 -7 -10 -8h-54z" glyph-name="onequarter" horiz-adv-x="728" unicode="¼"/>
<glyph d="M588 0h-170q-13 2 -14 10q1 6 8 14q10 8 35 27q117 92 156 144q33 46 33 82q0 42 -33 54q-10 4 -21 4q-41 -1 -72 -52q-7 -8 -14 -8l-10 6q-4 3 -4 10q24 56 75 82q29 14 61 14q85 0 98 -72q2 -11 2 -23q0 -95 -186 -214q-3 -2 -22 -14l-2 -4h98q39 0 59 33q3 4 5 7 q6 5 10 2l10 -6q5 -4 2 -8q-21 -30 -40 -88q-1 -4 -2 -6q-1 -5 -8 -6q-7 1 -12 8q-6 4 -42 4zM586 643l26 -16q3 -4 4 -6q-1 -3 -4 -10l-406 -618q-5 -7 -10 -8q-4 1 -8 4l-22 16q-4 5 -4 8q1 4 4 10l406 618q5 4 8 4q4 0 6 -2zM262 280l-4 -20q-2 -4 -6 -4h-20q-62 2 -76 2 q-17 0 -62 -1l-46 -1q-2 0 -2 1v3l2 20q5 4 8 4h26q32 0 44 23q1 2 2 3q5 8 22 64l42 131q16 48 16 50q-2 7 -8 8q-12 -1 -36 -10l-34 -10q-5 -1 -8 4l-6 14q2 4 4 6l160 70q16 8 26 8q9 -1 10 -8q0 -4 -4 -18q-2 -6 -52 -149l-30 -88q-22 -72 -22 -74v-7q4 -16 22 -17h26 q6 -1 6 -4z" glyph-name="onehalf" horiz-adv-x="728" unicode="½"/>
<glyph d="M568 142l48 120q7 14 -2 13q-5 -1 -10 -5l-136 -114q-14 -14 -4 -14h104zM624 94l-30 -84q-6 -10 -14 -10h-58q-9 0 -5 12q1 1 1 2l34 80h-150q-17 2 -18 16q0 12 18 24l292 244q9 8 22 9q15 0 13 -17q0 -4 -1 -6l-86 -222h56q6 -2 4 -10l-14 -30q-5 -7 -10 -8h-54z M601 643l26 -16q3 -4 4 -6q-1 -3 -4 -10l-406 -618q-5 -7 -10 -8q-4 1 -8 4l-22 16q-4 5 -4 8q1 4 4 10l406 618q5 4 8 4q4 0 6 -2zM146 555l-10 8q-2 4 0 10q43 71 128 72q64 0 82 -40q4 -10 4 -18q-2 -65 -92 -106q61 -28 62 -86q0 -69 -69 -112q-51 -32 -115 -32t-87 42 q-7 13 -7 26q0 28 22 33q3 1 6 1q29 -1 30 -34v-8q0 -14 21 -24q10 -4 21 -4q50 0 79 47q17 27 17 59q0 49 -37 65q-5 2 -9 3q-10 6 -10 12q0 7 7 9q2 1 3 1q55 12 74 51q6 13 6 27q0 30 -28 39q-9 3 -18 3q-36 -1 -66 -38q-9 -10 -14 -6z" glyph-name="threequarters" horiz-adv-x="728" unicode="¾"/>
<glyph d="M298 300q-36 0 -52 30q-6 12 -6 26q0 38 30 54q12 6 26 6q40 0 54 -36q4 -12 4 -24q0 -27 -26 -46q-14 -10 -30 -10zM160 162l-10 10q-2 3 -2 8q34 44 81 58q15 4 29 4q69 0 93 -56q9 -22 9 -50q0 -87 -132 -160q-6 -3 -22 -12q-73 -42 -94 -64q-30 -33 -30 -79 q0 -36 31 -61q25 -19 59 -19q69 0 101 44q15 20 15 44q0 35 -25 41q-3 1 -5 1q-11 -1 -16 -8q4 -9 4 -20q0 -31 -27 -45q-12 -5 -25 -5q-33 0 -41 32q-1 6 -1 12q0 47 48 68q20 8 40 8q59 0 80 -44q8 -17 8 -38q0 -52 -49 -91q-47 -37 -113 -37q-114 0 -149 86q-9 23 -9 45 q1 161 192 232q91 37 109 63q7 11 7 23q-2 43 -64 44q-47 0 -80 -32q-3 -2 -4 -4q-6 -1 -8 2z" glyph-name="questiondown" horiz-adv-x="426" unicode="¿"/>
<glyph d="M637 728l-156 74q-27 15 -28 37q0 25 24 39q9 4 16 4q20 -1 42 -22l114 -114q3 -5 2 -8l-8 -10q0 -3 -6 0zM478 336l74 256q4 12 -8 13q-7 -1 -12 -5l-210 -264h156zM466 300h-172l-116 -148q-51 -70 -52 -89q2 -25 38 -26h30q6 -2 6 -8l-4 -23q-3 -8 -10 -9h-14 q-60 3 -122 3q-51 0 -102 -2q-13 -1 -16 -1q-8 2 -8 10l4 22q3 7 8 8h14q50 0 103 53q9 9 16 17l467 553q9 10 26 10q28 0 64 7q8 1 22 4.5t18 3.5q11 0 11 -9q-1 -2 -1 -3l-148 -553q-10 -40 -10 -55q0 -21 25 -27q6 -1 11 -1h25q7 -2 7 -8l-4 -24q-3 -7 -13 -8q-3 0 -16 1 q-57 2 -113 2q-52 0 -103 -2q-18 -1 -25 -1q-7 2 -6 11l4 21q3 7 9 8h17q38 0 54 21q13 19 24 58z" glyph-name="Agrave" horiz-adv-x="650" unicode="À"/>
<glyph d="M574 729l-6 10q-1 5 3 10l143 115q15 11 34 11q25 0 33 -27q2 -7 2 -13q-1 -27 -27 -39l-174 -68q-6 -2 -8 1zM478 336l74 256q4 12 -8 13q-7 -1 -12 -5l-210 -264h156zM466 300h-172l-116 -148q-51 -70 -52 -89q2 -25 38 -26h30q6 -2 6 -8l-4 -23q-3 -8 -10 -9h-14 q-60 3 -122 3q-51 0 -102 -2q-13 -1 -16 -1q-8 2 -8 10l4 22q3 7 8 8h14q50 0 103 53q9 9 16 17l467 553q9 10 26 10q28 0 64 7q8 1 22 4.5t18 3.5q11 0 11 -9q-1 -2 -1 -3l-148 -553q-10 -40 -10 -55q0 -21 25 -27q6 -1 11 -1h25q7 -2 7 -8l-4 -24q-3 -7 -13 -8q-3 0 -16 1 q-57 2 -113 2q-52 0 -103 -2q-18 -1 -25 -1q-7 2 -6 11l4 21q3 7 9 8h17q38 0 54 21q13 19 24 58z" glyph-name="Aacute" horiz-adv-x="650" unicode="Á"/>
<glyph d="M635 790l-123 -60q-5 -1 -7 2l-8 10q-1 3 3 7l143 135q8 6 14 -2l77 -136q1 -5 -3 -8l-10 -8q-4 -4 -9 0l-1 1zM478 336l74 256q4 12 -8 13q-7 -1 -12 -5l-210 -264h156zM466 300h-172l-116 -148q-51 -70 -52 -89q2 -25 38 -26h30q6 -2 6 -8l-4 -23q-3 -8 -10 -9h-14 q-60 3 -122 3q-51 0 -102 -2q-13 -1 -16 -1q-8 2 -8 10l4 22q3 7 8 8h14q50 0 103 53q9 9 16 17l467 553q9 10 26 10q28 0 64 7q8 1 22 4.5t18 3.5q11 0 11 -9q-1 -2 -1 -3l-148 -553q-10 -40 -10 -55q0 -21 25 -27q6 -1 11 -1h25q7 -2 7 -8l-4 -24q-3 -7 -13 -8q-3 0 -16 1 q-57 2 -113 2q-52 0 -103 -2q-18 -1 -25 -1q-7 2 -6 11l4 21q3 7 9 8h17q38 0 54 21q13 19 24 58z" glyph-name="Acircumflex" horiz-adv-x="650" unicode="Â"/>
<glyph d="M762 864l14 -8q4 -5 -2 -18q-39 -71 -82 -72q-38 0 -72 10q-38 10 -68 10q-22 0 -43 -26q-4 -6 -7 -10q-5 -3 -8 -2l-14 8q-2 4 0 10q16 49 54 74q15 10 28 10q27 0 82 -14q36 -6 58 -6q35 1 52 30q4 5 8 4zM478 336l74 256q4 12 -8 13q-7 -1 -12 -5l-210 -264h156z M466 300h-172l-116 -148q-51 -70 -52 -89q2 -25 38 -26h30q6 -2 6 -8l-4 -23q-3 -8 -10 -9h-14q-60 3 -122 3q-51 0 -102 -2q-13 -1 -16 -1q-8 2 -8 10l4 22q3 7 8 8h14q50 0 103 53q9 9 16 17l467 553q9 10 26 10q28 0 64 7q8 1 22 4.5t18 3.5q11 0 11 -9q-1 -2 -1 -3 l-148 -553q-10 -40 -10 -55q0 -21 25 -27q6 -1 11 -1h25q7 -2 7 -8l-4 -24q-3 -7 -13 -8q-3 0 -16 1q-57 2 -113 2q-52 0 -103 -2q-18 -1 -25 -1q-7 2 -6 11l4 21q3 7 9 8h17q38 0 54 21q13 19 24 58z" glyph-name="Atilde" horiz-adv-x="650" unicode="Ã"/>
<glyph d="M772 796q0 -36 -32 -46q-8 -2 -16 -2q-53 5 -56 52q0 29 29 40q13 4 27 4q38 0 46 -33q2 -8 2 -15zM584 796q0 -36 -34 -46q-8 -2 -16 -2q-53 2 -54 52q0 28 28 39q12 5 26 5q37 0 47 -31q3 -8 3 -17zM478 336l74 256q4 12 -8 13q-7 -1 -12 -5l-210 -264h156zM466 300 h-172l-116 -148q-51 -70 -52 -89q2 -25 38 -26h30q6 -2 6 -8l-4 -23q-3 -8 -10 -9h-14q-60 3 -122 3q-51 0 -102 -2q-13 -1 -16 -1q-8 2 -8 10l4 22q3 7 8 8h14q50 0 103 53q9 9 16 17l467 553q9 10 26 10q28 0 64 7q8 1 22 4.5t18 3.5q11 0 11 -9q-1 -2 -1 -3l-148 -553 q-10 -40 -10 -55q0 -21 25 -27q6 -1 11 -1h25q7 -2 7 -8l-4 -24q-3 -7 -13 -8q-3 0 -16 1q-57 2 -113 2q-52 0 -103 -2q-18 -1 -25 -1q-7 2 -6 11l4 21q3 7 9 8h17q38 0 54 21q13 19 24 58z" glyph-name="Adieresis" horiz-adv-x="650" unicode="Ä"/>
<glyph d="M617 756q35 0 47 31q4 10 4 22q0 42 -40 51q-7 1 -13 1q-30 0 -44 -28q-6 -12 -6 -25q0 -42 39 -51q7 -1 13 -1zM613 728q-69 0 -98 38q-12 16 -12 35q0 57 64 79q26 9 53 9q76 0 101 -45q9 -16 9 -36q0 -49 -60 -71q-27 -9 -57 -9zM478 336l74 256q4 12 -8 13 q-7 -1 -12 -5l-210 -264h156zM466 300h-172l-116 -148q-51 -70 -52 -89q2 -25 38 -26h30q6 -2 6 -8l-4 -23q-3 -8 -10 -9h-14q-60 3 -122 3q-51 0 -102 -2q-13 -1 -16 -1q-8 2 -8 10l4 22q3 7 8 8h14q50 0 103 53q9 9 16 17l467 553q9 10 26 10q26 0 64 3q11 1 26 5 q11 2 14 2q11 -2 9 -12l-147 -548q-10 -40 -10 -55q0 -21 25 -27q6 -1 11 -1h25q7 -2 7 -8l-4 -24q-3 -7 -13 -8q-3 0 -16 1q-57 2 -113 2q-52 0 -103 -2q-18 -1 -25 -1q-7 2 -6 11l4 21q3 7 9 8h17q38 0 54 21q13 19 24 58z" glyph-name="Aring" horiz-adv-x="650" unicode="Å"/>
<glyph d="M476 344l80 250q4 12 -3 13q-4 -1 -7 -5l-230 -258h160zM914 160l-50 -145q-12 -17 -22 -18q-5 0 -42 1q-49 1 -79 1h-102q-77 1 -113 1h-92q-78 0 -97 -1q-10 -1 -21 -1q-6 -1 -8 -1q-11 0 -11 9q1 2 1 3l2 20q4 7 8 8h38q54 1 70 53l68 218h-180l-140 -166 q-51 -62 -52 -81q2 -23 32 -24h30q8 -2 6 -10l-2 -20q-5 -9 -12 -10q-3 0 -15 1q-57 2 -107 2q-56 0 -108 -2q-13 -1 -16 -1q-7 2 -8 12l4 20q4 7 8 8h18q62 1 126 71l460 508q9 10 -1 16q-4 1 -7 1h-38q-9 0 -9 6v3l8 25q3 5 11 6h11q31 -1 50 -1q56 -2 67 -2h102 q87 0 161 2q24 0 53 1h14q14 0 18 -11l2 -8l32 -136q1 -5 -3 -9l-1 -1l-12 -6q-7 -1 -12 6l-104 117q-6 9 -18 9h-150l-94 -290h96q54 0 81 26q20 20 37 56q4 7 8 6l18 -4q5 -4 4 -8q-24 -57 -46 -166q-5 -22 -6 -34q-3 -6 -8 -6l-18 2q-6 2 -6 8q0 63 -46 77q-23 7 -64 7 h-60l-86 -272h218q45 1 88 38q25 21 90 104q7 5 12 2l12 -8q5 -5 2 -12z" glyph-name="AE" horiz-adv-x="956" unicode="Æ"/>
<glyph d="M636 199l-72 -216q-5 -5 -10 -4l-20 4q-3 5 -2 8q0 3 1 9t1 9q-3 13 -14 16q-15 0 -42 -12q-41 -20 -110 -26q-11 -1 -20 -1l-38 -54q63 -24 66 -64q0 -43 -62 -73q-47 -23 -98 -23q-19 1 -20 16q1 15 12 16q48 0 72 26q12 13 12 30q0 29 -45 43q-2 1 -3 1l61 84 q-125 12 -184 104q-35 56 -35 128q1 195 142 349q108 115 258 116q75 -1 132 -38q31 -25 46 -26q20 0 26 24v2q4 8 10 6l16 -4q8 -2 6 -10l-54 -208q-4 -7 -10 -6l-20 2q-6 2 -6 10q3 20 3 40q0 96 -60 139q-35 25 -83 25q-90 0 -158 -84q-11 -14 -22 -30q-89 -129 -97 -289 q-1 -12 -1 -23q0 -122 83 -166q29 -16 59 -16q165 2 244 174q6 7 10 6l20 -6q6 -3 6 -8z" glyph-name="Ccedilla" horiz-adv-x="664" unicode="Ç"/>
<glyph d="M521 728l-156 74q-27 15 -28 37q0 25 24 39q9 4 16 4q20 -1 42 -22l114 -114q3 -5 2 -8l-8 -10q0 -3 -6 0zM622 180l12 -8q3 -5 2 -11l-52 -146q-7 -17 -22 -18q-4 0 -35 1q-43 1 -71 1q-58 1 -198 1h-130q-17 0 -48 -1h-35l-44 -2q-6 0 -6 4v4l4 26q3 5 7 6h32 q54 1 70 53l153 475q4 14 4 25q-6 40 -53 43h-32q-8 2 -6 10l6 22q4 8 12 8h11q28 -1 47 -1q58 -2 86 -2h72q127 0 167 1q18 0 44 1q25 1 31 1q16 0 19 -11q2 -4 3 -9l30 -134q0 -8 -4 -11l-12 -6q-5 -1 -12 6l-102 118q-9 8 -18 8h-156l-84 -259h86q53 0 81 27q20 21 37 56 q4 5 8 6l18 -6q5 -1 4 -6q-24 -56 -47 -168q-4 -21 -5 -32q-3 -6 -8 -6h-18q-6 4 -6 10q0 62 -45 76q-23 7 -65 7h-50l-98 -303h224q46 1 88 38q12 10 86 97q4 5 6 7q5 6 12 2z" glyph-name="Egrave" horiz-adv-x="677" unicode="È"/>
<glyph d="M438 729l-6 10q-1 5 3 10l143 115q15 11 34 11q25 0 33 -27q2 -7 2 -13q-1 -27 -27 -39l-174 -68q-6 -2 -8 1zM622 180l12 -8q3 -5 2 -11l-52 -146q-7 -17 -22 -18q-4 0 -35 1q-43 1 -71 1q-58 1 -198 1h-130q-17 0 -48 -1h-35l-44 -2q-6 0 -6 4v4l4 26q3 5 7 6h32 q54 1 70 53l153 475q4 14 4 25q-6 40 -53 43h-32q-8 2 -6 10l6 22q4 8 12 8h11q28 -1 47 -1q58 -2 86 -2h72q127 0 167 1q18 0 44 1q25 1 31 1q16 0 19 -11q2 -4 3 -9l30 -134q0 -8 -4 -11l-12 -6q-5 -1 -12 6l-102 118q-9 8 -18 8h-156l-84 -259h86q53 0 81 27q20 21 37 56 q4 5 8 6l18 -6q5 -1 4 -6q-24 -56 -47 -168q-4 -21 -5 -32q-3 -6 -8 -6h-18q-6 4 -6 10q0 62 -45 76q-23 7 -65 7h-50l-98 -303h224q46 1 88 38q12 10 86 97q4 5 6 7q5 6 12 2z" glyph-name="Eacute" horiz-adv-x="677" unicode="É"/>
<glyph d="M499 790l-123 -60q-5 -1 -7 2l-8 10q-1 3 3 7l143 135q8 6 14 -2l77 -136q1 -5 -3 -8l-10 -8q-4 -4 -9 0l-1 1zM622 180l12 -8q3 -5 2 -11l-52 -146q-7 -17 -22 -18q-4 0 -35 1q-43 1 -71 1q-58 1 -198 1h-130q-17 0 -48 -1h-35l-44 -2q-6 0 -6 4v4l4 26q3 5 7 6h32 q54 1 70 53l153 475q4 14 4 25q-6 40 -53 43h-32q-8 2 -6 10l6 22q4 8 12 8h11q28 -1 47 -1q58 -2 86 -2h72q127 0 167 1q18 0 44 1q25 1 31 1q16 0 19 -11q2 -4 3 -9l30 -134q0 -8 -4 -11l-12 -6q-5 -1 -12 6l-102 118q-9 8 -18 8h-156l-84 -259h86q53 0 81 27q20 21 37 56 q4 5 8 6l18 -6q5 -1 4 -6q-24 -56 -47 -168q-4 -21 -5 -32q-3 -6 -8 -6h-18q-6 4 -6 10q0 62 -45 76q-23 7 -65 7h-50l-98 -303h224q46 1 88 38q12 10 86 97q4 5 6 7q5 6 12 2z" glyph-name="Ecircumflex" horiz-adv-x="677" unicode="Ê"/>
<glyph d="M626 796q0 -36 -32 -46q-8 -2 -16 -2q-53 5 -56 52q0 29 29 40q13 4 27 4q38 0 46 -33q2 -8 2 -15zM438 796q0 -36 -34 -46q-8 -2 -16 -2q-53 2 -54 52q0 28 28 39q12 5 26 5q37 0 47 -31q3 -8 3 -17zM622 180l12 -8q3 -5 2 -11l-52 -146q-7 -17 -22 -18q-4 0 -35 1 q-43 1 -71 1q-58 1 -198 1h-130q-17 0 -48 -1h-35l-44 -2q-6 0 -6 4v4l4 26q3 5 7 6h32q54 1 70 53l153 475q4 14 4 25q-6 40 -53 43h-32q-8 2 -6 10l6 22q4 8 12 8h11q28 -1 47 -1q58 -2 86 -2h72q127 0 167 1q18 0 44 1q25 1 31 1q16 0 19 -11q2 -4 3 -9l30 -134 q0 -8 -4 -11l-12 -6q-5 -1 -12 6l-102 118q-9 8 -18 8h-156l-84 -259h86q53 0 81 27q20 21 37 56q4 5 8 6l18 -6q5 -1 4 -6q-24 -56 -47 -168q-4 -21 -5 -32q-3 -6 -8 -6h-18q-6 4 -6 10q0 62 -45 76q-23 7 -65 7h-50l-98 -303h224q46 1 88 38q12 10 86 97q4 5 6 7q5 6 12 2 z" glyph-name="Edieresis" horiz-adv-x="677" unicode="Ë"/>
<glyph d="M359 728l-156 74q-27 15 -28 37q0 25 24 39q9 4 16 4q20 -1 42 -22l114 -114q3 -5 2 -8l-8 -10q0 -3 -6 0zM120 108l126 459q5 17 5 32q-2 33 -33 34h-46q-9 2 -10 8l6 26q0 6 12 6q3 0 20 -1q69 -2 126 -2q61 0 123 2q15 1 19 1q15 0 12 -12l-6 -20q-2 -7 -10 -8h-26 q-46 0 -64 -27q-9 -16 -16 -40l-124 -461q-5 -18 -5 -29q2 -38 49 -39h36q8 -2 6 -10l-2 -20q-7 -9 -12 -10h-16q-69 3 -144 3q-61 0 -129 -2q-16 -1 -19 -1q-7 2 -8 10l6 22q2 7 8 8h38q47 0 62 25q7 13 16 46z" glyph-name="Igrave" horiz-adv-x="374" unicode="Ì"/>
<glyph d="M326 729l-6 10q-1 5 3 10l143 115q15 11 34 11q25 0 33 -27q2 -7 2 -13q-1 -27 -27 -39l-174 -68q-6 -2 -8 1zM120 108l126 459q5 17 5 32q-2 33 -33 34h-46q-9 2 -10 8l6 26q0 6 12 6q3 0 20 -1q69 -2 126 -2q61 0 123 2q15 1 19 1q15 0 12 -12l-6 -20q-2 -7 -10 -8h-26 q-46 0 -64 -27q-9 -16 -16 -40l-124 -461q-5 -18 -5 -29q2 -38 49 -39h36q8 -2 6 -10l-2 -20q-7 -9 -12 -10h-16q-69 3 -144 3q-61 0 -129 -2q-16 -1 -19 -1q-7 2 -8 10l6 22q2 7 8 8h38q47 0 62 25q7 13 16 46z" glyph-name="Iacute" horiz-adv-x="374" unicode="Í"/>
<glyph d="M357 790l-123 -60q-5 -1 -7 2l-8 10q-1 3 3 7l143 135q8 6 14 -2l77 -136q1 -5 -3 -8l-10 -8q-4 -4 -9 0l-1 1zM120 108l126 459q5 17 5 32q-2 33 -33 34h-46q-9 2 -10 8l6 26q0 6 12 6q3 0 20 -1q69 -2 126 -2q61 0 123 2q15 1 19 1q15 0 12 -12l-6 -20q-2 -7 -10 -8 h-26q-46 0 -64 -27q-9 -16 -16 -40l-124 -461q-5 -18 -5 -29q2 -38 49 -39h36q8 -2 6 -10l-2 -20q-7 -9 -12 -10h-16q-69 3 -144 3q-61 0 -129 -2q-16 -1 -19 -1q-7 2 -8 10l6 22q2 7 8 8h38q47 0 62 25q7 13 16 46z" glyph-name="Icircumflex" horiz-adv-x="374" unicode="Î"/>
<glyph d="M494 796q0 -36 -32 -46q-8 -2 -16 -2q-53 5 -56 52q0 29 29 40q13 4 27 4q38 0 46 -33q2 -8 2 -15zM306 796q0 -36 -34 -46q-8 -2 -16 -2q-53 2 -54 52q0 28 28 39q12 5 26 5q37 0 47 -31q3 -8 3 -17zM120 108l126 459q5 17 5 32q-2 33 -33 34h-46q-9 2 -10 8l6 26 q0 6 12 6q3 0 20 -1q69 -2 126 -2q61 0 123 2q15 1 19 1q15 0 12 -12l-6 -20q-2 -7 -10 -8h-26q-46 0 -64 -27q-9 -16 -16 -40l-124 -461q-5 -18 -5 -29q2 -38 49 -39h36q8 -2 6 -10l-2 -20q-7 -9 -12 -10h-16q-69 3 -144 3q-61 0 -129 -2q-16 -1 -19 -1q-7 2 -8 10l6 22 q2 7 8 8h38q47 0 62 25q7 13 16 46z" glyph-name="Idieresis" horiz-adv-x="374" unicode="Ï"/>
<glyph d="M290 326l-54 -220q-6 -27 -6 -42q6 -25 56 -27q167 1 262 79q69 56 104 161q20 60 20 119q0 90 -53 153l-13 13q-45 44 -98 60q-48 13 -100 13q-41 -1 -46 -11l-62 -258h148q8 -1 8 -8l-8 -26q-3 -6 -14 -6h-144zM176 326h-100q-9 0 -8 6v2l8 26q4 6 10 6h100l53 217 q2 10 2 14q-3 34 -45 36h-44q-8 2 -8 8l6 22q3 7 13 7q34 0 100 2q64 1 95 1q206 0 303 -53q31 -17 55 -40q69 -71 74 -162v-20q0 -185 -138 -297q-23 -18 -47 -32q-126 -72 -322 -72h-11q-14 0 -65 1.5t-65 1.5q-71 0 -119 -3h-9q-8 2 -7 10l4 22q4 8 11 8h20q56 0 76 57 q4 10 6 20z" glyph-name="Eth" horiz-adv-x="796" unicode="Ð"/>
<glyph d="M694 864l14 -8q4 -5 -2 -18q-39 -71 -82 -72q-38 0 -72 10q-38 10 -68 10q-22 0 -43 -26q-4 -6 -7 -10q-5 -3 -8 -2l-14 8q-2 4 0 10q16 49 54 74q15 10 28 10q27 0 82 -14q36 -6 58 -6q35 1 52 30q4 5 8 4zM550 20l-252 514q-9 14 -14 3q-1 -2 -2 -5l-100 -334 q-23 -78 -23 -115q1 -45 35 -46h38q9 -2 10 -10l-4 -21q-7 -8 -12 -9q-3 0 -16 1q-56 2 -104 2q-50 0 -98 -2q-13 -1 -16 -1q-8 2 -7 11l3 21q5 7 10 8h22q44 0 72 53q13 26 28 70l122 386q7 21 7 39q-2 47 -51 48h-38q-10 2 -8 12l4 18q5 9 12 10h14q68 -3 156 -3 q19 0 29 -23q1 -2 1 -3l222 -462q4 -6 8 -7q5 0 11 19q1 1 1 2l106 324q15 50 15 75q-2 37 -31 38h-30q-11 0 -11 6q1 2 1 4l2 22q5 7 10 8q4 0 16 -1q49 -2 98 -2q34 0 69 2q12 1 17 1q12 -2 10 -14l-4 -18q-2 -7 -8 -8h-26q-35 0 -63 -79q-1 -1 -1 -2l-184 -526 q-9 -21 -20 -26q-17 2 -26 20z" glyph-name="Ntilde" horiz-adv-x="764" unicode="Ñ"/>
<glyph d="M505 728l-156 74q-27 15 -28 37q0 25 24 39q9 4 16 4q20 -1 42 -22l114 -114q3 -5 2 -8l-8 -10q0 -3 -6 0zM481 637q-81 -1 -144 -74q-86 -96 -125 -235q-17 -63 -17 -115q0 -127 83 -168q30 -14 65 -14q95 0 176 113q83 117 99 275q3 27 3 52q0 112 -73 151 q-30 15 -67 15zM457 685q143 0 217 -102q55 -77 55 -190q0 -147 -87 -263q-95 -128 -244 -143q-19 -2 -37 -2q-112 1 -180 66q-88 86 -88 230q0 151 92 268q95 119 237 134q18 2 35 2z" glyph-name="Ograve" horiz-adv-x="726" unicode="Ò"/>
<glyph d="M472 729l-6 10q-1 5 3 10l143 115q15 11 34 11q25 0 33 -27q2 -7 2 -13q-1 -27 -27 -39l-174 -68q-6 -2 -8 1zM481 637q-81 -1 -144 -74q-86 -96 -125 -235q-17 -63 -17 -115q0 -127 83 -168q30 -14 65 -14q95 0 176 113q83 117 99 275q3 27 3 52q0 112 -73 151 q-30 15 -67 15zM457 685q143 0 217 -102q55 -77 55 -190q0 -147 -87 -263q-95 -128 -244 -143q-19 -2 -37 -2q-112 1 -180 66q-88 86 -88 230q0 151 92 268q95 119 237 134q18 2 35 2z" glyph-name="Oacute" horiz-adv-x="726" unicode="Ó"/>
<glyph d="M493 790l-123 -60q-5 -1 -7 2l-8 10q-1 3 3 7l143 135q8 6 14 -2l77 -136q1 -5 -3 -8l-10 -8q-4 -4 -9 0l-1 1zM481 637q-81 -1 -144 -74q-86 -96 -125 -235q-17 -63 -17 -115q0 -127 83 -168q30 -14 65 -14q95 0 176 113q83 117 99 275q3 27 3 52q0 112 -73 151 q-30 15 -67 15zM457 685q143 0 217 -102q55 -77 55 -190q0 -147 -87 -263q-95 -128 -244 -143q-19 -2 -37 -2q-112 1 -180 66q-88 86 -88 230q0 151 92 268q95 119 237 134q18 2 35 2z" glyph-name="Ocircumflex" horiz-adv-x="726" unicode="Ô"/>
<glyph d="M600 864l14 -8q4 -5 -2 -18q-39 -71 -82 -72q-38 0 -72 10q-38 10 -68 10q-22 0 -43 -26q-4 -6 -7 -10q-5 -3 -8 -2l-14 8q-2 4 0 10q16 49 54 74q15 10 28 10q27 0 82 -14q36 -6 58 -6q35 1 52 30q4 5 8 4zM481 637q-81 -1 -144 -74q-86 -96 -125 -235q-17 -63 -17 -115 q0 -127 83 -168q30 -14 65 -14q95 0 176 113q83 117 99 275q3 27 3 52q0 112 -73 151q-30 15 -67 15zM457 685q143 0 217 -102q55 -77 55 -190q0 -147 -87 -263q-95 -128 -244 -143q-19 -2 -37 -2q-112 1 -180 66q-88 86 -88 230q0 151 92 268q95 119 237 134q18 2 35 2z " glyph-name="Otilde" horiz-adv-x="726" unicode="Õ"/>
<glyph d="M630 796q0 -36 -32 -46q-8 -2 -16 -2q-53 5 -56 52q0 29 29 40q13 4 27 4q38 0 46 -33q2 -8 2 -15zM442 796q0 -36 -34 -46q-8 -2 -16 -2q-53 2 -54 52q0 28 28 39q12 5 26 5q37 0 47 -31q3 -8 3 -17zM481 637q-81 -1 -144 -74q-86 -96 -125 -235q-17 -63 -17 -115 q0 -127 83 -168q30 -14 65 -14q95 0 176 113q83 117 99 275q3 27 3 52q0 112 -73 151q-30 15 -67 15zM457 685q143 0 217 -102q55 -77 55 -190q0 -147 -87 -263q-95 -128 -244 -143q-19 -2 -37 -2q-112 1 -180 66q-88 86 -88 230q0 151 92 268q95 119 237 134q18 2 35 2z " glyph-name="Odieresis" horiz-adv-x="726" unicode="Ö"/>
<glyph d="M260 190l-146 -146l-42 48l144 140l-144 142l46 46l146 -146l144 146l44 -44l-144 -142l144 -142l-44 -48z" glyph-name="multiply" unicode="×"/>
<glyph d="M209 122l372 470q-34 44 -98 45q-82 -1 -148 -76q-79 -87 -120 -224q-20 -69 -20 -123q0 -47 14 -92zM603 554l-372 -470q45 -51 110 -54q96 0 177 112q84 116 100 270q3 29 3 56q0 59 -18 86zM691 662l-42 -50q66 -64 78 -177q2 -19 2 -36q0 -152 -87 -270 q-96 -130 -250 -143q-15 -1 -29 -1q-110 1 -170 55l-40 -54q-6 -4 -10 -2l-22 20q-3 5 0 8l44 56q-69 85 -72 203q0 162 94 280q99 126 255 134h19q95 -1 156 -46l42 51q4 4 8 2l24 -18q6 -3 0 -12z" glyph-name="Oslash" horiz-adv-x="726" unicode="Ø"/>
<glyph d="M552 728l-156 74q-27 15 -28 37q0 25 24 39q9 4 16 4q20 -1 42 -22l114 -114q3 -5 2 -8l-8 -10q0 -3 -6 0zM743 554l-86 -274q-56 -181 -148 -246q-70 -49 -170 -49q-143 0 -199 85q-27 42 -27 98q0 53 20 126l86 277q5 15 5 31q-2 30 -33 31h-36q-6 0 -6 4v4l4 24 q5 8 14 8q3 0 15 -1q56 -2 123 -2q59 0 111 2q10 1 13 1q10 -2 10 -12l-4 -20q-3 -7 -10 -8h-28q-40 0 -57 -44q-2 -5 -3 -9l-82 -268q-26 -94 -29 -119q-1 -11 -1 -20q0 -103 93 -128q22 -6 43 -6q75 0 125 40q3 3 5 4q65 57 104 177l8 26l72 256q9 33 9 53q-2 37 -33 38 h-32q-10 1 -9 8l3 22q5 9 14 10q4 0 18 -1q52 -2 96 -2q41 0 77 2q10 1 13 1q10 0 11 -7q0 -3 -1 -5l-4 -20q-2 -7 -10 -8h-16q-43 -2 -68 -79z" glyph-name="Ugrave" horiz-adv-x="720" unicode="Ù"/>
<glyph d="M519 729l-6 10q-1 5 3 10l143 115q15 11 34 11q25 0 33 -27q2 -7 2 -13q-1 -27 -27 -39l-174 -68q-6 -2 -8 1zM743 554l-86 -274q-56 -181 -148 -246q-70 -49 -170 -49q-143 0 -199 85q-27 42 -27 98q0 53 20 126l86 277q5 15 5 31q-2 30 -33 31h-36q-6 0 -6 4v4l4 24 q5 8 14 8q3 0 15 -1q56 -2 123 -2q59 0 111 2q10 1 13 1q10 -2 10 -12l-4 -20q-3 -7 -10 -8h-28q-40 0 -57 -44q-2 -5 -3 -9l-82 -268q-26 -94 -29 -119q-1 -11 -1 -20q0 -103 93 -128q22 -6 43 -6q75 0 125 40q3 3 5 4q65 57 104 177l8 26l72 256q9 33 9 53q-2 37 -33 38 h-32q-10 1 -9 8l3 22q5 9 14 10q4 0 18 -1q52 -2 96 -2q41 0 77 2q10 1 13 1q10 0 11 -7q0 -3 -1 -5l-4 -20q-2 -7 -10 -8h-16q-43 -2 -68 -79z" glyph-name="Uacute" horiz-adv-x="720" unicode="Ú"/>
<glyph d="M550 790l-123 -60q-5 -1 -7 2l-8 10q-1 3 3 7l143 135q8 6 14 -2l77 -136q1 -5 -3 -8l-10 -8q-4 -4 -9 0l-1 1zM743 554l-86 -274q-56 -181 -148 -246q-70 -49 -170 -49q-143 0 -199 85q-27 42 -27 98q0 53 20 126l86 277q5 15 5 31q-2 30 -33 31h-36q-6 0 -6 4v4l4 24 q5 8 14 8q3 0 15 -1q56 -2 123 -2q59 0 111 2q10 1 13 1q10 -2 10 -12l-4 -20q-3 -7 -10 -8h-28q-40 0 -57 -44q-2 -5 -3 -9l-82 -268q-26 -94 -29 -119q-1 -11 -1 -20q0 -103 93 -128q22 -6 43 -6q75 0 125 40q3 3 5 4q65 57 104 177l8 26l72 256q9 33 9 53q-2 37 -33 38 h-32q-10 1 -9 8l3 22q5 9 14 10q4 0 18 -1q52 -2 96 -2q41 0 77 2q10 1 13 1q10 0 11 -7q0 -3 -1 -5l-4 -20q-2 -7 -10 -8h-16q-43 -2 -68 -79z" glyph-name="Ucircumflex" horiz-adv-x="720" unicode="Û"/>
<glyph d="M687 796q0 -36 -32 -46q-8 -2 -16 -2q-53 5 -56 52q0 29 29 40q13 4 27 4q38 0 46 -33q2 -8 2 -15zM499 796q0 -36 -34 -46q-8 -2 -16 -2q-53 2 -54 52q0 28 28 39q12 5 26 5q37 0 47 -31q3 -8 3 -17zM743 554l-86 -274q-56 -181 -148 -246q-70 -49 -170 -49 q-143 0 -199 85q-27 42 -27 98q0 53 20 126l86 277q5 15 5 31q-2 30 -33 31h-36q-6 0 -6 4v4l4 24q5 8 14 8q3 0 15 -1q56 -2 123 -2q59 0 111 2q10 1 13 1q10 -2 10 -12l-4 -20q-3 -7 -10 -8h-28q-40 0 -57 -44q-2 -5 -3 -9l-82 -268q-26 -94 -29 -119q-1 -11 -1 -20 q0 -103 93 -128q22 -6 43 -6q75 0 125 40q3 3 5 4q65 57 104 177l8 26l72 256q9 33 9 53q-2 37 -33 38h-32q-10 1 -9 8l3 22q5 9 14 10q4 0 18 -1q52 -2 96 -2q41 0 77 2q10 1 13 1q10 0 11 -7q0 -3 -1 -5l-4 -20q-2 -7 -10 -8h-16q-43 -2 -68 -79z" glyph-name="Udieresis" horiz-adv-x="720" unicode="Ü"/>
<glyph d="M420 729l-6 10q-1 5 3 10l143 115q15 11 34 11q25 0 33 -27q2 -7 2 -13q-1 -27 -27 -39l-174 -68q-6 -2 -8 1zM376 204l-24 -111q-4 -16 -4 -29q0 -23 21 -26q8 -1 19 -1h22q7 -1 8 -8l-4 -22q-2 -9 -10 -10q-5 0 -20 1q-54 2 -108 2q-66 0 -118 -2q-11 -1 -14 -1 q-8 2 -8 10l4 22q2 7 10 8h22q53 0 64 45l2 6l32 148q2 6 2 20q0 18 -4 32l-104 307q-14 37 -62 38h-22q-7 2 -8 8l4 24q4 8 10 8q4 0 17 -1q48 -2 103 -2q63 0 117 2q12 1 15 1q9 -2 10 -8l-2 -24q-4 -8 -10 -8h-26q-28 -1 -29 -26q0 -9 3 -18l80 -269q3 -12 9 -12 q6 2 11 10q3 4 22 33q135 204 144 229q5 17 5 25q-2 27 -39 28h-22q-8 2 -6 10l2 22q2 8 12 8q5 0 22 -1q49 -2 86 -2q42 0 87 2q15 1 19 1q9 -2 10 -10l-4 -20q-2 -9 -8 -10h-18q-43 -1 -74 -43q-162 -223 -209 -296q-2 -3 -3 -4q-23 -37 -34 -86z" glyph-name="Yacute" horiz-adv-x="582" unicode="Ý"/>
<glyph d="M337 506l-82 -313q26 -12 83 -12q108 0 159 87q27 47 27 100q0 106 -94 134q-25 7 -50 7h-14q-22 0 -29 -3zM244 154l-12 -46q-4 -15 -4 -30q2 -40 32 -41h38q9 0 9 -7q-1 -2 -1 -3l-2 -22q-4 -8 -12 -8q-3 0 -16 1q-58 2 -120 2q-58 0 -112 -2q-13 -1 -16 -1 q-9 2 -10 10l4 22q2 7 8 8h22q42 0 60 51q4 11 8 26l120 452q5 19 5 34q-2 32 -31 33h-42q-5 2 -6 10l7 22q4 7 9 8q3 0 17 -1q68 -2 123 -2q44 0 101 2q18 1 23 1q12 -2 12 -10l-4 -20q-5 -9 -12 -10h-24q-43 -2 -62 -58l-10 -31h36q120 0 175 -32q13 -8 25 -18 q48 -37 57 -89q3 -19 3 -43q0 -95 -80 -156q-81 -60 -216 -60q-67 0 -102 8z" glyph-name="Thorn" horiz-adv-x="618" unicode="Þ"/>
<glyph d="M292 -10q-80 0 -97 42q-3 8 -3 16q0 26 22 38q8 4 16 4q33 -2 46 -40q8 -27 32 -28q42 0 51 49q1 10 1 20q0 25 -33 82q-6 11 -9 17q-35 54 -39 88q-1 8 -1 16q0 53 63 118q2 3 7 8q9 8 12 12q60 61 60 145q0 44 -33 62q-12 6 -25 6q-60 0 -101 -112q-14 -38 -44 -150 q-70 -275 -119 -416q-57 -161 -149 -229q-50 -35 -101 -35q-53 0 -73 35q-7 12 -7 25q0 44 37 49q5 1 9 1q33 0 45 -38q2 -6 3 -10q5 -19 24 -20q53 0 116 193q5 14 9 27q4 14 77 298q20 78 29 104q39 128 74 187q21 34 47 63q38 41 102 60q28 8 52 8q91 0 113 -60 q5 -15 5 -31q0 -72 -86 -151q-6 -5 -10 -9q-41 -35 -52 -57q-8 -18 -8 -37q0 -37 41 -97l1 -1q39 -49 44 -108v-10q0 -74 -63 -112q-37 -22 -85 -22z" glyph-name="germandbls" horiz-adv-x="475" unicode="ß"/>
<glyph d="M354 470l-120 84q-18 15 -19 33q0 25 22 36q8 3 15 3q19 -1 38 -24l82 -115q2 -5 1 -8l-9 -9q-4 -2 -10 0zM144 58q31 0 112 106q40 52 52 78q24 48 24 90q0 21 -22 36q-12 8 -24 8q-40 -1 -82 -61q-70 -99 -82 -199q-2 -14 -2 -26q1 -31 24 -32zM404 418h54q8 -2 6 -10 q-40 -94 -72 -191q-1 -3 -2 -5q-2 -7 -16 -54q-26 -84 -26 -92q2 -11 12 -12q16 1 62 58q7 5 10 3l12 -9q3 -3 0 -12q-14 -27 -56 -61q-53 -42 -102 -43q-31 1 -32 26q0 19 41 138q1 1 1 2l-6 2q-114 -167 -206 -168q-29 0 -49 31q-13 19 -13 41q0 92 69 201q70 111 153 143 q27 10 52 10q51 -1 76 -34l16 28q6 8 16 8z" glyph-name="agrave" horiz-adv-x="467" unicode="à"/>
<glyph d="M470 536l-152 -66q-6 -2 -8 0l-7 9q-1 4 1 7l120 106q24 20 42 20q22 0 31 -24q2 -7 2 -13q-2 -26 -29 -39zM144 58q31 0 112 106q40 52 52 78q24 48 24 90q0 21 -22 36q-12 8 -24 8q-40 -1 -82 -61q-70 -99 -82 -199q-2 -14 -2 -26q1 -31 24 -32zM404 418h54q8 -2 6 -10 q-40 -94 -72 -191q-1 -3 -2 -5q-2 -7 -16 -54q-26 -84 -26 -92q2 -11 12 -12q16 1 62 58q7 5 10 3l12 -9q3 -3 0 -12q-14 -27 -56 -61q-53 -42 -102 -43q-31 1 -32 26q0 19 41 138q1 1 1 2l-6 2q-114 -167 -206 -168q-29 0 -49 31q-13 19 -13 41q0 92 69 201q70 111 153 143 q27 10 52 10q51 -1 76 -34l16 28q6 8 16 8z" glyph-name="aacute" horiz-adv-x="467" unicode="á"/>
<glyph d="M411 476l-60 66l-103 -65q-6 -2 -9 1l-6 8q-2 4 2 8l131 143q9 6 14 -5l49 -144q0 -5 -2 -7l-8 -5q-6 -2 -8 0zM144 58q31 0 112 106q40 52 52 78q24 48 24 90q0 21 -22 36q-12 8 -24 8q-40 -1 -82 -61q-70 -99 -82 -199q-2 -14 -2 -26q1 -31 24 -32zM404 418h54 q8 -2 6 -10q-40 -94 -72 -191q-1 -3 -2 -5q-2 -7 -16 -54q-26 -84 -26 -92q2 -11 12 -12q16 1 62 58q7 5 10 3l12 -9q3 -3 0 -12q-14 -27 -56 -61q-53 -42 -102 -43q-31 1 -32 26q0 19 41 138q1 1 1 2l-6 2q-114 -167 -206 -168q-29 0 -49 31q-13 19 -13 41q0 92 69 201 q70 111 153 143q27 10 52 10q51 -1 76 -34l16 28q6 8 16 8z" glyph-name="acircumflex" horiz-adv-x="467" unicode="â"/>
<glyph d="M458 594l14 -8q5 -5 -2 -18q-27 -50 -62 -64q-9 -4 -16 -4q-25 0 -62 11q-37 9 -44 9q-25 0 -46 -28q-4 -4 -6 -8q-4 -5 -8 -4l-12 8q-2 4 0 10q18 48 55 71q15 9 29 9q18 0 54 -11q26 -7 52 -7q29 1 46 30q4 5 8 4zM144 58q31 0 112 106q40 52 52 78q24 48 24 90 q0 21 -22 36q-12 8 -24 8q-40 -1 -82 -61q-70 -99 -82 -199q-2 -14 -2 -26q1 -31 24 -32zM404 418h54q8 -2 6 -10q-40 -94 -72 -191q-1 -3 -2 -5q-2 -7 -16 -54q-26 -84 -26 -92q2 -11 12 -12q16 1 62 58q7 5 10 3l12 -9q3 -3 0 -12q-14 -27 -56 -61q-53 -42 -102 -43 q-31 1 -32 26q0 19 41 138q1 1 1 2l-6 2q-114 -167 -206 -168q-29 0 -49 31q-13 19 -13 41q0 92 69 201q70 111 153 143q27 10 52 10q51 -1 76 -34l16 28q6 8 16 8z" glyph-name="atilde" horiz-adv-x="467" unicode="ã"/>
<glyph d="M428 537q-46 7 -50 46q0 27 26 38q11 4 24 4q34 0 44 -30q2 -8 2 -16q0 -32 -32 -40q-7 -2 -14 -2zM270 537q-46 7 -50 46q0 27 26 38q11 4 24 4q34 0 44 -30q2 -8 2 -16q0 -32 -32 -40q-7 -2 -14 -2zM144 58q31 0 112 106q40 52 52 78q24 48 24 90q0 21 -22 36 q-12 8 -24 8q-40 -1 -82 -61q-70 -99 -82 -199q-2 -14 -2 -26q1 -31 24 -32zM404 418h54q8 -2 6 -10q-45 -106 -72 -189q-1 -4 -2 -7q-1 -5 -10 -33q-32 -103 -32 -113q2 -11 12 -12q16 1 62 58q7 5 10 3l12 -9q3 -3 0 -12q-14 -27 -56 -61q-53 -42 -102 -43q-31 1 -32 26 q0 19 41 138q1 1 1 2l-6 2q-114 -167 -206 -168q-29 0 -49 31q-13 19 -13 41q0 92 69 201q70 111 153 143q27 10 52 10q51 -1 76 -34l16 28q6 8 16 8z" glyph-name="adieresis" horiz-adv-x="467" unicode="ä"/>
<glyph d="M294 558q0 -36 32 -46q8 -2 14 -2q32 0 42 32q2 9 2 18q0 40 -36 49q-5 1 -10 1q-29 0 -40 -29q-4 -11 -4 -23zM336 484q-63 0 -90 37q-12 16 -12 35q0 48 56 70q26 10 52 10q69 0 92 -43q8 -15 8 -33q0 -47 -55 -67q-24 -9 -51 -9zM144 58q31 0 112 106q40 52 52 78 q24 48 24 90q0 21 -22 36q-12 8 -24 8q-40 -1 -82 -61q-70 -99 -82 -199q-2 -14 -2 -26q1 -31 24 -32zM404 418h54q8 -2 6 -10q-40 -94 -72 -191q-1 -3 -2 -5q-2 -7 -16 -54q-26 -84 -26 -92q2 -11 12 -12q16 1 62 58q7 5 10 3l12 -9q3 -3 0 -12q-14 -27 -56 -61 q-53 -42 -102 -43q-31 1 -32 26q0 19 41 138q1 1 1 2l-6 2q-114 -167 -206 -168q-29 0 -49 31q-13 19 -13 41q0 92 69 201q70 111 153 143q27 10 52 10q51 -1 76 -34l16 28q6 8 16 8z" glyph-name="aring" horiz-adv-x="467" unicode="å"/>
<glyph d="M106 90q3 -32 28 -34q30 1 98 56q13 112 86 197q12 14 22 23q12 13 10 20q-1 7 -10 7q-34 0 -97 -51q-24 -21 -45 -44q-70 -80 -89 -155q-2 -11 -3 -19zM336 166q77 49 110 82q43 44 44 85q-2 36 -34 37q-38 0 -77 -74q-32 -61 -43 -130zM502 108l12 -10q5 -5 2 -10 q-30 -47 -90 -76q-45 -22 -92 -22q-77 0 -97 71q-2 7 -3 14q-106 -84 -172 -85q-31 0 -48 32q-6 13 -6 24q0 93 100 201q91 100 195 138q2 1 3 1q85 30 178 30q86 0 93 -59q1 -5 1 -9q-1 -60 -83 -121q-53 -39 -163 -97v-30q7 -40 40 -49q7 -2 14 -2q63 0 103 55q2 3 3 4 q5 3 10 0z" glyph-name="ae" horiz-adv-x="570" unicode="æ"/>
<glyph d="M48 -90l63 83q-45 6 -65 50q-9 21 -9 46q0 105 64 207q65 103 146 118q12 2 23 2q50 0 66 -40q3 -9 3 -16q0 -32 -26 -46q-9 -4 -16 -4q-26 2 -34 24q-14 29 -31 30q-31 -2 -60 -68q-39 -94 -39 -176q1 -71 41 -72q36 0 76 37l7 7q4 6 8 4l14 -10q4 -6 2 -10 q-23 -33 -70 -61q-30 -17 -58 -22l-47 -63q57 -20 58 -60q0 -46 -80 -73q-40 -13 -70 -13q-19 1 -20 18q2 15 18 16q42 0 65 27q9 11 9 21q0 26 -35 43q-2 1 -3 1z" glyph-name="ccedilla" horiz-adv-x="318" unicode="ç"/>
<glyph d="M315 470l-120 84q-18 15 -19 33q0 25 22 36q8 3 15 3q19 -1 38 -24l82 -115q2 -5 1 -8l-9 -9q-4 -2 -10 0zM260 368q-42 0 -84 -78q-20 -38 -28 -72q36 0 82 26q10 6 18 12q40 36 42 76q-2 35 -30 36zM300 110l15 -11q5 -5 3 -9q-28 -46 -86 -77q-46 -23 -92 -23 q-88 0 -103 77q-3 14 -3 29q0 96 66 192q26 37 58 66q70 60 150 62q50 0 66 -38q4 -11 4 -21q0 -76 -88 -127l-4 -2q-74 -38 -146 -42q-10 -26 -10 -74q0 -45 35 -60q10 -4 19 -4q59 0 103 53q3 4 5 7q5 3 8 2z" glyph-name="egrave" horiz-adv-x="370" unicode="è"/>
<glyph d="M421 536l-152 -66q-6 -2 -8 0l-7 9q-1 4 1 7l120 106q24 20 42 20q22 0 31 -24q2 -7 2 -13q-2 -26 -29 -39zM260 368q-42 0 -84 -78q-20 -38 -28 -72q36 0 82 26q10 6 18 12q40 36 42 76q-2 35 -30 36zM300 110l15 -11q5 -5 3 -9q-28 -46 -86 -77q-46 -23 -92 -23 q-88 0 -103 77q-3 14 -3 29q0 96 66 192q26 37 58 66q70 60 150 62q50 0 66 -38q4 -11 4 -21q0 -76 -88 -127l-4 -2q-74 -38 -146 -42q-10 -26 -10 -74q0 -45 35 -60q10 -4 19 -4q59 0 103 53q3 4 5 7q5 3 8 2z" glyph-name="eacute" horiz-adv-x="370" unicode="é"/>
<glyph d="M372 476l-60 66l-103 -65q-6 -2 -9 1l-6 8q-2 4 2 8l131 143q9 6 14 -5l49 -144q0 -5 -2 -7l-8 -5q-6 -2 -8 0zM260 368q-42 0 -84 -78q-20 -38 -28 -72q36 0 82 26q10 6 18 12q40 36 42 76q-2 35 -30 36zM300 110l15 -11q5 -5 3 -9q-28 -46 -86 -77q-46 -23 -92 -23 q-88 0 -103 77q-3 14 -3 29q0 96 66 192q26 37 58 66q70 60 150 62q50 0 66 -38q4 -11 4 -21q0 -76 -88 -127l-4 -2q-74 -38 -146 -42q-10 -26 -10 -74q0 -45 35 -60q10 -4 19 -4q59 0 103 53q3 4 5 7q5 3 8 2z" glyph-name="ecircumflex" horiz-adv-x="370" unicode="ê"/>
<glyph d="M400 537q-46 7 -50 46q0 27 26 38q11 4 24 4q34 0 44 -30q2 -8 2 -16q0 -32 -32 -40q-7 -2 -14 -2zM242 537q-46 7 -50 46q0 27 26 38q11 4 24 4q34 0 44 -30q2 -8 2 -16q0 -32 -32 -40q-7 -2 -14 -2zM260 368q-42 0 -84 -78q-20 -38 -28 -72q36 0 82 26q10 6 18 12 q40 36 42 76q-2 35 -30 36zM300 110l15 -11q5 -5 3 -9q-28 -46 -86 -77q-46 -23 -92 -23q-88 0 -103 77q-3 14 -3 29q0 96 66 192q26 37 58 66q70 60 150 62q50 0 66 -38q4 -11 4 -21q0 -73 -79 -122q-7 -4 -13 -7q-71 -38 -146 -42q-10 -26 -10 -74q0 -45 35 -60 q10 -4 19 -4q59 0 103 53q3 4 5 7q5 3 8 2z" glyph-name="edieresis" horiz-adv-x="370" unicode="ë"/>
<glyph d="M236 470l-120 84q-18 15 -19 33q0 25 22 36q8 3 15 3q19 -1 38 -24l82 -115q2 -5 1 -8l-9 -9q-4 -2 -10 0zM232 280l-56 -152q-18 -49 -18 -64q2 -13 12 -14q21 2 72 57q4 5 6 7q4 5 9 1l11 -11q5 -7 2 -10q-59 -78 -140 -98q-23 -6 -45 -6q-28 2 -29 28q0 15 43 139 l13 39l28 78q3 10 8 26q8 24 8 32q0 12 -12 12q-17 -1 -76 -68q-6 -6 -12 0l-10 9q-5 5 -4 9l4 4q100 117 180 118q35 -2 36 -32q-1 -27 -30 -104z" glyph-name="igrave" horiz-adv-x="292" unicode="ì"/>
<glyph d="M362 536l-152 -66q-6 -2 -8 0l-7 9q-1 4 1 7l120 106q24 20 42 20q22 0 31 -24q2 -7 2 -13q-2 -26 -29 -39zM232 280l-56 -152q-18 -49 -18 -64q2 -13 12 -14q21 2 72 57q4 5 6 7q4 5 9 1l11 -11q5 -7 2 -10q-59 -78 -140 -98q-23 -6 -45 -6q-28 2 -29 28q0 15 43 139 l13 39l28 78q3 10 8 26q8 24 8 32q0 12 -12 12q-17 -1 -76 -68q-6 -6 -12 0l-10 9q-5 5 -4 9l4 4q100 117 180 118q35 -2 36 -32q-1 -27 -30 -104z" glyph-name="iacute" horiz-adv-x="292" unicode="í"/>
<glyph d="M303 476l-60 66l-103 -65q-6 -2 -9 1l-6 8q-2 4 2 8l131 143q9 6 14 -5l49 -144q0 -5 -2 -7l-8 -5q-6 -2 -8 0zM232 280l-56 -152q-18 -49 -18 -64q2 -13 12 -14q21 2 72 57q4 5 6 7q4 5 9 1l11 -11q5 -7 2 -10q-59 -78 -140 -98q-23 -6 -45 -6q-28 2 -29 28q0 15 43 139 l13 39l28 78q3 10 8 26q8 24 8 32q0 12 -12 12q-17 -1 -76 -68q-6 -6 -12 0l-10 9q-5 5 -4 9l4 4q100 117 180 118q35 -2 36 -32q-1 -27 -30 -104z" glyph-name="icircumflex" horiz-adv-x="292" unicode="î"/>
<glyph d="M331 537q-46 7 -50 46q0 27 26 38q11 4 24 4q34 0 44 -30q2 -8 2 -16q0 -32 -32 -40q-7 -2 -14 -2zM173 537q-46 7 -50 46q0 27 26 38q11 4 24 4q34 0 44 -30q2 -8 2 -16q0 -32 -32 -40q-7 -2 -14 -2zM232 280l-56 -152q-18 -49 -18 -64q2 -13 12 -14q21 2 72 57q4 5 6 7 q4 5 9 1l11 -11q5 -7 2 -10q-59 -78 -140 -98q-23 -6 -45 -6q-28 2 -29 28q1 24 56 178l28 78q16 43 16 58q0 12 -12 12q-17 -1 -76 -68q-6 -6 -12 0l-10 9q-5 5 -4 9l4 4q100 117 180 118q35 -2 36 -32q0 -22 -30 -104z" glyph-name="idieresis" horiz-adv-x="292" unicode="ï"/>
<glyph d="M164 26q45 0 98 106q51 101 59 181q1 8 1 15q0 41 -37 47q-5 1 -9 1q-55 0 -107 -117q-9 -20 -17 -41q-36 -92 -36 -136q0 -38 27 -52q10 -4 21 -4zM168 -10q-98 0 -123 82q-7 25 -7 56q0 101 53 186q66 101 171 102q34 -1 56 -16h6q0 61 -26 127l-105 -37q-7 -1 -10 5 l-7 22q0 6 4 8l106 37q-18 44 -60 99q-4 3 0 8l18 14q4 2 8 0q41 -28 77 -77q10 -13 15 -23l82 30q7 2 9 -3l9 -23q2 -6 -4 -9l-78 -26q50 -96 50 -212q0 -113 -54 -215q-72 -134 -190 -135z" glyph-name="eth" horiz-adv-x="426" unicode="ð"/>
<glyph d="M489 594l14 -8q5 -5 -2 -18q-27 -50 -62 -64q-9 -4 -16 -4q-25 0 -62 11q-37 9 -44 9q-25 0 -46 -28q-4 -4 -6 -8q-4 -5 -8 -4l-12 8q-2 4 0 10q18 48 55 71q15 9 29 9q18 0 54 -11q26 -7 52 -7q29 1 46 30q4 5 8 4zM162 98l-32 -92q-5 -6 -14 -6h-64q-11 1 -8 13l68 185 q44 129 45 135q1 3 1 5q-2 15 -15 16q-21 -1 -73 -52q-4 -5 -9 -1l-11 11q-6 5 -2 10q46 60 112 83q30 11 59 11q33 -6 38 -34q0 -20 -47 -134l6 -4q73 113 151 154q35 18 66 18q41 0 54 -37q3 -10 3 -19q-1 -42 -54 -176q-40 -101 -40 -118q1 -15 12 -16q16 0 52 37 q7 7 10 11q7 2 12 -2l10 -8q6 -3 0 -12q-23 -31 -72 -59q-48 -27 -94 -27q-33 2 -34 30q0 12 49 144q6 17 11 30q43 120 43 130q-2 23 -23 24q-28 0 -93 -68q-39 -41 -63 -80q-37 -59 -54 -102z" glyph-name="ntilde" horiz-adv-x="530" unicode="ñ"/>
<glyph d="M305 470l-120 84q-18 15 -19 33q0 25 22 36q8 3 15 3q19 -1 38 -24l82 -115q2 -5 1 -8l-9 -9q-4 -2 -10 0zM146 44q59 2 114 93q52 88 66 161q2 12 2 21q0 33 -27 42q-8 3 -16 3q-53 0 -113 -93q-8 -12 -15 -24q-53 -90 -53 -156q0 -32 27 -44q8 -3 15 -3zM160 -10 q-63 0 -97 52q-23 36 -23 85q1 134 84 225q59 64 142 64q69 0 103 -51q21 -31 21 -75q0 -90 -46 -177q-18 -33 -40 -57q-58 -66 -144 -66z" glyph-name="ograve" horiz-adv-x="410" unicode="ò"/>
<glyph d="M421 536l-152 -66q-6 -2 -8 0l-7 9q-1 4 1 7l120 106q24 20 42 20q22 0 31 -24q2 -7 2 -13q-2 -26 -29 -39zM146 44q59 2 114 93q52 88 66 161q2 12 2 21q0 33 -27 42q-8 3 -16 3q-53 0 -113 -93q-8 -12 -15 -24q-53 -90 -53 -156q0 -32 27 -44q8 -3 15 -3zM160 -10 q-63 0 -97 52q-23 36 -23 85q1 134 84 225q59 64 142 64q69 0 103 -51q21 -31 21 -75q0 -90 -46 -177q-18 -33 -40 -57q-58 -66 -144 -66z" glyph-name="oacute" horiz-adv-x="410" unicode="ó"/>
<glyph d="M362 476l-60 66l-103 -65q-6 -2 -9 1l-6 8q-2 4 2 8l131 143q9 6 14 -5l49 -144q0 -5 -2 -7l-8 -5q-6 -2 -8 0zM146 44q59 2 114 93q52 88 66 161q2 12 2 21q0 33 -27 42q-8 3 -16 3q-53 0 -113 -93q-8 -12 -15 -24q-53 -90 -53 -156q0 -32 27 -44q8 -3 15 -3zM160 -10 q-63 0 -97 52q-23 36 -23 85q1 134 84 225q59 64 142 64q69 0 103 -51q21 -31 21 -75q0 -90 -46 -177q-18 -33 -40 -57q-58 -66 -144 -66z" glyph-name="ocircumflex" horiz-adv-x="410" unicode="ô"/>
<glyph d="M399 594l14 -8q5 -5 -2 -18q-27 -50 -62 -64q-9 -4 -16 -4q-25 0 -62 11q-37 9 -44 9q-25 0 -46 -28q-4 -4 -6 -8q-4 -5 -8 -4l-12 8q-2 4 0 10q18 48 55 71q15 9 29 9q18 0 54 -11q26 -7 52 -7q29 1 46 30q4 5 8 4zM146 44q59 2 114 93q52 88 66 161q2 12 2 21 q0 33 -27 42q-8 3 -16 3q-53 0 -113 -93q-8 -12 -15 -24q-53 -90 -53 -156q0 -32 27 -44q8 -3 15 -3zM160 -10q-63 0 -97 52q-23 36 -23 85q1 134 84 225q59 64 142 64q69 0 103 -51q21 -31 21 -75q0 -90 -46 -177q-18 -33 -40 -57q-58 -66 -144 -66z" glyph-name="otilde" horiz-adv-x="410" unicode="õ"/>
<glyph d="M400 537q-46 7 -50 46q0 27 26 38q11 4 24 4q34 0 44 -30q2 -8 2 -16q0 -32 -32 -40q-7 -2 -14 -2zM242 537q-46 7 -50 46q0 27 26 38q11 4 24 4q34 0 44 -30q2 -8 2 -16q0 -32 -32 -40q-7 -2 -14 -2zM146 44q59 2 114 93q52 88 66 161q2 12 2 21q0 33 -27 42q-8 3 -16 3 q-53 0 -113 -93q-8 -12 -15 -24q-53 -90 -53 -156q0 -32 27 -44q8 -3 15 -3zM160 -10q-63 0 -97 52q-23 36 -23 85q1 134 84 225q59 64 142 64q69 0 103 -51q21 -31 21 -75q0 -89 -47 -177q-18 -33 -39 -57q-61 -66 -144 -66z" glyph-name="odieresis" horiz-adv-x="410" unicode="ö"/>
<glyph d="M320 87q0 -38 -35 -50q-11 -3 -21 -3q-40 0 -54 32q-4 10 -4 21q0 36 33 51q13 5 25 5q38 0 52 -34q4 -11 4 -22zM320 399q0 -35 -32 -49q-12 -5 -24 -5q-42 0 -55 35q-3 10 -3 19q0 35 32 50q13 5 26 5q37 0 51 -32q5 -12 5 -23zM460 276v-64h-394v64h394z" glyph-name="divide" unicode="÷"/>
<glyph d="M104 91l212 257q-7 15 -32 16q-46 0 -93 -62q-16 -22 -35 -52q-51 -78 -53 -151v-7zM330 312l-213 -254q13 -13 29 -14q58 2 118 96q44 68 64 145q4 14 5 24zM42 -14l-18 18q-2 4 2 8l34 36q-20 44 -20 78q0 120 65 206q9 11 17 20q62 64 144 64q52 -1 84 -32l28 36 q4 4 8 2l20 -16q4 -5 0 -10l-32 -38q16 -41 16 -70q0 -88 -47 -176q-17 -30 -37 -54q-63 -68 -148 -68q-42 1 -74 32l-31 -36q-6 -4 -11 0z" glyph-name="oslash" horiz-adv-x="410" unicode="ø"/>
<glyph d="M351 470l-120 84q-18 15 -19 33q0 25 22 36q8 3 15 3q19 -1 38 -24l82 -115q2 -5 1 -8l-9 -9q-4 -2 -10 0zM368 310l30 90q3 6 14 6h68q10 0 11 -7q0 -3 -1 -5l-70 -204q-40 -113 -40 -126q1 -11 10 -12q17 0 58 47q5 5 8 9q4 5 10 1l12 -9q2 -4 0 -10q-18 -28 -60 -59 q-55 -41 -106 -41q-30 3 -32 30q0 3 2.5 11t7 21.5l8.5 25.5t11 30t10 27t9 25l7 17l-7 4q-134 -190 -234 -191q-25 0 -40 27q-6 10 -6 19q0 36 48 144q4 9 17 37q43 94 43 123q-2 15 -18 16q-20 0 -66 -48q-4 -3 -6 -6q-4 -6 -11 0l-11 10q-2 4 0 8q86 95 166 96 q32 0 40 -31q2 -6 2 -11q-1 -33 -57 -167q-47 -111 -47 -133q1 -15 16 -16q30 0 113 100q31 37 45 60q31 49 46 92z" glyph-name="ugrave" horiz-adv-x="502" unicode="ù"/>
<glyph d="M487 536l-152 -66q-6 -2 -8 0l-7 9q-1 4 1 7l120 106q24 20 42 20q22 0 31 -24q2 -7 2 -13q-2 -26 -29 -39zM368 310l30 90q3 6 14 6h68q10 0 11 -7q0 -3 -1 -5l-70 -204q-40 -113 -40 -126q1 -11 10 -12q17 0 58 47q5 5 8 9q4 5 10 1l12 -9q2 -4 0 -10q-18 -28 -60 -59 q-55 -41 -106 -41q-30 3 -32 30q0 3 2.5 11t7 21.5l8.5 25.5t11 30t10 27t9 25l7 17l-7 4q-134 -190 -234 -191q-25 0 -40 27q-6 10 -6 19q0 36 48 144q4 9 17 37q43 94 43 123q-2 15 -18 16q-20 0 -66 -48q-4 -3 -6 -6q-4 -6 -11 0l-11 10q-2 4 0 8q86 95 166 96 q32 0 40 -31q2 -6 2 -11q-1 -33 -57 -167q-47 -111 -47 -133q1 -15 16 -16q30 0 113 100q31 37 45 60q31 49 46 92z" glyph-name="uacute" horiz-adv-x="502" unicode="ú"/>
<glyph d="M418 476l-60 66l-103 -65q-6 -2 -9 1l-6 8q-2 4 2 8l131 143q9 6 14 -5l49 -144q0 -5 -2 -7l-8 -5q-6 -2 -8 0zM368 310l30 90q3 6 14 6h68q10 0 11 -7q0 -3 -1 -5l-70 -204q-40 -113 -40 -126q1 -11 10 -12q17 0 58 47q5 5 8 9q4 5 10 1l12 -9q2 -4 0 -10 q-18 -28 -60 -59q-55 -41 -106 -41q-30 3 -32 30q0 3 2.5 11t7 21.5l8.5 25.5t11 30t10 27t9 25l7 17l-7 4q-134 -190 -234 -191q-25 0 -40 27q-6 10 -6 19q0 36 48 144q4 9 17 37q43 94 43 123q-2 15 -18 16q-20 0 -66 -48q-4 -3 -6 -6q-4 -6 -11 0l-11 10q-2 4 0 8 q86 95 166 96q32 0 40 -31q2 -6 2 -11q-1 -33 -57 -167q-47 -111 -47 -133q1 -15 16 -16q30 0 113 100q31 37 45 60q31 49 46 92z" glyph-name="ucircumflex" horiz-adv-x="502" unicode="û"/>
<glyph d="M446 537q-46 7 -50 46q0 27 26 38q11 4 24 4q34 0 44 -30q2 -8 2 -16q0 -32 -32 -40q-7 -2 -14 -2zM288 537q-46 7 -50 46q0 27 26 38q11 4 24 4q34 0 44 -30q2 -8 2 -16q0 -32 -32 -40q-7 -2 -14 -2zM368 310l30 90q3 6 14 6h68q11 0 11 -7q0 -3 -1 -5l-70 -204 q-40 -113 -40 -126q1 -11 10 -12q17 0 58 47q5 5 8 9q4 5 10 1l12 -9q2 -4 0 -10q-18 -28 -60 -59q-55 -41 -106 -41q-30 3 -32 30q0 3 2.5 11t7 21.5l8.5 25.5t11 30t10 27t9 25l7 17l-7 4q-134 -190 -234 -191q-25 0 -40 27q-6 10 -6 19q0 36 48 144q4 9 17 37 q43 94 43 123q-2 15 -18 16q-20 0 -66 -48q-4 -3 -6 -6q-4 -6 -11 0l-11 10q-2 4 0 8q86 95 166 96q32 0 40 -31q2 -6 2 -11q-1 -33 -57 -167q-47 -111 -47 -133q1 -15 16 -16q30 0 113 100q31 37 45 60q31 49 46 92z" glyph-name="udieresis" horiz-adv-x="502" unicode="ü"/>
<glyph d="M438 536l-152 -66q-6 -2 -8 0l-7 9q-1 4 1 7l120 106q24 20 42 20q22 0 31 -24q2 -7 2 -13q-2 -26 -29 -39zM236 24h5q54 96 82 175q6 15 8 25q12 48 12 64q0 22 -8 46q-10 30 -10 40q0 28 28 38q10 4 22 4q49 -2 50 -64q-1 -61 -70 -200q-83 -163 -182 -289 q-33 -42 -61 -69q-60 -58 -95 -76q-29 -15 -56 -15q-54 0 -63 40q-1 7 -1 12q0 34 31 48q8 3 15 4q19 -1 36 -18q14 -13 28 -14q21 1 45 17q48 35 99 114q12 20 12 47q0 8 -2 21q-9 144 -29 294q-5 36 -8 48q-6 23 -14 25q-3 1 -5 1q-19 0 -46 -58q-4 -8 -6 -14q-4 -6 -9 -5 l-15 5q-4 2 -2 12q26 78 76 114q28 20 58 20q40 0 54 -54q6 -23 8 -56q10 -147 13 -282z" glyph-name="yacute" horiz-adv-x="423" unicode="ý"/>
<glyph d="M269 367l-124 -331q83 10 152 74q72 69 73 155q0 80 -49 100q-12 5 -23 5q-4 0 -29 -3zM-26 -186l198 530q-53 -14 -108 -71q-6 -6 -10 -11q-6 -3 -11 0l-11 8q-2 6 0 10q65 83 158 118l88 239q7 14 16 18l88 28q2 0 7 1q2 1 3 1q3 -1 4 -6q0 -1 -1 -4t-1 -4l-108 -257 q13 2 38 2q98 0 130 -72q12 -27 12 -59q0 -106 -96 -189q-6 -4 -10 -8q-80 -66 -204 -85q-14 -2 -26 -3l-70 -196q-9 -26 -9 -40q2 -27 41 -28h26q5 -1 6 -8l-8 -22q-5 -6 -12 -6q-3 0 -13 1q-48 2 -103 2q-59 0 -106 -2q-11 -1 -14 -1q-7 0 -7 4q1 2 1 4l4 20q5 7 10 8h16 q44 0 68 46q7 14 14 32z" glyph-name="thorn" horiz-adv-x="480" unicode="þ"/>
<glyph d="M846 282l103 296q5 21 -6 22q-10 -1 -29 -18q-47 -43 -182 -228q-30 -42 -51 -72h165zM833 246h-182q-81 -108 -137 -166q-140 -139 -298 -141q-98 0 -160 67q-57 60 -57 155q0 91 61 150q51 47 120 47q58 0 73 -42q3 -8 3 -14q0 -36 -35 -46q-9 -3 -18 -3q-5 0 -9.5 0.5 t-8.5 2.5t-6.5 3.5t-6.5 5t-5.5 4t-5.5 5.5l-4 4q-20 19 -41 19q-23 -1 -49 -32q-28 -35 -28 -83q0 -106 103 -147q44 -17 92 -17q142 0 281 137q62 61 148 173q182 238 239 287q72 62 154 69q13 1 27 1q78 0 106 -35q9 -11 9 -22q0 -18 -18 -22q-4 -1 -7 -1q-22 1 -38 23 q-16 19 -37 20q-21 0 -36 -36q-6 -14 -12 -33l-147 -459q-13 -41 -13 -57q4 -24 28 -26h36q7 -1 8 -7l-3 -25q-6 -7 -13 -8q-3 0 -16 1q-60 2 -123 2q-56 0 -108 -2q-15 -1 -20 -1q-9 0 -9 7v3l3 22q4 7 9 8h22q47 0 65 31q7 10 11 23z" glyph-name="A.swash" horiz-adv-x="1038" unicode=""/>
<glyph d="M949 578q5 19 -6 22q-10 -1 -29 -18q-47 -43 -182 -228q-30 -42 -51 -72h165zM1374 519q0 -8 -4 -11l-12 -6q-5 0 -12 6l-102 118q-9 8 -18 8h-156l-84 -259h86q53 0 81 27q20 21 37 56q4 5 8 6l18 -6q5 -1 4 -6q-24 -56 -47 -168q-4 -21 -5 -32q-3 -6 -8 -6h-18 q-6 4 -6 10q0 62 -45 76q-23 7 -65 7h-50l-98 -303h224q46 1 88 38q12 10 86 97q4 5 6 7q5 6 12 2l12 -8q3 -5 2 -11l-52 -146q-7 -17 -22 -18q-4 0 -35 1q-43 1 -71 1q-55 1 -161 1h-161q-24 0 -59 -1h-28l-40 -2q-9 0 -9 7v3l3 22q4 7 9 8h22q47 0 65 31q7 10 11 23 l53 155h-182q-81 -108 -137 -166q-140 -139 -298 -141q-98 0 -160 67q-57 60 -57 155q0 91 61 150q51 47 120 47q58 0 73 -42q3 -8 3 -14q0 -36 -35 -46q-9 -3 -18 -3q-5 0 -9.5 0.5t-8.5 2.5t-6.5 3.5t-6.5 5t-5.5 4t-5.5 5.5l-4 4q-20 19 -41 19q-23 -1 -49 -32 q-28 -35 -28 -83q0 -106 103 -147q44 -17 92 -17q142 0 281 137q62 61 148 173q182 238 239 287q48 41 84 50q27 6 71 6h139h51q18 0 44 1q25 1 31 1q16 0 19 -11q2 -4 3 -9z" glyph-name="AE.swash" horiz-adv-x="1344" unicode=""/>
<glyph d="M998 729l-6 10q-1 5 3 10l143 115q15 11 34 11q25 0 33 -27q2 -7 2 -13q-1 -27 -27 -39l-174 -68q-6 -2 -8 1zM846 282l103 296q5 21 -6 22q-10 -1 -29 -18q-47 -43 -182 -228q-30 -42 -51 -72h165zM833 246h-182q-81 -108 -137 -166q-140 -139 -298 -141q-98 0 -160 67 q-57 60 -57 155q0 91 61 150q51 47 120 47q58 0 73 -42q3 -8 3 -14q0 -36 -35 -46q-9 -3 -18 -3q-5 0 -9.5 0.5t-8.5 2.5t-6.5 3.5t-6.5 5t-5.5 4t-5.5 5.5l-4 4q-20 19 -41 19q-23 -1 -49 -32q-28 -35 -28 -83q0 -106 103 -147q44 -17 92 -17q142 0 281 137q62 61 148 173 q182 238 239 287q72 62 154 69q13 1 27 1q78 0 106 -35q9 -11 9 -22q0 -18 -18 -22q-4 -1 -7 -1q-22 1 -38 23q-16 19 -37 20q-21 0 -36 -36q-6 -14 -12 -33l-147 -459q-13 -41 -13 -57q4 -24 28 -26h36q7 -1 8 -7l-3 -25q-6 -7 -13 -8q-3 0 -16 1q-60 2 -123 2 q-56 0 -108 -2q-15 -1 -20 -1q-9 0 -9 7v3l3 22q4 7 9 8h22q47 0 65 31q7 10 11 23z" glyph-name="Aacute.swash" horiz-adv-x="1038" unicode=""/>
<glyph d="M936 846l10 2q5 0 14 -10q26 -34 92 -34q68 1 104 36q13 9 16 8l10 -4q4 -4 0 -14q-52 -86 -146 -88q-87 2 -102 90q-2 12 2 14zM846 282l103 296q5 21 -6 22q-10 -1 -29 -18q-47 -43 -182 -228q-30 -42 -51 -72h165zM833 246h-182q-81 -108 -137 -166 q-140 -139 -298 -141q-98 0 -160 67q-57 60 -57 155q0 91 61 150q51 47 120 47q58 0 73 -42q3 -8 3 -14q0 -36 -35 -46q-9 -3 -18 -3q-5 0 -9.5 0.5t-8.5 2.5t-6.5 3.5t-6.5 5t-5.5 4t-5.5 5.5l-4 4q-20 19 -41 19q-23 -1 -49 -32q-28 -35 -28 -83q0 -106 103 -147 q44 -17 92 -17q142 0 281 137q62 61 148 173q182 238 239 287q72 62 154 69q13 1 27 1q78 0 106 -35q9 -11 9 -22q0 -18 -18 -22q-4 -1 -7 -1q-22 1 -38 23q-16 19 -37 20q-21 0 -36 -36q-6 -14 -12 -33l-147 -459q-13 -41 -13 -57q4 -24 28 -26h36q7 -1 8 -7l-3 -25 q-6 -7 -13 -8q-3 0 -16 1q-60 2 -123 2q-56 0 -108 -2q-15 -1 -20 -1q-9 0 -9 7v3l3 22q4 7 9 8h22q47 0 65 31q7 10 11 23z" glyph-name="Abreve.swash" horiz-adv-x="1038" unicode=""/>
<glyph d="M1069 790l-123 -60q-5 -1 -7 2l-8 10q-1 3 3 7l143 135q8 6 14 -2l77 -136q1 -5 -3 -8l-10 -8q-4 -4 -9 0l-1 1zM846 282l103 296q5 21 -6 22q-10 -1 -29 -18q-47 -43 -182 -228q-30 -42 -51 -72h165zM833 246h-182q-81 -108 -137 -166q-140 -139 -298 -141 q-98 0 -160 67q-57 60 -57 155q0 91 61 150q51 47 120 47q58 0 73 -42q3 -8 3 -14q0 -36 -35 -46q-9 -3 -18 -3q-5 0 -9.5 0.5t-8.5 2.5t-6.5 3.5t-6.5 5t-5.5 4t-5.5 5.5l-4 4q-20 19 -41 19q-23 -1 -49 -32q-28 -35 -28 -83q0 -106 103 -147q44 -17 92 -17q142 0 281 137 q62 61 148 173q182 238 239 287q72 62 154 69q13 1 27 1q78 0 106 -35q9 -11 9 -22q0 -18 -18 -22q-4 -1 -7 -1q-22 1 -38 23q-16 19 -37 20q-21 0 -36 -36q-6 -14 -12 -33l-147 -459q-13 -41 -13 -57q4 -24 28 -26h36q7 -1 8 -7l-3 -25q-6 -7 -13 -8q-3 0 -16 1 q-60 2 -123 2q-56 0 -108 -2q-15 -1 -20 -1q-9 0 -9 7v3l3 22q4 7 9 8h22q47 0 65 31q7 10 11 23z" glyph-name="Acircumflex.swash" horiz-adv-x="1038" unicode=""/>
<glyph d="M1176 796q0 -36 -32 -46q-8 -2 -16 -2q-53 5 -56 52q0 29 29 40q13 4 27 4q38 0 46 -33q2 -8 2 -15zM988 796q0 -36 -34 -46q-8 -2 -16 -2q-53 2 -54 52q0 28 28 39q12 5 26 5q37 0 47 -31q3 -8 3 -17zM846 282l103 296q5 21 -6 22q-10 -1 -29 -18q-47 -43 -182 -228 q-30 -42 -51 -72h165zM833 246h-182q-81 -108 -137 -166q-140 -139 -298 -141q-98 0 -160 67q-57 60 -57 155q0 91 61 150q51 47 120 47q58 0 73 -42q3 -8 3 -14q0 -36 -35 -46q-9 -3 -18 -3q-5 0 -9.5 0.5t-8.5 2.5t-6.5 3.5t-6.5 5t-5.5 4t-5.5 5.5l-4 4q-20 19 -41 19 q-23 -1 -49 -32q-28 -35 -28 -83q0 -106 103 -147q44 -17 92 -17q142 0 281 137q62 61 148 173q182 238 239 287q72 62 154 69q13 1 27 1q78 0 106 -35q9 -11 9 -22q0 -18 -18 -22q-4 -1 -7 -1q-22 1 -38 23q-16 19 -37 20q-21 0 -36 -36q-6 -14 -12 -33l-147 -459 q-13 -41 -13 -57q4 -24 28 -26h36q7 -1 8 -7l-3 -25q-6 -7 -13 -8q-3 0 -16 1q-60 2 -123 2q-56 0 -108 -2q-15 -1 -20 -1q-9 0 -9 7v3l3 22q4 7 9 8h22q47 0 65 31q7 10 11 23z" glyph-name="Adieresis.swash" horiz-adv-x="1038" unicode=""/>
<glyph d="M1051 728l-156 74q-27 15 -28 37q0 25 24 39q9 4 16 4q20 -1 42 -22l114 -114q3 -5 2 -8l-8 -10q0 -3 -6 0zM846 282l103 296q5 21 -6 22q-10 -1 -29 -18q-47 -43 -182 -228q-30 -42 -51 -72h165zM833 246h-182q-81 -108 -137 -166q-140 -139 -298 -141q-98 0 -160 67 q-57 60 -57 155q0 91 61 150q51 47 120 47q58 0 73 -42q3 -8 3 -14q0 -36 -35 -46q-9 -3 -18 -3q-5 0 -9.5 0.5t-8.5 2.5t-6.5 3.5t-6.5 5t-5.5 4t-5.5 5.5l-4 4q-20 19 -41 19q-23 -1 -49 -32q-28 -35 -28 -83q0 -106 103 -147q44 -17 92 -17q142 0 281 137q62 61 148 173 q182 238 239 287q72 62 154 69q13 1 27 1q78 0 106 -35q9 -11 9 -22q0 -18 -18 -22q-4 -1 -7 -1q-22 1 -38 23q-16 19 -37 20q-21 0 -36 -36q-6 -14 -12 -33l-147 -459q-13 -41 -13 -57q4 -24 28 -26h36q7 -1 8 -7l-3 -25q-6 -7 -13 -8q-3 0 -16 1q-60 2 -123 2 q-56 0 -108 -2q-15 -1 -20 -1q-9 0 -9 7v3l3 22q4 7 9 8h22q47 0 65 31q7 10 11 23z" glyph-name="Agrave.swash" horiz-adv-x="1038" unicode=""/>
<glyph d="M942 818h212q9 -2 10 -8v-38q-2 -6 -10 -6h-214q-7 2 -8 6v40q2 5 10 6zM846 282l103 296q5 21 -6 22q-10 -1 -29 -18q-47 -43 -182 -228q-30 -42 -51 -72h165zM833 246h-182q-81 -108 -137 -166q-140 -139 -298 -141q-98 0 -160 67q-57 60 -57 155q0 91 61 150 q51 47 120 47q58 0 73 -42q3 -8 3 -14q0 -36 -35 -46q-9 -3 -18 -3q-5 0 -9.5 0.5t-8.5 2.5t-6.5 3.5t-6.5 5t-5.5 4t-5.5 5.5l-4 4q-20 19 -41 19q-23 -1 -49 -32q-28 -35 -28 -83q0 -106 103 -147q44 -17 92 -17q142 0 281 137q62 61 148 173q182 238 239 287 q72 62 154 69q13 1 27 1q78 0 106 -35q9 -11 9 -22q0 -18 -18 -22q-4 -1 -7 -1q-22 1 -38 23q-16 19 -37 20q-21 0 -36 -36q-6 -14 -12 -33l-147 -459q-13 -41 -13 -57q4 -24 28 -26h36q7 -1 8 -7l-3 -25q-6 -7 -13 -8q-3 0 -16 1q-60 2 -123 2q-56 0 -108 -2q-15 -1 -20 -1 q-9 0 -9 7v3l3 22q4 7 9 8h22q47 0 65 31q7 10 11 23z" glyph-name="Amacron.swash" horiz-adv-x="1038" unicode=""/>
<glyph d="M788 -236q0 -7 -33 -20q-22 -8 -39 -8q-109 0 -132 48q-7 17 -7 37q0 68 73 122q12 9 36 25q51 35 66 54q9 13 29 70l52 154h-182q-81 -108 -137 -166q-140 -139 -298 -141q-98 0 -160 67q-57 60 -57 155q0 91 61 150q51 47 120 47q58 0 73 -42q3 -8 3 -14q0 -36 -35 -46 q-9 -3 -18 -3q-5 0 -9.5 0.5t-8.5 2.5t-6.5 3.5t-6.5 5t-5.5 4t-5.5 5.5l-4 4q-20 19 -41 19q-23 -1 -49 -32q-28 -35 -28 -83q0 -106 103 -147q44 -17 92 -17q142 0 281 137q62 61 148 173q182 238 239 287q72 62 154 69q13 1 27 1q78 0 106 -35q9 -11 9 -22q0 -18 -18 -22 q-4 -1 -7 -1q-22 1 -38 23q-16 19 -37 20q-21 0 -36 -36q-6 -14 -12 -33l-147 -459q-13 -41 -13 -57q4 -24 28 -26h36q7 -1 8 -7l-3 -25q0 -3 -8 -5q-4 -1 -6 -3q-2 0 -7 1q-19 1 -32 1h-26q-27 1 -49 1q-35 0 -87 -34q-80 -53 -81 -128q0 -62 57 -67q8 -1 16 -1q4 0 21 5 q19 6 24 6q7 -1 7 -17zM949 578q5 19 -6 22q-10 -1 -29 -18q-47 -43 -182 -228q-30 -42 -51 -72h165z" glyph-name="Aogonek.swash" horiz-adv-x="1038" unicode=""/>
<glyph d="M1063 752q35 0 47 31q4 10 4 22q0 42 -40 51q-7 1 -13 1q-30 0 -44 -28q-6 -12 -6 -25q0 -42 39 -51q7 -1 13 -1zM1059 724q-69 0 -98 38q-12 16 -12 35q0 57 64 79q26 9 53 9q76 0 101 -45q9 -16 9 -36q0 -49 -60 -71q-27 -9 -57 -9zM846 282l103 296q5 21 -6 22 q-10 -1 -29 -18q-47 -43 -182 -228q-30 -42 -51 -72h165zM833 246h-182q-81 -108 -137 -166q-140 -139 -298 -141q-98 0 -160 67q-57 60 -57 155q0 91 61 150q51 47 120 47q58 0 73 -42q3 -8 3 -14q0 -36 -35 -46q-9 -3 -18 -3q-5 0 -9.5 0.5t-8.5 2.5t-6.5 3.5t-6.5 5 t-5.5 4t-5.5 5.5l-4 4q-20 19 -41 19q-23 -1 -49 -32q-28 -35 -28 -83q0 -106 103 -147q44 -17 92 -17q142 0 281 137q62 61 148 173q182 238 239 287q72 62 154 69q13 1 27 1q78 0 106 -35q9 -11 9 -22q0 -18 -18 -22q-4 -1 -7 -1q-22 1 -38 23q-16 19 -37 20 q-21 0 -36 -36q-6 -14 -12 -33l-147 -459q-13 -41 -13 -57q4 -24 28 -26h36q7 -1 8 -7l-3 -25q-6 -7 -13 -8q-3 0 -16 1q-60 2 -123 2q-56 0 -108 -2q-15 -1 -20 -1q-9 0 -9 7v3l3 22q4 7 9 8h22q47 0 65 31q7 10 11 23z" glyph-name="Aring.swash" horiz-adv-x="1038" unicode=""/>
<glyph d="M1196 864l14 -8q4 -5 -2 -18q-39 -71 -82 -72q-38 0 -72 10q-38 10 -68 10q-22 0 -43 -26q-4 -6 -7 -10q-5 -3 -8 -2l-14 8q-2 4 0 10q16 49 54 74q15 10 28 10q27 0 82 -14q36 -6 58 -6q35 1 52 30q4 5 8 4zM846 282l103 296q5 21 -6 22q-10 -1 -29 -18 q-47 -43 -182 -228q-30 -42 -51 -72h165zM833 246h-182q-81 -108 -137 -166q-140 -139 -298 -141q-98 0 -160 67q-57 60 -57 155q0 91 61 150q51 47 120 47q58 0 73 -42q3 -8 3 -14q0 -36 -35 -46q-9 -3 -18 -3q-5 0 -9.5 0.5t-8.5 2.5t-6.5 3.5t-6.5 5t-5.5 4t-5.5 5.5 l-4 4q-20 19 -41 19q-23 -1 -49 -32q-28 -35 -28 -83q0 -106 103 -147q44 -17 92 -17q142 0 281 137q62 61 148 173q182 238 239 287q72 62 154 69q13 1 27 1q78 0 106 -35q9 -11 9 -22q0 -18 -18 -22q-4 -1 -7 -1q-22 1 -38 23q-16 19 -37 20q-21 0 -36 -36q-6 -14 -12 -33 l-147 -459q-13 -41 -13 -57q4 -24 28 -26h36q7 -1 8 -7l-3 -25q-6 -7 -13 -8q-3 0 -16 1q-60 2 -123 2q-56 0 -108 -2q-15 -1 -20 -1q-9 0 -9 7v3l3 22q4 7 9 8h22q47 0 65 31q7 10 11 23z" glyph-name="Atilde.swash" horiz-adv-x="1038" unicode=""/>
<glyph d="M510 325l-66 -250q-1 -3 -1 -7q0 -26 46 -34q14 -2 29 -2q110 0 149 76q18 35 18 82q0 81 -82 117q-41 18 -90 18h-3zM589 628l-70 -266q26 -5 62 -5q123 0 161 89q12 29 12 59q0 82 -69 115q-26 12 -51 12q-32 0 -45 -4zM336 95l135 496q3 9 3 16q0 18 -34 21 q-11 1 -25 1q-128 0 -228 -74q-87 -71 -92 -146q0 -51 41 -61q7 -1 12 -1q19 1 33 25q16 24 47 26q40 0 45 -43q1 -6 1 -11q0 -36 -44 -53q-18 -7 -36 -7q-86 0 -123 68q-17 31 -17 68q0 101 79 170q26 22 56 37q78 38 224 42q38 1 116 1h22q179 0 249 -38q69 -37 69 -113 q0 -70 -72 -126q-52 -39 -126 -58v-2q75 -20 112 -80q22 -35 22 -75q0 -72 -55 -122q-21 -18 -46 -30q-59 -26 -159 -29h-32q-20 0 -61 1q-54 2 -85 2q-23 0 -69 -2q-47 -1 -70 -1q-8 0 -9 5v3l4 24q3 7 9 8h30q50 0 67 38q4 9 7 20z" glyph-name="B.swash" horiz-adv-x="860" unicode=""/>
<glyph d="M177 -10q0 -156 99 -179q15 -3 32 -3q66 0 126 70q19 22 30 44q17 37 22 67q10 25 27 26q22 -2 22 -31q0 -33 -42 -95q-74 -108 -176 -131q-25 -6 -49 -6q-99 0 -157 78q-54 74 -54 200q0 172 81 350q38 83 87 148q118 157 234 157q85 0 138 -68q37 -48 37 -107 q0 -49 -32 -65q-11 -5 -21 -5q-31 0 -44 31q-5 13 -5 28q0 6 7 51q1 6 1 9q0 31 -11 51q-24 39 -74 40q-63 0 -129 -111q-17 -27 -31 -58q-77 -165 -108 -371q-10 -69 -10 -120z" glyph-name="C.swash" horiz-adv-x="562" unicode=""/>
<glyph d="M440 729l-6 10q-1 5 3 10l143 115q15 11 34 11q25 0 33 -27q2 -7 2 -13q-1 -27 -27 -39l-174 -68q-6 -2 -8 1zM177 -10q0 -156 99 -179q15 -3 32 -3q66 0 126 70q19 22 30 44q17 37 22 67q10 25 27 26q22 -2 22 -31q0 -33 -42 -95q-74 -108 -176 -131q-25 -6 -49 -6 q-99 0 -157 78q-54 74 -54 200q0 172 81 350q38 83 87 148q118 157 234 157q85 0 138 -68q37 -48 37 -107q0 -49 -32 -65q-11 -5 -21 -5q-31 0 -44 31q-5 13 -5 28q0 6 7 51q1 6 1 9q0 31 -11 51q-24 39 -74 40q-63 0 -129 -111q-17 -27 -31 -58q-77 -165 -108 -371 q-10 -69 -10 -120z" glyph-name="Cacute.swash" horiz-adv-x="562" unicode=""/>
<glyph d="M478 824l124 62q6 1 8 -2l7 -12q0 -3 -3 -6l-142 -136q-10 -5 -16 2l-76 136q-1 5 2 8l11 9q5 3 10 -2zM177 -10q0 -156 99 -179q15 -3 32 -3q66 0 126 70q19 22 30 44q17 37 22 67q10 25 27 26q22 -2 22 -31q0 -33 -42 -95q-74 -108 -176 -131q-25 -6 -49 -6 q-99 0 -157 78q-54 74 -54 200q0 172 81 350q38 83 87 148q118 157 234 157q85 0 138 -68q37 -48 37 -107q0 -49 -32 -65q-11 -5 -21 -5q-31 0 -44 31q-5 13 -5 28q0 6 7 51q1 6 1 9q0 31 -11 51q-24 39 -74 40q-63 0 -129 -111q-17 -27 -31 -58q-77 -165 -108 -371 q-10 -69 -10 -120z" glyph-name="Ccaron.swash" horiz-adv-x="562" unicode=""/>
<glyph d="M284 -247l-40 -57q63 -24 66 -64q0 -43 -62 -73q-47 -23 -98 -23q-19 1 -20 16q1 15 12 16q48 0 72 26q12 13 12 30q0 29 -45 43q-2 1 -3 1l63 86q-107 15 -154 117q-30 65 -30 159q0 172 81 350q38 83 87 148q118 157 234 157q85 0 138 -68q37 -48 37 -107 q0 -49 -32 -65q-11 -5 -21 -5q-31 0 -44 31q-5 13 -5 28q0 6 7 51q1 6 1 9q0 31 -11 51q-24 39 -74 40q-63 0 -129 -111q-17 -27 -31 -58q-77 -165 -108 -371q-10 -69 -10 -120q0 -156 99 -179q15 -3 32 -3q66 0 126 70q19 22 30 44q17 37 22 67q10 25 27 26q22 -2 22 -31 q0 -33 -43 -96q-75 -108 -178 -131q-15 -3 -30 -4z" glyph-name="Ccedilla.swash" horiz-adv-x="562" unicode=""/>
<glyph d="M589 600l-127 -511q-3 -12 -3 -21q2 -31 42 -32q129 0 225 63q21 14 38 30q119 116 121 278q-1 134 -103 191q-58 32 -139 32q-39 0 -47 -12q-4 -7 -7 -18zM352 112l118 482q1 4 1 10q0 20 -44 22q-10 1 -23 1q-120 0 -218 -79q-77 -62 -85 -127q-1 -7 -1 -12 q0 -48 38 -64q10 -4 18 -4q21 1 27 19q10 36 44 42q6 1 11 1q31 0 38 -33q2 -8 2 -15q0 -40 -44 -60q-22 -10 -47 -10q-71 0 -106 56q-21 35 -21 82q0 101 75 169q24 21 52 35q73 37 208 41q45 2 156 2q244 0 338 -57q15 -9 26 -19q74 -65 85 -153q3 -22 3 -46 q-1 -157 -107 -260q-144 -138 -423 -138q-21 0 -61 2q-32 1 -45 1q-21 0 -62 -2q-42 -1 -62 -1q-9 0 -8 9v2l6 22q4 6 10 7h23q51 0 71 52q4 11 7 23z" glyph-name="D.swash" horiz-adv-x="1012" unicode=""/>
<glyph d="M573 824l124 62q6 1 8 -2l7 -12q0 -3 -3 -6l-142 -136q-10 -5 -16 2l-76 136q-1 5 2 8l11 9q5 3 10 -2zM589 600l-127 -511q-3 -12 -3 -21q2 -31 42 -32q129 0 225 63q21 14 38 30q119 116 121 278q-1 134 -103 191q-58 32 -139 32q-39 0 -47 -12q-4 -7 -7 -18zM352 112 l118 482q1 4 1 10q0 20 -44 22q-10 1 -23 1q-120 0 -218 -79q-77 -62 -85 -127q-1 -7 -1 -12q0 -48 38 -64q10 -4 18 -4q21 1 27 19q10 36 44 42q6 1 11 1q31 0 38 -33q2 -8 2 -15q0 -40 -44 -60q-22 -10 -47 -10q-71 0 -106 56q-21 35 -21 82q0 101 75 169q24 21 52 35 q73 37 208 41q45 2 156 2q244 0 338 -57q15 -9 26 -19q74 -65 85 -153q3 -22 3 -46q-1 -157 -107 -260q-144 -138 -423 -138q-21 0 -61 2q-32 1 -45 1q-21 0 -62 -2q-42 -1 -62 -1q-9 0 -8 9v2l6 22q4 6 10 7h23q51 0 71 52q4 11 7 23z" glyph-name="Dcaron.swash" horiz-adv-x="1012" unicode=""/>
<glyph d="M321 326q-9 0 -8 6v2l8 26q4 6 10 6h83l56 228q1 4 1 9q0 21 -44 23q-10 1 -23 1q-120 0 -218 -79q-77 -62 -85 -127q-1 -7 -1 -12q0 -48 38 -64q10 -4 18 -4q21 1 27 19q10 36 44 42q6 1 11 1q31 0 38 -33q2 -8 2 -15q0 -40 -44 -60q-22 -10 -47 -10q-71 0 -106 56 q-21 35 -21 82q0 101 75 169q24 21 52 35q73 37 208 41q45 2 156 2q244 0 338 -57q15 -9 26 -19q74 -65 85 -153q3 -22 3 -46q-1 -157 -107 -260q-144 -138 -423 -138q-21 0 -61 2q-32 1 -45 1q-21 0 -62 -2q-42 -1 -62 -1q-9 0 -8 9v2l6 22q4 6 10 7h23q51 0 71 52 q4 11 7 23l52 214h-83zM531 366h162q8 -1 8 -8l-8 -26q-3 -6 -14 -6h-158l-59 -237q-3 -12 -3 -21q2 -31 42 -32q129 0 225 63q21 14 38 30q121 117 121 278q0 133 -102 190q-58 33 -140 33q-39 0 -47 -12q-4 -7 -7 -18z" glyph-name="Dcroat.swash" horiz-adv-x="1012" unicode=""/>
<glyph d="M403 350q-9 26 -47 29q-32 -1 -75 -24q39 -34 76 -35q43 3 46 30zM252 -15q-119 0 -174 76q-31 44 -31 101q1 117 153 198q-56 52 -56 134q0 88 77 147q68 51 159 51q122 0 158 -88q13 -31 13 -68q-1 -50 -33 -51q-22 2 -23 20q0 9 6 21q4 11 4 15q0 33 -39 57 q-33 20 -75 20q-78 0 -122 -69q-26 -41 -26 -85q1 -51 20 -75q47 26 107 26q71 0 86 -46q3 -9 3 -18q0 -41 -47 -59q-23 -8 -51 -8q-61 0 -117 39q-3 1 -4 2q-46 -30 -64 -93q-9 -30 -9 -63q0 -48 40 -85q34 -30 82 -30q102 0 163 80q18 25 27 50q8 16 19 17q12 0 19 -16 q2 -4 2 -8t-1 -5q-18 -50 -61 -99q-81 -88 -205 -88z" glyph-name="E.swash" horiz-adv-x="536" unicode=""/>
<glyph d="M347 729l-6 10q-1 5 3 10l143 115q15 11 34 11q25 0 33 -27q2 -7 2 -13q-1 -27 -27 -39l-174 -68q-6 -2 -8 1zM403 350q-9 26 -47 29q-32 -1 -75 -24q39 -34 76 -35q43 3 46 30zM252 -15q-119 0 -174 76q-31 44 -31 101q1 117 153 198q-56 52 -56 134q0 88 77 147 q68 51 159 51q122 0 158 -88q13 -31 13 -68q-1 -50 -33 -51q-22 2 -23 20q0 9 6 21q4 11 4 15q0 33 -39 57q-33 20 -75 20q-78 0 -122 -69q-26 -41 -26 -85q1 -51 20 -75q47 26 107 26q71 0 86 -46q3 -9 3 -18q0 -41 -47 -59q-23 -8 -51 -8q-61 0 -117 39q-3 1 -4 2 q-46 -30 -64 -93q-9 -30 -9 -63q0 -48 40 -85q34 -30 82 -30q102 0 163 80q18 25 27 50q8 16 19 17q12 0 19 -16q2 -4 2 -8t-1 -5q-18 -50 -61 -99q-81 -88 -205 -88z" glyph-name="Eacute.swash" horiz-adv-x="536" unicode=""/>
<glyph d="M300 846l10 2q5 0 14 -10q26 -34 92 -34q68 1 104 36q13 9 16 8l10 -4q4 -4 0 -14q-52 -86 -146 -88q-87 2 -102 90q-2 12 2 14zM403 350q-9 26 -47 29q-32 -1 -75 -24q39 -34 76 -35q43 3 46 30zM252 -15q-119 0 -174 76q-31 44 -31 101q1 117 153 198q-56 52 -56 134 q0 88 77 147q68 51 159 51q122 0 158 -88q13 -31 13 -68q-1 -50 -33 -51q-22 2 -23 20q0 9 6 21q4 11 4 15q0 33 -39 57q-33 20 -75 20q-78 0 -122 -69q-26 -41 -26 -85q1 -51 20 -75q47 26 107 26q71 0 86 -46q3 -9 3 -18q0 -41 -47 -59q-23 -8 -51 -8q-61 0 -117 39 q-3 1 -4 2q-46 -30 -64 -93q-9 -30 -9 -63q0 -48 40 -85q34 -30 82 -30q102 0 163 80q18 25 27 50q8 16 19 17q12 0 19 -16q2 -4 2 -8t-1 -5q-18 -50 -61 -99q-81 -88 -205 -88z" glyph-name="Ebreve.swash" horiz-adv-x="536" unicode=""/>
<glyph d="M415 824l124 62q6 1 8 -2l7 -12q0 -3 -3 -6l-142 -136q-10 -5 -16 2l-76 136q-1 5 2 8l11 9q5 3 10 -2zM403 350q-9 26 -47 29q-32 -1 -75 -24q39 -34 76 -35q43 3 46 30zM252 -15q-119 0 -174 76q-31 44 -31 101q1 117 153 198q-56 52 -56 134q0 88 77 147q68 51 159 51 q122 0 158 -88q13 -31 13 -68q-1 -50 -33 -51q-22 2 -23 20q0 9 6 21q4 11 4 15q0 33 -39 57q-33 20 -75 20q-78 0 -122 -69q-26 -41 -26 -85q1 -51 20 -75q47 26 107 26q71 0 86 -46q3 -9 3 -18q0 -41 -47 -59q-23 -8 -51 -8q-61 0 -117 39q-3 1 -4 2q-46 -30 -64 -93 q-9 -30 -9 -63q0 -48 40 -85q34 -30 82 -30q102 0 163 80q18 25 27 50q8 16 19 17q12 0 19 -16q2 -4 2 -8t-1 -5q-18 -50 -61 -99q-81 -88 -205 -88z" glyph-name="Ecaron.swash" horiz-adv-x="536" unicode=""/>
<glyph d="M408 790l-123 -60q-5 -1 -7 2l-8 10q-1 3 3 7l143 135q8 6 14 -2l77 -136q1 -5 -3 -8l-10 -8q-4 -4 -9 0l-1 1zM403 350q-9 26 -47 29q-32 -1 -75 -24q39 -34 76 -35q43 3 46 30zM252 -15q-119 0 -174 76q-31 44 -31 101q1 117 153 198q-56 52 -56 134q0 88 77 147 q68 51 159 51q122 0 158 -88q13 -31 13 -68q-1 -50 -33 -51q-22 2 -23 20q0 9 6 21q4 11 4 15q0 33 -39 57q-33 20 -75 20q-78 0 -122 -69q-26 -41 -26 -85q1 -51 20 -75q47 26 107 26q71 0 86 -46q3 -9 3 -18q0 -41 -47 -59q-23 -8 -51 -8q-61 0 -117 39q-3 1 -4 2 q-46 -30 -64 -93q-9 -30 -9 -63q0 -48 40 -85q34 -30 82 -30q102 0 163 80q18 25 27 50q8 16 19 17q12 0 19 -16q2 -4 2 -8t-1 -5q-18 -50 -61 -99q-81 -88 -205 -88z" glyph-name="Ecircumflex.swash" horiz-adv-x="536" unicode=""/>
<glyph d="M545 796q0 -36 -32 -46q-8 -2 -16 -2q-53 5 -56 52q0 29 29 40q13 4 27 4q38 0 46 -33q2 -8 2 -15zM357 796q0 -36 -34 -46q-8 -2 -16 -2q-53 2 -54 52q0 28 28 39q12 5 26 5q37 0 47 -31q3 -8 3 -17zM403 350q-9 26 -47 29q-32 -1 -75 -24q39 -34 76 -35q43 3 46 30z M252 -15q-119 0 -174 76q-31 44 -31 101q1 117 153 198q-56 52 -56 134q0 88 77 147q68 51 159 51q122 0 158 -88q13 -31 13 -68q-1 -50 -33 -51q-22 2 -23 20q0 9 6 21q4 11 4 15q0 33 -39 57q-33 20 -75 20q-78 0 -122 -69q-26 -41 -26 -85q1 -51 20 -75q47 26 107 26 q71 0 86 -46q3 -9 3 -18q0 -41 -47 -59q-23 -8 -51 -8q-61 0 -117 39q-3 1 -4 2q-46 -30 -64 -93q-9 -30 -9 -63q0 -48 40 -85q34 -30 82 -30q102 0 163 80q18 25 27 50q8 16 19 17q12 0 19 -16q2 -4 2 -8t-1 -5q-18 -50 -61 -99q-81 -88 -205 -88z" glyph-name="Edieresis.swash" horiz-adv-x="536" unicode=""/>
<glyph d="M398 738q-50 0 -57 40q-1 6 -1 12q0 41 37 51q10 3 21 3q43 0 52 -38q2 -8 2 -16q0 -38 -35 -49q-10 -3 -19 -3zM403 350q-9 26 -47 29q-32 -1 -75 -24q39 -34 76 -35q43 3 46 30zM252 -15q-119 0 -174 76q-31 44 -31 101q1 117 153 198q-56 52 -56 134q0 88 77 147 q68 51 159 51q122 0 158 -88q13 -31 13 -68q-1 -50 -33 -51q-22 2 -23 20q0 9 6 21q4 11 4 15q0 33 -39 57q-33 20 -75 20q-78 0 -122 -69q-26 -41 -26 -85q1 -51 20 -75q47 26 107 26q71 0 86 -46q3 -9 3 -18q0 -41 -47 -59q-23 -8 -51 -8q-61 0 -117 39q-3 1 -4 2 q-46 -30 -64 -93q-9 -30 -9 -63q0 -48 40 -85q34 -30 82 -30q102 0 163 80q18 25 27 50q8 16 19 17q12 0 19 -16q2 -4 2 -8t-1 -5q-18 -50 -61 -99q-81 -88 -205 -88z" glyph-name="Edotaccent.swash" horiz-adv-x="536" unicode=""/>
<glyph d="M430 728l-156 74q-27 15 -28 37q0 25 24 39q9 4 16 4q20 -1 42 -22l114 -114q3 -5 2 -8l-8 -10q0 -3 -6 0zM403 350q-9 26 -47 29q-32 -1 -75 -24q39 -34 76 -35q43 3 46 30zM252 -15q-119 0 -174 76q-31 44 -31 101q1 117 153 198q-56 52 -56 134q0 88 77 147 q68 51 159 51q122 0 158 -88q13 -31 13 -68q-1 -50 -33 -51q-22 2 -23 20q0 9 6 21q4 11 4 15q0 33 -39 57q-33 20 -75 20q-78 0 -122 -69q-26 -41 -26 -85q1 -51 20 -75q47 26 107 26q71 0 86 -46q3 -9 3 -18q0 -41 -47 -59q-23 -8 -51 -8q-61 0 -117 39q-3 1 -4 2 q-46 -30 -64 -93q-9 -30 -9 -63q0 -48 40 -85q34 -30 82 -30q102 0 163 80q18 25 27 50q8 16 19 17q12 0 19 -16q2 -4 2 -8t-1 -5q-18 -50 -61 -99q-81 -88 -205 -88z" glyph-name="Egrave.swash" horiz-adv-x="536" unicode=""/>
<glyph d="M291 818h212q9 -2 10 -8v-38q-2 -6 -10 -6h-214q-7 2 -8 6v40q2 5 10 6zM403 350q-9 26 -47 29q-32 -1 -75 -24q39 -34 76 -35q43 3 46 30zM252 -15q-119 0 -174 76q-31 44 -31 101q1 117 153 198q-56 52 -56 134q0 88 77 147q68 51 159 51q122 0 158 -88q13 -31 13 -68 q-1 -50 -33 -51q-22 2 -23 20q0 9 6 21q4 11 4 15q0 33 -39 57q-33 20 -75 20q-78 0 -122 -69q-26 -41 -26 -85q1 -51 20 -75q47 26 107 26q71 0 86 -46q3 -9 3 -18q0 -41 -47 -59q-23 -8 -51 -8q-61 0 -117 39q-3 1 -4 2q-46 -30 -64 -93q-9 -30 -9 -63q0 -48 40 -85 q34 -30 82 -30q102 0 163 80q18 25 27 50q8 16 19 17q12 0 19 -16q2 -4 2 -8t-1 -5q-18 -50 -61 -99q-81 -88 -205 -88z" glyph-name="Emacron.swash" horiz-adv-x="536" unicode=""/>
<glyph d="M403 350q-9 26 -47 29q-32 -1 -75 -24q39 -34 76 -35q43 3 46 30zM551 536q-1 -50 -33 -51q-22 2 -23 20q0 9 6 21q4 11 4 15q0 33 -39 57q-33 20 -75 20q-78 0 -122 -69q-26 -41 -26 -85q1 -51 20 -75q47 26 107 26q71 0 86 -46q3 -9 3 -18q0 -41 -47 -59q-23 -8 -51 -8 q-61 0 -117 39q-3 1 -4 2q-46 -30 -64 -93q-9 -30 -9 -63q0 -48 40 -85q34 -30 82 -30q102 0 163 80q18 25 27 50q8 16 19 17q11 0 19 -16q2 -6 2 -10q0 -29 -57 -94q-3 -4 -5 -6q-43 -47 -112 -70q-6 -2 -19 -6q-17 -6 -26 -9q-42 -15 -79 -75q-27 -44 -27 -77 q0 -62 57 -67q8 -1 16 -1q4 0 21 5q19 6 24 6q7 -1 7 -17q0 -7 -33 -20q-22 -8 -39 -8q-109 0 -132 48q-7 17 -7 37q0 65 93 138q19 15 37 26h-5q-104 0 -155 75q-31 45 -31 102q1 117 153 198q-56 52 -56 134q0 88 77 147q68 51 159 51q122 0 158 -88q13 -31 13 -68z" glyph-name="Eogonek.swash" horiz-adv-x="536" unicode=""/>
<glyph d="M321 326q-9 0 -8 6v2l8 26q4 6 10 6h83l56 228q1 4 1 9q0 21 -44 23q-10 1 -23 1q-120 0 -218 -79q-77 -62 -85 -127q-1 -7 -1 -12q0 -48 38 -64q10 -4 18 -4q21 1 27 19q10 36 44 42q6 1 11 1q31 0 38 -33q2 -8 2 -15q0 -40 -44 -60q-22 -10 -47 -10q-71 0 -106 56 q-21 35 -21 82q0 101 75 169q24 21 52 35q73 37 208 41q45 2 156 2q244 0 338 -57q15 -9 26 -19q74 -65 85 -153q3 -22 3 -46q-1 -157 -107 -260q-144 -138 -423 -138q-21 0 -61 2q-32 1 -45 1q-21 0 -62 -2q-42 -1 -62 -1q-9 0 -8 9v2l6 22q4 6 10 7h23q51 0 71 52 q4 11 7 23l52 214h-83zM531 366h162q8 -1 8 -8l-8 -26q-3 -6 -14 -6h-158l-59 -237q-3 -12 -3 -21q2 -31 42 -32q129 0 225 63q21 14 38 30q121 117 121 278q0 133 -102 190q-58 33 -140 33q-39 0 -47 -12q-4 -7 -7 -18z" glyph-name="Eth.swash" horiz-adv-x="1012" unicode=""/>
<glyph d="M487 601l-69 -232l114 1q68 1 95 49q11 19 22 54q5 8 11 7l18 -5q5 -3 4 -9l-59 -251q-4 -6 -10 -5l-19 2q-8 2 -6 9q4 22 4 43q0 53 -43 62q-10 2 -21 3l-119 6l-61 -202q-48 -158 -101 -241q-13 -21 -28 -41q-56 -79 -143 -96q-18 -4 -33 -4q-80 0 -105 45q-8 15 -8 32 q1 39 32 49q7 2 14 2q38 0 48 -46q0 -5 1 -9q5 -35 30 -39q46 0 78 49q7 10 11 19q39 86 85 243l142 488q2 8 2 11q0 16 -37 18q-11 1 -26 1q-173 0 -218 -80q-12 -22 -12 -47q2 -39 28 -41q5 0 19 4q16 4 22 4q25 0 37 -27q4 -10 4 -21q0 -31 -30 -45q-13 -6 -27 -6 q-43 0 -69 39q-20 31 -20 79q0 84 65 140q12 10 25 18q77 47 241 47q112 0 246 -21q116 -20 146 -20q55 2 56 36q-1 9 -9 25q-10 19 -10 31q0 25 22 33q7 2 14 2q37 0 43 -43q1 -6 1 -11q0 -40 -35 -78q-48 -52 -129 -52q-22 0 -138 11z" glyph-name="F.swash" horiz-adv-x="681" unicode=""/>
<glyph d="M629 185l-66 -269q-12 -57 -40 -120q-27 -56 -87 -93q-45 -27 -87 -27q-100 0 -124 63q-5 15 -5 31q0 48 37 60q8 2 17 2q37 0 42 -35q1 -4 1 -7q0 -24 -9 -34q-6 -7 -6 -17q0 -22 30 -29q7 -2 14 -2q64 0 93 95q3 8 5 16q3 13 12 48q29 118 55 216l-6 2 q-75 -99 -206 -100q-130 0 -192 103q-40 68 -40 167q0 166 118 297q8 9 15 16q118 116 282 117q114 0 177 -50q16 -12 27 -12q15 0 23 30q1 1 1 2q3 6 9 5l15 -4q6 -3 6 -8l-57 -201q-4 -7 -11 -6l-16 2q-7 3 -7 10q3 17 3 33q0 81 -59 126q-44 32 -106 32 q-120 -1 -206 -114q-89 -119 -91 -302q0 -144 96 -181q25 -9 49 -9q99 0 154 84q25 40 28 78v11q0 31 -24 34q-5 1 -11 1h-35q-9 2 -7 10l4 22q3 8 11 8q4 0 19 -1q58 -2 119 -2q41 0 73 1l33 2q9 -2 9 -8l-3 -24q-3 -7 -9 -8h-21q-24 0 -37 -31q-5 -13 -9 -30z" glyph-name="G.swash" horiz-adv-x="721" unicode=""/>
<glyph d="M398 846l10 2q5 0 14 -10q26 -34 92 -34q68 1 104 36q13 9 16 8l10 -4q4 -4 0 -14q-52 -86 -146 -88q-87 2 -102 90q-2 12 2 14zM629 185l-66 -269q-12 -57 -40 -120q-27 -56 -87 -93q-45 -27 -87 -27q-100 0 -124 63q-5 15 -5 31q0 48 37 60q8 2 17 2q37 0 42 -35 q1 -4 1 -7q0 -24 -9 -34q-6 -7 -6 -17q0 -22 30 -29q7 -2 14 -2q64 0 93 95q3 8 5 16q3 13 12 48q29 118 55 216l-6 2q-75 -99 -206 -100q-130 0 -192 103q-40 68 -40 167q0 166 118 297q8 9 15 16q118 116 282 117q114 0 177 -50q16 -12 27 -12q15 0 23 30q1 1 1 2q3 6 9 5 l15 -4q6 -3 6 -8l-57 -201q-4 -7 -11 -6l-16 2q-7 3 -7 10q3 17 3 33q0 81 -59 126q-44 32 -106 32q-120 -1 -206 -114q-89 -119 -91 -302q0 -144 96 -181q25 -9 49 -9q99 0 154 84q25 40 28 78v11q0 31 -24 34q-5 1 -11 1h-35q-9 2 -7 10l4 22q3 8 11 8q4 0 19 -1 q58 -2 119 -2q41 0 73 1l33 2q9 -2 9 -8l-3 -24q-3 -7 -9 -8h-21q-24 0 -37 -31q-5 -13 -9 -30z" glyph-name="Gbreve.swash" horiz-adv-x="721" unicode=""/>
<glyph d="M336 -146q0 -83 -81 -124q-30 -15 -50 -15q-8 2 -8 11q2 7 10 10q35 9 58 39q14 19 14 38q-2 23 -20 44l-2 2q-1 1 -3 2q-21 20 -22 37q0 30 25 39q7 3 14 3q42 0 59 -49q6 -18 6 -37zM444 -181q3 13 12 48q29 118 55 216l-6 2q-75 -99 -206 -100q-130 0 -192 103 q-40 68 -40 167q0 166 118 297q8 9 15 16q118 116 282 117q114 0 177 -50q16 -12 27 -12q15 0 23 30q1 1 1 2q3 6 9 5l15 -4q6 -3 6 -8l-57 -201q-4 -7 -11 -6l-16 2q-7 3 -7 10q3 17 3 33q0 81 -59 126q-44 32 -106 32q-117 -1 -206 -114q-90 -120 -91 -302q0 -144 96 -181 q25 -9 49 -9q99 0 154 84q25 40 28 78v11q0 31 -24 34q-5 1 -11 1h-35q-9 2 -7 10l4 22q3 8 11 8q4 0 19 -1q58 -2 119 -2q41 0 73 1l33 2q9 -2 9 -8l-3 -24q-3 -7 -9 -8h-21q-24 0 -37 -31q-5 -13 -9 -30l-66 -268q-18 -74 -40 -121q-33 -69 -92 -102q-34 -19 -68 -19 q-3 1 -9 0q-11 3 -12 11q1 13 12 20q72 44 90 113z" glyph-name="Gcommaaccent.swash" horiz-adv-x="721" unicode=""/>
<glyph d="M815 321h-320l-72 -220q-7 -23 -7 -37q2 -26 31 -27h34q8 -1 8 -8l-4 -23q-3 -8 -11 -9q-3 0 -15 1q-59 2 -124 2q-51 0 -100 -2q-11 -1 -13 -1q-8 2 -7 12l4 20q4 8 9 8h26q36 0 59 71q1 1 1 2l150 462q4 11 4 21q0 30 -55 33q-11 1 -22 1q-137 0 -233 -74 q-76 -60 -77 -129q0 -48 42 -69q13 -6 23 -6q19 0 34 28l1 1q18 30 46 31q36 0 44 -31q2 -9 2 -17q2 -40 -43 -60q-23 -10 -50 -10q-83 0 -119 60q-19 33 -19 76q0 106 83 175q22 17 45 29q69 35 157 40q30 2 68 2q16 0 50 -2q25 -1 37 -1q28 0 86 2q22 1 26 1q13 -2 14 -13 q0 -6 -3 -13q-10 -22 -25 -66l-72 -221h318l38 125q63 205 154 292q7 7 14 12q71 56 140 56q56 0 64 -33q1 -4 1 -8q0 -30 -27 -42q-10 -4 -21 -4q-23 1 -39 22q-13 16 -40 16q-41 0 -78 -115l-6 -21l-164 -555q-6 -18 -6 -33q2 -34 31 -35h29q9 -2 8 -10l-5 -23 q-3 -7 -12 -7h-12q-54 3 -120 3q-53 0 -107 -2q-13 -1 -16 -1q-9 2 -8 11l2 19q3 9 9 10h28q36 0 57 47q7 16 13 36z" glyph-name="H.swash" horiz-adv-x="998" unicode=""/>
<glyph d="M351 565l-125 -462q-4 -15 -4 -28q2 -37 45 -38h35q7 -2 6 -10l-3 -22q-4 -8 -12 -8q-3 0 -16 1q-65 2 -128 2q-59 0 -130 -2q-15 -1 -18 -1q-8 2 -8 8l4 22q4 10 9 10h43q37 0 51 28q7 14 15 43l125 461q5 20 5 30q-2 33 -41 34h-35q-9 0 -9 5v3l5 26q3 6 13 6 q3 0 20 -1q67 -2 119 -2q58 0 119 2q16 1 20 1q12 0 12 -7q-1 -2 -1 -3l-5 -22q-4 -7 -11 -8h-19q-46 0 -62 -21q-10 -16 -19 -47z" glyph-name="I.swash" horiz-adv-x="372" unicode=""/>
<glyph d="M275 729l-6 10q-1 5 3 10l143 115q15 11 34 11q25 0 33 -27q2 -7 2 -13q-1 -27 -27 -39l-174 -68q-6 -2 -8 1zM351 565l-125 -462q-4 -15 -4 -28q2 -37 45 -38h35q7 -2 6 -10l-3 -22q-4 -8 -12 -8q-3 0 -16 1q-65 2 -128 2q-59 0 -130 -2q-15 -1 -18 -1q-8 2 -8 8l4 22 q4 10 9 10h43q37 0 51 28q7 14 15 43l125 461q5 20 5 30q-2 33 -41 34h-35q-9 0 -9 5v3l5 26q3 6 13 6q3 0 20 -1q67 -2 119 -2q58 0 119 2q16 1 20 1q12 0 12 -7q-1 -2 -1 -3l-5 -22q-4 -7 -11 -8h-19q-46 0 -62 -21q-10 -16 -19 -47z" glyph-name="Iacute.swash" horiz-adv-x="372" unicode=""/>
<glyph d="M346 790l-123 -60q-5 -1 -7 2l-8 10q-1 3 3 7l143 135q8 6 14 -2l77 -136q1 -5 -3 -8l-10 -8q-4 -4 -9 0l-1 1zM351 565l-125 -462q-4 -15 -4 -28q2 -37 45 -38h35q7 -2 6 -10l-3 -22q-4 -8 -12 -8q-3 0 -16 1q-65 2 -128 2q-59 0 -130 -2q-15 -1 -18 -1q-8 2 -8 8l4 22 q4 10 9 10h43q37 0 51 28q7 14 15 43l125 461q5 20 5 30q-2 33 -41 34h-35q-9 0 -9 5v3l5 26q3 6 13 6q3 0 20 -1q67 -2 119 -2q58 0 119 2q16 1 20 1q12 0 12 -7q-1 -2 -1 -3l-5 -22q-4 -7 -11 -8h-19q-46 0 -62 -21q-10 -16 -19 -47z" glyph-name="Icircumflex.swash" horiz-adv-x="372" unicode=""/>
<glyph d="M478 796q0 -36 -32 -46q-8 -2 -16 -2q-53 5 -56 52q0 29 29 40q13 4 27 4q38 0 46 -33q2 -8 2 -15zM290 796q0 -36 -34 -46q-8 -2 -16 -2q-53 2 -54 52q0 28 28 39q12 5 26 5q37 0 47 -31q3 -8 3 -17zM351 565l-125 -462q-4 -15 -4 -28q2 -37 45 -38h35q7 -2 6 -10 l-3 -22q-4 -8 -12 -8q-3 0 -16 1q-65 2 -128 2q-59 0 -130 -2q-15 -1 -18 -1q-8 2 -8 8l4 22q4 10 9 10h43q37 0 51 28q7 14 15 43l125 461q5 20 5 30q-2 33 -41 34h-35q-9 0 -9 5v3l5 26q3 6 13 6q3 0 20 -1q67 -2 119 -2q58 0 119 2q16 1 20 1q12 0 12 -7q-1 -2 -1 -3 l-5 -22q-4 -7 -11 -8h-19q-46 0 -62 -21q-10 -16 -19 -47z" glyph-name="Idieresis.swash" horiz-adv-x="372" unicode=""/>
<glyph d="M331 738q-50 0 -57 40q-1 6 -1 12q0 41 37 51q10 3 21 3q43 0 52 -38q2 -8 2 -16q0 -38 -35 -49q-10 -3 -19 -3zM351 565l-125 -462q-4 -15 -4 -28q2 -37 45 -38h35q7 -2 6 -10l-3 -22q-4 -8 -12 -8q-3 0 -16 1q-65 2 -128 2q-59 0 -130 -2q-15 -1 -18 -1q-8 2 -8 8l4 22 q4 10 9 10h43q37 0 51 28q7 14 15 43l125 461q5 20 5 30q-2 33 -41 34h-35q-9 0 -9 5v3l5 26q3 6 13 6q3 0 20 -1q67 -2 119 -2q58 0 119 2q16 1 20 1q12 0 12 -7q-1 -2 -1 -3l-5 -22q-4 -7 -11 -8h-19q-46 0 -62 -21q-10 -16 -19 -47z" glyph-name="Idotaccent.swash" horiz-adv-x="372" unicode=""/>
<glyph d="M358 728l-156 74q-27 15 -28 37q0 25 24 39q9 4 16 4q20 -1 42 -22l114 -114q3 -5 2 -8l-8 -10q0 -3 -6 0zM351 565l-125 -462q-4 -15 -4 -28q2 -37 45 -38h35q7 -2 6 -10l-3 -22q-4 -8 -12 -8q-3 0 -16 1q-65 2 -128 2q-59 0 -130 -2q-15 -1 -18 -1q-8 2 -8 8l4 22 q4 10 9 10h43q37 0 51 28q7 14 15 43l125 461q5 20 5 30q-2 33 -41 34h-35q-9 0 -9 5v3l5 26q3 6 13 6q3 0 20 -1q67 -2 119 -2q58 0 119 2q16 1 20 1q12 0 12 -7q-1 -2 -1 -3l-5 -22q-4 -7 -11 -8h-19q-46 0 -62 -21q-10 -16 -19 -47z" glyph-name="Igrave.swash" horiz-adv-x="372" unicode=""/>
<glyph d="M229 818h212q9 -2 10 -8v-38q-2 -6 -10 -6h-214q-7 2 -8 6v40q2 5 10 6zM351 565l-125 -462q-4 -15 -4 -28q2 -37 45 -38h35q7 -2 6 -10l-3 -22q-4 -8 -12 -8q-3 0 -16 1q-65 2 -128 2q-59 0 -130 -2q-15 -1 -18 -1q-8 2 -8 8l4 22q4 10 9 10h43q37 0 51 28q7 14 15 43 l125 461q5 20 5 30q-2 33 -41 34h-35q-9 0 -9 5v3l5 26q3 6 13 6q3 0 20 -1q67 -2 119 -2q58 0 119 2q16 1 20 1q12 0 12 -7q-1 -2 -1 -3l-5 -22q-4 -7 -11 -8h-19q-46 0 -62 -21q-10 -16 -19 -47z" glyph-name="Imacron.swash" horiz-adv-x="372" unicode=""/>
<glyph d="M467 663l-5 -22q-4 -7 -11 -8h-19q-46 0 -62 -21q-10 -16 -19 -47l-125 -462q-4 -15 -4 -28q2 -37 45 -38h35q7 -2 6 -10l-3 -22q-4 -8 -12 -8q-2 0 -7 1q-11 1 -19 1q-17 2 -35 2q-24 0 -46 -4q-46 -7 -88 -71q-33 -49 -33 -88q0 -62 57 -67q8 -1 16 -1q4 0 21 5 q19 6 24 6q7 -1 7 -17q0 -7 -33 -20q-22 -8 -39 -8q-109 0 -132 48q-7 17 -7 37q0 64 91 137q39 30 67 42q-74 0 -96 -1q-13 0 -27 -1l-13 -1q-8 2 -8 8l4 22q3 9 9 10h43q37 0 51 28q7 14 15 43l125 461q5 20 5 30q-2 33 -41 34h-35q-9 0 -9 5v3l5 26q3 6 13 6q3 0 20 -1 q67 -2 119 -2q58 0 119 2q16 1 20 1q12 0 12 -7q-1 -2 -1 -3z" glyph-name="Iogonek.swash" horiz-adv-x="372" unicode=""/>
<glyph d="M604 316h-100q-10 -45 -26 -97q-62 -206 -109 -295q-41 -76 -88 -120q-79 -73 -198 -73q-79 0 -106 42q-10 16 -10 34q0 48 41 56q6 1 12 1q34 0 46 -45q3 -11 4 -22q10 -28 40 -31q61 0 104 41q4 5 7 8q38 46 83 207q48 170 62 212q4 12 12 34l16 48h-121q-6 1 -6 7 l7 28q3 4 10 4h125q19 65 59 145q10 20 18 34l-2 3q-41 -20 -99 -20q-116 1 -169 71q-31 42 -50 50q-10 3 -20 3q-45 0 -64 -45q-5 -13 -5 -22q0 -35 30 -42q3 -1 5 -1q54 -8 55 -48q0 -29 -31 -38q-9 -3 -20 -3q-41 0 -63 47q-13 28 -13 64q1 61 40 95q41 37 113 37 q64 0 103 -29q25 -19 63 -61q38 -32 93 -33q20 0 51 9q28 53 80 84q34 20 66 20q31 -3 34 -27q0 -37 -69 -71q-23 -11 -52 -20q-18 -33 -49 -195q-1 -5 -1 -7h102q7 -2 7 -6l-7 -27q-3 -5 -10 -6z" glyph-name="J.swash" horiz-adv-x="597" unicode=""/>
<glyph d="M300 324l-38 -25l-54 -198q-5 -20 -5 -32q2 -31 33 -32h25q7 -2 7 -10l-4 -22q-3 -7 -13 -8q-3 0 -15 1q-56 2 -113 2q-66 0 -114 -3h-8q-9 2 -8 12l4 20q4 7 11 8h23q37 0 57 34q5 8 7 16l136 484q5 17 5 32q-2 29 -33 30h-25q-10 0 -10 7q1 2 1 3l7 24q4 6 12 6h12 q54 -3 111 -3q61 0 111 2q12 1 15 1q7 -1 6 -8l-3 -24q-3 -8 -12 -8h-24q-44 -2 -58 -45l-73 -246q27 13 229 188q74 64 80 72q7 12 7 18q-2 12 -20 13h-16q-9 1 -8 9l5 23q3 7 10 8q3 0 15 -1q57 -2 106 -2q43 0 85 2q9 1 12 1q11 -2 11 -10l-4 -20q-5 -9 -10 -10h-31 q-35 -1 -80 -30q-3 -2 -275 -215q-6 -4 -8 -6q87 -216 197 -396q49 -80 86 -123q52 -59 85 -79q35 -22 68 -22q47 0 70 34q9 14 9 28q0 6 -1 9q-1 5 -1 12q0 32 21 38q4 1 6 1h2q33 -7 37 -42q0 -46 -48 -82q-49 -37 -123 -37q-152 1 -269 156q-68 90 -161 299 q-34 77 -59 146z" glyph-name="K.swash" horiz-adv-x="635" unicode=""/>
<glyph d="M375 -122q0 -79 -78 -118q-28 -14 -46 -14q-7 2 -8 10q2 7 9 10q35 10 56 39q12 16 12 33q0 22 -20 45q-1 1 -3 2q-20 19 -21 35q0 29 24 38q7 2 13 2q41 0 56 -47q6 -18 6 -35zM300 324l-38 -25l-54 -198q-5 -20 -5 -32q2 -31 33 -32h25q7 -2 7 -10l-4 -22q-3 -7 -13 -8 q-3 0 -15 1q-56 2 -113 2q-66 0 -114 -3h-8q-9 2 -8 12l4 20q4 7 11 8h23q37 0 57 34q5 8 7 16l136 484q5 17 5 32q-2 29 -33 30h-25q-10 0 -10 7q1 2 1 3l7 24q4 6 12 6h12q54 -3 111 -3q61 0 111 2q12 1 15 1q7 -1 6 -8l-3 -24q-3 -8 -12 -8h-24q-44 -2 -58 -45l-73 -246 q27 13 229 188q74 64 80 72q7 12 7 18q-2 12 -20 13h-16q-9 1 -8 9l5 23q3 7 10 8q3 0 15 -1q57 -2 106 -2q43 0 85 2q9 1 12 1q11 -2 11 -10l-4 -20q-5 -9 -10 -10h-31q-35 -1 -80 -30q-3 -2 -275 -215q-6 -4 -8 -6q87 -216 197 -396q49 -80 86 -123q52 -59 85 -79 q35 -22 68 -22q47 0 70 34q9 14 9 28q0 6 -1 9q-1 5 -1 12q0 32 21 38q4 1 6 1h2q33 -7 37 -42q0 -46 -48 -82q-49 -37 -123 -37q-152 1 -269 156q-68 90 -161 299q-34 77 -59 146z" glyph-name="Kcommaaccent.swash" horiz-adv-x="635" unicode=""/>
<glyph d="M120 71l1 -4q37 15 87 15q84 -1 133 -40q46 -37 128 -130q63 -73 94 -88q15 -7 28 -7q39 1 40 21q0 3 -4 15q-6 19 -6 28q0 30 25 44q9 5 17 5q38 0 50 -35q3 -10 3 -19q0 -62 -70 -86q-29 -10 -61 -10q-104 0 -213 90q-21 17 -60 52q-82 75 -126 97q-18 8 -35 13 q-13 3 -28 3q-9 0 -30 -2q-63 -87 -105 -88q-21 0 -29 20q-2 6 -2 11q0 43 80 78q16 6 30 11q28 21 51 61q24 42 53 163q8 34 44 196q26 115 122 169q56 31 118 31q87 0 110 -47q6 -11 6 -23q0 -29 -28 -41q-7 -3 -13 -3q-40 1 -55 37q-12 33 -32 38q-7 2 -13 2 q-43 0 -68 -62q-12 -31 -27 -92q-65 -265 -113 -329q-9 -12 -23 -26q-44 -46 -79 -68z" glyph-name="L.swash" horiz-adv-x="511" unicode=""/>
<glyph d="M355 729l-6 10q-1 5 3 10l143 115q15 11 34 11q25 0 33 -27q2 -7 2 -13q-1 -27 -27 -39l-174 -68q-6 -2 -8 1zM120 71l1 -4q37 15 87 15q84 -1 133 -40q46 -37 128 -130q63 -73 94 -88q15 -7 28 -7q39 1 40 21q0 3 -4 15q-6 19 -6 28q0 30 25 44q9 5 17 5q38 0 50 -35 q3 -10 3 -19q0 -62 -70 -86q-29 -10 -61 -10q-104 0 -213 90q-21 17 -60 52q-82 75 -126 97q-18 8 -35 13q-13 3 -28 3q-9 0 -30 -2q-63 -87 -105 -88q-21 0 -29 20q-2 6 -2 11q0 43 80 78q16 6 30 11q28 21 51 61q24 42 53 163q8 34 44 196q26 115 122 169q56 31 118 31 q87 0 110 -47q6 -11 6 -23q0 -29 -28 -41q-7 -3 -13 -3q-40 1 -55 37q-12 33 -32 38q-7 2 -13 2q-43 0 -68 -62q-12 -31 -27 -92q-65 -265 -113 -329q-9 -12 -23 -26q-44 -46 -79 -68z" glyph-name="Lacute.swash" horiz-adv-x="511" unicode=""/>
<glyph d="M743 603q0 -79 -78 -118q-28 -14 -46 -14q-7 2 -8 10q2 7 9 10q35 10 56 39q12 16 12 33q0 22 -20 45q-1 1 -3 2q-20 19 -21 35q0 29 24 38q7 2 13 2q41 0 56 -47q6 -18 6 -35zM120 71l1 -4q37 15 87 15q84 -1 133 -40q46 -37 128 -130q63 -73 94 -88q15 -7 28 -7 q39 1 40 21q0 3 -4 15q-6 19 -6 28q0 30 25 44q9 5 17 5q38 0 50 -35q3 -10 3 -19q0 -62 -70 -86q-29 -10 -61 -10q-104 0 -213 90q-21 17 -60 52q-82 75 -126 97q-18 8 -35 13q-13 3 -28 3q-9 0 -30 -2q-63 -87 -105 -88q-21 0 -29 20q-2 6 -2 11q0 43 80 78q16 6 30 11 q28 21 51 61q24 42 53 163q8 34 44 196q26 115 122 169q56 31 118 31q87 0 110 -47q6 -11 6 -23q0 -29 -28 -41q-7 -3 -13 -3q-40 1 -55 37q-12 33 -32 38q-7 2 -13 2q-43 0 -68 -62q-12 -31 -27 -92q-65 -265 -113 -329q-9 -12 -23 -26q-44 -46 -79 -68z" glyph-name="Lcaron.swash" horiz-adv-x="511" unicode=""/>
<glyph d="M238 -142q0 -79 -78 -118q-28 -14 -46 -14q-7 2 -8 10q2 7 9 10q35 10 56 39q12 16 12 33q0 22 -20 45q-1 1 -3 2q-20 19 -21 35q0 29 24 38q7 2 13 2q41 0 56 -47q6 -18 6 -35zM120 71l1 -4q37 15 87 15q84 -1 133 -40q46 -37 128 -130q63 -73 94 -88q15 -7 28 -7 q39 1 40 21q0 3 -4 15q-6 19 -6 28q0 30 25 44q9 5 17 5q38 0 50 -35q3 -10 3 -19q0 -62 -70 -86q-29 -10 -61 -10q-104 0 -213 90q-21 17 -60 52q-82 75 -126 97q-18 8 -35 13q-13 3 -28 3q-9 0 -30 -2q-63 -87 -105 -88q-21 0 -29 20q-2 6 -2 11q0 43 80 78q16 6 30 11 q28 21 51 61q24 42 53 163q8 34 44 196q26 115 122 169q56 31 118 31q87 0 110 -47q6 -11 6 -23q0 -29 -28 -41q-7 -3 -13 -3q-40 1 -55 37q-12 33 -32 38q-7 2 -13 2q-43 0 -68 -62q-12 -31 -27 -92q-65 -265 -113 -329q-9 -12 -23 -26q-44 -46 -79 -68z" glyph-name="Lcommaaccent.swash" horiz-adv-x="511" unicode=""/>
<glyph d="M716 -124q0 -62 -70 -86q-29 -10 -61 -10q-104 0 -213 90q-21 17 -60 52q-82 75 -126 97q-18 8 -35 13q-13 3 -28 3q-9 0 -30 -2q-63 -87 -105 -88q-21 0 -29 20q-2 6 -2 11q0 43 80 78q16 6 30 11q27 20 52 61q23 40 52 162q2 9 4 19q-30 -6 -101 -21q-7 -1 -8 4l-8 28 q2 5 6 7q10 2 19.5 4.5t17 4t15.5 3.5t13.5 3t12.5 3t10.5 2.5t10 2t8 2l7.5 2.5l7 1q7 33 30 132q26 115 122 169q56 31 118 31q87 0 110 -47q6 -11 6 -23q0 -28 -25 -40q-8 -3 -14 -3h-1h-3q-38 1 -53 36q-12 33 -32 38q-7 2 -13 2q-42 0 -66 -59q-12 -31 -28 -95 q-13 -54 -31 -113q14 3 64 14q75 16 107 23q7 -1 8 -4l6 -26q1 -7 -4 -9q-43 -10 -114 -27q-66 -16 -80 -20q-41 -135 -82 -181q-5 -6 -11 -12q-51 -51 -79 -68l1 -4q37 15 87 15q83 -1 133 -40q46 -37 128 -130q63 -74 95 -88q14 -7 27 -7q39 1 40 21q0 3 -4 15 q-6 19 -6 28q0 30 25 44q9 5 17 5q38 0 50 -35q3 -10 3 -19z" glyph-name="Lslash.swash" horiz-adv-x="511" unicode=""/>
<glyph d="M1523 665l-4 -24q-3 -8 -10 -8h-30q-31 -2 -49 -62q-72 -241 -132 -475q-3 -11 -3 -19q1 -17 14 -18q27 0 56 31q6 7 10 13q20 26 27 27q12 -3 14 -22q-1 -9 -5 -17q-28 -42 -88 -75q-56 -31 -110 -31q-37 2 -41 28q0 22 16 83q49 189 136 489q4 14 -2 13q-5 -1 -8 -5 t-220 -311q-180 -254 -185 -261q-15 -20 -30 -21q-11 2 -15 23l-43 534v7q0 12 -5 11q-5 -2 -9 -11q-94 -299 -218 -464q-18 -24 -35 -43q-156 -165 -334 -169q-100 0 -166 68q-62 65 -62 165t72 156q46 36 99 36q51 0 72 -37q7 -14 7 -28q0 -38 -35 -48q-10 -3 -20 -3 q-26 0 -48 29q-3 5 -4 6q-12 14 -26 14q-35 0 -60 -43q-19 -33 -19 -77q0 -65 57 -113q57 -47 139 -47q170 1 310 149q109 114 206 369q17 45 29 84q5 17 5 23q-6 11 -22 12h-68q-112 0 -173 -16q-92 -25 -93 -62q0 -31 31 -37q1 -1 2 -1q38 -7 47 -36q1 -6 1 -10 q0 -36 -35 -49q-9 -3 -17 -3q-44 0 -63 56q-8 24 -8 47q0 69 59 119q7 6 14 11q60 43 205 48q35 1 86 1h72q58 -1 89 -1q22 -9 24 -30l27 -451q2 -18 8 -19q6 0 15 12l332 473q12 15 32 15q97 0 159 3h14q9 -2 9 -8z" glyph-name="M.swash" horiz-adv-x="1457" unicode=""/>
<glyph d="M94 -26q-75 0 -115 51q-25 32 -25 75q0 55 39 76q12 6 23 6q41 0 48 -36q1 -6 1 -12q0 -16 -21 -43q-10 -13 -12 -22v-3q-1 -2 -1 -3q0 -26 43 -33q12 -2 25 -2q105 0 200 109q11 14 21 27q66 92 117 254q33 103 33 162q-2 29 -34 30h-18q-103 0 -157 -17 q-55 -16 -74 -47q-6 -9 -6 -16q0 -27 22 -38l6 -2q44 -9 45 -45q0 -28 -28 -39q-11 -4 -22 -4q-36 0 -55 41q-10 21 -10 45q0 82 60 132q5 4 9 7q54 38 169 42q27 1 67 1h116q22 0 28 -20q1 -2 1 -3q38 -169 121 -371q35 -85 60 -125q3 -4 6 -5q5 2 10 21q83 371 219 476 q64 50 140 50q64 0 83 -45q5 -11 5 -23q0 -31 -29 -45q-10 -5 -20 -5q-25 1 -44 28q-7 18 -30 22q-4 1 -6 1q-34 -1 -71 -27q-127 -92 -203 -407l-8 -36q-7 -31 -7 -52q0 -29 18 -59q62 -106 157 -184q109 -88 214 -88q68 0 90 42q3 7 5 13q15 63 43 64q26 -4 29 -34 q0 -24 -23 -54q-4 -5 -7 -8q-68 -74 -185 -75q-211 0 -390 235q-2 3 -3 4q-136 180 -225 466q-16 52 -28 102q-2 10 -7 5q-3 -4 -4 -11q-38 -209 -117 -344q-116 -203 -288 -204z" glyph-name="N.swash" horiz-adv-x="1026" unicode=""/>
<glyph d="M702 729l-6 10q-1 5 3 10l143 115q15 11 34 11q25 0 33 -27q2 -7 2 -13q-1 -27 -27 -39l-174 -68q-6 -2 -8 1zM94 -26q-75 0 -115 51q-25 32 -25 75q0 55 39 76q12 6 23 6q41 0 48 -36q1 -6 1 -12q0 -16 -21 -43q-10 -13 -12 -22v-3q-1 -2 -1 -3q0 -26 43 -33 q12 -2 25 -2q105 0 200 109q11 14 21 27q66 92 117 254q33 103 33 162q-2 29 -34 30h-18q-103 0 -157 -17q-55 -16 -74 -47q-6 -9 -6 -16q0 -27 22 -38l6 -2q44 -9 45 -45q0 -28 -28 -39q-11 -4 -22 -4q-36 0 -55 41q-10 21 -10 45q0 82 60 132q5 4 9 7q54 38 169 42 q27 1 67 1h116q22 0 28 -20q1 -2 1 -3q38 -169 121 -371q35 -85 60 -125q3 -4 6 -5q5 2 10 21q83 371 219 476q64 50 140 50q64 0 83 -45q5 -11 5 -23q0 -31 -29 -45q-10 -5 -20 -5q-25 1 -44 28q-7 18 -30 22q-4 1 -6 1q-34 -1 -71 -27q-127 -92 -203 -407l-8 -36 q-7 -31 -7 -52q0 -29 18 -59q62 -106 157 -184q109 -88 214 -88q68 0 90 42q3 7 5 13q15 63 43 64q26 -4 29 -34q0 -24 -23 -54q-4 -5 -7 -8q-68 -74 -185 -75q-211 0 -390 235q-2 3 -3 4q-136 180 -225 466q-16 52 -28 102q-2 10 -7 5q-3 -4 -4 -11q-38 -209 -117 -344 q-116 -203 -288 -204z" glyph-name="Nacute.swash" horiz-adv-x="1026" unicode=""/>
<glyph d="M760 794l124 62q6 1 8 -2l7 -12q0 -3 -3 -6l-142 -136q-10 -5 -16 2l-76 136q-1 5 2 8l11 9q5 3 10 -2zM94 -26q-75 0 -115 51q-25 32 -25 75q0 55 39 76q12 6 23 6q41 0 48 -36q1 -6 1 -12q0 -16 -21 -43q-10 -13 -12 -22v-3q-1 -2 -1 -3q0 -26 43 -33q12 -2 25 -2 q105 0 200 109q11 14 21 27q66 92 117 254q33 103 33 162q-2 29 -34 30h-18q-103 0 -157 -17q-55 -16 -74 -47q-6 -9 -6 -16q0 -27 22 -38l6 -2q44 -9 45 -45q0 -28 -28 -39q-11 -4 -22 -4q-36 0 -55 41q-10 21 -10 45q0 82 60 132q5 4 9 7q54 38 169 42q27 1 67 1h116 q22 0 28 -20q1 -2 1 -3q38 -169 121 -371q35 -85 60 -125q3 -4 6 -5q5 2 10 21q83 371 219 476q64 50 140 50q64 0 83 -45q5 -11 5 -23q0 -31 -29 -45q-10 -5 -20 -5q-25 1 -44 28q-7 18 -30 22q-4 1 -6 1q-34 -1 -71 -27q-127 -92 -203 -407l-8 -36q-7 -31 -7 -52 q0 -29 18 -59q62 -106 157 -184q109 -88 214 -88q68 0 90 42q3 7 5 13q15 63 43 64q26 -4 29 -34q0 -24 -23 -54q-4 -5 -7 -8q-68 -74 -185 -75q-211 0 -390 235q-2 3 -3 4q-136 180 -225 466q-16 52 -28 102q-2 10 -7 5q-3 -4 -4 -11q-38 -209 -117 -344 q-116 -203 -288 -204z" glyph-name="Ncaron.swash" horiz-adv-x="1026" unicode=""/>
<glyph d="M570 -102q0 -79 -78 -118q-28 -14 -46 -14q-7 2 -8 10q2 7 9 10q35 10 56 39q12 16 12 33q0 22 -20 45q-1 1 -3 2q-20 19 -21 35q0 29 24 38q7 2 13 2q41 0 56 -47q6 -18 6 -35zM94 -26q-75 0 -115 51q-25 32 -25 75q0 55 39 76q12 6 23 6q41 0 48 -36q1 -6 1 -12 q0 -16 -21 -43q-10 -13 -12 -22v-3q-1 -2 -1 -3q0 -26 43 -33q12 -2 25 -2q105 0 200 109q11 14 21 27q66 92 117 254q33 103 33 162q-2 29 -34 30h-18q-103 0 -157 -17q-55 -16 -74 -47q-6 -9 -6 -16q0 -27 22 -38l6 -2q44 -9 45 -45q0 -28 -28 -39q-11 -4 -22 -4 q-36 0 -55 41q-10 21 -10 45q0 82 60 132q5 4 9 7q54 38 169 42q27 1 67 1h116q22 0 28 -20q1 -2 1 -3q38 -169 121 -371q35 -85 60 -125q3 -4 6 -5q5 2 10 21q83 371 219 476q64 50 140 50q64 0 83 -45q5 -11 5 -23q0 -31 -29 -45q-10 -5 -20 -5q-25 1 -44 28q-7 18 -30 22 q-4 1 -6 1q-34 -1 -71 -27q-127 -92 -203 -407l-8 -36q-7 -31 -7 -52q0 -29 18 -59q62 -106 157 -184q109 -88 214 -88q68 0 90 42q3 7 5 13q15 63 43 64q26 -4 29 -34q0 -24 -23 -54q-4 -5 -7 -8q-68 -74 -185 -75q-211 0 -390 235q-2 3 -3 4q-136 180 -225 466 q-16 52 -28 102q-2 10 -7 5q-3 -4 -4 -11q-38 -209 -117 -344q-116 -203 -288 -204z" glyph-name="Ncommaaccent.swash" horiz-adv-x="1026" unicode=""/>
<glyph d="M950 864l14 -8q4 -5 -2 -18q-39 -71 -82 -72q-38 0 -72 10q-38 10 -68 10q-22 0 -43 -26q-4 -6 -7 -10q-5 -3 -8 -2l-14 8q-2 4 0 10q16 49 54 74q15 10 28 10q27 0 82 -14q36 -6 58 -6q35 1 52 30q4 5 8 4zM94 -26q-75 0 -115 51q-25 32 -25 75q0 55 39 76q12 6 23 6 q41 0 48 -36q1 -6 1 -12q0 -16 -21 -43q-10 -13 -12 -22v-3q-1 -2 -1 -3q0 -26 43 -33q12 -2 25 -2q105 0 200 109q11 14 21 27q66 92 117 254q33 103 33 162q-2 29 -34 30h-18q-103 0 -157 -17q-55 -16 -74 -47q-6 -9 -6 -16q0 -27 22 -38l6 -2q44 -9 45 -45q0 -28 -28 -39 q-11 -4 -22 -4q-36 0 -55 41q-10 21 -10 45q0 82 60 132q5 4 9 7q54 38 169 42q27 1 67 1h116q22 0 28 -20q1 -2 1 -3q38 -169 121 -371q35 -85 60 -125q3 -4 6 -5q5 2 10 21q83 371 219 476q64 50 140 50q64 0 83 -45q5 -11 5 -23q0 -31 -29 -45q-10 -5 -20 -5 q-25 1 -44 28q-7 18 -30 22q-4 1 -6 1q-34 -1 -71 -27q-127 -92 -203 -407l-8 -36q-7 -31 -7 -52q0 -29 18 -59q62 -106 157 -184q109 -88 214 -88q68 0 90 42q3 7 5 13q15 63 43 64q26 -4 29 -34q0 -24 -23 -54q-4 -5 -7 -8q-68 -74 -185 -75q-211 0 -390 235q-2 3 -3 4 q-136 180 -225 466q-16 52 -28 102q-2 10 -7 5q-3 -4 -4 -11q-38 -209 -117 -344q-116 -203 -288 -204z" glyph-name="Ntilde.swash" horiz-adv-x="1026" unicode=""/>
<glyph d="M325 30q96 0 176 112q84 118 98 276q3 27 3 53q0 113 -73 152q-29 15 -66 15q-79 -1 -144 -74q-87 -96 -125 -237q-17 -63 -17 -116q0 -123 80 -165q31 -16 68 -16zM342 -15q-113 1 -179 65q-87 86 -87 233q0 152 93 268q95 119 239 133q17 1 32 1q140 0 215 -100 q57 -78 57 -194q0 -146 -87 -262q-96 -126 -245 -142q-19 -2 -38 -2z" glyph-name="O.swash" horiz-adv-x="724" unicode=""/>
<glyph d="M517 148l130 414q3 9 3 16q0 41 -66 54q-23 5 -49 5q-115 -1 -206 -91q-88 -86 -131 -218q-21 -67 -21 -122q0 -109 73 -155q35 -22 75 -22q154 1 192 119zM1021 158l-51 -144q-11 -16 -21 -17q-44 0 -93 1q-98 2 -175 2h-168q-11 0 -84 -8q-70 -7 -86 -7q-108 0 -172 54 q-6 5 -10 9q-86 84 -86 210q0 161 103 282q16 19 33 34q119 111 300 111q35 0 113 -7q68 -8 97 -8h96q37 0 97 1q39 1 54 1q23 0 53 1h16q14 0 18 -11l2 -8l32 -138q1 -5 -4 -8l-12 -6q-7 -1 -12 4l-104 121q-6 8 -18 8h-150l-84 -261h86q52 0 79 27q20 20 37 55q6 8 10 8 l16 -6q5 -1 6 -8q-23 -51 -49 -174q-4 -15 -5 -24q0 -7 -5 -7q-2 1 -3 1h-18q-4 4 -4 10q-2 63 -48 77q-22 6 -62 6h-50l-98 -303h218q38 0 79 32q6 4 11 8q13 11 90 100q6 7 12 4l12 -8q6 -3 3 -12q-1 -1 -1 -2z" glyph-name="OE.swash" horiz-adv-x="1064" unicode=""/>
<glyph d="M421 729l-6 10q-1 5 3 10l143 115q15 11 34 11q25 0 33 -27q2 -7 2 -13q-1 -27 -27 -39l-174 -68q-6 -2 -8 1zM325 30q96 0 176 112q84 118 98 276q3 27 3 53q0 113 -73 152q-29 15 -66 15q-79 -1 -144 -74q-87 -96 -125 -237q-17 -63 -17 -116q0 -123 80 -165 q31 -16 68 -16zM342 -15q-113 1 -179 65q-87 86 -87 233q0 152 93 268q95 119 239 133q17 1 32 1q140 0 215 -100q57 -78 57 -194q0 -146 -87 -262q-96 -126 -245 -142q-19 -2 -38 -2z" glyph-name="Oacute.swash" horiz-adv-x="724" unicode=""/>
<glyph d="M379 846l10 2q5 0 14 -10q26 -34 92 -34q68 1 104 36q13 9 16 8l10 -4q4 -4 0 -14q-52 -86 -146 -88q-87 2 -102 90q-2 12 2 14zM325 30q96 0 176 112q84 118 98 276q3 27 3 53q0 113 -73 152q-29 15 -66 15q-79 -1 -144 -74q-87 -96 -125 -237q-17 -63 -17 -116 q0 -123 80 -165q31 -16 68 -16zM342 -15q-113 1 -179 65q-87 86 -87 233q0 152 93 268q95 119 239 133q17 1 32 1q140 0 215 -100q57 -78 57 -194q0 -146 -87 -262q-96 -126 -245 -142q-19 -2 -38 -2z" glyph-name="Obreve.swash" horiz-adv-x="724" unicode=""/>
<glyph d="M482 790l-123 -60q-5 -1 -7 2l-8 10q-1 3 3 7l143 135q8 6 14 -2l77 -136q1 -5 -3 -8l-10 -8q-4 -4 -9 0l-1 1zM325 30q96 0 176 112q84 118 98 276q3 27 3 53q0 113 -73 152q-29 15 -66 15q-79 -1 -144 -74q-87 -96 -125 -237q-17 -63 -17 -116q0 -123 80 -165 q31 -16 68 -16zM342 -15q-113 1 -179 65q-87 86 -87 233q0 152 93 268q95 119 239 133q17 1 32 1q140 0 215 -100q57 -78 57 -194q0 -146 -87 -262q-96 -126 -245 -142q-19 -2 -38 -2z" glyph-name="Ocircumflex.swash" horiz-adv-x="724" unicode=""/>
<glyph d="M639 796q0 -36 -32 -46q-8 -2 -16 -2q-53 5 -56 52q0 29 29 40q13 4 27 4q38 0 46 -33q2 -8 2 -15zM451 796q0 -36 -34 -46q-8 -2 -16 -2q-53 2 -54 52q0 28 28 39q12 5 26 5q37 0 47 -31q3 -8 3 -17zM325 30q96 0 176 112q84 118 98 276q3 27 3 53q0 113 -73 152 q-29 15 -66 15q-79 -1 -144 -74q-87 -96 -125 -237q-17 -63 -17 -116q0 -123 80 -165q31 -16 68 -16zM342 -15q-113 1 -179 65q-87 86 -87 233q0 152 93 268q95 119 239 133q17 1 32 1q140 0 215 -100q57 -78 57 -194q0 -146 -87 -262q-96 -126 -245 -142q-19 -2 -38 -2z " glyph-name="Odieresis.swash" horiz-adv-x="724" unicode=""/>
<glyph d="M524 728l-156 74q-27 15 -28 37q0 25 24 39q9 4 16 4q20 -1 42 -22l114 -114q3 -5 2 -8l-8 -10q0 -3 -6 0zM325 30q96 0 176 112q84 118 98 276q3 27 3 53q0 113 -73 152q-29 15 -66 15q-79 -1 -144 -74q-87 -96 -125 -237q-17 -63 -17 -116q0 -123 80 -165 q31 -16 68 -16zM342 -15q-113 1 -179 65q-87 86 -87 233q0 152 93 268q95 119 239 133q17 1 32 1q140 0 215 -100q57 -78 57 -194q0 -146 -87 -262q-96 -126 -245 -142q-19 -2 -38 -2z" glyph-name="Ograve.swash" horiz-adv-x="724" unicode=""/>
<glyph d="M553 816l-144 -86q-6 -5 -10 0l-6 6q-2 7 2 10l110 122q14 16 32 16q21 0 32 -23q3 -8 3 -15q-1 -19 -19 -30zM687 802l-152 -72q-7 -2 -10 0l-6 8q-1 5 4 10l122 110q16 12 26 12q25 0 33 -26q2 -7 2 -12q-1 -21 -19 -30zM325 30q96 0 176 112q84 118 98 276q3 27 3 53 q0 113 -73 152q-29 15 -66 15q-79 -1 -144 -74q-87 -96 -125 -237q-17 -63 -17 -116q0 -123 80 -165q31 -16 68 -16zM342 -15q-113 1 -179 65q-87 86 -87 233q0 152 93 268q95 119 239 133q17 1 32 1q140 0 215 -100q57 -78 57 -194q0 -146 -87 -262q-96 -126 -245 -142 q-19 -2 -38 -2z" glyph-name="Ohungarumlaut.swash" horiz-adv-x="724" unicode=""/>
<glyph d="M365 818h212q9 -2 10 -8v-38q-2 -6 -10 -6h-214q-7 2 -8 6v40q2 5 10 6zM325 30q96 0 176 112q84 118 98 276q3 27 3 53q0 113 -73 152q-29 15 -66 15q-79 -1 -144 -74q-87 -96 -125 -237q-17 -63 -17 -116q0 -123 80 -165q31 -16 68 -16zM342 -15q-113 1 -179 65 q-87 86 -87 233q0 152 93 268q95 119 239 133q17 1 32 1q140 0 215 -100q57 -78 57 -194q0 -146 -87 -262q-96 -126 -245 -142q-19 -2 -38 -2z" glyph-name="Omacron.swash" horiz-adv-x="724" unicode=""/>
<glyph d="M209 122l372 470q-34 44 -98 45q-82 -1 -148 -76q-79 -87 -120 -224q-20 -69 -20 -123q0 -47 14 -92zM603 554l-372 -470q45 -51 110 -54q96 0 177 112q84 116 100 270q3 29 3 56q0 59 -18 86zM691 662l-42 -50q66 -64 78 -177q2 -19 2 -36q0 -152 -87 -270 q-96 -130 -250 -143q-15 -1 -29 -1q-110 1 -170 55l-40 -54q-6 -4 -10 -2l-22 20q-3 5 0 8l44 56q-69 85 -72 203q0 162 94 280q99 126 255 134h19q95 -1 156 -46l42 51q4 4 8 2l24 -18q6 -3 0 -12z" glyph-name="Oslash.swash" horiz-adv-x="726" unicode=""/>
<glyph d="M649 864l14 -8q4 -5 -2 -18q-39 -71 -82 -72q-38 0 -72 10q-38 10 -68 10q-22 0 -43 -26q-4 -6 -7 -10q-5 -3 -8 -2l-14 8q-2 4 0 10q16 49 54 74q15 10 28 10q27 0 82 -14q36 -6 58 -6q35 1 52 30q4 5 8 4zM325 30q96 0 176 112q84 118 98 276q3 27 3 53q0 113 -73 152 q-29 15 -66 15q-79 -1 -144 -74q-87 -96 -125 -237q-17 -63 -17 -116q0 -123 80 -165q31 -16 68 -16zM342 -15q-113 1 -179 65q-87 86 -87 233q0 152 93 268q95 119 239 133q17 1 32 1q140 0 215 -100q57 -78 57 -194q0 -146 -87 -262q-96 -126 -245 -142q-19 -2 -38 -2z " glyph-name="Otilde.swash" horiz-adv-x="724" unicode=""/>
<glyph d="M583 619l-79 -280q0 -1 -1 -4q10 -24 82 -26q127 0 169 115q13 37 13 68q0 76 -57 116q-35 24 -80 24q-38 0 -44 -8q-2 -3 -3 -5zM491 288l-48 -181q-6 -26 -6 -37q2 -32 40 -33h38q9 -2 8 -10l-3 -22q-3 -8 -12 -8h-15q-66 3 -146 3q-41 0 -79 -2l-39 -1q-8 2 -8 10 l2 20q3 9 11 10h21q47 0 66 45q4 11 10 32l130 462q5 20 5 29q0 20 -22 22q-8 1 -22 1q-124 -1 -217 -58q-85 -53 -108 -114q-6 -17 -6 -32q0 -49 34 -61q6 -2 12 -2q19 1 32 24q20 29 52 30q33 -1 41 -32q2 -7 2 -13q0 -42 -43 -62q-21 -10 -46 -10q-69 0 -105 54 q-21 33 -21 78q1 100 91 171q72 56 213 66q52 3 154 3h58q144 0 201 -21q26 -11 48 -26q64 -48 65 -132q0 -81 -63 -143q-75 -72 -198 -72q-91 0 -127 12z" glyph-name="P.swash" horiz-adv-x="828" unicode=""/>
<glyph d="M174 26q31 0 69 18q-50 40 -80 43q-35 0 -44 -20q-1 -3 -1 -5q0 -23 38 -33q11 -3 18 -3zM125 -20q-57 0 -77 33q-6 11 -6 23q0 24 42 49q52 31 119 31q51 0 89 -24q16 -9 19 -11q76 42 144 124q101 121 101 246q0 112 -86 159q-43 24 -95 24q-104 0 -162 -73 q-41 -53 -41 -126q0 -79 53 -116q29 -20 66 -20q81 0 97 63q3 11 3 20q0 25 -31 32q-5 1 -8 1q-33 4 -44 31q-3 8 -3 15q0 30 29 42q11 5 22 5q50 0 70 -52q9 -23 9 -49q0 -74 -59 -124q-54 -45 -134 -45q-82 0 -130 62q-32 43 -32 99q0 82 79 165q92 96 219 117q27 4 54 4 q159 0 218 -107q26 -47 26 -104q0 -126 -108 -240q-10 -11 -19 -20q-85 -85 -203 -149q-6 -3 -9 -5q64 -50 220 -160q189 -129 276 -136q11 -1 27 -1q74 0 112 41q6 6 6 12q0 2 -10 26q-3 8 -3 14q0 39 29 53q8 3 15 3q53 -2 54 -56q0 -39 -49 -77q-76 -58 -215 -58 q-180 0 -337 118q-81 61 -195 182q-69 -37 -136 -41h-6z" glyph-name="Q.swash" horiz-adv-x="678" unicode=""/>
<glyph d="M589 614l-75 -248q24 -10 89 -10q107 0 153 88q19 37 19 74q0 71 -73 102q-35 15 -75 15q-31 -1 -38 -21zM311 78l160 506q3 9 3 17q-2 28 -52 29q-152 -1 -246 -85q-74 -66 -75 -117q0 -39 35 -54q8 -4 14 -4q19 1 28 22q17 39 51 40q36 0 43 -34q1 -6 1 -11 q0 -55 -59 -72q-17 -5 -34 -5q-62 0 -94 46q-24 34 -24 86q0 85 70 148q22 20 49 35q73 40 225 44q31 1 75 1h99q140 0 196 -18q18 -6 33 -13q77 -45 81 -117q0 -65 -62 -121q-60 -53 -151 -70q97 -287 211 -432q19 -23 36 -41q89 -85 171 -87q62 0 87 38q9 14 9 28 q0 8 -1 11q-2 8 -2 19q1 30 24 34q33 -4 35 -44q0 -68 -65 -108q-49 -31 -116 -31q-114 0 -204 71q-25 20 -50 45q-97 99 -193 358q-23 64 -37 114q-6 15 -26 16q-2 0 -57 3l-67 -219q-7 -23 -7 -38q0 -27 29 -30q7 -1 15 -1h41q7 -2 7 -8l-3 -26q-3 -6 -12 -6h-14 q-70 3 -154 3q-35 0 -72 -2l-38 -1q-7 0 -6 9v2l4 21q3 8 10 8h19q46 2 60 41z" glyph-name="R.swash" horiz-adv-x="889" unicode=""/>
<glyph d="M574 729l-6 10q-1 5 3 10l143 115q15 11 34 11q25 0 33 -27q2 -7 2 -13q-1 -27 -27 -39l-174 -68q-6 -2 -8 1zM589 614l-75 -248q24 -10 89 -10q107 0 153 88q19 37 19 74q0 71 -73 102q-35 15 -75 15q-31 -1 -38 -21zM311 78l160 506q3 9 3 17q-2 28 -52 29 q-152 -1 -246 -85q-74 -66 -75 -117q0 -39 35 -54q8 -4 14 -4q19 1 28 22q17 39 51 40q36 0 43 -34q1 -6 1 -11q0 -55 -59 -72q-17 -5 -34 -5q-62 0 -94 46q-24 34 -24 86q0 85 70 148q22 20 49 35q73 40 225 44q31 1 75 1h99q140 0 196 -18q18 -6 33 -13q77 -45 81 -117 q0 -65 -62 -121q-60 -53 -151 -70q97 -287 211 -432q19 -23 36 -41q89 -85 171 -87q62 0 87 38q9 14 9 28q0 8 -1 11q-2 8 -2 19q1 30 24 34q33 -4 35 -44q0 -68 -65 -108q-49 -31 -116 -31q-114 0 -204 71q-25 20 -50 45q-97 99 -193 358q-23 64 -37 114q-6 15 -26 16 q-2 0 -57 3l-67 -219q-7 -23 -7 -38q0 -27 29 -30q7 -1 15 -1h41q7 -2 7 -8l-3 -26q-3 -6 -12 -6h-14q-70 3 -154 3q-35 0 -72 -2l-38 -1q-7 0 -6 9v2l4 21q3 8 10 8h19q46 2 60 41z" glyph-name="Racute.swash" horiz-adv-x="889" unicode=""/>
<glyph d="M572 824l124 62q6 1 8 -2l7 -12q0 -3 -3 -6l-142 -136q-10 -5 -16 2l-76 136q-1 5 2 8l11 9q5 3 10 -2zM589 614l-75 -248q24 -10 89 -10q107 0 153 88q19 37 19 74q0 71 -73 102q-35 15 -75 15q-31 -1 -38 -21zM311 78l160 506q3 9 3 17q-2 28 -52 29q-152 -1 -246 -85 q-74 -66 -75 -117q0 -39 35 -54q8 -4 14 -4q19 1 28 22q17 39 51 40q36 0 43 -34q1 -6 1 -11q0 -55 -59 -72q-17 -5 -34 -5q-62 0 -94 46q-24 34 -24 86q0 85 70 148q22 20 49 35q73 40 225 44q31 1 75 1h99q140 0 196 -18q18 -6 33 -13q77 -45 81 -117q0 -65 -62 -121 q-60 -53 -151 -70q97 -287 211 -432q19 -23 36 -41q89 -85 171 -87q62 0 87 38q9 14 9 28q0 8 -1 11q-2 8 -2 19q1 30 24 34q33 -4 35 -44q0 -68 -65 -108q-49 -31 -116 -31q-114 0 -204 71q-25 20 -50 45q-97 99 -193 358q-23 64 -37 114q-6 15 -26 16q-2 0 -57 3l-67 -219 q-7 -23 -7 -38q0 -27 29 -30q7 -1 15 -1h41q7 -2 7 -8l-3 -26q-3 -6 -12 -6h-14q-70 3 -154 3q-35 0 -72 -2l-38 -1q-7 0 -6 9v2l4 21q3 8 10 8h19q46 2 60 41z" glyph-name="Rcaron.swash" horiz-adv-x="889" unicode=""/>
<glyph d="M622 -122q0 -79 -78 -118q-28 -14 -46 -14q-7 2 -8 10q2 7 9 10q35 10 56 39q12 16 12 33q0 22 -20 45q-1 1 -3 2q-20 19 -21 35q0 29 24 38q7 2 13 2q41 0 56 -47q6 -18 6 -35zM589 614l-75 -248q24 -10 89 -10q107 0 153 88q19 37 19 74q0 71 -73 102q-35 15 -75 15 q-31 -1 -38 -21zM311 78l160 506q3 9 3 17q-2 28 -52 29q-152 -1 -246 -85q-74 -66 -75 -117q0 -39 35 -54q8 -4 14 -4q19 1 28 22q17 39 51 40q36 0 43 -34q1 -6 1 -11q0 -55 -59 -72q-17 -5 -34 -5q-62 0 -94 46q-24 34 -24 86q0 85 70 148q22 20 49 35q73 40 225 44 q31 1 75 1h99q140 0 196 -18q18 -6 33 -13q77 -45 81 -117q0 -65 -62 -121q-60 -53 -151 -70q97 -287 211 -432q19 -23 36 -41q89 -85 171 -87q62 0 87 38q9 14 9 28q0 8 -1 11q-2 8 -2 19q1 30 24 34q33 -4 35 -44q0 -68 -65 -108q-49 -31 -116 -31q-114 0 -204 71 q-25 20 -50 45q-97 99 -193 358q-23 64 -37 114q-6 15 -26 16q-2 0 -57 3l-67 -219q-7 -23 -7 -38q0 -27 29 -30q7 -1 15 -1h41q7 -2 7 -8l-3 -26q-3 -6 -12 -6h-14q-70 3 -154 3q-35 0 -72 -2l-38 -1q-7 0 -6 9v2l4 21q3 8 10 8h19q46 2 60 41z" glyph-name="Rcommaaccent.swash" horiz-adv-x="889" unicode=""/>
<glyph d="M218 -229q133 0 203 93q46 62 46 141q0 105 -54 221q-5 10 -15 29q-18 38 -26 57q-52 122 -52 181q0 92 74 148q60 44 141 44q107 0 137 -69q7 -17 7 -32q0 -37 -31 -53q-13 -6 -28 -6q-29 0 -41 28q-3 8 -3 15q0 18 11 42q3 7 3 11q0 23 -36 30q-11 2 -23 2 q-63 0 -92 -57q-14 -29 -14 -63q0 -61 43 -153q3 -8 10 -24q6 -11 8 -16q7 -14 20 -42q55 -110 66 -174q6 -31 6 -62q0 -143 -104 -237q-104 -92 -263 -92q-168 0 -237 97q-33 48 -33 105q0 83 65 133q46 35 102 35q69 0 98 -48q12 -19 12 -41q0 -34 -30 -46q-10 -4 -22 -4 q-25 0 -40 25q-5 8 -6 16q-11 54 -43 56q-27 -2 -46 -43q-14 -31 -14 -71q0 -73 63 -127q59 -49 138 -49z" glyph-name="S.swash" horiz-adv-x="656" unicode=""/>
<glyph d="M507 729l-6 10q-1 5 3 10l143 115q15 11 34 11q25 0 33 -27q2 -7 2 -13q-1 -27 -27 -39l-174 -68q-6 -2 -8 1zM218 -229q133 0 203 93q46 62 46 141q0 105 -54 221q-5 10 -15 29q-18 38 -26 57q-52 122 -52 181q0 92 74 148q60 44 141 44q107 0 137 -69q7 -17 7 -32 q0 -37 -31 -53q-13 -6 -28 -6q-29 0 -41 28q-3 8 -3 15q0 18 11 42q3 7 3 11q0 23 -36 30q-11 2 -23 2q-63 0 -92 -57q-14 -29 -14 -63q0 -61 43 -153q3 -8 10 -24q6 -11 8 -16q7 -14 20 -42q55 -110 66 -174q6 -31 6 -62q0 -143 -104 -237q-104 -92 -263 -92 q-168 0 -237 97q-33 48 -33 105q0 83 65 133q46 35 102 35q69 0 98 -48q12 -19 12 -41q0 -34 -30 -46q-10 -4 -22 -4q-25 0 -40 25q-5 8 -6 16q-11 54 -43 56q-27 -2 -46 -43q-14 -31 -14 -71q0 -73 63 -127q59 -49 138 -49z" glyph-name="Sacute.swash" horiz-adv-x="656" unicode=""/>
<glyph d="M555 824l124 62q6 1 8 -2l7 -12q0 -3 -3 -6l-142 -136q-10 -5 -16 2l-76 136q-1 5 2 8l11 9q5 3 10 -2zM218 -229q133 0 203 93q46 62 46 141q0 105 -54 221q-5 10 -15 29q-18 38 -26 57q-52 122 -52 181q0 92 74 148q60 44 141 44q107 0 137 -69q7 -17 7 -32 q0 -37 -31 -53q-13 -6 -28 -6q-29 0 -41 28q-3 8 -3 15q0 18 11 42q3 7 3 11q0 23 -36 30q-11 2 -23 2q-63 0 -92 -57q-14 -29 -14 -63q0 -61 43 -153q3 -8 10 -24q6 -11 8 -16q7 -14 20 -42q55 -110 66 -174q6 -31 6 -62q0 -143 -104 -237q-104 -92 -263 -92 q-168 0 -237 97q-33 48 -33 105q0 83 65 133q46 35 102 35q69 0 98 -48q12 -19 12 -41q0 -34 -30 -46q-10 -4 -22 -4q-25 0 -40 25q-5 8 -6 16q-11 54 -43 56q-27 -2 -46 -43q-14 -31 -14 -71q0 -73 63 -127q59 -49 138 -49z" glyph-name="Scaron.swash" horiz-adv-x="656" unicode=""/>
<glyph d="M228 -267l-43 -60q63 -24 66 -64q0 -43 -62 -73q-47 -23 -98 -23q-19 1 -20 16q1 15 12 16q48 0 72 26q12 13 12 30q0 29 -45 43q-2 1 -3 1l65 89q-156 8 -216 106q-27 44 -27 95q0 83 65 133q46 35 102 35q69 0 98 -48q12 -19 12 -41q0 -34 -30 -46q-10 -4 -22 -4 q-25 0 -40 25q-5 8 -6 16q-11 54 -43 56q-27 -2 -46 -43q-14 -31 -14 -71q0 -73 63 -127q59 -49 138 -49q133 0 203 93q46 62 46 141q0 105 -54 221q-5 10 -15 29q-18 38 -26 57q-52 122 -52 181q0 92 74 148q60 44 141 44q107 0 137 -69q7 -17 7 -32q0 -37 -31 -53 q-13 -6 -28 -6q-29 0 -41 28q-3 8 -3 15q0 18 11 42q3 7 3 11q0 23 -36 30q-11 2 -23 2q-63 0 -92 -57q-14 -29 -14 -63q0 -61 43 -153q3 -8 10 -24q6 -11 8 -16q7 -14 20 -42q55 -110 66 -174q6 -32 6 -63q0 -143 -104 -236q-98 -87 -246 -92z" glyph-name="Scedilla.swash" horiz-adv-x="656" unicode=""/>
<glyph d="M245 -402q0 -79 -78 -118q-28 -14 -46 -14q-7 2 -8 10q2 7 9 10q35 10 56 39q12 16 12 33q0 22 -20 45q-1 1 -3 2q-20 19 -21 35q0 29 24 38q7 2 13 2q41 0 56 -47q6 -18 6 -35zM218 -229q133 0 203 93q46 62 46 141q0 105 -54 221q-5 10 -15 29q-18 38 -26 57 q-52 122 -52 181q0 92 74 148q60 44 141 44q107 0 137 -69q7 -17 7 -32q0 -37 -31 -53q-13 -6 -28 -6q-29 0 -41 28q-3 8 -3 15q0 18 11 42q3 7 3 11q0 23 -36 30q-11 2 -23 2q-63 0 -92 -57q-14 -29 -14 -63q0 -61 43 -153q3 -8 10 -24q6 -11 8 -16q7 -14 20 -42 q55 -110 66 -174q6 -31 6 -62q0 -143 -104 -237q-104 -92 -263 -92q-168 0 -237 97q-33 48 -33 105q0 83 65 133q46 35 102 35q69 0 98 -48q12 -19 12 -41q0 -34 -30 -46q-10 -4 -22 -4q-25 0 -40 25q-5 8 -6 16q-11 54 -43 56q-27 -2 -46 -43q-14 -31 -14 -71 q0 -73 63 -127q59 -49 138 -49z" glyph-name="Scommaaccent.swash" horiz-adv-x="656" unicode=""/>
<glyph d="M527 599l-152 -479q-10 -35 -10 -49q6 -32 47 -34h39q8 -1 7 -10l-4 -22q-4 -8 -13 -8q-4 0 -18 1q-64 2 -137 2q-61 0 -129 -2q-15 -1 -18 -1q-8 0 -8 6v4l3 22q4 7 11 8h21q53 0 76 37q13 21 26 61l153 473q-59 10 -160 10q-109 0 -152 -64q-17 -27 -17 -58 q1 -26 10 -41q8 -8 15 -1q15 12 38 12q30 0 42 -30q4 -11 4 -22q0 -29 -29 -43q-15 -7 -31 -7q-45 0 -69 43q-17 32 -17 78q0 71 54 126q16 16 35 28q72 46 207 46q86 0 223 -17q138 -17 147 -17q51 1 52 29q-1 12 -9 24q-11 15 -12 29q0 25 24 32q7 2 14 2q41 -1 42 -56 q0 -36 -33 -74q-48 -52 -126 -52q-24 0 -146 14z" glyph-name="T.swash" horiz-adv-x="617" unicode=""/>
<glyph d="M508 824l124 62q6 1 8 -2l7 -12q0 -3 -3 -6l-142 -136q-10 -5 -16 2l-76 136q-1 5 2 8l11 9q5 3 10 -2zM722 276l6 -6q98 145 190 146q69 0 79 -73q1 -10 1 -20q0 -104 -66 -221q-74 -133 -166 -134q-39 0 -53 31q-5 11 -5 23q0 33 25 46q9 4 17 4q30 0 36 -31v-3 q5 -26 20 -27q22 0 57 107q2 4 3 8q38 116 38 179q-2 46 -30 47q-45 0 -131 -102q-9 -10 -15 -18q-30 -40 -56 -102l-52 -122q-4 -8 -12 -8h-64q-12 2 -8 14l211 548q11 27 11 32q-1 9 -3 12q-23 20 -179 25q-15 1 -26 1h-20l-158 -510q-10 -33 -10 -48q0 -33 39 -36 q6 -1 13 -1h40q7 -2 6 -10l-4 -20q-3 -9 -12 -10q-4 0 -18 1q-63 2 -130 2q-74 0 -146 -3h-15q-9 2 -9 10l2 22q3 8 12 8h26q50 0 72 37q13 22 26 64l154 494h-26q-129 -1 -159 -22q-42 -31 -111 -112q-5 -4 -12 -4l-16 10q-4 4 -2 10q23 43 75 164q1 3 1 4q5 9 10 10 q7 -1 16 -8q48 -14 172 -14h319q149 1 186 18q9 4 10 4q7 -2 8 -8q-1 -22 -15 -50z" glyph-name="T_h.caron" horiz-adv-x="981" unicode=""/>
<glyph d="M328 -142q0 -79 -78 -118q-28 -14 -46 -14q-7 2 -8 10q2 7 9 10q35 10 56 39q12 16 12 33q0 22 -20 45q-1 1 -3 2q-20 19 -21 35q0 29 24 38q7 2 13 2q41 0 56 -47q6 -18 6 -35zM722 276l6 -6q98 145 190 146q69 0 79 -73q1 -10 1 -20q0 -104 -66 -221 q-74 -133 -166 -134q-39 0 -53 31q-5 11 -5 23q0 33 25 46q9 4 17 4q30 0 36 -31v-3q5 -26 20 -27q22 0 57 107q2 4 3 8q38 116 38 179q-2 46 -30 47q-45 0 -131 -102q-9 -10 -15 -18q-30 -40 -56 -102l-52 -122q-4 -8 -12 -8h-64q-12 2 -8 14l211 548q11 27 11 32 q-1 9 -3 12q-23 20 -179 25q-15 1 -26 1h-20l-158 -510q-10 -33 -10 -48q0 -33 39 -36q6 -1 13 -1h40q7 -2 6 -10l-4 -20q-3 -9 -12 -10q-4 0 -18 1q-63 2 -130 2q-74 0 -146 -3h-15q-9 2 -9 10l2 22q3 8 12 8h26q50 0 72 37q13 22 26 64l154 494h-26q-129 -1 -159 -22 q-42 -31 -111 -112q-5 -4 -12 -4l-16 10q-4 4 -2 10q23 43 75 164q1 3 1 4q5 9 10 10q7 -1 16 -8q48 -14 172 -14h319q149 1 186 18q9 4 10 4q7 -2 8 -8q-1 -22 -15 -50z" glyph-name="T_h.commaaccent" horiz-adv-x="981" unicode=""/>
<glyph d="M506 824l124 62q6 1 8 -2l7 -12q0 -3 -3 -6l-142 -136q-10 -5 -16 2l-76 136q-1 5 2 8l11 9q5 3 10 -2zM527 599l-152 -479q-10 -35 -10 -49q6 -32 47 -34h39q8 -1 7 -10l-4 -22q-4 -8 -13 -8q-4 0 -18 1q-64 2 -137 2q-61 0 -129 -2q-15 -1 -18 -1q-8 0 -8 6v4l3 22 q4 7 11 8h21q53 0 76 37q13 21 26 61l153 473q-59 10 -160 10q-109 0 -152 -64q-17 -27 -17 -58q1 -26 10 -41q8 -8 15 -1q15 12 38 12q30 0 42 -30q4 -11 4 -22q0 -29 -29 -43q-15 -7 -31 -7q-45 0 -69 43q-17 32 -17 78q0 71 54 126q16 16 35 28q72 46 207 46 q86 0 223 -17q138 -17 147 -17q51 1 52 29q-1 12 -9 24q-11 15 -12 29q0 25 24 32q7 2 14 2q41 -1 42 -56q0 -36 -33 -74q-48 -52 -126 -52q-24 0 -146 14z" glyph-name="Tcaron.swash" horiz-adv-x="617" unicode=""/>
<glyph d="M316 -142q0 -79 -78 -118q-28 -14 -46 -14q-7 2 -8 10q2 7 9 10q35 10 56 39q12 16 12 33q0 22 -20 45q-1 1 -3 2q-20 19 -21 35q0 29 24 38q7 2 13 2q41 0 56 -47q6 -18 6 -35zM527 599l-152 -479q-10 -35 -10 -49q6 -32 47 -34h39q8 -1 7 -10l-4 -22q-4 -8 -13 -8 q-4 0 -18 1q-64 2 -137 2q-61 0 -129 -2q-15 -1 -18 -1q-8 0 -8 6v4l3 22q4 7 11 8h21q53 0 76 37q13 21 26 61l153 473q-59 10 -160 10q-109 0 -152 -64q-17 -27 -17 -58q1 -26 10 -41q8 -8 15 -1q15 12 38 12q30 0 42 -30q4 -11 4 -22q0 -29 -29 -43q-15 -7 -31 -7 q-45 0 -69 43q-17 32 -17 78q0 71 54 126q16 16 35 28q72 46 207 46q86 0 223 -17q138 -17 147 -17q51 1 52 29q-1 12 -9 24q-11 15 -12 29q0 25 24 32q7 2 14 2q41 -1 42 -56q0 -36 -33 -74q-48 -52 -126 -52q-24 0 -146 14z" glyph-name="Tcommaaccent.swash" horiz-adv-x="617" unicode=""/>
<glyph d="M91 424q0 -45 28 -59q9 -4 18 -4q14 0 31 22q29 29 53 32q32 0 41 -31q2 -7 2 -14q0 -48 -52 -66q-18 -6 -37 -6q-76 0 -110 63q-16 31 -16 69q1 100 90 172q84 66 175 73q18 2 37 2q4 0 91 -3q62 -4 92 -4q21 0 62 2h30q21 1 31 1q11 -2 12 -10l-1 -5l-2 -10v-5 q-4 -11 -20 -11q-3 0 -9 1h-8q-44 -1 -62 -58l-10 -31h32q114 0 170 -28q18 -10 34 -22q50 -41 58 -96q2 -16 2 -36q0 -49 -22 -90q-59 -111 -233 -124q-21 -2 -41 -2q-69 0 -102 8q-2 -7 -6 -22q-11 -38 -11 -56q0 -35 32 -38q6 -1 13 -1h26q8 -2 9 -7q0 -1 -1 -3 q-2 -23 -4 -26q-5 -4 -11 -4q-23 0 -68 2q-44 1 -66 1t-64 -2q-44 -1 -65 -1q-9 2 -10 11q0 7 5 21q3 9 13 9h8q6 -1 8 -1q43 0 61 54q3 9 7 23l122 452q6 20 5 30q-1 34 -56 34h-6q-89 0 -168 -46q-12 -7 -23 -14q-86 -53 -108 -114q-6 -17 -6 -32zM548 506l-82 -313 q26 -12 83 -12q108 0 159 87q27 47 27 100q0 106 -94 134q-25 7 -50 7h-14q-22 0 -29 -3z" glyph-name="Thorn.swash" horiz-adv-x="828" unicode=""/>
<glyph d="M148 293l86 278q6 18 6 30q-2 31 -33 32h-36q-7 0 -7 6v2l5 24q3 8 13 8q3 0 15 -1q57 -2 122 -2q60 0 112 2q10 1 13 1q9 -2 9 -10l-4 -22q-3 -7 -10 -8h-28q-43 0 -59 -52q-1 -1 -1 -2l-82 -267q-29 -106 -29 -141q0 -102 92 -128q23 -6 43 -6q74 0 127 42q3 2 4 3 q63 52 100 167q6 18 11 37l73 256q9 33 9 53q-2 37 -33 38h-32q-9 0 -9 5v3l4 22q3 9 12 10q4 0 18 -1q52 -2 96 -2q41 0 78 2q10 1 13 1q9 0 9 -6v-4l-3 -22q-4 -7 -11 -8h-15q-44 -2 -68 -79l-86 -275q-56 -183 -151 -248q-69 -46 -168 -46q-143 0 -199 84q-27 42 -27 99 q0 51 21 125z" glyph-name="U.swash" horiz-adv-x="741" unicode=""/>
<glyph d="M500 729l-6 10q-1 5 3 10l143 115q15 11 34 11q25 0 33 -27q2 -7 2 -13q-1 -27 -27 -39l-174 -68q-6 -2 -8 1zM148 293l86 278q6 18 6 30q-2 31 -33 32h-36q-7 0 -7 6v2l5 24q3 8 13 8q3 0 15 -1q57 -2 122 -2q60 0 112 2q10 1 13 1q9 -2 9 -10l-4 -22q-3 -7 -10 -8h-28 q-43 0 -59 -52q-1 -1 -1 -2l-82 -267q-29 -106 -29 -141q0 -102 92 -128q23 -6 43 -6q74 0 127 42q3 2 4 3q63 52 100 167q6 18 11 37l73 256q9 33 9 53q-2 37 -33 38h-32q-9 0 -9 5v3l4 22q3 9 12 10q4 0 18 -1q52 -2 96 -2q41 0 78 2q10 1 13 1q9 0 9 -6v-4l-3 -22 q-4 -7 -11 -8h-15q-44 -2 -68 -79l-86 -275q-56 -183 -151 -248q-69 -46 -168 -46q-143 0 -199 84q-27 42 -27 99q0 51 21 125z" glyph-name="Uacute.swash" horiz-adv-x="741" unicode=""/>
<glyph d="M438 846l10 2q5 0 14 -10q26 -34 92 -34q68 1 104 36q13 9 16 8l10 -4q4 -4 0 -14q-52 -86 -146 -88q-87 2 -102 90q-2 12 2 14zM148 293l86 278q6 18 6 30q-2 31 -33 32h-36q-7 0 -7 6v2l5 24q3 8 13 8q3 0 15 -1q57 -2 122 -2q60 0 112 2q10 1 13 1q9 -2 9 -10l-4 -22 q-3 -7 -10 -8h-28q-43 0 -59 -52q-1 -1 -1 -2l-82 -267q-29 -106 -29 -141q0 -102 92 -128q23 -6 43 -6q74 0 127 42q3 2 4 3q63 52 100 167q6 18 11 37l73 256q9 33 9 53q-2 37 -33 38h-32q-9 0 -9 5v3l4 22q3 9 12 10q4 0 18 -1q52 -2 96 -2q41 0 78 2q10 1 13 1q9 0 9 -6 v-4l-3 -22q-4 -7 -11 -8h-15q-44 -2 -68 -79l-86 -275q-56 -183 -151 -248q-69 -46 -168 -46q-143 0 -199 84q-27 42 -27 99q0 51 21 125z" glyph-name="Ubreve.swash" horiz-adv-x="741" unicode=""/>
<glyph d="M566 790l-123 -60q-5 -1 -7 2l-8 10q-1 3 3 7l143 135q8 6 14 -2l77 -136q1 -5 -3 -8l-10 -8q-4 -4 -9 0l-1 1zM148 293l86 278q6 18 6 30q-2 31 -33 32h-36q-7 0 -7 6v2l5 24q3 8 13 8q3 0 15 -1q57 -2 122 -2q60 0 112 2q10 1 13 1q9 -2 9 -10l-4 -22q-3 -7 -10 -8h-28 q-43 0 -59 -52q-1 -1 -1 -2l-82 -267q-29 -106 -29 -141q0 -102 92 -128q23 -6 43 -6q74 0 127 42q3 2 4 3q63 52 100 167q6 18 11 37l73 256q9 33 9 53q-2 37 -33 38h-32q-9 0 -9 5v3l4 22q3 9 12 10q4 0 18 -1q52 -2 96 -2q41 0 78 2q10 1 13 1q9 0 9 -6v-4l-3 -22 q-4 -7 -11 -8h-15q-44 -2 -68 -79l-86 -275q-56 -183 -151 -248q-69 -46 -168 -46q-143 0 -199 84q-27 42 -27 99q0 51 21 125z" glyph-name="Ucircumflex.swash" horiz-adv-x="741" unicode=""/>
<glyph d="M698 796q0 -36 -32 -46q-8 -2 -16 -2q-53 5 -56 52q0 29 29 40q13 4 27 4q38 0 46 -33q2 -8 2 -15zM510 796q0 -36 -34 -46q-8 -2 -16 -2q-53 2 -54 52q0 28 28 39q12 5 26 5q37 0 47 -31q3 -8 3 -17zM148 293l86 278q6 18 6 30q-2 31 -33 32h-36q-7 0 -7 6v2l5 24 q3 8 13 8q3 0 15 -1q57 -2 122 -2q60 0 112 2q10 1 13 1q9 -2 9 -10l-4 -22q-3 -7 -10 -8h-28q-43 0 -59 -52q-1 -1 -1 -2l-82 -267q-29 -106 -29 -141q0 -102 92 -128q23 -6 43 -6q74 0 127 42q3 2 4 3q63 52 100 167q6 18 11 37l73 256q9 33 9 53q-2 37 -33 38h-32 q-9 0 -9 5v3l4 22q3 9 12 10q4 0 18 -1q52 -2 96 -2q41 0 78 2q10 1 13 1q9 0 9 -6v-4l-3 -22q-4 -7 -11 -8h-15q-44 -2 -68 -79l-86 -275q-56 -183 -151 -248q-69 -46 -168 -46q-143 0 -199 84q-27 42 -27 99q0 51 21 125z" glyph-name="Udieresis.swash" horiz-adv-x="741" unicode=""/>
<glyph d="M583 728l-156 74q-27 15 -28 37q0 25 24 39q9 4 16 4q20 -1 42 -22l114 -114q3 -5 2 -8l-8 -10q0 -3 -6 0zM148 293l86 278q6 18 6 30q-2 31 -33 32h-36q-7 0 -7 6v2l5 24q3 8 13 8q3 0 15 -1q57 -2 122 -2q60 0 112 2q10 1 13 1q9 -2 9 -10l-4 -22q-3 -7 -10 -8h-28 q-43 0 -59 -52q-1 -1 -1 -2l-82 -267q-29 -106 -29 -141q0 -102 92 -128q23 -6 43 -6q74 0 127 42q3 2 4 3q63 52 100 167q6 18 11 37l73 256q9 33 9 53q-2 37 -33 38h-32q-9 0 -9 5v3l4 22q3 9 12 10q4 0 18 -1q52 -2 96 -2q41 0 78 2q10 1 13 1q9 0 9 -6v-4l-3 -22 q-4 -7 -11 -8h-15q-44 -2 -68 -79l-86 -275q-56 -183 -151 -248q-69 -46 -168 -46q-143 0 -199 84q-27 42 -27 99q0 51 21 125z" glyph-name="Ugrave.swash" horiz-adv-x="741" unicode=""/>
<glyph d="M571 816l-144 -86q-6 -5 -10 0l-6 6q-2 7 2 10l110 122q14 16 32 16q21 0 32 -23q3 -8 3 -15q-1 -19 -19 -30zM705 802l-152 -72q-7 -2 -10 0l-6 8q-1 5 4 10l122 110q16 12 26 12q25 0 33 -26q2 -7 2 -12q-1 -21 -19 -30zM148 293l86 278q6 18 6 30q-2 31 -33 32h-36 q-7 0 -7 6v2l5 24q3 8 13 8q3 0 15 -1q57 -2 122 -2q60 0 112 2q10 1 13 1q9 -2 9 -10l-4 -22q-3 -7 -10 -8h-28q-43 0 -59 -52q-1 -1 -1 -2l-82 -267q-29 -106 -29 -141q0 -102 92 -128q23 -6 43 -6q74 0 127 42q3 2 4 3q63 52 100 167q6 18 11 37l73 256q9 33 9 53 q-2 37 -33 38h-32q-9 0 -9 5v3l4 22q3 9 12 10q4 0 18 -1q52 -2 96 -2q41 0 78 2q10 1 13 1q9 0 9 -6v-4l-3 -22q-4 -7 -11 -8h-15q-44 -2 -68 -79l-86 -275q-56 -183 -151 -248q-69 -46 -168 -46q-143 0 -199 84q-27 42 -27 99q0 51 21 125z" glyph-name="Uhungarumlaut.swash" horiz-adv-x="741" unicode=""/>
<glyph d="M444 818h212q9 -2 10 -8v-38q-2 -6 -10 -6h-214q-7 2 -8 6v40q2 5 10 6zM148 293l86 278q6 18 6 30q-2 31 -33 32h-36q-7 0 -7 6v2l5 24q3 8 13 8q3 0 15 -1q57 -2 122 -2q60 0 112 2q10 1 13 1q9 -2 9 -10l-4 -22q-3 -7 -10 -8h-28q-43 0 -59 -52q-1 -1 -1 -2l-82 -267 q-29 -106 -29 -141q0 -102 92 -128q23 -6 43 -6q74 0 127 42q3 2 4 3q63 52 100 167q6 18 11 37l73 256q9 33 9 53q-2 37 -33 38h-32q-9 0 -9 5v3l4 22q3 9 12 10q4 0 18 -1q52 -2 96 -2q41 0 78 2q10 1 13 1q9 0 9 -6v-4l-3 -22q-4 -7 -11 -8h-15q-44 -2 -68 -79l-86 -275 q-56 -183 -151 -248q-69 -46 -168 -46q-143 0 -199 84q-27 42 -27 99q0 51 21 125z" glyph-name="Umacron.swash" horiz-adv-x="741" unicode=""/>
<glyph d="M855 661l-4 -20q-2 -7 -10 -8h-16q-43 -2 -68 -79l-86 -274q-53 -169 -148 -242q-36 -27 -80 -45q-31 -13 -69 -78q-29 -49 -29 -77q0 -62 57 -67q8 -1 16 -1q4 0 21 5q19 6 24 6q7 -1 7 -17q0 -7 -33 -20q-22 -8 -39 -8q-109 0 -132 48q-7 17 -7 37q0 74 116 158 q6 4 11 7q-12 -1 -33 -1q-143 0 -199 85q-27 42 -27 98q1 62 20 126l86 277q5 15 5 31q-2 30 -33 31h-36q-6 0 -6 4v4l4 24q5 8 14 8q3 0 15 -1q56 -2 123 -2q59 0 111 2q10 1 13 1q10 -2 10 -12l-4 -20q-3 -7 -10 -8h-28q-40 0 -57 -44q-2 -5 -3 -9l-82 -268 q-30 -94 -30 -139q0 -103 93 -128q22 -6 43 -6q75 0 125 40q3 3 5 4q67 59 106 181l6 22l72 256q9 33 9 53q-2 37 -33 38h-32q-10 1 -9 8l3 22q5 9 14 10q4 0 18 -1q52 -2 96 -2q41 0 77 2q10 1 13 1q10 0 11 -7q0 -3 -1 -5z" glyph-name="Uogonek.swash" horiz-adv-x="741" unicode=""/>
<glyph d="M545 752q35 0 47 31q4 10 4 22q0 42 -40 51q-7 1 -13 1q-30 0 -44 -28q-6 -12 -6 -25q0 -42 39 -51q7 -1 13 -1zM541 724q-69 0 -98 38q-12 16 -12 35q0 57 64 79q26 9 53 9q76 0 101 -45q9 -16 9 -36q0 -49 -60 -71q-27 -9 -57 -9zM148 293l86 278q6 18 6 30 q-2 31 -33 32h-36q-7 0 -7 6v2l5 24q3 8 13 8q3 0 15 -1q57 -2 122 -2q60 0 112 2q10 1 13 1q9 -2 9 -10l-4 -22q-3 -7 -10 -8h-28q-43 0 -59 -52q-1 -1 -1 -2l-82 -267q-29 -106 -29 -141q0 -102 92 -128q23 -6 43 -6q74 0 127 42q3 2 4 3q63 52 100 167q6 18 11 37l73 256 q9 33 9 53q-2 37 -33 38h-32q-9 0 -9 5v3l4 22q3 9 12 10q4 0 18 -1q52 -2 96 -2q41 0 78 2q10 1 13 1q9 0 9 -6v-4l-3 -22q-4 -7 -11 -8h-15q-44 -2 -68 -79l-86 -275q-56 -183 -151 -248q-69 -46 -168 -46q-143 0 -199 84q-27 42 -27 99q0 51 21 125z" glyph-name="Uring.swash" horiz-adv-x="741" unicode=""/>
<glyph d="M707 864l14 -8q4 -5 -2 -18q-39 -71 -82 -72q-38 0 -72 10q-38 10 -68 10q-22 0 -43 -26q-4 -6 -7 -10q-5 -3 -8 -2l-14 8q-2 4 0 10q16 49 54 74q15 10 28 10q27 0 82 -14q36 -6 58 -6q35 1 52 30q4 5 8 4zM148 293l86 278q6 18 6 30q-2 31 -33 32h-36q-7 0 -7 6v2l5 24 q3 8 13 8q3 0 15 -1q57 -2 122 -2q60 0 112 2q10 1 13 1q9 -2 9 -10l-4 -22q-3 -7 -10 -8h-28q-43 0 -59 -52q-1 -1 -1 -2l-82 -267q-29 -106 -29 -141q0 -102 92 -128q23 -6 43 -6q74 0 127 42q3 2 4 3q63 52 100 167q6 18 11 37l73 256q9 33 9 53q-2 37 -33 38h-32 q-9 0 -9 5v3l4 22q3 9 12 10q4 0 18 -1q52 -2 96 -2q41 0 78 2q10 1 13 1q9 0 9 -6v-4l-3 -22q-4 -7 -11 -8h-15q-44 -2 -68 -79l-86 -275q-56 -183 -151 -248q-69 -46 -168 -46q-143 0 -199 84q-27 42 -27 99q0 51 21 125z" glyph-name="Utilde.swash" horiz-adv-x="741" unicode=""/>
<glyph d="M415 600l-4 2q-30 -9 -103 -9q-96 0 -147 -17q-61 -25 -62 -69q1 -37 17 -38l2 1h2q12 3 21 3q39 0 51 -31q3 -8 3 -15q0 -34 -36 -47q-14 -5 -30 -5q-34 0 -55 39q-15 28 -15 66q0 69 59 127q70 66 177 66h21q19 -1 29 -1q38 -2 61 -2q28 0 54 4q6 0 16 2q9 1 12 1 q8 -1 9 -13q-2 -9 -14 -24q-61 -71 -113 -193q-51 -119 -51 -208q0 -115 89 -143q24 -8 52 -8q88 0 164 81q16 17 29 36q66 95 73 240v22q0 62 -50 108q-4 4 -8 7q-30 29 -30 61q0 29 28 39q9 3 19 3q58 0 88 -76q19 -50 19 -119q0 -150 -99 -303q-13 -21 -27 -39 q-54 -74 -133 -119q-69 -39 -137 -39q-119 0 -165 91q-23 45 -23 103q0 140 165 360z" glyph-name="V.swash" horiz-adv-x="772" unicode=""/>
<glyph d="M604 252h4q78 157 80 244q-1 35 -22 36q-28 0 -46 -69q-1 -1 -1 -2q-17 -66 -17 -165q0 -32 2 -44zM425 603l-1 2q-54 -17 -114 -17q-105 0 -146 -13q-68 -23 -69 -69q0 -25 21 -33q8 -3 18 -5q40 -12 42 -56q0 -26 -28 -39q-12 -5 -26 -6q-37 0 -57 44q-14 30 -14 70 q0 76 66 130q69 57 178 57q14 0 202 9q10 -1 11 -13q-2 -9 -14 -24q-62 -73 -122 -197q-65 -134 -65 -220q0 -112 61 -135q13 -5 26 -5q82 1 145 86q-9 42 -9 125q0 87 40 181q17 40 39 71q38 49 76 53q55 -2 55 -89q0 -111 -111 -287q-5 -8 -10 -15q17 -90 76 -114 q18 -7 36 -7q75 0 134 92q6 11 12 21q52 96 52 234q0 69 -42 111q-8 8 -17 16q-35 31 -36 64q0 30 29 41q10 4 20 4q56 0 88 -69q25 -53 25 -127q0 -132 -60 -265q-18 -39 -38 -70q-97 -148 -204 -149q-113 2 -146 130q-96 -127 -204 -130q-83 0 -123 71q-25 44 -25 104v5 q0 164 203 404q13 14 26 29z" glyph-name="W.swash" horiz-adv-x="990" unicode=""/>
<glyph d="M206 -89q-84 0 -147 59q-68 65 -68 169q0 94 63 155q52 49 122 49q47 0 66 -37q5 -12 5 -23q0 -38 -36 -49q-9 -2 -17 -2q-15 0 -38 21q-3 2 -4 3q-19 17 -40 17q-29 -1 -54 -36q-26 -35 -26 -85q0 -96 94 -140q48 -23 98 -23q113 0 226 89q56 43 132 121q37 39 110 133 q-40 212 -43 222q-3 15 -6 25q-10 29 -30 30q-22 0 -53 -31q-7 -7 -11 -13q-10 -12 -18 -13q-11 2 -12 18q1 11 7 22q35 50 99 78q37 15 71 15q41 0 50 -36q1 -2 1 -3q4 -17 34 -215l2 1q40 62 112 138l19 19q74 72 123 94q38 17 73 17q76 0 92 -48q2 -7 2 -14 q0 -32 -31 -43q-9 -3 -19 -3q-27 1 -42 25q-10 17 -33 18q-54 -1 -136 -74q-72 -67 -140 -160q-8 -11 -13 -18q14 -86 46 -220q3 -12 5 -18q20 -71 38 -82q6 -3 12 -3q28 1 57 42q15 27 26 28q12 -3 14 -22q-1 -11 -5 -18q-40 -65 -104 -91q-33 -14 -67 -14q-42 0 -60 55 q-3 8 -5 16q-15 52 -39 200q-3 17 -5 30q-11 -14 -34 -43q-98 -126 -166 -191q-133 -127 -262 -139q-18 -2 -35 -2z" glyph-name="X.swash" horiz-adv-x="1036" unicode=""/>
<glyph d="M161 86l55 155q48 136 48 258q0 80 -48 104q-14 7 -29 7q-56 -1 -86 -57q-6 -11 -11 -9l-16 7q-2 4 2 16q31 80 99 107q28 11 58 11q86 0 118 -81q11 -30 12 -63v-16q0 -78 -30 -151q-4 -11 3 -13q10 1 15 9q48 102 129 193q34 38 64 61q87 59 166 61q63 0 91 -41 q11 -17 11 -36q0 -42 -36 -56q-9 -4 -17 -4q-33 0 -47 27q-4 8 -4 16v8q-2 22 -32 23q-63 0 -132 -55q-21 -17 -37 -36q-109 -123 -171 -273q-16 -38 -31 -81l-31 -88q-6 -17 -6 -27q2 -25 37 -25h43q7 -2 7 -8l-6 -24q-4 -7 -11 -8q-4 0 -18 1q-58 2 -127 2q-65 0 -117 -2 q-10 -1 -13 -1q-9 0 -7 9v2l5 21q3 7 10 8h20q49 0 66 40q2 5 4 9z" glyph-name="Y.swash" horiz-adv-x="554" unicode=""/>
<glyph d="M386 729l-6 10q-1 5 3 10l143 115q15 11 34 11q25 0 33 -27q2 -7 2 -13q-1 -27 -27 -39l-174 -68q-6 -2 -8 1zM161 86l55 155q48 136 48 258q0 80 -48 104q-14 7 -29 7q-56 -1 -86 -57q-6 -11 -11 -9l-16 7q-2 4 2 16q31 80 99 107q28 11 58 11q86 0 118 -81 q11 -30 12 -63v-16q0 -78 -30 -151q-4 -11 3 -13q10 1 15 9q48 102 129 193q34 38 64 61q87 59 166 61q63 0 91 -41q11 -17 11 -36q0 -42 -36 -56q-9 -4 -17 -4q-33 0 -47 27q-4 8 -4 16v8q-2 22 -32 23q-63 0 -132 -55q-21 -17 -37 -36q-109 -123 -171 -273 q-16 -38 -31 -81l-31 -88q-6 -17 -6 -27q2 -25 37 -25h43q7 -2 7 -8l-6 -24q-4 -7 -11 -8q-4 0 -18 1q-58 2 -127 2q-65 0 -117 -2q-10 -1 -13 -1q-9 0 -7 9v2l5 21q3 7 10 8h20q49 0 66 40q2 5 4 9z" glyph-name="Yacute.swash" horiz-adv-x="554" unicode=""/>
<glyph d="M604 796q0 -36 -32 -46q-8 -2 -16 -2q-53 5 -56 52q0 29 29 40q13 4 27 4q38 0 46 -33q2 -8 2 -15zM416 796q0 -36 -34 -46q-8 -2 -16 -2q-53 2 -54 52q0 28 28 39q12 5 26 5q37 0 47 -31q3 -8 3 -17zM161 86l55 155q48 136 48 258q0 80 -48 104q-14 7 -29 7 q-56 -1 -86 -57q-6 -11 -11 -9l-16 7q-2 4 2 16q31 80 99 107q28 11 58 11q86 0 118 -81q11 -30 12 -63v-16q0 -78 -30 -151q-4 -11 3 -13q10 1 15 9q48 102 129 193q34 38 64 61q87 59 166 61q63 0 91 -41q11 -17 11 -36q0 -42 -36 -56q-9 -4 -17 -4q-33 0 -47 27 q-4 8 -4 16v8q-2 22 -32 23q-63 0 -132 -55q-21 -17 -37 -36q-109 -123 -171 -273q-16 -38 -31 -81l-31 -88q-6 -17 -6 -27q2 -25 37 -25h43q7 -2 7 -8l-6 -24q-4 -7 -11 -8q-4 0 -18 1q-58 2 -127 2q-65 0 -117 -2q-10 -1 -13 -1q-9 0 -7 9v2l5 21q3 7 10 8h20q49 0 66 40 q2 5 4 9z" glyph-name="Ydieresis.swash" horiz-adv-x="554" unicode=""/>
<glyph d="M199 123l3 -4h19q116 -1 196 -98q18 -22 49 -60q64 -81 94 -103q36 -25 78 -26q39 0 46 38q0 3 1 10q1 4 1 5q9 55 50 62q5 1 9 1q38 0 45 -39q1 -6 1 -11q0 -48 -57 -79q-45 -25 -103 -25q-118 0 -209 65q-42 31 -137 122q-49 48 -69 60q-33 21 -67 21q-33 0 -52 -52 q-3 -10 -6 -21q-8 -31 -35 -43q-8 -3 -16 -3q-33 0 -40 32q-1 6 -1 11q0 46 70 95q26 18 49 27l377 387l-2 9q-22 -2 -32 -2q-69 1 -110 49q-30 36 -32 37q-32 30 -69 31q-38 0 -45 -29q-1 -5 -1 -9q2 -17 18 -21q28 -5 29 -41q0 -26 -26 -41q-14 -8 -29 -8q-38 0 -55 36 q-8 16 -8 35q0 48 43 84q45 38 119 38q83 0 153 -44q10 -6 20 -13q5 -3 14 -10q47 -35 78 -35q27 0 41 41q2 6 4 11q15 48 53 54q5 1 9 1q32 -2 33 -39q0 -35 -59 -74q-22 -15 -41 -22z" glyph-name="Z.swash" horiz-adv-x="591" unicode=""/>
<glyph d="M425 729l-6 10q-1 5 3 10l143 115q15 11 34 11q25 0 33 -27q2 -7 2 -13q-1 -27 -27 -39l-174 -68q-6 -2 -8 1zM199 123l3 -4h19q116 -1 196 -98q18 -22 49 -60q64 -81 94 -103q36 -25 78 -26q39 0 46 38q0 3 1 10q1 4 1 5q9 55 50 62q5 1 9 1q38 0 45 -39q1 -6 1 -11 q0 -48 -57 -79q-45 -25 -103 -25q-118 0 -209 65q-42 31 -137 122q-49 48 -69 60q-33 21 -67 21q-33 0 -52 -52q-3 -10 -6 -21q-8 -31 -35 -43q-8 -3 -16 -3q-33 0 -40 32q-1 6 -1 11q0 46 70 95q26 18 49 27l377 387l-2 9q-22 -2 -32 -2q-69 1 -110 49q-30 36 -32 37 q-32 30 -69 31q-38 0 -45 -29q-1 -5 -1 -9q2 -17 18 -21q28 -5 29 -41q0 -26 -26 -41q-14 -8 -29 -8q-38 0 -55 36q-8 16 -8 35q0 48 43 84q45 38 119 38q83 0 153 -44q10 -6 20 -13q5 -3 14 -10q47 -35 78 -35q27 0 41 41q2 6 4 11q15 48 53 54q5 1 9 1q32 -2 33 -39 q0 -35 -59 -74q-22 -15 -41 -22z" glyph-name="Zacute.swash" horiz-adv-x="591" unicode=""/>
<glyph d="M463 824l124 62q6 1 8 -2l7 -12q0 -3 -3 -6l-142 -136q-10 -5 -16 2l-76 136q-1 5 2 8l11 9q5 3 10 -2zM199 123l3 -4h19q116 -1 196 -98q18 -22 49 -60q64 -81 94 -103q36 -25 78 -26q39 0 46 38q0 3 1 10q1 4 1 5q9 55 50 62q5 1 9 1q38 0 45 -39q1 -6 1 -11 q0 -48 -57 -79q-45 -25 -103 -25q-118 0 -209 65q-42 31 -137 122q-49 48 -69 60q-33 21 -67 21q-33 0 -52 -52q-3 -10 -6 -21q-8 -31 -35 -43q-8 -3 -16 -3q-33 0 -40 32q-1 6 -1 11q0 46 70 95q26 18 49 27l377 387l-2 9q-22 -2 -32 -2q-69 1 -110 49q-30 36 -32 37 q-32 30 -69 31q-38 0 -45 -29q-1 -5 -1 -9q2 -17 18 -21q28 -5 29 -41q0 -26 -26 -41q-14 -8 -29 -8q-38 0 -55 36q-8 16 -8 35q0 48 43 84q45 38 119 38q83 0 153 -44q10 -6 20 -13q5 -3 14 -10q47 -35 78 -35q27 0 41 41q2 6 4 11q15 48 53 54q5 1 9 1q32 -2 33 -39 q0 -35 -59 -74q-22 -15 -41 -22z" glyph-name="Zcaron.swash" horiz-adv-x="591" unicode=""/>
<glyph d="M466 738q-50 0 -57 40q-1 6 -1 12q0 41 37 51q10 3 21 3q43 0 52 -38q2 -8 2 -16q0 -38 -35 -49q-10 -3 -19 -3zM199 123l3 -4h19q116 -1 196 -98q18 -22 49 -60q64 -81 94 -103q36 -25 78 -26q39 0 46 38q0 3 1 10q1 4 1 5q9 55 50 62q5 1 9 1q38 0 45 -39q1 -6 1 -11 q0 -48 -57 -79q-45 -25 -103 -25q-118 0 -209 65q-42 31 -137 122q-49 48 -69 60q-33 21 -67 21q-33 0 -52 -52q-3 -10 -6 -21q-8 -31 -35 -43q-8 -3 -16 -3q-33 0 -40 32q-1 6 -1 11q0 46 70 95q26 18 49 27l377 387l-2 9q-22 -2 -32 -2q-69 1 -110 49q-30 36 -32 37 q-32 30 -69 31q-38 0 -45 -29q-1 -5 -1 -9q2 -17 18 -21q28 -5 29 -41q0 -26 -26 -41q-14 -8 -29 -8q-38 0 -55 36q-8 16 -8 35q0 48 43 84q45 38 119 38q83 0 153 -44q10 -6 20 -13q5 -3 14 -10q47 -35 78 -35q27 0 41 41q2 6 4 11q15 48 53 54q5 1 9 1q32 -2 33 -39 q0 -35 -59 -74q-22 -15 -41 -22z" glyph-name="Zdotaccent.swash" horiz-adv-x="591" unicode=""/>
<glyph d="M666 350h-103l-87 -219q-1 -4 -5 -16q-7 -20 -7 -24q-3 -11 -3 -18q1 -17 15 -18q26 0 76 40q9 8 15 14q6 5 10 1l11 -13q3 -4 -1 -10q-35 -42 -98 -72q-50 -25 -94 -25q-30 0 -39 22q-2 5 -2 8q1 29 13 59l105 271h-72q-8 2 -6 10l7 27q5 6 9 7h78l88 215l-4 5 q-53 -35 -100 -35q-27 0 -64 6q-47 7 -83 7q-71 0 -94 -58q-8 -20 -8 -42q0 -40 26 -80q11 3 21 3q8 1 24 1q25 0 45 -23q11 -13 11 -27q0 -32 -27 -49q-10 -6 -19 -6q-26 1 -34 26q-12 27 -33 28q-32 -2 -58 -58q-42 -103 -43 -194q3 -62 43 -64q41 0 90 53q3 4 6 7 q5 5 8 3l13 -10q4 -5 0 -10q-56 -79 -131 -97q-18 -5 -36 -5q-48 0 -76 43q-17 28 -17 63q0 100 63 198q53 81 120 108q-46 54 -47 114q0 59 46 98q42 35 106 35q36 0 97 -16q49 -13 90 -13q46 1 114 54q11 8 17 9q14 0 31 -17q4 -4 5 -6q2 -6 2 -10q0 -11 -7 -24l-95 -232 h104q7 -2 5 -9l-8 -26q-5 -8 -13 -9z" glyph-name="c_t" horiz-adv-x="645" unicode=""/>
<glyph d="M193 263l-31 -71q73 2 142 55q52 41 53 75q-1 38 -31 39q-32 -1 -93 -51q-30 -28 -40 -47zM222 339l5 -3q76 77 151 80q68 -6 70 -68q0 -84 -189 -162q-3 -2 -9 -4q18 -98 85 -250q21 -48 36 -73q40 -66 73 -67q20 0 26 23q1 6 1 11q0 8 -1 11q-3 20 15 21q21 -4 24 -23 q0 -64 -62 -82q-17 -5 -35 -5q-78 1 -134 102q-50 91 -105 313l-24 -3l-57 -148q-5 -11 -15 -12h-65q-11 0 -9 13q1 2 1 3l231 564q8 19 8 34q-3 26 -27 29h-22q-11 1 -10 7l8 20q5 8 12 8h146q16 -2 17 -14q0 -4 -4 -15z" glyph-name="k.alt" horiz-adv-x="441" unicode=""/>
<glyph d="M432 275l8 -5q97 145 189 146q66 0 78 -66q2 -12 2 -24q0 -108 -66 -225q-75 -132 -165 -133q-40 0 -54 33q-4 10 -4 22q0 33 24 46q8 4 16 4q28 0 37 -28q1 -3 1 -6q3 -28 18 -29q25 1 62 117q37 109 37 181q-2 42 -30 43q-46 0 -136 -108q-5 -6 -9 -11 q-36 -48 -58 -102l-50 -123q-4 -7 -16 -7h-63q-9 0 -10 6q1 2 1 3l212 551q8 19 8 36q0 16 -5 24q-13 20 -53 26q-9 1 -18 1q-83 0 -127 -121q-10 -27 -39 -142q-58 -249 -120 -412q-104 -267 -251 -269q-55 0 -74 38q-5 11 -5 24q0 34 29 47q9 3 18 3q34 0 47 -39l2 -10 q4 -20 19 -21q75 0 147 271q1 1 1 2q11 41 32 130q38 157 61 236q47 158 110 227q72 71 167 74q85 0 152 -31q17 -9 18 -22q0 -4 -1 -6q0 -6 -10 -25z" glyph-name="longs_h" horiz-adv-x="721" unicode=""/>
<glyph d="M483 115l10 -10q3 -7 1 -11q-19 -30 -61 -61q-59 -43 -122 -43q-28 2 -29 28q0 18 54 169l5 15l28 72q15 39 15 57q-2 12 -13 13q-19 0 -74 -65q-1 -2 -2 -3q-6 -5 -11 -1l-9 9q-4 6 -3 9q103 122 182 123q34 -2 35 -31q0 -20 -31 -104l-56 -153q-17 -48 -17 -63 q2 -14 12 -16q20 2 66 53q8 9 10 13q4 4 10 0zM-135 -297q-56 0 -74 37q-6 11 -6 24q0 34 29 46q8 4 17 4q35 0 48 -40q1 -4 2 -7q5 -20 20 -21q56 0 109 155q17 49 32 109q11 46 33 146q32 147 51 220q41 155 105 230q56 66 140 77q14 2 27 2q84 0 108 -47q6 -11 6 -22 q0 -31 -28 -45q-12 -6 -24 -6q-40 0 -52 41q-2 6 -3 12q-4 27 -36 28q-75 0 -116 -137q-8 -27 -32 -129q-61 -270 -108 -404q-95 -272 -248 -273z" glyph-name="longs_i" horiz-adv-x="519" unicode=""/>
<glyph d="M287 126l157 431q7 20 7 35q0 14 -6 27q-10 21 -49 26q-7 1 -13 1q-78 0 -120 -104q-14 -36 -45 -158q-65 -276 -110 -402q-2 -6 -4 -10q-99 -268 -253 -269q-55 0 -74 37q-5 11 -5 23q0 34 28 47q9 3 17 3q33 0 46 -39q1 -5 2 -8q5 -20 22 -21q71 0 136 231q6 21 11 42 q13 49 38 156q32 140 51 209q42 152 111 228q69 73 169 74q91 0 146 -32q13 -7 13 -22q0 -9 -2 -13l-188 -505q-11 -33 -11 -44q2 -13 11 -14q24 0 70 47l3 3q6 3 9 0l11 -12q2 -6 0 -11q-12 -17 -54 -46q-66 -46 -122 -46q-22 0 -31 22q-3 7 -3 14q0 9 31 96q1 3 1 4z" glyph-name="longs_l" horiz-adv-x="492" unicode=""/>
<glyph d="M112 373q25 133 97 223q43 53 108 72q23 7 42 7q93 -1 118 -54q52 53 126 63q11 1 21 1q84 0 107 -48q5 -11 5 -21q0 -31 -28 -46q-11 -5 -23 -5q-40 0 -51 43q-1 6 -2 10q-9 25 -34 28q-70 0 -109 -133q-6 -21 -31 -133q-67 -295 -99 -401q-76 -244 -204 -272 q-17 -4 -33 -4q-56 0 -74 37q-6 11 -6 24q0 34 29 46q8 4 17 4q35 0 48 -40q1 -4 2 -7q5 -20 20 -21q34 0 72 84q32 72 53 179q6 30 18 93q36 183 61 274q36 128 76 194l-3 3h-5q-32 1 -50 36q-6 26 -37 27q-80 0 -118 -168q-5 -26 -16 -88q-45 -267 -91 -403 q-95 -273 -246 -274q-56 0 -74 37q-6 11 -6 24q0 34 29 46q8 4 17 4q35 0 48 -40q1 -4 2 -7q5 -20 19 -21q66 0 122 204q8 29 15 60q8 36 55 296q7 37 13 67z" glyph-name="longs_longs" horiz-adv-x="479" unicode=""/>
<glyph d="M163 -104q0 42 -37 61q-16 8 -32 8q-43 0 -62 -37q-8 -16 -8 -32q0 -43 38 -62q15 -8 32 -8q41 0 61 36q8 17 8 34zM187 -104q0 -52 -44 -80q-23 -14 -49 -14q-52 0 -80 44q-14 24 -14 50q0 51 44 79q24 14 50 14q51 0 79 -44q14 -23 14 -49zM164 693q0 41 -36 61 q-17 9 -34 9q-42 0 -62 -37q-8 -16 -8 -33q0 -43 38 -62q15 -8 32 -8q43 0 62 38q8 15 8 32zM188 693q0 -52 -44 -80q-24 -14 -50 -14q-52 0 -80 44q-14 24 -14 50q0 52 44 79q24 14 50 14q52 0 80 -44q14 -23 14 -49zM164 493q0 43 -38 62q-15 8 -32 8q-43 0 -62 -38 q-8 -15 -8 -32q0 -41 36 -61q17 -8 34 -8q43 0 62 37q8 16 8 32zM188 493q0 -51 -44 -79q-24 -14 -50 -14q-52 0 -80 44q-14 23 -14 49q0 52 44 80q24 14 50 14q52 0 80 -44q14 -24 14 -50zM164 294q0 43 -38 62q-15 8 -32 8q-43 0 -62 -38q-8 -15 -8 -32q0 -43 38 -62 q15 -8 32 -8q43 0 62 38q8 15 8 32zM188 294q0 -52 -44 -80q-24 -14 -50 -14q-52 0 -80 44q-14 24 -14 50q0 52 44 80q24 14 50 14q52 0 80 -44q14 -24 14 -50zM164 94q0 43 -38 62q-15 8 -32 8q-43 0 -62 -38q-8 -15 -8 -32q0 -41 36 -61q17 -8 34 -8q43 0 62 37q8 16 8 32 zM188 94q0 -51 -44 -79q-24 -14 -50 -14q-52 0 -80 44q-14 23 -14 49q0 52 44 80q24 14 50 14q52 0 80 -44q14 -24 14 -50z" glyph-name="orn.001" horiz-adv-x="188" unicode=""/>
<glyph d="M690 552q16 -16 27 -40q2 -5 2 -7q0 -9 -56 -48q-16 -11 -19 -12q-8 0 -34 38q-8 13 -9 17q0 8 46 40q24 16 31 17q7 -1 12 -5zM520 561q33 -37 34 -48q0 -12 -28 -37q-19 -16 -30 -17q-14 0 -36 34q-7 13 -8 19q0 12 35 42q15 12 21 13q6 0 12 -6zM613 633q13 -8 33 -32 q7 -10 8 -14q0 -3 -3.5 -7.5t-9 -9.5t-12 -10t-13 -9t-12 -7.5t-9.5 -5.5l-4 -2q-11 0 -36 29q-12 15 -13 22q0 10 36 37q16 12 22 13q8 -1 13 -4zM431 648q46 -46 46 -50q0 -8 -41 -45q-13 -11 -16 -12q-10 0 -40 32q-12 14 -13 19q0 8 30 41q17 18 25 19q6 -1 9 -4z M348 559q2 -2 10 -9q33 -28 34 -35q0 -10 -25 -42q-18 -21 -28 -22q-8 0 -33 22q-19 17 -20 28q0 20 27 48q14 13 23 14q8 -1 12 -4zM436 473q34 -34 35 -47q0 -8 -22 -41q-14 -20 -21 -21q-14 0 -42 38q-9 13 -10 17q0 14 28 45q13 14 20 15q6 0 12 -6zM586 467 q28 -37 29 -43q0 -8 -40 -45q-16 -14 -20 -15q-13 0 -33 41q-4 9 -4 12q0 18 43 50q9 7 12 8q7 -1 13 -8zM105 686q-48 -113 -48 -195q0 -122 45 -204q20 -37 49 -70q62 -71 128 -101q12 -6 17 -6q6 2 7 7q-2 10 -18 21q-170 110 -198 293q-5 31 -5 64q0 18 2 49q1 7 5 24.5 t9.5 37.5t11 39.5t8.5 32.5l4 13q-1 6 -5 7q-7 -2 -12 -12zM895 679q-18 31 -25 32q-1 -2 -2 -3q1 -10 8 -26q27 -56 30 -156q0 -137 -55 -233q-17 -27 -36 -48q-3 -3 -111 -95q-28 -24 -29 -27q2 -3 7 -4q21 0 96 53q34 25 55 45q103 99 103 286q0 93 -39 171q-1 3 -2 5z M760 440q2 -3 4 -3q6 1 7 10q0 2 -5 16q-5 15 -5 18q0 2 6 10q7 9 8 12q-2 12 -11 15q-1 0 -8 -2q-6 -2 -7 -2q-2 0 -4 1.5t-4.5 3.5t-5 5.5l-5 7t-5 7.5t-4.5 7.5t-3.5 7t-3 6t-2.5 4.5v2q1 8 10 19q1 1 6 4q18 14 19 19q-3 10 -13 14q-1 0 -11 -5q-28 -13 -34 -13 q-7 0 -35 34q-15 20 -16 27q0 1 5 7q5 8 6 10q-1 7 -9 9q-2 0 -15 -8q-20 -11 -24 -12q-2 0 -9 7q-9 8 -12 9q-7 -1 -8 -10q0 -1 2 -7q3 -5 3 -6q0 -12 -57 -40q-9 -5 -11 -5q-8 0 -47 37q-15 16 -16 20q0 1 4 5q5 6 6 8q-1 4 -7 5q-2 0 -11 -4q-11 -5 -14 -5q-2 0 -12 7 q-9 7 -11 8q-6 -1 -8 -7q0 -1 3 -5q2 -4 2 -5q0 -10 -44 -49q-20 -17 -25 -18q-2 0 -17 8q-23 12 -27 12q-8 -2 -9 -8q0 -2 20 -24q8 -10 9 -14q0 -7 -32 -54q-18 -26 -24 -27q-1 0 -9 3q-7 3 -9 3q-6 -2 -7 -7q0 -10 53 -45q51 -34 52 -45q0 -3 -9 -18q-8 -16 -8 -19 q2 -10 11 -11q2 0 15 10q14 11 17 12q8 0 43 -43q30 -36 39 -37q3 0 31 45q22 36 31 37q6 0 30 -41q16 -28 23 -29q7 0 46 39q26 25 34 26q2 0 26 -20q8 -6 11 -7q10 1 11 12q0 3 -10 18q-10 16 -11 20q0 13 52 45q21 12 27 13q9 -1 22 -30zM994 552v-7q0 -14 -15 -46 q-6 -14 -6 -22q0 -6 6 -24q8 -24 8 -35q0 -4 -8 -21q-7 -15 -7 -18q0 -9 13 -34q4 -8 4 -12q0 -10 -26 -22q-22 -12 -25 -20v-4q0 -4 10 -40q4 -13 4 -21q-2 -24 -22 -25q-4 0 -12 1q-9 2 -13 2q-21 -5 -22 -38q0 -43 -22 -48q-5 -1 -9 -1q-25 -1 -35 -7q-8 -6 -15 -27 q-5 -12 -12 -17q-32 -17 -98 -17q-15 0 -85 12l-70 12q-2 -1 -3 -2q0 -18 28 -40q25 -19 56 -22q8 -1 9 -5q-2 -6 -13 -7q-9 0 -56 2q-45 1 -53 1q-12 0 -80 -2q-63 -1 -74 -1q-7 1 -8 6q2 5 9 6q44 0 76 31q14 16 15 29q-1 1 -2 1q-3 0 -76 -17q-15 -4 -20 -4q-11 0 -51 14 q-14 5 -22 5q-5 0 -33 -4q-28 -5 -33 -5q-10 1 -15 4q-12 8 -27 43q-13 29 -27 41q-11 9 -45 13q-20 3 -28 12q-10 12 -10 31q0 26 -5 34q-2 3 -25 29q-13 16 -14 26q0 8 14 34q7 15 7 26q0 2 -19 44q-4 9 -4 12v1q0 8 11 20q10 13 11 32q0 8 -15 21q-14 14 -15 29 q0 3 23 56q6 14 6 18q0 2 -9 34q-3 9 -3 15q0 2 1 4v4q3 8 28 23q13 8 18 14q4 7 4 14q0 6 -3 19q-4 14 -4 20q0 4 1 6q1 8 21 10q14 1 21 5q6 4 13 20q5 11 14 13h2q2 0 14 -6q9 -4 11 -4q4 0 12 2q6 1 9 1q13 -2 16 -15q0 -2 -18 -27q-4 -7 -5 -9q0 -4 2 -12q3 -9 3 -13 q0 -5 -26 -48q-9 -15 -9 -20q0 -8 4 -26q4 -17 4 -24q0 -5 -1 -7t-24 -29q-7 -9 -8 -12q0 -3 22 -28q7 -10 8 -13q0 -8 -15 -36q-7 -13 -7 -21q0 -4 28 -34q5 -5 6 -7q4 -7 4 -16q0 -31 6 -39q2 -3 3 -4q10 -11 37 -20q17 -6 26 -17q5 -7 5 -14q0 -2 -7 -25q-2 -6 -2 -9 q1 -24 48 -24q60 0 69 -9q6 -7 6 -19q0 -5 -2 -15t-2 -14q0 -23 28 -45q24 -18 52 -18q31 0 36 11t5 57q-3 99 -30 106q-77 0 -160 74q-71 63 -81 120q-1 7 -1 13q0 74 26 118q11 18 25 34q7 7 55 38q16 10 23 17q8 8 8 18q0 8 -42 118l-42 111q10 9 22 9q21 0 24 -7 q1 -4 2 -9q7 -55 41 -156q22 -64 33 -65q8 1 8 12q0 10 -5.5 35.5t-13 55.5l-14.5 58t-13 47l-5 19q0 8 9 9q5 1 18 1q15 0 16 -6q1 -3 1 -7q0 -71 20 -169q11 -53 20 -54q16 1 17 30q0 23 -25 165q-1 9 -2 13t-1.5 8.5t-1.5 7.5v2q0 9 7 10h16q22 0 24 -6q1 -5 1 -11 q0 -182 11 -214q5 -9 12 -10q10 0 12 14q2 13 2 70l-7 147q0 9 8 10h16q29 -3 30 -10q0 -4 -8 -63q-16 -129 -16 -151q0 -27 7 -30q4 -1 7 -1q18 0 41 241q0 12 12 13q7 1 18 1q26 -3 27 -7q0 -6 -1 -9q-29 -84 -46 -188q-4 -25 -4 -36q1 -7 14 -8q12 0 16 12q2 7 7 32 q20 108 43 176q10 26 15 27h6q12 1 18 1q30 -3 31 -8q0 -3 -2 -7q-42 -70 -65 -147q-10 -32 -10 -51q1 -24 17 -33q134 -81 137 -197q0 -73 -57 -137q-69 -76 -184 -87q-33 -3 -41 -123q-1 -9 -1 -13q0 -32 6 -35q5 -2 16 -2q94 0 117 49q5 12 5 24q0 7 -3 20q-2 12 -2 17 q4 18 21 21q7 0 22 -5q11 -3 15 -3q7 0 30 47q4 9 6 11q7 8 40 12q20 3 27 11q4 6 4 11t-3 13q-5 12 -5 19q0 6 3 15q6 14 28 24q16 9 21 19q3 8 3 14q0 5 -6 28q-6 21 -6 25q0 12 13 44q4 11 4 19q0 3 -21 50q-5 10 -5 14q0 3 4 20q4 14 4 17q-1 28 -17 41q-34 28 -47 57 q-3 8 -3 14q4 20 28 24q1 0 32 -18q7 -4 9 -4q5 0 16 5q13 5 18 5q13 0 17 -16q1 -4 1 -7t-1 -9v-8q0 -9 2 -13q2 -6 14 -14q10 -8 15 -19q7 -14 7 -31q0 -24 2 -31q3 -11 28 -39q18 -20 20 -35z" glyph-name="orn.002" horiz-adv-x="994" unicode=""/>
<glyph d="M342 299q-41 -42 -41 -79q1 -24 9 -25q6 1 12 10q11 17 37 32q5 3 43 13q9 2 14 5q26 16 37 52q5 15 5 28q-1 42 -9 43q-6 0 -69 -48q-26 -20 -38 -31zM615 300q-30 31 -88 64q-21 12 -29 12q-6 -1 -7 -8q0 -39 17 -76q14 -27 33 -33q72 -20 95 -61l1 -2q4 -8 8 -9 q9 5 13 33q-2 36 -43 80zM134 311q19 0 29 23q3 9 3 18q0 28 -24 36q-5 1 -9 1q-21 0 -31 -20q-4 -9 -4 -17q0 -27 24 -38q7 -3 12 -3zM833 625q27 0 32 28q1 6 1 10q0 26 -21 41q-7 4 -12 4q-14 0 -26 -22q-7 -12 -7 -23q5 -34 33 -38zM828 329q21 0 29 25q3 8 3 16 q0 28 -23 36q-5 1 -9 1q-22 0 -32 -22q-3 -8 -3 -15q0 -28 24 -39q6 -2 11 -2zM136 611q23 0 31 26q2 7 2 15q0 24 -21 39q-7 5 -12 5q-16 0 -28 -23q-6 -11 -6 -21q0 -32 25 -40q5 -1 9 -1zM485 702q107 0 165 70q25 32 26 58q0 27 -22 47q-10 8 -18 8q-12 0 -54 -27 q-18 -12 -28 -16q-35 -15 -69 -15q-33 0 -67 14q-9 4 -28 13q-33 17 -46 17q-24 0 -39 -32q-7 -14 -7 -25q0 -34 50 -69q61 -43 137 -43zM90 47q75 -12 381 -12q259 0 394 9l27 3q17 4 18 14q-2 10 -18 13q-52 8 -554 8q-266 0 -267 -22q2 -10 19 -13zM770 157q29 32 29 71 q-1 25 -12 44q-6 10 -18 25q-25 32 -27 62q-1 7 -1 13q0 53 38 78q6 3 11 5q14 5 15 10q0 5 -12 8h-2q-36 7 -47 30q-3 6 -3 11q0 22 33 36q12 4 22 5q19 2 20 7q-2 4 -7 9q-40 30 -51 52q-8 17 -8 37q1 42 30 73q27 28 27 67q0 45 -39 74q-19 13 -36 13q-12 0 -12 -12 q0 -3 3 -20q2 -14 2 -17q-1 -90 -109 -199q-6 -6 -39 -35q-58 -50 -59 -54q0 -1 43 -25q34 -19 35 -27q0 -9 -51 -37q-36 -21 -37 -28q1 -7 96 -79q106 -78 107 -158q-1 -42 -18 -60q-6 -7 -7 -13q2 -8 15 -9q26 0 66 39q2 3 3 4zM80 952q-18 -4 -19 -14q1 -23 287 -23 q498 0 554 9q17 4 18 14q-2 11 -18 14q-70 11 -448 11q-309 0 -374 -11zM179 733q31 -36 38 -55q5 -16 5 -32q0 -46 -43 -75q-6 -4 -10 -6q-9 -6 -10 -13q1 -8 8 -12q3 -1 10 -5q41 -19 42 -36q0 -25 -52 -38q-3 -1 -5 -1q-8 -2 -9 -9q1 -8 10 -15q46 -31 47 -84 q0 -42 -37 -86q-8 -9 -11 -13q-9 -14 -9 -37q0 -58 53 -92q22 -15 40 -15q5 2 6 7q0 4 -5 27q-5 25 -5 30q0 65 60 130q22 24 52 50q70 63 78 75q4 5 4 8q0 6 -43 32q-31 20 -32 28q1 11 12 18q8 5 26 13q20 9 29 14q8 7 9 14q-2 9 -11 15q-78 51 -130 127q-44 65 -44 121 q0 3 6 22q6 20 6 24q-2 5 -7 6q-30 0 -66 -32q-27 -26 -28 -51q1 -36 16 -54zM104 461q-48 17 -50 40q1 21 54 38q8 4 9 12q-2 9 -11 13q-22 8 -41 39q-14 23 -14 46q0 34 33 68q14 15 17 18q14 18 14 47q0 69 -66 97q-9 4 -17 6q-24 6 -28 18q-3 10 -3 44q0 42 18 47 q4 1 7 1q30 0 209 3q194 4 230 4q35 0 237 -3q218 -4 258 -4q12 0 16 -15q4 -17 4 -53q0 -31 -11 -37q-6 -3 -18 -4q-37 -5 -66 -38q-23 -26 -23 -56q1 -30 15 -52q35 -52 36 -79q0 -49 -48 -88l-2 -2q-6 -6 -6 -10q0 -6 6 -8h2q53 -13 54 -38q0 -27 -39 -42q-7 -3 -14 -4 q-8 -3 -9 -6q0 -3 9 -8q1 -1 2 -1q42 -23 43 -81q0 -40 -33 -80q-14 -17 -18 -22q-9 -13 -9 -43q0 -88 75 -105q13 -3 25 -3q23 0 27 -21q2 -12 2 -47q0 -30 -14 -37q-12 -6 -38 -10q-36 -5 -600 -5q-55 0 -237 4q-47 1 -51 1q-36 0 -39 38q-1 7 -1 18q1 59 27 67 q74 20 84 80q1 9 1 17q-1 20 -9 30q-4 5 -13 14q-37 39 -40 71q-1 6 -1 11q0 44 38 76q7 6 12 9q13 7 14 16q0 6 -9 9z" glyph-name="orn.003" horiz-adv-x="980" unicode=""/>
<glyph d="M330 406q5 0 8 3q38 55 94 56q29 0 64 -24q2 -2 10 -11q19 -23 25 -24q25 0 46 29q10 15 10 26q0 41 -81 61q-38 9 -75 9q-81 0 -128 -30q-26 -18 -27 -40q0 -21 28 -43q14 -10 26 -12zM415 719q-15 105 -84 153q-38 25 -80 25q-31 0 -66 -16q-11 -5 -12 -9 q0 -56 41 -100q55 -58 165 -58q34 0 36 5zM415 690l-29 -2q-154 0 -211 92q-11 19 -18 39q0 1 -1 4t-2 6.5t-2 7.5l-2 8t-2 7t-2 5l-1 2q-15 0 -55 -65q-12 -21 -18 -34q-3 -7 -5 -22q-4 -27 -17 -30q-4 -1 -7 -1q-27 0 -39 20q-4 8 -4 17q0 42 56 98q74 76 159 82h11 q137 0 192 -125q14 -30 19 -61l5 -19q25 0 84 22q106 41 107 99q0 27 -18 37q-4 2 -7 2q-2 0 -5.5 -2.5t-8 -6.5t-8 -7.5l-8.5 -8.5l-4 -4q-17 -7 -26 -7q-35 7 -40 55q0 37 31 56q18 11 42 11q51 0 74 -53q11 -25 11 -53q-2 -109 -184 -159q-1 0 -3 -0.5t-4.5 -1l-5 -1 t-5.5 -1l-6 -1t-5.5 -1t-4.5 -0.5t-3 -1l-1 -1q1 -30 8 -40q128 -11 174 -88q18 -31 18 -67q-3 -95 -99 -114q-2 -1 -3 -2l1 -2q21 -43 21 -116q0 -168 -74 -204q-16 -8 -46 -14l-2 -2l1 -6q3 -8 3 -10q-1 -26 -15 -27q-13 2 -14 27q0 1 2 9l2 8l-1 1q-69 7 -96 60 q-25 52 -25 158q0 74 20 114q1 2 1 3q-1 2 -2 3q-98 19 -99 113q0 74 67 118q49 32 124 37q6 2 6 37z" glyph-name="orn.004" horiz-adv-x="666" unicode=""/>
<glyph d="M890 363q-42 0 -61 -37q-8 -16 -8 -32q0 -43 37 -62q16 -8 32 -8q43 0 62 38q8 15 8 32q0 41 -36 61q-17 8 -34 8zM890 387q52 0 80 -44q14 -23 14 -49q0 -52 -44 -80q-24 -14 -50 -14q-51 0 -79 44q-14 24 -14 50q0 51 44 79q23 14 49 14zM93 364q-41 0 -61 -36 q-9 -17 -9 -34q0 -42 37 -62q16 -8 33 -8q43 0 62 38q8 15 8 32q0 43 -38 62q-15 8 -32 8zM93 388q52 0 80 -44q14 -24 14 -50q0 -52 -44 -80q-24 -14 -50 -14q-52 0 -79 44q-14 24 -14 50q0 52 44 80q23 14 49 14zM293 364q-43 0 -62 -38q-8 -15 -8 -32q0 -43 38 -62 q15 -8 32 -8q41 0 61 36q8 17 8 34q0 43 -37 62q-16 8 -32 8zM293 388q51 0 79 -44q14 -24 14 -50q0 -52 -44 -80q-23 -14 -49 -14q-52 0 -80 44q-14 24 -14 50q0 52 44 80q24 14 50 14zM492 364q-43 0 -62 -38q-8 -15 -8 -32q0 -43 38 -62q15 -8 32 -8q43 0 62 38 q8 15 8 32q0 43 -38 62q-15 8 -32 8zM492 388q52 0 80 -44q14 -24 14 -50q0 -52 -44 -80q-24 -14 -50 -14q-52 0 -80 44q-14 24 -14 50q0 52 44 80q24 14 50 14zM692 364q-43 0 -62 -38q-8 -15 -8 -32q0 -43 38 -62q15 -8 32 -8q41 0 61 36q8 17 8 34q0 43 -37 62 q-16 8 -32 8zM692 388q51 0 79 -44q14 -24 14 -50q0 -52 -44 -80q-23 -14 -49 -14q-52 0 -80 44q-14 24 -14 50q0 52 44 80q24 14 50 14z" glyph-name="orn.005" horiz-adv-x="984" unicode=""/>
</font>
</defs>
</svg>
